G04 #@! TF.GenerationSoftware,KiCad,Pcbnew,(5.1.4)-1*
G04 #@! TF.CreationDate,2020-04-14T09:58:39-07:00*
G04 #@! TF.ProjectId,power,706f7765-722e-46b6-9963-61645f706362,rev?*
G04 #@! TF.SameCoordinates,Original*
G04 #@! TF.FileFunction,Soldermask,Top*
G04 #@! TF.FilePolarity,Negative*
%FSLAX46Y46*%
G04 Gerber Fmt 4.6, Leading zero omitted, Abs format (unit mm)*
G04 Created by KiCad (PCBNEW (5.1.4)-1) date 2020-04-14 09:58:39*
%MOMM*%
%LPD*%
G04 APERTURE LIST*
%ADD10C,0.100000*%
G04 APERTURE END LIST*
D10*
G36*
X160654239Y-117461467D02*
G01*
X160968282Y-117523934D01*
X161559926Y-117769001D01*
X162092392Y-118124784D01*
X162545216Y-118577608D01*
X162900999Y-119110074D01*
X163146066Y-119701718D01*
X163152006Y-119731579D01*
X163211772Y-120032042D01*
X163271000Y-120329804D01*
X163271000Y-120970196D01*
X163146066Y-121598282D01*
X162900999Y-122189926D01*
X162545216Y-122722392D01*
X162092392Y-123175216D01*
X161559926Y-123530999D01*
X160968282Y-123776066D01*
X160654239Y-123838533D01*
X160340197Y-123901000D01*
X159699803Y-123901000D01*
X159385761Y-123838533D01*
X159071718Y-123776066D01*
X158480074Y-123530999D01*
X157947608Y-123175216D01*
X157494784Y-122722392D01*
X157139001Y-122189926D01*
X156893934Y-121598282D01*
X156769000Y-120970196D01*
X156769000Y-120329804D01*
X156828229Y-120032042D01*
X156887994Y-119731579D01*
X156893934Y-119701718D01*
X157139001Y-119110074D01*
X157494784Y-118577608D01*
X157947608Y-118124784D01*
X158480074Y-117769001D01*
X159071718Y-117523934D01*
X159385761Y-117461467D01*
X159699803Y-117399000D01*
X160340197Y-117399000D01*
X160654239Y-117461467D01*
X160654239Y-117461467D01*
G37*
G36*
X31114239Y-117461467D02*
G01*
X31428282Y-117523934D01*
X32019926Y-117769001D01*
X32552392Y-118124784D01*
X33005216Y-118577608D01*
X33360999Y-119110074D01*
X33606066Y-119701718D01*
X33612006Y-119731579D01*
X33671772Y-120032042D01*
X33731000Y-120329804D01*
X33731000Y-120970196D01*
X33606066Y-121598282D01*
X33360999Y-122189926D01*
X33005216Y-122722392D01*
X32552392Y-123175216D01*
X32019926Y-123530999D01*
X31428282Y-123776066D01*
X31114239Y-123838533D01*
X30800197Y-123901000D01*
X30159803Y-123901000D01*
X29845761Y-123838533D01*
X29531718Y-123776066D01*
X28940074Y-123530999D01*
X28407608Y-123175216D01*
X27954784Y-122722392D01*
X27599001Y-122189926D01*
X27353934Y-121598282D01*
X27229000Y-120970196D01*
X27229000Y-120329804D01*
X27288229Y-120032042D01*
X27347994Y-119731579D01*
X27353934Y-119701718D01*
X27599001Y-119110074D01*
X27954784Y-118577608D01*
X28407608Y-118124784D01*
X28940074Y-117769001D01*
X29531718Y-117523934D01*
X29845761Y-117461467D01*
X30159803Y-117399000D01*
X30800197Y-117399000D01*
X31114239Y-117461467D01*
X31114239Y-117461467D01*
G37*
G36*
X151375256Y-117641298D02*
G01*
X151481579Y-117662447D01*
X151782042Y-117786903D01*
X152052451Y-117967585D01*
X152282415Y-118197549D01*
X152463097Y-118467958D01*
X152587553Y-118768421D01*
X152651000Y-119087391D01*
X152651000Y-119412609D01*
X152587553Y-119731579D01*
X152463097Y-120032042D01*
X152282415Y-120302451D01*
X152052451Y-120532415D01*
X151782042Y-120713097D01*
X151481579Y-120837553D01*
X151375256Y-120858702D01*
X151162611Y-120901000D01*
X150837389Y-120901000D01*
X150624744Y-120858702D01*
X150518421Y-120837553D01*
X150217958Y-120713097D01*
X149947549Y-120532415D01*
X149717585Y-120302451D01*
X149536903Y-120032042D01*
X149412447Y-119731579D01*
X149349000Y-119412609D01*
X149349000Y-119087391D01*
X149412447Y-118768421D01*
X149536903Y-118467958D01*
X149717585Y-118197549D01*
X149947549Y-117967585D01*
X150217958Y-117786903D01*
X150518421Y-117662447D01*
X150624744Y-117641298D01*
X150837389Y-117599000D01*
X151162611Y-117599000D01*
X151375256Y-117641298D01*
X151375256Y-117641298D01*
G37*
G36*
X39875256Y-117641298D02*
G01*
X39981579Y-117662447D01*
X40282042Y-117786903D01*
X40552451Y-117967585D01*
X40782415Y-118197549D01*
X40963097Y-118467958D01*
X41087553Y-118768421D01*
X41151000Y-119087391D01*
X41151000Y-119412609D01*
X41087553Y-119731579D01*
X40963097Y-120032042D01*
X40782415Y-120302451D01*
X40552451Y-120532415D01*
X40282042Y-120713097D01*
X39981579Y-120837553D01*
X39875256Y-120858702D01*
X39662611Y-120901000D01*
X39337389Y-120901000D01*
X39124744Y-120858702D01*
X39018421Y-120837553D01*
X38717958Y-120713097D01*
X38447549Y-120532415D01*
X38217585Y-120302451D01*
X38036903Y-120032042D01*
X37912447Y-119731579D01*
X37849000Y-119412609D01*
X37849000Y-119087391D01*
X37912447Y-118768421D01*
X38036903Y-118467958D01*
X38217585Y-118197549D01*
X38447549Y-117967585D01*
X38717958Y-117786903D01*
X39018421Y-117662447D01*
X39124744Y-117641298D01*
X39337389Y-117599000D01*
X39662611Y-117599000D01*
X39875256Y-117641298D01*
X39875256Y-117641298D01*
G37*
G36*
X100589294Y-114598633D02*
G01*
X100761695Y-114650931D01*
X100920583Y-114735858D01*
X101059849Y-114850151D01*
X101174142Y-114989417D01*
X101259069Y-115148305D01*
X101311367Y-115320706D01*
X101329025Y-115500000D01*
X101311367Y-115679294D01*
X101259069Y-115851695D01*
X101174142Y-116010583D01*
X101059849Y-116149849D01*
X100920583Y-116264142D01*
X100761695Y-116349069D01*
X100589294Y-116401367D01*
X100454931Y-116414600D01*
X100365069Y-116414600D01*
X100230706Y-116401367D01*
X100058305Y-116349069D01*
X99899417Y-116264142D01*
X99760151Y-116149849D01*
X99645858Y-116010583D01*
X99560931Y-115851695D01*
X99508633Y-115679294D01*
X99490975Y-115500000D01*
X99508633Y-115320706D01*
X99560931Y-115148305D01*
X99645858Y-114989417D01*
X99760151Y-114850151D01*
X99899417Y-114735858D01*
X100058305Y-114650931D01*
X100230706Y-114598633D01*
X100365069Y-114585400D01*
X100454931Y-114585400D01*
X100589294Y-114598633D01*
X100589294Y-114598633D01*
G37*
G36*
X95509294Y-114598633D02*
G01*
X95681695Y-114650931D01*
X95840583Y-114735858D01*
X95979849Y-114850151D01*
X96094142Y-114989417D01*
X96179069Y-115148305D01*
X96231367Y-115320706D01*
X96249025Y-115500000D01*
X96231367Y-115679294D01*
X96179069Y-115851695D01*
X96094142Y-116010583D01*
X95979849Y-116149849D01*
X95840583Y-116264142D01*
X95681695Y-116349069D01*
X95509294Y-116401367D01*
X95374931Y-116414600D01*
X95285069Y-116414600D01*
X95150706Y-116401367D01*
X94978305Y-116349069D01*
X94819417Y-116264142D01*
X94680151Y-116149849D01*
X94565858Y-116010583D01*
X94480931Y-115851695D01*
X94428633Y-115679294D01*
X94410975Y-115500000D01*
X94428633Y-115320706D01*
X94480931Y-115148305D01*
X94565858Y-114989417D01*
X94680151Y-114850151D01*
X94819417Y-114735858D01*
X94978305Y-114650931D01*
X95150706Y-114598633D01*
X95285069Y-114585400D01*
X95374931Y-114585400D01*
X95509294Y-114598633D01*
X95509294Y-114598633D01*
G37*
G36*
X92969294Y-114598633D02*
G01*
X93141695Y-114650931D01*
X93300583Y-114735858D01*
X93439849Y-114850151D01*
X93554142Y-114989417D01*
X93639069Y-115148305D01*
X93691367Y-115320706D01*
X93709025Y-115500000D01*
X93691367Y-115679294D01*
X93639069Y-115851695D01*
X93554142Y-116010583D01*
X93439849Y-116149849D01*
X93300583Y-116264142D01*
X93141695Y-116349069D01*
X92969294Y-116401367D01*
X92834931Y-116414600D01*
X92745069Y-116414600D01*
X92610706Y-116401367D01*
X92438305Y-116349069D01*
X92279417Y-116264142D01*
X92140151Y-116149849D01*
X92025858Y-116010583D01*
X91940931Y-115851695D01*
X91888633Y-115679294D01*
X91870975Y-115500000D01*
X91888633Y-115320706D01*
X91940931Y-115148305D01*
X92025858Y-114989417D01*
X92140151Y-114850151D01*
X92279417Y-114735858D01*
X92438305Y-114650931D01*
X92610706Y-114598633D01*
X92745069Y-114585400D01*
X92834931Y-114585400D01*
X92969294Y-114598633D01*
X92969294Y-114598633D01*
G37*
G36*
X91164600Y-116414600D02*
G01*
X89335400Y-116414600D01*
X89335400Y-114585400D01*
X91164600Y-114585400D01*
X91164600Y-116414600D01*
X91164600Y-116414600D01*
G37*
G36*
X98049294Y-114598633D02*
G01*
X98221695Y-114650931D01*
X98380583Y-114735858D01*
X98519849Y-114850151D01*
X98634142Y-114989417D01*
X98719069Y-115148305D01*
X98771367Y-115320706D01*
X98789025Y-115500000D01*
X98771367Y-115679294D01*
X98719069Y-115851695D01*
X98634142Y-116010583D01*
X98519849Y-116149849D01*
X98380583Y-116264142D01*
X98221695Y-116349069D01*
X98049294Y-116401367D01*
X97914931Y-116414600D01*
X97825069Y-116414600D01*
X97690706Y-116401367D01*
X97518305Y-116349069D01*
X97359417Y-116264142D01*
X97220151Y-116149849D01*
X97105858Y-116010583D01*
X97020931Y-115851695D01*
X96968633Y-115679294D01*
X96950975Y-115500000D01*
X96968633Y-115320706D01*
X97020931Y-115148305D01*
X97105858Y-114989417D01*
X97220151Y-114850151D01*
X97359417Y-114735858D01*
X97518305Y-114650931D01*
X97690706Y-114598633D01*
X97825069Y-114585400D01*
X97914931Y-114585400D01*
X98049294Y-114598633D01*
X98049294Y-114598633D01*
G37*
G36*
X90429294Y-112058633D02*
G01*
X90601695Y-112110931D01*
X90760583Y-112195858D01*
X90899849Y-112310151D01*
X91014142Y-112449417D01*
X91099069Y-112608305D01*
X91151367Y-112780706D01*
X91169025Y-112960000D01*
X91151367Y-113139294D01*
X91099069Y-113311695D01*
X91014142Y-113470583D01*
X90899849Y-113609849D01*
X90760583Y-113724142D01*
X90601695Y-113809069D01*
X90429294Y-113861367D01*
X90294931Y-113874600D01*
X90205069Y-113874600D01*
X90070706Y-113861367D01*
X89898305Y-113809069D01*
X89739417Y-113724142D01*
X89600151Y-113609849D01*
X89485858Y-113470583D01*
X89400931Y-113311695D01*
X89348633Y-113139294D01*
X89330975Y-112960000D01*
X89348633Y-112780706D01*
X89400931Y-112608305D01*
X89485858Y-112449417D01*
X89600151Y-112310151D01*
X89739417Y-112195858D01*
X89898305Y-112110931D01*
X90070706Y-112058633D01*
X90205069Y-112045400D01*
X90294931Y-112045400D01*
X90429294Y-112058633D01*
X90429294Y-112058633D01*
G37*
G36*
X92969294Y-112058633D02*
G01*
X93141695Y-112110931D01*
X93300583Y-112195858D01*
X93439849Y-112310151D01*
X93554142Y-112449417D01*
X93639069Y-112608305D01*
X93691367Y-112780706D01*
X93709025Y-112960000D01*
X93691367Y-113139294D01*
X93639069Y-113311695D01*
X93554142Y-113470583D01*
X93439849Y-113609849D01*
X93300583Y-113724142D01*
X93141695Y-113809069D01*
X92969294Y-113861367D01*
X92834931Y-113874600D01*
X92745069Y-113874600D01*
X92610706Y-113861367D01*
X92438305Y-113809069D01*
X92279417Y-113724142D01*
X92140151Y-113609849D01*
X92025858Y-113470583D01*
X91940931Y-113311695D01*
X91888633Y-113139294D01*
X91870975Y-112960000D01*
X91888633Y-112780706D01*
X91940931Y-112608305D01*
X92025858Y-112449417D01*
X92140151Y-112310151D01*
X92279417Y-112195858D01*
X92438305Y-112110931D01*
X92610706Y-112058633D01*
X92745069Y-112045400D01*
X92834931Y-112045400D01*
X92969294Y-112058633D01*
X92969294Y-112058633D01*
G37*
G36*
X95509294Y-112058633D02*
G01*
X95681695Y-112110931D01*
X95840583Y-112195858D01*
X95979849Y-112310151D01*
X96094142Y-112449417D01*
X96179069Y-112608305D01*
X96231367Y-112780706D01*
X96249025Y-112960000D01*
X96231367Y-113139294D01*
X96179069Y-113311695D01*
X96094142Y-113470583D01*
X95979849Y-113609849D01*
X95840583Y-113724142D01*
X95681695Y-113809069D01*
X95509294Y-113861367D01*
X95374931Y-113874600D01*
X95285069Y-113874600D01*
X95150706Y-113861367D01*
X94978305Y-113809069D01*
X94819417Y-113724142D01*
X94680151Y-113609849D01*
X94565858Y-113470583D01*
X94480931Y-113311695D01*
X94428633Y-113139294D01*
X94410975Y-112960000D01*
X94428633Y-112780706D01*
X94480931Y-112608305D01*
X94565858Y-112449417D01*
X94680151Y-112310151D01*
X94819417Y-112195858D01*
X94978305Y-112110931D01*
X95150706Y-112058633D01*
X95285069Y-112045400D01*
X95374931Y-112045400D01*
X95509294Y-112058633D01*
X95509294Y-112058633D01*
G37*
G36*
X98049294Y-112058633D02*
G01*
X98221695Y-112110931D01*
X98380583Y-112195858D01*
X98519849Y-112310151D01*
X98634142Y-112449417D01*
X98719069Y-112608305D01*
X98771367Y-112780706D01*
X98789025Y-112960000D01*
X98771367Y-113139294D01*
X98719069Y-113311695D01*
X98634142Y-113470583D01*
X98519849Y-113609849D01*
X98380583Y-113724142D01*
X98221695Y-113809069D01*
X98049294Y-113861367D01*
X97914931Y-113874600D01*
X97825069Y-113874600D01*
X97690706Y-113861367D01*
X97518305Y-113809069D01*
X97359417Y-113724142D01*
X97220151Y-113609849D01*
X97105858Y-113470583D01*
X97020931Y-113311695D01*
X96968633Y-113139294D01*
X96950975Y-112960000D01*
X96968633Y-112780706D01*
X97020931Y-112608305D01*
X97105858Y-112449417D01*
X97220151Y-112310151D01*
X97359417Y-112195858D01*
X97518305Y-112110931D01*
X97690706Y-112058633D01*
X97825069Y-112045400D01*
X97914931Y-112045400D01*
X98049294Y-112058633D01*
X98049294Y-112058633D01*
G37*
G36*
X100589294Y-112058633D02*
G01*
X100761695Y-112110931D01*
X100920583Y-112195858D01*
X101059849Y-112310151D01*
X101174142Y-112449417D01*
X101259069Y-112608305D01*
X101311367Y-112780706D01*
X101329025Y-112960000D01*
X101311367Y-113139294D01*
X101259069Y-113311695D01*
X101174142Y-113470583D01*
X101059849Y-113609849D01*
X100920583Y-113724142D01*
X100761695Y-113809069D01*
X100589294Y-113861367D01*
X100454931Y-113874600D01*
X100365069Y-113874600D01*
X100230706Y-113861367D01*
X100058305Y-113809069D01*
X99899417Y-113724142D01*
X99760151Y-113609849D01*
X99645858Y-113470583D01*
X99560931Y-113311695D01*
X99508633Y-113139294D01*
X99490975Y-112960000D01*
X99508633Y-112780706D01*
X99560931Y-112608305D01*
X99645858Y-112449417D01*
X99760151Y-112310151D01*
X99899417Y-112195858D01*
X100058305Y-112110931D01*
X100230706Y-112058633D01*
X100365069Y-112045400D01*
X100454931Y-112045400D01*
X100589294Y-112058633D01*
X100589294Y-112058633D01*
G37*
G36*
X66125562Y-105828181D02*
G01*
X66160481Y-105838774D01*
X66192663Y-105855976D01*
X66220873Y-105879127D01*
X66244024Y-105907337D01*
X66261226Y-105939519D01*
X66271819Y-105974438D01*
X66276000Y-106016895D01*
X66276000Y-107483105D01*
X66271819Y-107525562D01*
X66261226Y-107560481D01*
X66244024Y-107592663D01*
X66220873Y-107620873D01*
X66192663Y-107644024D01*
X66160481Y-107661226D01*
X66125562Y-107671819D01*
X66083105Y-107676000D01*
X64941895Y-107676000D01*
X64899438Y-107671819D01*
X64864519Y-107661226D01*
X64832337Y-107644024D01*
X64804127Y-107620873D01*
X64780976Y-107592663D01*
X64763774Y-107560481D01*
X64753181Y-107525562D01*
X64749000Y-107483105D01*
X64749000Y-106016895D01*
X64753181Y-105974438D01*
X64763774Y-105939519D01*
X64780976Y-105907337D01*
X64804127Y-105879127D01*
X64832337Y-105855976D01*
X64864519Y-105838774D01*
X64899438Y-105828181D01*
X64941895Y-105824000D01*
X66083105Y-105824000D01*
X66125562Y-105828181D01*
X66125562Y-105828181D01*
G37*
G36*
X69100562Y-105828181D02*
G01*
X69135481Y-105838774D01*
X69167663Y-105855976D01*
X69195873Y-105879127D01*
X69219024Y-105907337D01*
X69236226Y-105939519D01*
X69246819Y-105974438D01*
X69251000Y-106016895D01*
X69251000Y-107483105D01*
X69246819Y-107525562D01*
X69236226Y-107560481D01*
X69219024Y-107592663D01*
X69195873Y-107620873D01*
X69167663Y-107644024D01*
X69135481Y-107661226D01*
X69100562Y-107671819D01*
X69058105Y-107676000D01*
X67916895Y-107676000D01*
X67874438Y-107671819D01*
X67839519Y-107661226D01*
X67807337Y-107644024D01*
X67779127Y-107620873D01*
X67755976Y-107592663D01*
X67738774Y-107560481D01*
X67728181Y-107525562D01*
X67724000Y-107483105D01*
X67724000Y-106016895D01*
X67728181Y-105974438D01*
X67738774Y-105939519D01*
X67755976Y-105907337D01*
X67779127Y-105879127D01*
X67807337Y-105855976D01*
X67839519Y-105838774D01*
X67874438Y-105828181D01*
X67916895Y-105824000D01*
X69058105Y-105824000D01*
X69100562Y-105828181D01*
X69100562Y-105828181D01*
G37*
G36*
X122304810Y-102475935D02*
G01*
X122451309Y-102536617D01*
X122451310Y-102536618D01*
X122583158Y-102624716D01*
X122695284Y-102736842D01*
X122695285Y-102736844D01*
X122783383Y-102868691D01*
X122844065Y-103015190D01*
X122875000Y-103170713D01*
X122875000Y-103329287D01*
X122844065Y-103484810D01*
X122783383Y-103631309D01*
X122783382Y-103631310D01*
X122695284Y-103763158D01*
X122583158Y-103875284D01*
X122516785Y-103919633D01*
X122451309Y-103963383D01*
X122304810Y-104024065D01*
X122149287Y-104055000D01*
X121990713Y-104055000D01*
X121835190Y-104024065D01*
X121688691Y-103963383D01*
X121623215Y-103919633D01*
X121556842Y-103875284D01*
X121444716Y-103763158D01*
X121356618Y-103631310D01*
X121356617Y-103631309D01*
X121295935Y-103484810D01*
X121265000Y-103329287D01*
X121265000Y-103170713D01*
X121295935Y-103015190D01*
X121356617Y-102868691D01*
X121444715Y-102736844D01*
X121444716Y-102736842D01*
X121556842Y-102624716D01*
X121688690Y-102536618D01*
X121688691Y-102536617D01*
X121835190Y-102475935D01*
X121990713Y-102445000D01*
X122149287Y-102445000D01*
X122304810Y-102475935D01*
X122304810Y-102475935D01*
G37*
G36*
X142624810Y-102475935D02*
G01*
X142771309Y-102536617D01*
X142771310Y-102536618D01*
X142903158Y-102624716D01*
X143015284Y-102736842D01*
X143015285Y-102736844D01*
X143103383Y-102868691D01*
X143164065Y-103015190D01*
X143195000Y-103170713D01*
X143195000Y-103329287D01*
X143164065Y-103484810D01*
X143103383Y-103631309D01*
X143103382Y-103631310D01*
X143015284Y-103763158D01*
X142903158Y-103875284D01*
X142836785Y-103919633D01*
X142771309Y-103963383D01*
X142624810Y-104024065D01*
X142469287Y-104055000D01*
X142310713Y-104055000D01*
X142155190Y-104024065D01*
X142008691Y-103963383D01*
X141943215Y-103919633D01*
X141876842Y-103875284D01*
X141764716Y-103763158D01*
X141676618Y-103631310D01*
X141676617Y-103631309D01*
X141615935Y-103484810D01*
X141585000Y-103329287D01*
X141585000Y-103170713D01*
X141615935Y-103015190D01*
X141676617Y-102868691D01*
X141764715Y-102736844D01*
X141764716Y-102736842D01*
X141876842Y-102624716D01*
X142008690Y-102536618D01*
X142008691Y-102536617D01*
X142155190Y-102475935D01*
X142310713Y-102445000D01*
X142469287Y-102445000D01*
X142624810Y-102475935D01*
X142624810Y-102475935D01*
G37*
G36*
X145164810Y-102475935D02*
G01*
X145311309Y-102536617D01*
X145311310Y-102536618D01*
X145443158Y-102624716D01*
X145555284Y-102736842D01*
X145555285Y-102736844D01*
X145643383Y-102868691D01*
X145704065Y-103015190D01*
X145735000Y-103170713D01*
X145735000Y-103329287D01*
X145704065Y-103484810D01*
X145643383Y-103631309D01*
X145643382Y-103631310D01*
X145555284Y-103763158D01*
X145443158Y-103875284D01*
X145376785Y-103919633D01*
X145311309Y-103963383D01*
X145164810Y-104024065D01*
X145009287Y-104055000D01*
X144850713Y-104055000D01*
X144695190Y-104024065D01*
X144548691Y-103963383D01*
X144483215Y-103919633D01*
X144416842Y-103875284D01*
X144304716Y-103763158D01*
X144216618Y-103631310D01*
X144216617Y-103631309D01*
X144155935Y-103484810D01*
X144125000Y-103329287D01*
X144125000Y-103170713D01*
X144155935Y-103015190D01*
X144216617Y-102868691D01*
X144304715Y-102736844D01*
X144304716Y-102736842D01*
X144416842Y-102624716D01*
X144548690Y-102536618D01*
X144548691Y-102536617D01*
X144695190Y-102475935D01*
X144850713Y-102445000D01*
X145009287Y-102445000D01*
X145164810Y-102475935D01*
X145164810Y-102475935D01*
G37*
G36*
X147704810Y-102475935D02*
G01*
X147851309Y-102536617D01*
X147851310Y-102536618D01*
X147983158Y-102624716D01*
X148095284Y-102736842D01*
X148095285Y-102736844D01*
X148183383Y-102868691D01*
X148244065Y-103015190D01*
X148275000Y-103170713D01*
X148275000Y-103329287D01*
X148244065Y-103484810D01*
X148183383Y-103631309D01*
X148183382Y-103631310D01*
X148095284Y-103763158D01*
X147983158Y-103875284D01*
X147916785Y-103919633D01*
X147851309Y-103963383D01*
X147704810Y-104024065D01*
X147549287Y-104055000D01*
X147390713Y-104055000D01*
X147235190Y-104024065D01*
X147088691Y-103963383D01*
X147023215Y-103919633D01*
X146956842Y-103875284D01*
X146844716Y-103763158D01*
X146756618Y-103631310D01*
X146756617Y-103631309D01*
X146695935Y-103484810D01*
X146665000Y-103329287D01*
X146665000Y-103170713D01*
X146695935Y-103015190D01*
X146756617Y-102868691D01*
X146844715Y-102736844D01*
X146844716Y-102736842D01*
X146956842Y-102624716D01*
X147088690Y-102536618D01*
X147088691Y-102536617D01*
X147235190Y-102475935D01*
X147390713Y-102445000D01*
X147549287Y-102445000D01*
X147704810Y-102475935D01*
X147704810Y-102475935D01*
G37*
G36*
X137544810Y-102475935D02*
G01*
X137691309Y-102536617D01*
X137691310Y-102536618D01*
X137823158Y-102624716D01*
X137935284Y-102736842D01*
X137935285Y-102736844D01*
X138023383Y-102868691D01*
X138084065Y-103015190D01*
X138115000Y-103170713D01*
X138115000Y-103329287D01*
X138084065Y-103484810D01*
X138023383Y-103631309D01*
X138023382Y-103631310D01*
X137935284Y-103763158D01*
X137823158Y-103875284D01*
X137756785Y-103919633D01*
X137691309Y-103963383D01*
X137544810Y-104024065D01*
X137389287Y-104055000D01*
X137230713Y-104055000D01*
X137075190Y-104024065D01*
X136928691Y-103963383D01*
X136863215Y-103919633D01*
X136796842Y-103875284D01*
X136684716Y-103763158D01*
X136596618Y-103631310D01*
X136596617Y-103631309D01*
X136535935Y-103484810D01*
X136505000Y-103329287D01*
X136505000Y-103170713D01*
X136535935Y-103015190D01*
X136596617Y-102868691D01*
X136684715Y-102736844D01*
X136684716Y-102736842D01*
X136796842Y-102624716D01*
X136928690Y-102536618D01*
X136928691Y-102536617D01*
X137075190Y-102475935D01*
X137230713Y-102445000D01*
X137389287Y-102445000D01*
X137544810Y-102475935D01*
X137544810Y-102475935D01*
G37*
G36*
X135004810Y-102475935D02*
G01*
X135151309Y-102536617D01*
X135151310Y-102536618D01*
X135283158Y-102624716D01*
X135395284Y-102736842D01*
X135395285Y-102736844D01*
X135483383Y-102868691D01*
X135544065Y-103015190D01*
X135575000Y-103170713D01*
X135575000Y-103329287D01*
X135544065Y-103484810D01*
X135483383Y-103631309D01*
X135483382Y-103631310D01*
X135395284Y-103763158D01*
X135283158Y-103875284D01*
X135216785Y-103919633D01*
X135151309Y-103963383D01*
X135004810Y-104024065D01*
X134849287Y-104055000D01*
X134690713Y-104055000D01*
X134535190Y-104024065D01*
X134388691Y-103963383D01*
X134323215Y-103919633D01*
X134256842Y-103875284D01*
X134144716Y-103763158D01*
X134056618Y-103631310D01*
X134056617Y-103631309D01*
X133995935Y-103484810D01*
X133965000Y-103329287D01*
X133965000Y-103170713D01*
X133995935Y-103015190D01*
X134056617Y-102868691D01*
X134144715Y-102736844D01*
X134144716Y-102736842D01*
X134256842Y-102624716D01*
X134388690Y-102536618D01*
X134388691Y-102536617D01*
X134535190Y-102475935D01*
X134690713Y-102445000D01*
X134849287Y-102445000D01*
X135004810Y-102475935D01*
X135004810Y-102475935D01*
G37*
G36*
X132464810Y-102475935D02*
G01*
X132611309Y-102536617D01*
X132611310Y-102536618D01*
X132743158Y-102624716D01*
X132855284Y-102736842D01*
X132855285Y-102736844D01*
X132943383Y-102868691D01*
X133004065Y-103015190D01*
X133035000Y-103170713D01*
X133035000Y-103329287D01*
X133004065Y-103484810D01*
X132943383Y-103631309D01*
X132943382Y-103631310D01*
X132855284Y-103763158D01*
X132743158Y-103875284D01*
X132676785Y-103919633D01*
X132611309Y-103963383D01*
X132464810Y-104024065D01*
X132309287Y-104055000D01*
X132150713Y-104055000D01*
X131995190Y-104024065D01*
X131848691Y-103963383D01*
X131783215Y-103919633D01*
X131716842Y-103875284D01*
X131604716Y-103763158D01*
X131516618Y-103631310D01*
X131516617Y-103631309D01*
X131455935Y-103484810D01*
X131425000Y-103329287D01*
X131425000Y-103170713D01*
X131455935Y-103015190D01*
X131516617Y-102868691D01*
X131604715Y-102736844D01*
X131604716Y-102736842D01*
X131716842Y-102624716D01*
X131848690Y-102536618D01*
X131848691Y-102536617D01*
X131995190Y-102475935D01*
X132150713Y-102445000D01*
X132309287Y-102445000D01*
X132464810Y-102475935D01*
X132464810Y-102475935D01*
G37*
G36*
X129924810Y-102475935D02*
G01*
X130071309Y-102536617D01*
X130071310Y-102536618D01*
X130203158Y-102624716D01*
X130315284Y-102736842D01*
X130315285Y-102736844D01*
X130403383Y-102868691D01*
X130464065Y-103015190D01*
X130495000Y-103170713D01*
X130495000Y-103329287D01*
X130464065Y-103484810D01*
X130403383Y-103631309D01*
X130403382Y-103631310D01*
X130315284Y-103763158D01*
X130203158Y-103875284D01*
X130136785Y-103919633D01*
X130071309Y-103963383D01*
X129924810Y-104024065D01*
X129769287Y-104055000D01*
X129610713Y-104055000D01*
X129455190Y-104024065D01*
X129308691Y-103963383D01*
X129243215Y-103919633D01*
X129176842Y-103875284D01*
X129064716Y-103763158D01*
X128976618Y-103631310D01*
X128976617Y-103631309D01*
X128915935Y-103484810D01*
X128885000Y-103329287D01*
X128885000Y-103170713D01*
X128915935Y-103015190D01*
X128976617Y-102868691D01*
X129064715Y-102736844D01*
X129064716Y-102736842D01*
X129176842Y-102624716D01*
X129308690Y-102536618D01*
X129308691Y-102536617D01*
X129455190Y-102475935D01*
X129610713Y-102445000D01*
X129769287Y-102445000D01*
X129924810Y-102475935D01*
X129924810Y-102475935D01*
G37*
G36*
X127384810Y-102475935D02*
G01*
X127531309Y-102536617D01*
X127531310Y-102536618D01*
X127663158Y-102624716D01*
X127775284Y-102736842D01*
X127775285Y-102736844D01*
X127863383Y-102868691D01*
X127924065Y-103015190D01*
X127955000Y-103170713D01*
X127955000Y-103329287D01*
X127924065Y-103484810D01*
X127863383Y-103631309D01*
X127863382Y-103631310D01*
X127775284Y-103763158D01*
X127663158Y-103875284D01*
X127596785Y-103919633D01*
X127531309Y-103963383D01*
X127384810Y-104024065D01*
X127229287Y-104055000D01*
X127070713Y-104055000D01*
X126915190Y-104024065D01*
X126768691Y-103963383D01*
X126703215Y-103919633D01*
X126636842Y-103875284D01*
X126524716Y-103763158D01*
X126436618Y-103631310D01*
X126436617Y-103631309D01*
X126375935Y-103484810D01*
X126345000Y-103329287D01*
X126345000Y-103170713D01*
X126375935Y-103015190D01*
X126436617Y-102868691D01*
X126524715Y-102736844D01*
X126524716Y-102736842D01*
X126636842Y-102624716D01*
X126768690Y-102536618D01*
X126768691Y-102536617D01*
X126915190Y-102475935D01*
X127070713Y-102445000D01*
X127229287Y-102445000D01*
X127384810Y-102475935D01*
X127384810Y-102475935D01*
G37*
G36*
X124844810Y-102475935D02*
G01*
X124991309Y-102536617D01*
X124991310Y-102536618D01*
X125123158Y-102624716D01*
X125235284Y-102736842D01*
X125235285Y-102736844D01*
X125323383Y-102868691D01*
X125384065Y-103015190D01*
X125415000Y-103170713D01*
X125415000Y-103329287D01*
X125384065Y-103484810D01*
X125323383Y-103631309D01*
X125323382Y-103631310D01*
X125235284Y-103763158D01*
X125123158Y-103875284D01*
X125056785Y-103919633D01*
X124991309Y-103963383D01*
X124844810Y-104024065D01*
X124689287Y-104055000D01*
X124530713Y-104055000D01*
X124375190Y-104024065D01*
X124228691Y-103963383D01*
X124163215Y-103919633D01*
X124096842Y-103875284D01*
X123984716Y-103763158D01*
X123896618Y-103631310D01*
X123896617Y-103631309D01*
X123835935Y-103484810D01*
X123805000Y-103329287D01*
X123805000Y-103170713D01*
X123835935Y-103015190D01*
X123896617Y-102868691D01*
X123984715Y-102736844D01*
X123984716Y-102736842D01*
X124096842Y-102624716D01*
X124228690Y-102536618D01*
X124228691Y-102536617D01*
X124375190Y-102475935D01*
X124530713Y-102445000D01*
X124689287Y-102445000D01*
X124844810Y-102475935D01*
X124844810Y-102475935D01*
G37*
G36*
X120335000Y-104055000D02*
G01*
X118725000Y-104055000D01*
X118725000Y-102445000D01*
X120335000Y-102445000D01*
X120335000Y-104055000D01*
X120335000Y-104055000D01*
G37*
G36*
X140084810Y-102475935D02*
G01*
X140231309Y-102536617D01*
X140231310Y-102536618D01*
X140363158Y-102624716D01*
X140475284Y-102736842D01*
X140475285Y-102736844D01*
X140563383Y-102868691D01*
X140624065Y-103015190D01*
X140655000Y-103170713D01*
X140655000Y-103329287D01*
X140624065Y-103484810D01*
X140563383Y-103631309D01*
X140563382Y-103631310D01*
X140475284Y-103763158D01*
X140363158Y-103875284D01*
X140296785Y-103919633D01*
X140231309Y-103963383D01*
X140084810Y-104024065D01*
X139929287Y-104055000D01*
X139770713Y-104055000D01*
X139615190Y-104024065D01*
X139468691Y-103963383D01*
X139403215Y-103919633D01*
X139336842Y-103875284D01*
X139224716Y-103763158D01*
X139136618Y-103631310D01*
X139136617Y-103631309D01*
X139075935Y-103484810D01*
X139045000Y-103329287D01*
X139045000Y-103170713D01*
X139075935Y-103015190D01*
X139136617Y-102868691D01*
X139224715Y-102736844D01*
X139224716Y-102736842D01*
X139336842Y-102624716D01*
X139468690Y-102536618D01*
X139468691Y-102536617D01*
X139615190Y-102475935D01*
X139770713Y-102445000D01*
X139929287Y-102445000D01*
X140084810Y-102475935D01*
X140084810Y-102475935D01*
G37*
G36*
X157590443Y-99435519D02*
G01*
X157656627Y-99442037D01*
X157826466Y-99493557D01*
X157982991Y-99577222D01*
X158018729Y-99606552D01*
X158120186Y-99689814D01*
X158203448Y-99791271D01*
X158232778Y-99827009D01*
X158316443Y-99983534D01*
X158367963Y-100153373D01*
X158385359Y-100330000D01*
X158367963Y-100506627D01*
X158316443Y-100676466D01*
X158232778Y-100832991D01*
X158203448Y-100868729D01*
X158120186Y-100970186D01*
X158018729Y-101053448D01*
X157982991Y-101082778D01*
X157826466Y-101166443D01*
X157656627Y-101217963D01*
X157590443Y-101224481D01*
X157524260Y-101231000D01*
X157435740Y-101231000D01*
X157369558Y-101224482D01*
X157303373Y-101217963D01*
X157133534Y-101166443D01*
X156977009Y-101082778D01*
X156941271Y-101053448D01*
X156839814Y-100970186D01*
X156756552Y-100868729D01*
X156727222Y-100832991D01*
X156643557Y-100676466D01*
X156592037Y-100506627D01*
X156574641Y-100330000D01*
X156592037Y-100153373D01*
X156643557Y-99983534D01*
X156727222Y-99827009D01*
X156756552Y-99791271D01*
X156839814Y-99689814D01*
X156941271Y-99606552D01*
X156977009Y-99577222D01*
X157133534Y-99493557D01*
X157303373Y-99442037D01*
X157369558Y-99435518D01*
X157435740Y-99429000D01*
X157524260Y-99429000D01*
X157590443Y-99435519D01*
X157590443Y-99435519D01*
G37*
G36*
X155050443Y-99435519D02*
G01*
X155116627Y-99442037D01*
X155286466Y-99493557D01*
X155442991Y-99577222D01*
X155478729Y-99606552D01*
X155580186Y-99689814D01*
X155663448Y-99791271D01*
X155692778Y-99827009D01*
X155776443Y-99983534D01*
X155827963Y-100153373D01*
X155845359Y-100330000D01*
X155827963Y-100506627D01*
X155776443Y-100676466D01*
X155692778Y-100832991D01*
X155663448Y-100868729D01*
X155580186Y-100970186D01*
X155478729Y-101053448D01*
X155442991Y-101082778D01*
X155286466Y-101166443D01*
X155116627Y-101217963D01*
X155050443Y-101224481D01*
X154984260Y-101231000D01*
X154895740Y-101231000D01*
X154829558Y-101224482D01*
X154763373Y-101217963D01*
X154593534Y-101166443D01*
X154437009Y-101082778D01*
X154401271Y-101053448D01*
X154299814Y-100970186D01*
X154216552Y-100868729D01*
X154187222Y-100832991D01*
X154103557Y-100676466D01*
X154052037Y-100506627D01*
X154034641Y-100330000D01*
X154052037Y-100153373D01*
X154103557Y-99983534D01*
X154187222Y-99827009D01*
X154216552Y-99791271D01*
X154299814Y-99689814D01*
X154401271Y-99606552D01*
X154437009Y-99577222D01*
X154593534Y-99493557D01*
X154763373Y-99442037D01*
X154829558Y-99435518D01*
X154895740Y-99429000D01*
X154984260Y-99429000D01*
X155050443Y-99435519D01*
X155050443Y-99435519D01*
G37*
G36*
X155050442Y-96895518D02*
G01*
X155116627Y-96902037D01*
X155286466Y-96953557D01*
X155442991Y-97037222D01*
X155478729Y-97066552D01*
X155580186Y-97149814D01*
X155663448Y-97251271D01*
X155692778Y-97287009D01*
X155776443Y-97443534D01*
X155827963Y-97613373D01*
X155845359Y-97790000D01*
X155827963Y-97966627D01*
X155776443Y-98136466D01*
X155692778Y-98292991D01*
X155663448Y-98328729D01*
X155580186Y-98430186D01*
X155478729Y-98513448D01*
X155442991Y-98542778D01*
X155286466Y-98626443D01*
X155116627Y-98677963D01*
X155050442Y-98684482D01*
X154984260Y-98691000D01*
X154895740Y-98691000D01*
X154829558Y-98684482D01*
X154763373Y-98677963D01*
X154593534Y-98626443D01*
X154437009Y-98542778D01*
X154401271Y-98513448D01*
X154299814Y-98430186D01*
X154216552Y-98328729D01*
X154187222Y-98292991D01*
X154103557Y-98136466D01*
X154052037Y-97966627D01*
X154034641Y-97790000D01*
X154052037Y-97613373D01*
X154103557Y-97443534D01*
X154187222Y-97287009D01*
X154216552Y-97251271D01*
X154299814Y-97149814D01*
X154401271Y-97066552D01*
X154437009Y-97037222D01*
X154593534Y-96953557D01*
X154763373Y-96902037D01*
X154829558Y-96895518D01*
X154895740Y-96889000D01*
X154984260Y-96889000D01*
X155050442Y-96895518D01*
X155050442Y-96895518D01*
G37*
G36*
X157590442Y-96895518D02*
G01*
X157656627Y-96902037D01*
X157826466Y-96953557D01*
X157982991Y-97037222D01*
X158018729Y-97066552D01*
X158120186Y-97149814D01*
X158203448Y-97251271D01*
X158232778Y-97287009D01*
X158316443Y-97443534D01*
X158367963Y-97613373D01*
X158385359Y-97790000D01*
X158367963Y-97966627D01*
X158316443Y-98136466D01*
X158232778Y-98292991D01*
X158203448Y-98328729D01*
X158120186Y-98430186D01*
X158018729Y-98513448D01*
X157982991Y-98542778D01*
X157826466Y-98626443D01*
X157656627Y-98677963D01*
X157590442Y-98684482D01*
X157524260Y-98691000D01*
X157435740Y-98691000D01*
X157369558Y-98684482D01*
X157303373Y-98677963D01*
X157133534Y-98626443D01*
X156977009Y-98542778D01*
X156941271Y-98513448D01*
X156839814Y-98430186D01*
X156756552Y-98328729D01*
X156727222Y-98292991D01*
X156643557Y-98136466D01*
X156592037Y-97966627D01*
X156574641Y-97790000D01*
X156592037Y-97613373D01*
X156643557Y-97443534D01*
X156727222Y-97287009D01*
X156756552Y-97251271D01*
X156839814Y-97149814D01*
X156941271Y-97066552D01*
X156977009Y-97037222D01*
X157133534Y-96953557D01*
X157303373Y-96902037D01*
X157369558Y-96895518D01*
X157435740Y-96889000D01*
X157524260Y-96889000D01*
X157590442Y-96895518D01*
X157590442Y-96895518D01*
G37*
G36*
X144253500Y-97906400D02*
G01*
X142246500Y-97906400D01*
X142246500Y-94400800D01*
X144253500Y-94400800D01*
X144253500Y-97906400D01*
X144253500Y-97906400D01*
G37*
G36*
X157590442Y-94355518D02*
G01*
X157656627Y-94362037D01*
X157826466Y-94413557D01*
X157982991Y-94497222D01*
X158018729Y-94526552D01*
X158120186Y-94609814D01*
X158203448Y-94711271D01*
X158232778Y-94747009D01*
X158316443Y-94903534D01*
X158367963Y-95073373D01*
X158385359Y-95250000D01*
X158367963Y-95426627D01*
X158316443Y-95596466D01*
X158232778Y-95752991D01*
X158203448Y-95788729D01*
X158120186Y-95890186D01*
X158018729Y-95973448D01*
X157982991Y-96002778D01*
X157826466Y-96086443D01*
X157656627Y-96137963D01*
X157590443Y-96144481D01*
X157524260Y-96151000D01*
X157435740Y-96151000D01*
X157369558Y-96144482D01*
X157303373Y-96137963D01*
X157133534Y-96086443D01*
X156977009Y-96002778D01*
X156941271Y-95973448D01*
X156839814Y-95890186D01*
X156756552Y-95788729D01*
X156727222Y-95752991D01*
X156643557Y-95596466D01*
X156592037Y-95426627D01*
X156574641Y-95250000D01*
X156592037Y-95073373D01*
X156643557Y-94903534D01*
X156727222Y-94747009D01*
X156756552Y-94711271D01*
X156839814Y-94609814D01*
X156941271Y-94526552D01*
X156977009Y-94497222D01*
X157133534Y-94413557D01*
X157303373Y-94362037D01*
X157369557Y-94355519D01*
X157435740Y-94349000D01*
X157524260Y-94349000D01*
X157590442Y-94355518D01*
X157590442Y-94355518D01*
G37*
G36*
X155050442Y-94355518D02*
G01*
X155116627Y-94362037D01*
X155286466Y-94413557D01*
X155442991Y-94497222D01*
X155478729Y-94526552D01*
X155580186Y-94609814D01*
X155663448Y-94711271D01*
X155692778Y-94747009D01*
X155776443Y-94903534D01*
X155827963Y-95073373D01*
X155845359Y-95250000D01*
X155827963Y-95426627D01*
X155776443Y-95596466D01*
X155692778Y-95752991D01*
X155663448Y-95788729D01*
X155580186Y-95890186D01*
X155478729Y-95973448D01*
X155442991Y-96002778D01*
X155286466Y-96086443D01*
X155116627Y-96137963D01*
X155050443Y-96144481D01*
X154984260Y-96151000D01*
X154895740Y-96151000D01*
X154829558Y-96144482D01*
X154763373Y-96137963D01*
X154593534Y-96086443D01*
X154437009Y-96002778D01*
X154401271Y-95973448D01*
X154299814Y-95890186D01*
X154216552Y-95788729D01*
X154187222Y-95752991D01*
X154103557Y-95596466D01*
X154052037Y-95426627D01*
X154034641Y-95250000D01*
X154052037Y-95073373D01*
X154103557Y-94903534D01*
X154187222Y-94747009D01*
X154216552Y-94711271D01*
X154299814Y-94609814D01*
X154401271Y-94526552D01*
X154437009Y-94497222D01*
X154593534Y-94413557D01*
X154763373Y-94362037D01*
X154829557Y-94355519D01*
X154895740Y-94349000D01*
X154984260Y-94349000D01*
X155050442Y-94355518D01*
X155050442Y-94355518D01*
G37*
G36*
X157590442Y-91815518D02*
G01*
X157656627Y-91822037D01*
X157826466Y-91873557D01*
X157982991Y-91957222D01*
X158018729Y-91986552D01*
X158120186Y-92069814D01*
X158203448Y-92171271D01*
X158232778Y-92207009D01*
X158316443Y-92363534D01*
X158367963Y-92533373D01*
X158385359Y-92710000D01*
X158367963Y-92886627D01*
X158316443Y-93056466D01*
X158232778Y-93212991D01*
X158203448Y-93248729D01*
X158120186Y-93350186D01*
X158018729Y-93433448D01*
X157982991Y-93462778D01*
X157826466Y-93546443D01*
X157656627Y-93597963D01*
X157590442Y-93604482D01*
X157524260Y-93611000D01*
X157435740Y-93611000D01*
X157369557Y-93604481D01*
X157303373Y-93597963D01*
X157133534Y-93546443D01*
X156977009Y-93462778D01*
X156941271Y-93433448D01*
X156839814Y-93350186D01*
X156756552Y-93248729D01*
X156727222Y-93212991D01*
X156643557Y-93056466D01*
X156592037Y-92886627D01*
X156574641Y-92710000D01*
X156592037Y-92533373D01*
X156643557Y-92363534D01*
X156727222Y-92207009D01*
X156756552Y-92171271D01*
X156839814Y-92069814D01*
X156941271Y-91986552D01*
X156977009Y-91957222D01*
X157133534Y-91873557D01*
X157303373Y-91822037D01*
X157369558Y-91815518D01*
X157435740Y-91809000D01*
X157524260Y-91809000D01*
X157590442Y-91815518D01*
X157590442Y-91815518D01*
G37*
G36*
X155050442Y-91815518D02*
G01*
X155116627Y-91822037D01*
X155286466Y-91873557D01*
X155442991Y-91957222D01*
X155478729Y-91986552D01*
X155580186Y-92069814D01*
X155663448Y-92171271D01*
X155692778Y-92207009D01*
X155776443Y-92363534D01*
X155827963Y-92533373D01*
X155845359Y-92710000D01*
X155827963Y-92886627D01*
X155776443Y-93056466D01*
X155692778Y-93212991D01*
X155663448Y-93248729D01*
X155580186Y-93350186D01*
X155478729Y-93433448D01*
X155442991Y-93462778D01*
X155286466Y-93546443D01*
X155116627Y-93597963D01*
X155050442Y-93604482D01*
X154984260Y-93611000D01*
X154895740Y-93611000D01*
X154829557Y-93604481D01*
X154763373Y-93597963D01*
X154593534Y-93546443D01*
X154437009Y-93462778D01*
X154401271Y-93433448D01*
X154299814Y-93350186D01*
X154216552Y-93248729D01*
X154187222Y-93212991D01*
X154103557Y-93056466D01*
X154052037Y-92886627D01*
X154034641Y-92710000D01*
X154052037Y-92533373D01*
X154103557Y-92363534D01*
X154187222Y-92207009D01*
X154216552Y-92171271D01*
X154299814Y-92069814D01*
X154401271Y-91986552D01*
X154437009Y-91957222D01*
X154593534Y-91873557D01*
X154763373Y-91822037D01*
X154829558Y-91815518D01*
X154895740Y-91809000D01*
X154984260Y-91809000D01*
X155050442Y-91815518D01*
X155050442Y-91815518D01*
G37*
G36*
X144253500Y-91099200D02*
G01*
X142246500Y-91099200D01*
X142246500Y-87593600D01*
X144253500Y-87593600D01*
X144253500Y-91099200D01*
X144253500Y-91099200D01*
G37*
G36*
X157590443Y-89275519D02*
G01*
X157656627Y-89282037D01*
X157826466Y-89333557D01*
X157982991Y-89417222D01*
X158018729Y-89446552D01*
X158120186Y-89529814D01*
X158203448Y-89631271D01*
X158232778Y-89667009D01*
X158316443Y-89823534D01*
X158367963Y-89993373D01*
X158385359Y-90170000D01*
X158367963Y-90346627D01*
X158316443Y-90516466D01*
X158232778Y-90672991D01*
X158203448Y-90708729D01*
X158120186Y-90810186D01*
X158018729Y-90893448D01*
X157982991Y-90922778D01*
X157826466Y-91006443D01*
X157656627Y-91057963D01*
X157590442Y-91064482D01*
X157524260Y-91071000D01*
X157435740Y-91071000D01*
X157369558Y-91064482D01*
X157303373Y-91057963D01*
X157133534Y-91006443D01*
X156977009Y-90922778D01*
X156941271Y-90893448D01*
X156839814Y-90810186D01*
X156756552Y-90708729D01*
X156727222Y-90672991D01*
X156643557Y-90516466D01*
X156592037Y-90346627D01*
X156574641Y-90170000D01*
X156592037Y-89993373D01*
X156643557Y-89823534D01*
X156727222Y-89667009D01*
X156756552Y-89631271D01*
X156839814Y-89529814D01*
X156941271Y-89446552D01*
X156977009Y-89417222D01*
X157133534Y-89333557D01*
X157303373Y-89282037D01*
X157369557Y-89275519D01*
X157435740Y-89269000D01*
X157524260Y-89269000D01*
X157590443Y-89275519D01*
X157590443Y-89275519D01*
G37*
G36*
X155050443Y-89275519D02*
G01*
X155116627Y-89282037D01*
X155286466Y-89333557D01*
X155442991Y-89417222D01*
X155478729Y-89446552D01*
X155580186Y-89529814D01*
X155663448Y-89631271D01*
X155692778Y-89667009D01*
X155776443Y-89823534D01*
X155827963Y-89993373D01*
X155845359Y-90170000D01*
X155827963Y-90346627D01*
X155776443Y-90516466D01*
X155692778Y-90672991D01*
X155663448Y-90708729D01*
X155580186Y-90810186D01*
X155478729Y-90893448D01*
X155442991Y-90922778D01*
X155286466Y-91006443D01*
X155116627Y-91057963D01*
X155050442Y-91064482D01*
X154984260Y-91071000D01*
X154895740Y-91071000D01*
X154829558Y-91064482D01*
X154763373Y-91057963D01*
X154593534Y-91006443D01*
X154437009Y-90922778D01*
X154401271Y-90893448D01*
X154299814Y-90810186D01*
X154216552Y-90708729D01*
X154187222Y-90672991D01*
X154103557Y-90516466D01*
X154052037Y-90346627D01*
X154034641Y-90170000D01*
X154052037Y-89993373D01*
X154103557Y-89823534D01*
X154187222Y-89667009D01*
X154216552Y-89631271D01*
X154299814Y-89529814D01*
X154401271Y-89446552D01*
X154437009Y-89417222D01*
X154593534Y-89333557D01*
X154763373Y-89282037D01*
X154829557Y-89275519D01*
X154895740Y-89269000D01*
X154984260Y-89269000D01*
X155050443Y-89275519D01*
X155050443Y-89275519D01*
G37*
G36*
X155050442Y-86735518D02*
G01*
X155116627Y-86742037D01*
X155286466Y-86793557D01*
X155442991Y-86877222D01*
X155478729Y-86906552D01*
X155580186Y-86989814D01*
X155663448Y-87091271D01*
X155692778Y-87127009D01*
X155776443Y-87283534D01*
X155827963Y-87453373D01*
X155845359Y-87630000D01*
X155827963Y-87806627D01*
X155776443Y-87976466D01*
X155692778Y-88132991D01*
X155663448Y-88168729D01*
X155580186Y-88270186D01*
X155478729Y-88353448D01*
X155442991Y-88382778D01*
X155286466Y-88466443D01*
X155116627Y-88517963D01*
X155050442Y-88524482D01*
X154984260Y-88531000D01*
X154895740Y-88531000D01*
X154829558Y-88524482D01*
X154763373Y-88517963D01*
X154593534Y-88466443D01*
X154437009Y-88382778D01*
X154401271Y-88353448D01*
X154299814Y-88270186D01*
X154216552Y-88168729D01*
X154187222Y-88132991D01*
X154103557Y-87976466D01*
X154052037Y-87806627D01*
X154034641Y-87630000D01*
X154052037Y-87453373D01*
X154103557Y-87283534D01*
X154187222Y-87127009D01*
X154216552Y-87091271D01*
X154299814Y-86989814D01*
X154401271Y-86906552D01*
X154437009Y-86877222D01*
X154593534Y-86793557D01*
X154763373Y-86742037D01*
X154829558Y-86735518D01*
X154895740Y-86729000D01*
X154984260Y-86729000D01*
X155050442Y-86735518D01*
X155050442Y-86735518D01*
G37*
G36*
X157590442Y-86735518D02*
G01*
X157656627Y-86742037D01*
X157826466Y-86793557D01*
X157982991Y-86877222D01*
X158018729Y-86906552D01*
X158120186Y-86989814D01*
X158203448Y-87091271D01*
X158232778Y-87127009D01*
X158316443Y-87283534D01*
X158367963Y-87453373D01*
X158385359Y-87630000D01*
X158367963Y-87806627D01*
X158316443Y-87976466D01*
X158232778Y-88132991D01*
X158203448Y-88168729D01*
X158120186Y-88270186D01*
X158018729Y-88353448D01*
X157982991Y-88382778D01*
X157826466Y-88466443D01*
X157656627Y-88517963D01*
X157590442Y-88524482D01*
X157524260Y-88531000D01*
X157435740Y-88531000D01*
X157369558Y-88524482D01*
X157303373Y-88517963D01*
X157133534Y-88466443D01*
X156977009Y-88382778D01*
X156941271Y-88353448D01*
X156839814Y-88270186D01*
X156756552Y-88168729D01*
X156727222Y-88132991D01*
X156643557Y-87976466D01*
X156592037Y-87806627D01*
X156574641Y-87630000D01*
X156592037Y-87453373D01*
X156643557Y-87283534D01*
X156727222Y-87127009D01*
X156756552Y-87091271D01*
X156839814Y-86989814D01*
X156941271Y-86906552D01*
X156977009Y-86877222D01*
X157133534Y-86793557D01*
X157303373Y-86742037D01*
X157369558Y-86735518D01*
X157435740Y-86729000D01*
X157524260Y-86729000D01*
X157590442Y-86735518D01*
X157590442Y-86735518D01*
G37*
G36*
X64025562Y-85978181D02*
G01*
X64060481Y-85988774D01*
X64092663Y-86005976D01*
X64120873Y-86029127D01*
X64144024Y-86057337D01*
X64161226Y-86089519D01*
X64171819Y-86124438D01*
X64176000Y-86166895D01*
X64176000Y-87308105D01*
X64171819Y-87350562D01*
X64161226Y-87385481D01*
X64144024Y-87417663D01*
X64120873Y-87445873D01*
X64092663Y-87469024D01*
X64060481Y-87486226D01*
X64025562Y-87496819D01*
X63983105Y-87501000D01*
X62516895Y-87501000D01*
X62474438Y-87496819D01*
X62439519Y-87486226D01*
X62407337Y-87469024D01*
X62379127Y-87445873D01*
X62355976Y-87417663D01*
X62338774Y-87385481D01*
X62328181Y-87350562D01*
X62324000Y-87308105D01*
X62324000Y-86166895D01*
X62328181Y-86124438D01*
X62338774Y-86089519D01*
X62355976Y-86057337D01*
X62379127Y-86029127D01*
X62407337Y-86005976D01*
X62439519Y-85988774D01*
X62474438Y-85978181D01*
X62516895Y-85974000D01*
X63983105Y-85974000D01*
X64025562Y-85978181D01*
X64025562Y-85978181D01*
G37*
G36*
X155050442Y-84195518D02*
G01*
X155116627Y-84202037D01*
X155286466Y-84253557D01*
X155442991Y-84337222D01*
X155471506Y-84360624D01*
X155580186Y-84449814D01*
X155639278Y-84521819D01*
X155692778Y-84587009D01*
X155776443Y-84743534D01*
X155827963Y-84913373D01*
X155845359Y-85090000D01*
X155827963Y-85266627D01*
X155776443Y-85436466D01*
X155692778Y-85592991D01*
X155663448Y-85628729D01*
X155580186Y-85730186D01*
X155478729Y-85813448D01*
X155442991Y-85842778D01*
X155286466Y-85926443D01*
X155116627Y-85977963D01*
X155050442Y-85984482D01*
X154984260Y-85991000D01*
X154895740Y-85991000D01*
X154829558Y-85984482D01*
X154763373Y-85977963D01*
X154593534Y-85926443D01*
X154437009Y-85842778D01*
X154401271Y-85813448D01*
X154299814Y-85730186D01*
X154216552Y-85628729D01*
X154187222Y-85592991D01*
X154103557Y-85436466D01*
X154052037Y-85266627D01*
X154034641Y-85090000D01*
X154052037Y-84913373D01*
X154103557Y-84743534D01*
X154187222Y-84587009D01*
X154240722Y-84521819D01*
X154299814Y-84449814D01*
X154408494Y-84360624D01*
X154437009Y-84337222D01*
X154593534Y-84253557D01*
X154763373Y-84202037D01*
X154829558Y-84195518D01*
X154895740Y-84189000D01*
X154984260Y-84189000D01*
X155050442Y-84195518D01*
X155050442Y-84195518D01*
G37*
G36*
X157590442Y-84195518D02*
G01*
X157656627Y-84202037D01*
X157826466Y-84253557D01*
X157982991Y-84337222D01*
X158011506Y-84360624D01*
X158120186Y-84449814D01*
X158179278Y-84521819D01*
X158232778Y-84587009D01*
X158316443Y-84743534D01*
X158367963Y-84913373D01*
X158385359Y-85090000D01*
X158367963Y-85266627D01*
X158316443Y-85436466D01*
X158232778Y-85592991D01*
X158203448Y-85628729D01*
X158120186Y-85730186D01*
X158018729Y-85813448D01*
X157982991Y-85842778D01*
X157826466Y-85926443D01*
X157656627Y-85977963D01*
X157590442Y-85984482D01*
X157524260Y-85991000D01*
X157435740Y-85991000D01*
X157369558Y-85984482D01*
X157303373Y-85977963D01*
X157133534Y-85926443D01*
X156977009Y-85842778D01*
X156941271Y-85813448D01*
X156839814Y-85730186D01*
X156756552Y-85628729D01*
X156727222Y-85592991D01*
X156643557Y-85436466D01*
X156592037Y-85266627D01*
X156574641Y-85090000D01*
X156592037Y-84913373D01*
X156643557Y-84743534D01*
X156727222Y-84587009D01*
X156780722Y-84521819D01*
X156839814Y-84449814D01*
X156948494Y-84360624D01*
X156977009Y-84337222D01*
X157133534Y-84253557D01*
X157303373Y-84202037D01*
X157369558Y-84195518D01*
X157435740Y-84189000D01*
X157524260Y-84189000D01*
X157590442Y-84195518D01*
X157590442Y-84195518D01*
G37*
G36*
X54375562Y-83328181D02*
G01*
X54410481Y-83338774D01*
X54442663Y-83355976D01*
X54470873Y-83379127D01*
X54494024Y-83407337D01*
X54511226Y-83439519D01*
X54521819Y-83474438D01*
X54526000Y-83516895D01*
X54526000Y-84983105D01*
X54521819Y-85025562D01*
X54511226Y-85060481D01*
X54494024Y-85092663D01*
X54470873Y-85120873D01*
X54442663Y-85144024D01*
X54410481Y-85161226D01*
X54375562Y-85171819D01*
X54333105Y-85176000D01*
X53191895Y-85176000D01*
X53149438Y-85171819D01*
X53114519Y-85161226D01*
X53082337Y-85144024D01*
X53054127Y-85120873D01*
X53030976Y-85092663D01*
X53013774Y-85060481D01*
X53003181Y-85025562D01*
X52999000Y-84983105D01*
X52999000Y-83516895D01*
X53003181Y-83474438D01*
X53013774Y-83439519D01*
X53030976Y-83407337D01*
X53054127Y-83379127D01*
X53082337Y-83355976D01*
X53114519Y-83338774D01*
X53149438Y-83328181D01*
X53191895Y-83324000D01*
X54333105Y-83324000D01*
X54375562Y-83328181D01*
X54375562Y-83328181D01*
G37*
G36*
X57350562Y-83328181D02*
G01*
X57385481Y-83338774D01*
X57417663Y-83355976D01*
X57445873Y-83379127D01*
X57469024Y-83407337D01*
X57486226Y-83439519D01*
X57496819Y-83474438D01*
X57501000Y-83516895D01*
X57501000Y-84983105D01*
X57496819Y-85025562D01*
X57486226Y-85060481D01*
X57469024Y-85092663D01*
X57445873Y-85120873D01*
X57417663Y-85144024D01*
X57385481Y-85161226D01*
X57350562Y-85171819D01*
X57308105Y-85176000D01*
X56166895Y-85176000D01*
X56124438Y-85171819D01*
X56089519Y-85161226D01*
X56057337Y-85144024D01*
X56029127Y-85120873D01*
X56005976Y-85092663D01*
X55988774Y-85060481D01*
X55978181Y-85025562D01*
X55974000Y-84983105D01*
X55974000Y-83516895D01*
X55978181Y-83474438D01*
X55988774Y-83439519D01*
X56005976Y-83407337D01*
X56029127Y-83379127D01*
X56057337Y-83355976D01*
X56089519Y-83338774D01*
X56124438Y-83328181D01*
X56166895Y-83324000D01*
X57308105Y-83324000D01*
X57350562Y-83328181D01*
X57350562Y-83328181D01*
G37*
G36*
X64025562Y-83003181D02*
G01*
X64060481Y-83013774D01*
X64092663Y-83030976D01*
X64120873Y-83054127D01*
X64144024Y-83082337D01*
X64161226Y-83114519D01*
X64171819Y-83149438D01*
X64176000Y-83191895D01*
X64176000Y-84333105D01*
X64171819Y-84375562D01*
X64161226Y-84410481D01*
X64144024Y-84442663D01*
X64120873Y-84470873D01*
X64092663Y-84494024D01*
X64060481Y-84511226D01*
X64025562Y-84521819D01*
X63983105Y-84526000D01*
X62516895Y-84526000D01*
X62474438Y-84521819D01*
X62439519Y-84511226D01*
X62407337Y-84494024D01*
X62379127Y-84470873D01*
X62355976Y-84442663D01*
X62338774Y-84410481D01*
X62328181Y-84375562D01*
X62324000Y-84333105D01*
X62324000Y-83191895D01*
X62328181Y-83149438D01*
X62338774Y-83114519D01*
X62355976Y-83082337D01*
X62379127Y-83054127D01*
X62407337Y-83030976D01*
X62439519Y-83013774D01*
X62474438Y-83003181D01*
X62516895Y-82999000D01*
X63983105Y-82999000D01*
X64025562Y-83003181D01*
X64025562Y-83003181D01*
G37*
G36*
X157590443Y-81655519D02*
G01*
X157656627Y-81662037D01*
X157826466Y-81713557D01*
X157982991Y-81797222D01*
X158018729Y-81826552D01*
X158120186Y-81909814D01*
X158203448Y-82011271D01*
X158232778Y-82047009D01*
X158316443Y-82203534D01*
X158367963Y-82373373D01*
X158385359Y-82550000D01*
X158367963Y-82726627D01*
X158316443Y-82896466D01*
X158232778Y-83052991D01*
X158208694Y-83082337D01*
X158120186Y-83190186D01*
X158026714Y-83266895D01*
X157982991Y-83302778D01*
X157826466Y-83386443D01*
X157656627Y-83437963D01*
X157604865Y-83443061D01*
X157524260Y-83451000D01*
X157435740Y-83451000D01*
X157355135Y-83443061D01*
X157303373Y-83437963D01*
X157133534Y-83386443D01*
X156977009Y-83302778D01*
X156933286Y-83266895D01*
X156839814Y-83190186D01*
X156751306Y-83082337D01*
X156727222Y-83052991D01*
X156643557Y-82896466D01*
X156592037Y-82726627D01*
X156574641Y-82550000D01*
X156592037Y-82373373D01*
X156643557Y-82203534D01*
X156727222Y-82047009D01*
X156756552Y-82011271D01*
X156839814Y-81909814D01*
X156941271Y-81826552D01*
X156977009Y-81797222D01*
X157133534Y-81713557D01*
X157303373Y-81662037D01*
X157369557Y-81655519D01*
X157435740Y-81649000D01*
X157524260Y-81649000D01*
X157590443Y-81655519D01*
X157590443Y-81655519D01*
G37*
G36*
X155050443Y-81655519D02*
G01*
X155116627Y-81662037D01*
X155286466Y-81713557D01*
X155442991Y-81797222D01*
X155478729Y-81826552D01*
X155580186Y-81909814D01*
X155663448Y-82011271D01*
X155692778Y-82047009D01*
X155776443Y-82203534D01*
X155827963Y-82373373D01*
X155845359Y-82550000D01*
X155827963Y-82726627D01*
X155776443Y-82896466D01*
X155692778Y-83052991D01*
X155668694Y-83082337D01*
X155580186Y-83190186D01*
X155486714Y-83266895D01*
X155442991Y-83302778D01*
X155286466Y-83386443D01*
X155116627Y-83437963D01*
X155064865Y-83443061D01*
X154984260Y-83451000D01*
X154895740Y-83451000D01*
X154815135Y-83443061D01*
X154763373Y-83437963D01*
X154593534Y-83386443D01*
X154437009Y-83302778D01*
X154393286Y-83266895D01*
X154299814Y-83190186D01*
X154211306Y-83082337D01*
X154187222Y-83052991D01*
X154103557Y-82896466D01*
X154052037Y-82726627D01*
X154034641Y-82550000D01*
X154052037Y-82373373D01*
X154103557Y-82203534D01*
X154187222Y-82047009D01*
X154216552Y-82011271D01*
X154299814Y-81909814D01*
X154401271Y-81826552D01*
X154437009Y-81797222D01*
X154593534Y-81713557D01*
X154763373Y-81662037D01*
X154829557Y-81655519D01*
X154895740Y-81649000D01*
X154984260Y-81649000D01*
X155050443Y-81655519D01*
X155050443Y-81655519D01*
G37*
G36*
X157590443Y-79115519D02*
G01*
X157656627Y-79122037D01*
X157826466Y-79173557D01*
X157982991Y-79257222D01*
X158018729Y-79286552D01*
X158120186Y-79369814D01*
X158194501Y-79460369D01*
X158232778Y-79507009D01*
X158316443Y-79663534D01*
X158367963Y-79833373D01*
X158385359Y-80010000D01*
X158367963Y-80186627D01*
X158316443Y-80356466D01*
X158232778Y-80512991D01*
X158203448Y-80548729D01*
X158120186Y-80650186D01*
X158018729Y-80733448D01*
X157982991Y-80762778D01*
X157826466Y-80846443D01*
X157656627Y-80897963D01*
X157590442Y-80904482D01*
X157524260Y-80911000D01*
X157435740Y-80911000D01*
X157369558Y-80904482D01*
X157303373Y-80897963D01*
X157133534Y-80846443D01*
X156977009Y-80762778D01*
X156941271Y-80733448D01*
X156839814Y-80650186D01*
X156756552Y-80548729D01*
X156727222Y-80512991D01*
X156643557Y-80356466D01*
X156592037Y-80186627D01*
X156574641Y-80010000D01*
X156592037Y-79833373D01*
X156643557Y-79663534D01*
X156727222Y-79507009D01*
X156765499Y-79460369D01*
X156839814Y-79369814D01*
X156941271Y-79286552D01*
X156977009Y-79257222D01*
X157133534Y-79173557D01*
X157303373Y-79122037D01*
X157369557Y-79115519D01*
X157435740Y-79109000D01*
X157524260Y-79109000D01*
X157590443Y-79115519D01*
X157590443Y-79115519D01*
G37*
G36*
X155050443Y-79115519D02*
G01*
X155116627Y-79122037D01*
X155286466Y-79173557D01*
X155442991Y-79257222D01*
X155478729Y-79286552D01*
X155580186Y-79369814D01*
X155654501Y-79460369D01*
X155692778Y-79507009D01*
X155776443Y-79663534D01*
X155827963Y-79833373D01*
X155845359Y-80010000D01*
X155827963Y-80186627D01*
X155776443Y-80356466D01*
X155692778Y-80512991D01*
X155663448Y-80548729D01*
X155580186Y-80650186D01*
X155478729Y-80733448D01*
X155442991Y-80762778D01*
X155286466Y-80846443D01*
X155116627Y-80897963D01*
X155050442Y-80904482D01*
X154984260Y-80911000D01*
X154895740Y-80911000D01*
X154829558Y-80904482D01*
X154763373Y-80897963D01*
X154593534Y-80846443D01*
X154437009Y-80762778D01*
X154401271Y-80733448D01*
X154299814Y-80650186D01*
X154216552Y-80548729D01*
X154187222Y-80512991D01*
X154103557Y-80356466D01*
X154052037Y-80186627D01*
X154034641Y-80010000D01*
X154052037Y-79833373D01*
X154103557Y-79663534D01*
X154187222Y-79507009D01*
X154225499Y-79460369D01*
X154299814Y-79369814D01*
X154401271Y-79286552D01*
X154437009Y-79257222D01*
X154593534Y-79173557D01*
X154763373Y-79122037D01*
X154829557Y-79115519D01*
X154895740Y-79109000D01*
X154984260Y-79109000D01*
X155050443Y-79115519D01*
X155050443Y-79115519D01*
G37*
G36*
X115363062Y-77828181D02*
G01*
X115397981Y-77838774D01*
X115430163Y-77855976D01*
X115458373Y-77879127D01*
X115481524Y-77907337D01*
X115498726Y-77939519D01*
X115509319Y-77974438D01*
X115513500Y-78016895D01*
X115513500Y-79483105D01*
X115509319Y-79525562D01*
X115498726Y-79560481D01*
X115481524Y-79592663D01*
X115458373Y-79620873D01*
X115430163Y-79644024D01*
X115397981Y-79661226D01*
X115363062Y-79671819D01*
X115320605Y-79676000D01*
X114179395Y-79676000D01*
X114136938Y-79671819D01*
X114102019Y-79661226D01*
X114069837Y-79644024D01*
X114041627Y-79620873D01*
X114018476Y-79592663D01*
X114001274Y-79560481D01*
X113990681Y-79525562D01*
X113986500Y-79483105D01*
X113986500Y-78016895D01*
X113990681Y-77974438D01*
X114001274Y-77939519D01*
X114018476Y-77907337D01*
X114041627Y-77879127D01*
X114069837Y-77855976D01*
X114102019Y-77838774D01*
X114136938Y-77828181D01*
X114179395Y-77824000D01*
X115320605Y-77824000D01*
X115363062Y-77828181D01*
X115363062Y-77828181D01*
G37*
G36*
X112388062Y-77828181D02*
G01*
X112422981Y-77838774D01*
X112455163Y-77855976D01*
X112483373Y-77879127D01*
X112506524Y-77907337D01*
X112523726Y-77939519D01*
X112534319Y-77974438D01*
X112538500Y-78016895D01*
X112538500Y-79483105D01*
X112534319Y-79525562D01*
X112523726Y-79560481D01*
X112506524Y-79592663D01*
X112483373Y-79620873D01*
X112455163Y-79644024D01*
X112422981Y-79661226D01*
X112388062Y-79671819D01*
X112345605Y-79676000D01*
X111204395Y-79676000D01*
X111161938Y-79671819D01*
X111127019Y-79661226D01*
X111094837Y-79644024D01*
X111066627Y-79620873D01*
X111043476Y-79592663D01*
X111026274Y-79560481D01*
X111015681Y-79525562D01*
X111011500Y-79483105D01*
X111011500Y-78016895D01*
X111015681Y-77974438D01*
X111026274Y-77939519D01*
X111043476Y-77907337D01*
X111066627Y-77879127D01*
X111094837Y-77855976D01*
X111127019Y-77838774D01*
X111161938Y-77828181D01*
X111204395Y-77824000D01*
X112345605Y-77824000D01*
X112388062Y-77828181D01*
X112388062Y-77828181D01*
G37*
G36*
X56925999Y-78800997D02*
G01*
X55823999Y-78800997D01*
X55823999Y-76199000D01*
X56925999Y-76199000D01*
X56925999Y-78800997D01*
X56925999Y-78800997D01*
G37*
G36*
X54175999Y-78800997D02*
G01*
X53073999Y-78800997D01*
X53073999Y-76199000D01*
X54175999Y-76199000D01*
X54175999Y-78800997D01*
X54175999Y-78800997D01*
G37*
G36*
X38114903Y-76297075D02*
G01*
X38342571Y-76391378D01*
X38547466Y-76528285D01*
X38721715Y-76702534D01*
X38854325Y-76900998D01*
X38858623Y-76907431D01*
X38952925Y-77135097D01*
X39001000Y-77376786D01*
X39001000Y-77623214D01*
X38952925Y-77864903D01*
X38880551Y-78039631D01*
X38858622Y-78092571D01*
X38721715Y-78297466D01*
X38547466Y-78471715D01*
X38342571Y-78608622D01*
X38342570Y-78608623D01*
X38342569Y-78608623D01*
X38114903Y-78702925D01*
X37873214Y-78751000D01*
X37626786Y-78751000D01*
X37385097Y-78702925D01*
X37157431Y-78608623D01*
X37157430Y-78608623D01*
X37157429Y-78608622D01*
X36952534Y-78471715D01*
X36778285Y-78297466D01*
X36641378Y-78092571D01*
X36619450Y-78039631D01*
X36547075Y-77864903D01*
X36499000Y-77623214D01*
X36499000Y-77376786D01*
X36547075Y-77135097D01*
X36641377Y-76907431D01*
X36645675Y-76900998D01*
X36778285Y-76702534D01*
X36952534Y-76528285D01*
X37157429Y-76391378D01*
X37385097Y-76297075D01*
X37626786Y-76249000D01*
X37873214Y-76249000D01*
X38114903Y-76297075D01*
X38114903Y-76297075D01*
G37*
G36*
X155050443Y-76575519D02*
G01*
X155116627Y-76582037D01*
X155286466Y-76633557D01*
X155442991Y-76717222D01*
X155478729Y-76746552D01*
X155580186Y-76829814D01*
X155663448Y-76931271D01*
X155692778Y-76967009D01*
X155776443Y-77123534D01*
X155827963Y-77293373D01*
X155845359Y-77470000D01*
X155827963Y-77646627D01*
X155776443Y-77816466D01*
X155692778Y-77972991D01*
X155691590Y-77974438D01*
X155580186Y-78110186D01*
X155478729Y-78193448D01*
X155442991Y-78222778D01*
X155286466Y-78306443D01*
X155116627Y-78357963D01*
X155050443Y-78364481D01*
X154984260Y-78371000D01*
X154895740Y-78371000D01*
X154829557Y-78364481D01*
X154763373Y-78357963D01*
X154593534Y-78306443D01*
X154437009Y-78222778D01*
X154401271Y-78193448D01*
X154299814Y-78110186D01*
X154188410Y-77974438D01*
X154187222Y-77972991D01*
X154103557Y-77816466D01*
X154052037Y-77646627D01*
X154034641Y-77470000D01*
X154052037Y-77293373D01*
X154103557Y-77123534D01*
X154187222Y-76967009D01*
X154216552Y-76931271D01*
X154299814Y-76829814D01*
X154401271Y-76746552D01*
X154437009Y-76717222D01*
X154593534Y-76633557D01*
X154763373Y-76582037D01*
X154829557Y-76575519D01*
X154895740Y-76569000D01*
X154984260Y-76569000D01*
X155050443Y-76575519D01*
X155050443Y-76575519D01*
G37*
G36*
X157590443Y-76575519D02*
G01*
X157656627Y-76582037D01*
X157826466Y-76633557D01*
X157982991Y-76717222D01*
X158018729Y-76746552D01*
X158120186Y-76829814D01*
X158203448Y-76931271D01*
X158232778Y-76967009D01*
X158316443Y-77123534D01*
X158367963Y-77293373D01*
X158385359Y-77470000D01*
X158367963Y-77646627D01*
X158316443Y-77816466D01*
X158232778Y-77972991D01*
X158231590Y-77974438D01*
X158120186Y-78110186D01*
X158018729Y-78193448D01*
X157982991Y-78222778D01*
X157826466Y-78306443D01*
X157656627Y-78357963D01*
X157590443Y-78364481D01*
X157524260Y-78371000D01*
X157435740Y-78371000D01*
X157369557Y-78364481D01*
X157303373Y-78357963D01*
X157133534Y-78306443D01*
X156977009Y-78222778D01*
X156941271Y-78193448D01*
X156839814Y-78110186D01*
X156728410Y-77974438D01*
X156727222Y-77972991D01*
X156643557Y-77816466D01*
X156592037Y-77646627D01*
X156574641Y-77470000D01*
X156592037Y-77293373D01*
X156643557Y-77123534D01*
X156727222Y-76967009D01*
X156756552Y-76931271D01*
X156839814Y-76829814D01*
X156941271Y-76746552D01*
X156977009Y-76717222D01*
X157133534Y-76633557D01*
X157303373Y-76582037D01*
X157369557Y-76575519D01*
X157435740Y-76569000D01*
X157524260Y-76569000D01*
X157590443Y-76575519D01*
X157590443Y-76575519D01*
G37*
G36*
X157590442Y-74035518D02*
G01*
X157656627Y-74042037D01*
X157826466Y-74093557D01*
X157982991Y-74177222D01*
X158018729Y-74206552D01*
X158120186Y-74289814D01*
X158203448Y-74391271D01*
X158232778Y-74427009D01*
X158316443Y-74583534D01*
X158367963Y-74753373D01*
X158385359Y-74930000D01*
X158367963Y-75106627D01*
X158316443Y-75276466D01*
X158232778Y-75432991D01*
X158203448Y-75468729D01*
X158120186Y-75570186D01*
X158018729Y-75653448D01*
X157982991Y-75682778D01*
X157826466Y-75766443D01*
X157656627Y-75817963D01*
X157590442Y-75824482D01*
X157524260Y-75831000D01*
X157435740Y-75831000D01*
X157369558Y-75824482D01*
X157303373Y-75817963D01*
X157133534Y-75766443D01*
X156977009Y-75682778D01*
X156941271Y-75653448D01*
X156839814Y-75570186D01*
X156756552Y-75468729D01*
X156727222Y-75432991D01*
X156643557Y-75276466D01*
X156592037Y-75106627D01*
X156574641Y-74930000D01*
X156592037Y-74753373D01*
X156643557Y-74583534D01*
X156727222Y-74427009D01*
X156756552Y-74391271D01*
X156839814Y-74289814D01*
X156941271Y-74206552D01*
X156977009Y-74177222D01*
X157133534Y-74093557D01*
X157303373Y-74042037D01*
X157369558Y-74035518D01*
X157435740Y-74029000D01*
X157524260Y-74029000D01*
X157590442Y-74035518D01*
X157590442Y-74035518D01*
G37*
G36*
X155050442Y-74035518D02*
G01*
X155116627Y-74042037D01*
X155286466Y-74093557D01*
X155442991Y-74177222D01*
X155478729Y-74206552D01*
X155580186Y-74289814D01*
X155663448Y-74391271D01*
X155692778Y-74427009D01*
X155776443Y-74583534D01*
X155827963Y-74753373D01*
X155845359Y-74930000D01*
X155827963Y-75106627D01*
X155776443Y-75276466D01*
X155692778Y-75432991D01*
X155663448Y-75468729D01*
X155580186Y-75570186D01*
X155478729Y-75653448D01*
X155442991Y-75682778D01*
X155286466Y-75766443D01*
X155116627Y-75817963D01*
X155050442Y-75824482D01*
X154984260Y-75831000D01*
X154895740Y-75831000D01*
X154829558Y-75824482D01*
X154763373Y-75817963D01*
X154593534Y-75766443D01*
X154437009Y-75682778D01*
X154401271Y-75653448D01*
X154299814Y-75570186D01*
X154216552Y-75468729D01*
X154187222Y-75432991D01*
X154103557Y-75276466D01*
X154052037Y-75106627D01*
X154034641Y-74930000D01*
X154052037Y-74753373D01*
X154103557Y-74583534D01*
X154187222Y-74427009D01*
X154216552Y-74391271D01*
X154299814Y-74289814D01*
X154401271Y-74206552D01*
X154437009Y-74177222D01*
X154593534Y-74093557D01*
X154763373Y-74042037D01*
X154829558Y-74035518D01*
X154895740Y-74029000D01*
X154984260Y-74029000D01*
X155050442Y-74035518D01*
X155050442Y-74035518D01*
G37*
G36*
X39001000Y-75251000D02*
G01*
X36499000Y-75251000D01*
X36499000Y-72749000D01*
X39001000Y-72749000D01*
X39001000Y-75251000D01*
X39001000Y-75251000D01*
G37*
G36*
X70525562Y-73228181D02*
G01*
X70560481Y-73238774D01*
X70592663Y-73255976D01*
X70620873Y-73279127D01*
X70644024Y-73307337D01*
X70661226Y-73339519D01*
X70671819Y-73374438D01*
X70676000Y-73416895D01*
X70676000Y-74558105D01*
X70671819Y-74600562D01*
X70661226Y-74635481D01*
X70644024Y-74667663D01*
X70620873Y-74695873D01*
X70592663Y-74719024D01*
X70560481Y-74736226D01*
X70525562Y-74746819D01*
X70483105Y-74751000D01*
X69016895Y-74751000D01*
X68974438Y-74746819D01*
X68939519Y-74736226D01*
X68907337Y-74719024D01*
X68879127Y-74695873D01*
X68855976Y-74667663D01*
X68838774Y-74635481D01*
X68828181Y-74600562D01*
X68824000Y-74558105D01*
X68824000Y-73416895D01*
X68828181Y-73374438D01*
X68838774Y-73339519D01*
X68855976Y-73307337D01*
X68879127Y-73279127D01*
X68907337Y-73255976D01*
X68939519Y-73238774D01*
X68974438Y-73228181D01*
X69016895Y-73224000D01*
X70483105Y-73224000D01*
X70525562Y-73228181D01*
X70525562Y-73228181D01*
G37*
G36*
X115363062Y-72828181D02*
G01*
X115397981Y-72838774D01*
X115430163Y-72855976D01*
X115458373Y-72879127D01*
X115481524Y-72907337D01*
X115498726Y-72939519D01*
X115509319Y-72974438D01*
X115513500Y-73016895D01*
X115513500Y-74483105D01*
X115509319Y-74525562D01*
X115498726Y-74560481D01*
X115481524Y-74592663D01*
X115458373Y-74620873D01*
X115430163Y-74644024D01*
X115397981Y-74661226D01*
X115363062Y-74671819D01*
X115320605Y-74676000D01*
X114179395Y-74676000D01*
X114136938Y-74671819D01*
X114102019Y-74661226D01*
X114069837Y-74644024D01*
X114041627Y-74620873D01*
X114018476Y-74592663D01*
X114001274Y-74560481D01*
X113990681Y-74525562D01*
X113986500Y-74483105D01*
X113986500Y-73016895D01*
X113990681Y-72974438D01*
X114001274Y-72939519D01*
X114018476Y-72907337D01*
X114041627Y-72879127D01*
X114069837Y-72855976D01*
X114102019Y-72838774D01*
X114136938Y-72828181D01*
X114179395Y-72824000D01*
X115320605Y-72824000D01*
X115363062Y-72828181D01*
X115363062Y-72828181D01*
G37*
G36*
X112388062Y-72828181D02*
G01*
X112422981Y-72838774D01*
X112455163Y-72855976D01*
X112483373Y-72879127D01*
X112506524Y-72907337D01*
X112523726Y-72939519D01*
X112534319Y-72974438D01*
X112538500Y-73016895D01*
X112538500Y-74483105D01*
X112534319Y-74525562D01*
X112523726Y-74560481D01*
X112506524Y-74592663D01*
X112483373Y-74620873D01*
X112455163Y-74644024D01*
X112422981Y-74661226D01*
X112388062Y-74671819D01*
X112345605Y-74676000D01*
X111204395Y-74676000D01*
X111161938Y-74671819D01*
X111127019Y-74661226D01*
X111094837Y-74644024D01*
X111066627Y-74620873D01*
X111043476Y-74592663D01*
X111026274Y-74560481D01*
X111015681Y-74525562D01*
X111011500Y-74483105D01*
X111011500Y-73016895D01*
X111015681Y-72974438D01*
X111026274Y-72939519D01*
X111043476Y-72907337D01*
X111066627Y-72879127D01*
X111094837Y-72855976D01*
X111127019Y-72838774D01*
X111161938Y-72828181D01*
X111204395Y-72824000D01*
X112345605Y-72824000D01*
X112388062Y-72828181D01*
X112388062Y-72828181D01*
G37*
G36*
X157590443Y-71495519D02*
G01*
X157656627Y-71502037D01*
X157826466Y-71553557D01*
X157982991Y-71637222D01*
X158007016Y-71656939D01*
X158120186Y-71749814D01*
X158203448Y-71851271D01*
X158232778Y-71887009D01*
X158316443Y-72043534D01*
X158367963Y-72213373D01*
X158385359Y-72390000D01*
X158367963Y-72566627D01*
X158316443Y-72736466D01*
X158232778Y-72892991D01*
X158221004Y-72907337D01*
X158120186Y-73030186D01*
X158044992Y-73091895D01*
X157982991Y-73142778D01*
X157982989Y-73142779D01*
X157831037Y-73224000D01*
X157826466Y-73226443D01*
X157656627Y-73277963D01*
X157590443Y-73284481D01*
X157524260Y-73291000D01*
X157435740Y-73291000D01*
X157369557Y-73284481D01*
X157303373Y-73277963D01*
X157133534Y-73226443D01*
X157128964Y-73224000D01*
X156977011Y-73142779D01*
X156977009Y-73142778D01*
X156915008Y-73091895D01*
X156839814Y-73030186D01*
X156738996Y-72907337D01*
X156727222Y-72892991D01*
X156643557Y-72736466D01*
X156592037Y-72566627D01*
X156574641Y-72390000D01*
X156592037Y-72213373D01*
X156643557Y-72043534D01*
X156727222Y-71887009D01*
X156756552Y-71851271D01*
X156839814Y-71749814D01*
X156952984Y-71656939D01*
X156977009Y-71637222D01*
X157133534Y-71553557D01*
X157303373Y-71502037D01*
X157369557Y-71495519D01*
X157435740Y-71489000D01*
X157524260Y-71489000D01*
X157590443Y-71495519D01*
X157590443Y-71495519D01*
G37*
G36*
X155050443Y-71495519D02*
G01*
X155116627Y-71502037D01*
X155286466Y-71553557D01*
X155442991Y-71637222D01*
X155467016Y-71656939D01*
X155580186Y-71749814D01*
X155663448Y-71851271D01*
X155692778Y-71887009D01*
X155776443Y-72043534D01*
X155827963Y-72213373D01*
X155845359Y-72390000D01*
X155827963Y-72566627D01*
X155776443Y-72736466D01*
X155692778Y-72892991D01*
X155681004Y-72907337D01*
X155580186Y-73030186D01*
X155504992Y-73091895D01*
X155442991Y-73142778D01*
X155442989Y-73142779D01*
X155291037Y-73224000D01*
X155286466Y-73226443D01*
X155116627Y-73277963D01*
X155050443Y-73284481D01*
X154984260Y-73291000D01*
X154895740Y-73291000D01*
X154829557Y-73284481D01*
X154763373Y-73277963D01*
X154593534Y-73226443D01*
X154588964Y-73224000D01*
X154437011Y-73142779D01*
X154437009Y-73142778D01*
X154375008Y-73091895D01*
X154299814Y-73030186D01*
X154198996Y-72907337D01*
X154187222Y-72892991D01*
X154103557Y-72736466D01*
X154052037Y-72566627D01*
X154034641Y-72390000D01*
X154052037Y-72213373D01*
X154103557Y-72043534D01*
X154187222Y-71887009D01*
X154216552Y-71851271D01*
X154299814Y-71749814D01*
X154412984Y-71656939D01*
X154437009Y-71637222D01*
X154593534Y-71553557D01*
X154763373Y-71502037D01*
X154829557Y-71495519D01*
X154895740Y-71489000D01*
X154984260Y-71489000D01*
X155050443Y-71495519D01*
X155050443Y-71495519D01*
G37*
G36*
X70525562Y-70253181D02*
G01*
X70560481Y-70263774D01*
X70592663Y-70280976D01*
X70620873Y-70304127D01*
X70644024Y-70332337D01*
X70661226Y-70364519D01*
X70671819Y-70399438D01*
X70676000Y-70441895D01*
X70676000Y-71583105D01*
X70671819Y-71625562D01*
X70661226Y-71660481D01*
X70644024Y-71692663D01*
X70620873Y-71720873D01*
X70592663Y-71744024D01*
X70560481Y-71761226D01*
X70525562Y-71771819D01*
X70483105Y-71776000D01*
X69016895Y-71776000D01*
X68974438Y-71771819D01*
X68939519Y-71761226D01*
X68907337Y-71744024D01*
X68879127Y-71720873D01*
X68855976Y-71692663D01*
X68838774Y-71660481D01*
X68828181Y-71625562D01*
X68824000Y-71583105D01*
X68824000Y-70441895D01*
X68828181Y-70399438D01*
X68838774Y-70364519D01*
X68855976Y-70332337D01*
X68879127Y-70304127D01*
X68907337Y-70280976D01*
X68939519Y-70263774D01*
X68974438Y-70253181D01*
X69016895Y-70249000D01*
X70483105Y-70249000D01*
X70525562Y-70253181D01*
X70525562Y-70253181D01*
G37*
G36*
X157590443Y-68955519D02*
G01*
X157656627Y-68962037D01*
X157826466Y-69013557D01*
X157982991Y-69097222D01*
X158018729Y-69126552D01*
X158120186Y-69209814D01*
X158203448Y-69311271D01*
X158232778Y-69347009D01*
X158316443Y-69503534D01*
X158367963Y-69673373D01*
X158385359Y-69850000D01*
X158367963Y-70026627D01*
X158316443Y-70196466D01*
X158232778Y-70352991D01*
X158223317Y-70364519D01*
X158120186Y-70490186D01*
X158018729Y-70573448D01*
X157982991Y-70602778D01*
X157826466Y-70686443D01*
X157656627Y-70737963D01*
X157590443Y-70744481D01*
X157524260Y-70751000D01*
X157435740Y-70751000D01*
X157369557Y-70744481D01*
X157303373Y-70737963D01*
X157133534Y-70686443D01*
X156977009Y-70602778D01*
X156941271Y-70573448D01*
X156839814Y-70490186D01*
X156736683Y-70364519D01*
X156727222Y-70352991D01*
X156643557Y-70196466D01*
X156592037Y-70026627D01*
X156574641Y-69850000D01*
X156592037Y-69673373D01*
X156643557Y-69503534D01*
X156727222Y-69347009D01*
X156756552Y-69311271D01*
X156839814Y-69209814D01*
X156941271Y-69126552D01*
X156977009Y-69097222D01*
X157133534Y-69013557D01*
X157303373Y-68962037D01*
X157369557Y-68955519D01*
X157435740Y-68949000D01*
X157524260Y-68949000D01*
X157590443Y-68955519D01*
X157590443Y-68955519D01*
G37*
G36*
X155050443Y-68955519D02*
G01*
X155116627Y-68962037D01*
X155286466Y-69013557D01*
X155442991Y-69097222D01*
X155478729Y-69126552D01*
X155580186Y-69209814D01*
X155663448Y-69311271D01*
X155692778Y-69347009D01*
X155776443Y-69503534D01*
X155827963Y-69673373D01*
X155845359Y-69850000D01*
X155827963Y-70026627D01*
X155776443Y-70196466D01*
X155692778Y-70352991D01*
X155683317Y-70364519D01*
X155580186Y-70490186D01*
X155478729Y-70573448D01*
X155442991Y-70602778D01*
X155286466Y-70686443D01*
X155116627Y-70737963D01*
X155050443Y-70744481D01*
X154984260Y-70751000D01*
X154895740Y-70751000D01*
X154829557Y-70744481D01*
X154763373Y-70737963D01*
X154593534Y-70686443D01*
X154437009Y-70602778D01*
X154401271Y-70573448D01*
X154299814Y-70490186D01*
X154196683Y-70364519D01*
X154187222Y-70352991D01*
X154103557Y-70196466D01*
X154052037Y-70026627D01*
X154034641Y-69850000D01*
X154052037Y-69673373D01*
X154103557Y-69503534D01*
X154187222Y-69347009D01*
X154216552Y-69311271D01*
X154299814Y-69209814D01*
X154401271Y-69126552D01*
X154437009Y-69097222D01*
X154593534Y-69013557D01*
X154763373Y-68962037D01*
X154829557Y-68955519D01*
X154895740Y-68949000D01*
X154984260Y-68949000D01*
X155050443Y-68955519D01*
X155050443Y-68955519D01*
G37*
G36*
X112375562Y-67828181D02*
G01*
X112410481Y-67838774D01*
X112442663Y-67855976D01*
X112470873Y-67879127D01*
X112494024Y-67907337D01*
X112511226Y-67939519D01*
X112521819Y-67974438D01*
X112526000Y-68016895D01*
X112526000Y-69483105D01*
X112521819Y-69525562D01*
X112511226Y-69560481D01*
X112494024Y-69592663D01*
X112470873Y-69620873D01*
X112442663Y-69644024D01*
X112410481Y-69661226D01*
X112375562Y-69671819D01*
X112333105Y-69676000D01*
X111191895Y-69676000D01*
X111149438Y-69671819D01*
X111114519Y-69661226D01*
X111082337Y-69644024D01*
X111054127Y-69620873D01*
X111030976Y-69592663D01*
X111013774Y-69560481D01*
X111003181Y-69525562D01*
X110999000Y-69483105D01*
X110999000Y-68016895D01*
X111003181Y-67974438D01*
X111013774Y-67939519D01*
X111030976Y-67907337D01*
X111054127Y-67879127D01*
X111082337Y-67855976D01*
X111114519Y-67838774D01*
X111149438Y-67828181D01*
X111191895Y-67824000D01*
X112333105Y-67824000D01*
X112375562Y-67828181D01*
X112375562Y-67828181D01*
G37*
G36*
X115350562Y-67828181D02*
G01*
X115385481Y-67838774D01*
X115417663Y-67855976D01*
X115445873Y-67879127D01*
X115469024Y-67907337D01*
X115486226Y-67939519D01*
X115496819Y-67974438D01*
X115501000Y-68016895D01*
X115501000Y-69483105D01*
X115496819Y-69525562D01*
X115486226Y-69560481D01*
X115469024Y-69592663D01*
X115445873Y-69620873D01*
X115417663Y-69644024D01*
X115385481Y-69661226D01*
X115350562Y-69671819D01*
X115308105Y-69676000D01*
X114166895Y-69676000D01*
X114124438Y-69671819D01*
X114089519Y-69661226D01*
X114057337Y-69644024D01*
X114029127Y-69620873D01*
X114005976Y-69592663D01*
X113988774Y-69560481D01*
X113978181Y-69525562D01*
X113974000Y-69483105D01*
X113974000Y-68016895D01*
X113978181Y-67974438D01*
X113988774Y-67939519D01*
X114005976Y-67907337D01*
X114029127Y-67879127D01*
X114057337Y-67855976D01*
X114089519Y-67838774D01*
X114124438Y-67828181D01*
X114166895Y-67824000D01*
X115308105Y-67824000D01*
X115350562Y-67828181D01*
X115350562Y-67828181D01*
G37*
G36*
X157590443Y-66415519D02*
G01*
X157656627Y-66422037D01*
X157826466Y-66473557D01*
X157982991Y-66557222D01*
X158018729Y-66586552D01*
X158120186Y-66669814D01*
X158203448Y-66771271D01*
X158232778Y-66807009D01*
X158316443Y-66963534D01*
X158367963Y-67133373D01*
X158385359Y-67310000D01*
X158367963Y-67486627D01*
X158320217Y-67644024D01*
X158316442Y-67656468D01*
X158308237Y-67671819D01*
X158232778Y-67812991D01*
X158219518Y-67829148D01*
X158120186Y-67950186D01*
X158018729Y-68033448D01*
X157982991Y-68062778D01*
X157826466Y-68146443D01*
X157656627Y-68197963D01*
X157590443Y-68204481D01*
X157524260Y-68211000D01*
X157435740Y-68211000D01*
X157369557Y-68204481D01*
X157303373Y-68197963D01*
X157133534Y-68146443D01*
X156977009Y-68062778D01*
X156941271Y-68033448D01*
X156839814Y-67950186D01*
X156740482Y-67829148D01*
X156727222Y-67812991D01*
X156651763Y-67671819D01*
X156643558Y-67656468D01*
X156639783Y-67644024D01*
X156592037Y-67486627D01*
X156574641Y-67310000D01*
X156592037Y-67133373D01*
X156643557Y-66963534D01*
X156727222Y-66807009D01*
X156756552Y-66771271D01*
X156839814Y-66669814D01*
X156941271Y-66586552D01*
X156977009Y-66557222D01*
X157133534Y-66473557D01*
X157303373Y-66422037D01*
X157369557Y-66415519D01*
X157435740Y-66409000D01*
X157524260Y-66409000D01*
X157590443Y-66415519D01*
X157590443Y-66415519D01*
G37*
G36*
X155050443Y-66415519D02*
G01*
X155116627Y-66422037D01*
X155286466Y-66473557D01*
X155442991Y-66557222D01*
X155478729Y-66586552D01*
X155580186Y-66669814D01*
X155663448Y-66771271D01*
X155692778Y-66807009D01*
X155776443Y-66963534D01*
X155827963Y-67133373D01*
X155845359Y-67310000D01*
X155827963Y-67486627D01*
X155780217Y-67644024D01*
X155776442Y-67656468D01*
X155768237Y-67671819D01*
X155692778Y-67812991D01*
X155679518Y-67829148D01*
X155580186Y-67950186D01*
X155478729Y-68033448D01*
X155442991Y-68062778D01*
X155286466Y-68146443D01*
X155116627Y-68197963D01*
X155050443Y-68204481D01*
X154984260Y-68211000D01*
X154895740Y-68211000D01*
X154829557Y-68204481D01*
X154763373Y-68197963D01*
X154593534Y-68146443D01*
X154437009Y-68062778D01*
X154401271Y-68033448D01*
X154299814Y-67950186D01*
X154200482Y-67829148D01*
X154187222Y-67812991D01*
X154111763Y-67671819D01*
X154103558Y-67656468D01*
X154099783Y-67644024D01*
X154052037Y-67486627D01*
X154034641Y-67310000D01*
X154052037Y-67133373D01*
X154103557Y-66963534D01*
X154187222Y-66807009D01*
X154216552Y-66771271D01*
X154299814Y-66669814D01*
X154401271Y-66586552D01*
X154437009Y-66557222D01*
X154593534Y-66473557D01*
X154763373Y-66422037D01*
X154829557Y-66415519D01*
X154895740Y-66409000D01*
X154984260Y-66409000D01*
X155050443Y-66415519D01*
X155050443Y-66415519D01*
G37*
G36*
X61375562Y-65828181D02*
G01*
X61410481Y-65838774D01*
X61442663Y-65855976D01*
X61470873Y-65879127D01*
X61494024Y-65907337D01*
X61511226Y-65939519D01*
X61521819Y-65974438D01*
X61526000Y-66016895D01*
X61526000Y-67483105D01*
X61521819Y-67525562D01*
X61511226Y-67560481D01*
X61494024Y-67592663D01*
X61470873Y-67620873D01*
X61442663Y-67644024D01*
X61410481Y-67661226D01*
X61375562Y-67671819D01*
X61333105Y-67676000D01*
X60191895Y-67676000D01*
X60149438Y-67671819D01*
X60114519Y-67661226D01*
X60082337Y-67644024D01*
X60054127Y-67620873D01*
X60030976Y-67592663D01*
X60013774Y-67560481D01*
X60003181Y-67525562D01*
X59999000Y-67483105D01*
X59999000Y-66016895D01*
X60003181Y-65974438D01*
X60013774Y-65939519D01*
X60030976Y-65907337D01*
X60054127Y-65879127D01*
X60082337Y-65855976D01*
X60114519Y-65838774D01*
X60149438Y-65828181D01*
X60191895Y-65824000D01*
X61333105Y-65824000D01*
X61375562Y-65828181D01*
X61375562Y-65828181D01*
G37*
G36*
X64350562Y-65828181D02*
G01*
X64385481Y-65838774D01*
X64417663Y-65855976D01*
X64445873Y-65879127D01*
X64469024Y-65907337D01*
X64486226Y-65939519D01*
X64496819Y-65974438D01*
X64501000Y-66016895D01*
X64501000Y-67483105D01*
X64496819Y-67525562D01*
X64486226Y-67560481D01*
X64469024Y-67592663D01*
X64445873Y-67620873D01*
X64417663Y-67644024D01*
X64385481Y-67661226D01*
X64350562Y-67671819D01*
X64308105Y-67676000D01*
X63166895Y-67676000D01*
X63124438Y-67671819D01*
X63089519Y-67661226D01*
X63057337Y-67644024D01*
X63029127Y-67620873D01*
X63005976Y-67592663D01*
X62988774Y-67560481D01*
X62978181Y-67525562D01*
X62974000Y-67483105D01*
X62974000Y-66016895D01*
X62978181Y-65974438D01*
X62988774Y-65939519D01*
X63005976Y-65907337D01*
X63029127Y-65879127D01*
X63057337Y-65855976D01*
X63089519Y-65838774D01*
X63124438Y-65828181D01*
X63166895Y-65824000D01*
X64308105Y-65824000D01*
X64350562Y-65828181D01*
X64350562Y-65828181D01*
G37*
G36*
X155050442Y-63875518D02*
G01*
X155116627Y-63882037D01*
X155286466Y-63933557D01*
X155442991Y-64017222D01*
X155478729Y-64046552D01*
X155580186Y-64129814D01*
X155655606Y-64221715D01*
X155692778Y-64267009D01*
X155776443Y-64423534D01*
X155827963Y-64593373D01*
X155845359Y-64770000D01*
X155827963Y-64946627D01*
X155776443Y-65116466D01*
X155692778Y-65272991D01*
X155663448Y-65308729D01*
X155580186Y-65410186D01*
X155478729Y-65493448D01*
X155442991Y-65522778D01*
X155286466Y-65606443D01*
X155116627Y-65657963D01*
X155050442Y-65664482D01*
X154984260Y-65671000D01*
X154895740Y-65671000D01*
X154829558Y-65664482D01*
X154763373Y-65657963D01*
X154593534Y-65606443D01*
X154437009Y-65522778D01*
X154401271Y-65493448D01*
X154299814Y-65410186D01*
X154216552Y-65308729D01*
X154187222Y-65272991D01*
X154103557Y-65116466D01*
X154052037Y-64946627D01*
X154034641Y-64770000D01*
X154052037Y-64593373D01*
X154103557Y-64423534D01*
X154187222Y-64267009D01*
X154224394Y-64221715D01*
X154299814Y-64129814D01*
X154401271Y-64046552D01*
X154437009Y-64017222D01*
X154593534Y-63933557D01*
X154763373Y-63882037D01*
X154829558Y-63875518D01*
X154895740Y-63869000D01*
X154984260Y-63869000D01*
X155050442Y-63875518D01*
X155050442Y-63875518D01*
G37*
G36*
X157590442Y-63875518D02*
G01*
X157656627Y-63882037D01*
X157826466Y-63933557D01*
X157982991Y-64017222D01*
X158018729Y-64046552D01*
X158120186Y-64129814D01*
X158195606Y-64221715D01*
X158232778Y-64267009D01*
X158316443Y-64423534D01*
X158367963Y-64593373D01*
X158385359Y-64770000D01*
X158367963Y-64946627D01*
X158316443Y-65116466D01*
X158232778Y-65272991D01*
X158203448Y-65308729D01*
X158120186Y-65410186D01*
X158018729Y-65493448D01*
X157982991Y-65522778D01*
X157826466Y-65606443D01*
X157656627Y-65657963D01*
X157590442Y-65664482D01*
X157524260Y-65671000D01*
X157435740Y-65671000D01*
X157369558Y-65664482D01*
X157303373Y-65657963D01*
X157133534Y-65606443D01*
X156977009Y-65522778D01*
X156941271Y-65493448D01*
X156839814Y-65410186D01*
X156756552Y-65308729D01*
X156727222Y-65272991D01*
X156643557Y-65116466D01*
X156592037Y-64946627D01*
X156574641Y-64770000D01*
X156592037Y-64593373D01*
X156643557Y-64423534D01*
X156727222Y-64267009D01*
X156764394Y-64221715D01*
X156839814Y-64129814D01*
X156941271Y-64046552D01*
X156977009Y-64017222D01*
X157133534Y-63933557D01*
X157303373Y-63882037D01*
X157369558Y-63875518D01*
X157435740Y-63869000D01*
X157524260Y-63869000D01*
X157590442Y-63875518D01*
X157590442Y-63875518D01*
G37*
G36*
X38114903Y-62047075D02*
G01*
X38342571Y-62141378D01*
X38547466Y-62278285D01*
X38721715Y-62452534D01*
X38858622Y-62657429D01*
X38952925Y-62885097D01*
X39001000Y-63126787D01*
X39001000Y-63373213D01*
X38952925Y-63614903D01*
X38858622Y-63842571D01*
X38721715Y-64047466D01*
X38547466Y-64221715D01*
X38342571Y-64358622D01*
X38342570Y-64358623D01*
X38342569Y-64358623D01*
X38114903Y-64452925D01*
X37873214Y-64501000D01*
X37626786Y-64501000D01*
X37385097Y-64452925D01*
X37157431Y-64358623D01*
X37157430Y-64358623D01*
X37157429Y-64358622D01*
X36952534Y-64221715D01*
X36778285Y-64047466D01*
X36641378Y-63842571D01*
X36547075Y-63614903D01*
X36499000Y-63373213D01*
X36499000Y-63126787D01*
X36547075Y-62885097D01*
X36641378Y-62657429D01*
X36778285Y-62452534D01*
X36952534Y-62278285D01*
X37157429Y-62141378D01*
X37385097Y-62047075D01*
X37626786Y-61999000D01*
X37873214Y-61999000D01*
X38114903Y-62047075D01*
X38114903Y-62047075D01*
G37*
G36*
X157590443Y-61335519D02*
G01*
X157656627Y-61342037D01*
X157826466Y-61393557D01*
X157982991Y-61477222D01*
X158018729Y-61506552D01*
X158120186Y-61589814D01*
X158203448Y-61691271D01*
X158232778Y-61727009D01*
X158316443Y-61883534D01*
X158367963Y-62053373D01*
X158385359Y-62230000D01*
X158367963Y-62406627D01*
X158316443Y-62576466D01*
X158232778Y-62732991D01*
X158203448Y-62768729D01*
X158120186Y-62870186D01*
X158018729Y-62953448D01*
X157982991Y-62982778D01*
X157826466Y-63066443D01*
X157656627Y-63117963D01*
X157590443Y-63124481D01*
X157524260Y-63131000D01*
X157435740Y-63131000D01*
X157369557Y-63124481D01*
X157303373Y-63117963D01*
X157133534Y-63066443D01*
X156977009Y-62982778D01*
X156941271Y-62953448D01*
X156839814Y-62870186D01*
X156756552Y-62768729D01*
X156727222Y-62732991D01*
X156643557Y-62576466D01*
X156592037Y-62406627D01*
X156574641Y-62230000D01*
X156592037Y-62053373D01*
X156643557Y-61883534D01*
X156727222Y-61727009D01*
X156756552Y-61691271D01*
X156839814Y-61589814D01*
X156941271Y-61506552D01*
X156977009Y-61477222D01*
X157133534Y-61393557D01*
X157303373Y-61342037D01*
X157369557Y-61335519D01*
X157435740Y-61329000D01*
X157524260Y-61329000D01*
X157590443Y-61335519D01*
X157590443Y-61335519D01*
G37*
G36*
X155050443Y-61335519D02*
G01*
X155116627Y-61342037D01*
X155286466Y-61393557D01*
X155442991Y-61477222D01*
X155478729Y-61506552D01*
X155580186Y-61589814D01*
X155663448Y-61691271D01*
X155692778Y-61727009D01*
X155776443Y-61883534D01*
X155827963Y-62053373D01*
X155845359Y-62230000D01*
X155827963Y-62406627D01*
X155776443Y-62576466D01*
X155692778Y-62732991D01*
X155663448Y-62768729D01*
X155580186Y-62870186D01*
X155478729Y-62953448D01*
X155442991Y-62982778D01*
X155286466Y-63066443D01*
X155116627Y-63117963D01*
X155050443Y-63124481D01*
X154984260Y-63131000D01*
X154895740Y-63131000D01*
X154829557Y-63124481D01*
X154763373Y-63117963D01*
X154593534Y-63066443D01*
X154437009Y-62982778D01*
X154401271Y-62953448D01*
X154299814Y-62870186D01*
X154216552Y-62768729D01*
X154187222Y-62732991D01*
X154103557Y-62576466D01*
X154052037Y-62406627D01*
X154034641Y-62230000D01*
X154052037Y-62053373D01*
X154103557Y-61883534D01*
X154187222Y-61727009D01*
X154216552Y-61691271D01*
X154299814Y-61589814D01*
X154401271Y-61506552D01*
X154437009Y-61477222D01*
X154593534Y-61393557D01*
X154763373Y-61342037D01*
X154829557Y-61335519D01*
X154895740Y-61329000D01*
X154984260Y-61329000D01*
X155050443Y-61335519D01*
X155050443Y-61335519D01*
G37*
G36*
X143753500Y-62906400D02*
G01*
X141746500Y-62906400D01*
X141746500Y-59400800D01*
X143753500Y-59400800D01*
X143753500Y-62906400D01*
X143753500Y-62906400D01*
G37*
G36*
X61525562Y-60978181D02*
G01*
X61560481Y-60988774D01*
X61592663Y-61005976D01*
X61620873Y-61029127D01*
X61644024Y-61057337D01*
X61661226Y-61089519D01*
X61671819Y-61124438D01*
X61676000Y-61166895D01*
X61676000Y-62308105D01*
X61671819Y-62350562D01*
X61661226Y-62385481D01*
X61644024Y-62417663D01*
X61620873Y-62445873D01*
X61592663Y-62469024D01*
X61560481Y-62486226D01*
X61525562Y-62496819D01*
X61483105Y-62501000D01*
X60016895Y-62501000D01*
X59974438Y-62496819D01*
X59939519Y-62486226D01*
X59907337Y-62469024D01*
X59879127Y-62445873D01*
X59855976Y-62417663D01*
X59838774Y-62385481D01*
X59828181Y-62350562D01*
X59824000Y-62308105D01*
X59824000Y-61166895D01*
X59828181Y-61124438D01*
X59838774Y-61089519D01*
X59855976Y-61057337D01*
X59879127Y-61029127D01*
X59907337Y-61005976D01*
X59939519Y-60988774D01*
X59974438Y-60978181D01*
X60016895Y-60974000D01*
X61483105Y-60974000D01*
X61525562Y-60978181D01*
X61525562Y-60978181D01*
G37*
G36*
X55275562Y-60978181D02*
G01*
X55310481Y-60988774D01*
X55342663Y-61005976D01*
X55370873Y-61029127D01*
X55394024Y-61057337D01*
X55411226Y-61089519D01*
X55421819Y-61124438D01*
X55426000Y-61166895D01*
X55426000Y-62308105D01*
X55421819Y-62350562D01*
X55411226Y-62385481D01*
X55394024Y-62417663D01*
X55370873Y-62445873D01*
X55342663Y-62469024D01*
X55310481Y-62486226D01*
X55275562Y-62496819D01*
X55233105Y-62501000D01*
X53766895Y-62501000D01*
X53724438Y-62496819D01*
X53689519Y-62486226D01*
X53657337Y-62469024D01*
X53629127Y-62445873D01*
X53605976Y-62417663D01*
X53588774Y-62385481D01*
X53578181Y-62350562D01*
X53574000Y-62308105D01*
X53574000Y-61166895D01*
X53578181Y-61124438D01*
X53588774Y-61089519D01*
X53605976Y-61057337D01*
X53629127Y-61029127D01*
X53657337Y-61005976D01*
X53689519Y-60988774D01*
X53724438Y-60978181D01*
X53766895Y-60974000D01*
X55233105Y-60974000D01*
X55275562Y-60978181D01*
X55275562Y-60978181D01*
G37*
G36*
X39001000Y-61001000D02*
G01*
X36499000Y-61001000D01*
X36499000Y-58499000D01*
X39001000Y-58499000D01*
X39001000Y-61001000D01*
X39001000Y-61001000D01*
G37*
G36*
X157590442Y-58795518D02*
G01*
X157656627Y-58802037D01*
X157826466Y-58853557D01*
X157982991Y-58937222D01*
X158018729Y-58966552D01*
X158120186Y-59049814D01*
X158203448Y-59151271D01*
X158232778Y-59187009D01*
X158316443Y-59343534D01*
X158367963Y-59513373D01*
X158385359Y-59690000D01*
X158367963Y-59866627D01*
X158316443Y-60036466D01*
X158232778Y-60192991D01*
X158203448Y-60228729D01*
X158120186Y-60330186D01*
X158018729Y-60413448D01*
X157982991Y-60442778D01*
X157826466Y-60526443D01*
X157656627Y-60577963D01*
X157590443Y-60584481D01*
X157524260Y-60591000D01*
X157435740Y-60591000D01*
X157369557Y-60584481D01*
X157303373Y-60577963D01*
X157133534Y-60526443D01*
X156977009Y-60442778D01*
X156941271Y-60413448D01*
X156839814Y-60330186D01*
X156756552Y-60228729D01*
X156727222Y-60192991D01*
X156643557Y-60036466D01*
X156592037Y-59866627D01*
X156574641Y-59690000D01*
X156592037Y-59513373D01*
X156643557Y-59343534D01*
X156727222Y-59187009D01*
X156756552Y-59151271D01*
X156839814Y-59049814D01*
X156941271Y-58966552D01*
X156977009Y-58937222D01*
X157133534Y-58853557D01*
X157303373Y-58802037D01*
X157369558Y-58795518D01*
X157435740Y-58789000D01*
X157524260Y-58789000D01*
X157590442Y-58795518D01*
X157590442Y-58795518D01*
G37*
G36*
X155050442Y-58795518D02*
G01*
X155116627Y-58802037D01*
X155286466Y-58853557D01*
X155442991Y-58937222D01*
X155478729Y-58966552D01*
X155580186Y-59049814D01*
X155663448Y-59151271D01*
X155692778Y-59187009D01*
X155776443Y-59343534D01*
X155827963Y-59513373D01*
X155845359Y-59690000D01*
X155827963Y-59866627D01*
X155776443Y-60036466D01*
X155692778Y-60192991D01*
X155663448Y-60228729D01*
X155580186Y-60330186D01*
X155478729Y-60413448D01*
X155442991Y-60442778D01*
X155286466Y-60526443D01*
X155116627Y-60577963D01*
X155050443Y-60584481D01*
X154984260Y-60591000D01*
X154895740Y-60591000D01*
X154829557Y-60584481D01*
X154763373Y-60577963D01*
X154593534Y-60526443D01*
X154437009Y-60442778D01*
X154401271Y-60413448D01*
X154299814Y-60330186D01*
X154216552Y-60228729D01*
X154187222Y-60192991D01*
X154103557Y-60036466D01*
X154052037Y-59866627D01*
X154034641Y-59690000D01*
X154052037Y-59513373D01*
X154103557Y-59343534D01*
X154187222Y-59187009D01*
X154216552Y-59151271D01*
X154299814Y-59049814D01*
X154401271Y-58966552D01*
X154437009Y-58937222D01*
X154593534Y-58853557D01*
X154763373Y-58802037D01*
X154829558Y-58795518D01*
X154895740Y-58789000D01*
X154984260Y-58789000D01*
X155050442Y-58795518D01*
X155050442Y-58795518D01*
G37*
G36*
X61525562Y-58003181D02*
G01*
X61560481Y-58013774D01*
X61592663Y-58030976D01*
X61620873Y-58054127D01*
X61644024Y-58082337D01*
X61661226Y-58114519D01*
X61671819Y-58149438D01*
X61676000Y-58191895D01*
X61676000Y-59333105D01*
X61671819Y-59375562D01*
X61661226Y-59410481D01*
X61644024Y-59442663D01*
X61620873Y-59470873D01*
X61592663Y-59494024D01*
X61560481Y-59511226D01*
X61525562Y-59521819D01*
X61483105Y-59526000D01*
X60016895Y-59526000D01*
X59974438Y-59521819D01*
X59939519Y-59511226D01*
X59907337Y-59494024D01*
X59879127Y-59470873D01*
X59855976Y-59442663D01*
X59838774Y-59410481D01*
X59828181Y-59375562D01*
X59824000Y-59333105D01*
X59824000Y-58191895D01*
X59828181Y-58149438D01*
X59838774Y-58114519D01*
X59855976Y-58082337D01*
X59879127Y-58054127D01*
X59907337Y-58030976D01*
X59939519Y-58013774D01*
X59974438Y-58003181D01*
X60016895Y-57999000D01*
X61483105Y-57999000D01*
X61525562Y-58003181D01*
X61525562Y-58003181D01*
G37*
G36*
X55275562Y-58003181D02*
G01*
X55310481Y-58013774D01*
X55342663Y-58030976D01*
X55370873Y-58054127D01*
X55394024Y-58082337D01*
X55411226Y-58114519D01*
X55421819Y-58149438D01*
X55426000Y-58191895D01*
X55426000Y-59333105D01*
X55421819Y-59375562D01*
X55411226Y-59410481D01*
X55394024Y-59442663D01*
X55370873Y-59470873D01*
X55342663Y-59494024D01*
X55310481Y-59511226D01*
X55275562Y-59521819D01*
X55233105Y-59526000D01*
X53766895Y-59526000D01*
X53724438Y-59521819D01*
X53689519Y-59511226D01*
X53657337Y-59494024D01*
X53629127Y-59470873D01*
X53605976Y-59442663D01*
X53588774Y-59410481D01*
X53578181Y-59375562D01*
X53574000Y-59333105D01*
X53574000Y-58191895D01*
X53578181Y-58149438D01*
X53588774Y-58114519D01*
X53605976Y-58082337D01*
X53629127Y-58054127D01*
X53657337Y-58030976D01*
X53689519Y-58013774D01*
X53724438Y-58003181D01*
X53766895Y-57999000D01*
X55233105Y-57999000D01*
X55275562Y-58003181D01*
X55275562Y-58003181D01*
G37*
G36*
X157590443Y-56255519D02*
G01*
X157656627Y-56262037D01*
X157826466Y-56313557D01*
X157982991Y-56397222D01*
X158018729Y-56426552D01*
X158120186Y-56509814D01*
X158203448Y-56611271D01*
X158232778Y-56647009D01*
X158316443Y-56803534D01*
X158367963Y-56973373D01*
X158385359Y-57150000D01*
X158367963Y-57326627D01*
X158316443Y-57496466D01*
X158232778Y-57652991D01*
X158203448Y-57688729D01*
X158120186Y-57790186D01*
X158018729Y-57873448D01*
X157982991Y-57902778D01*
X157826466Y-57986443D01*
X157656627Y-58037963D01*
X157593829Y-58044148D01*
X157524260Y-58051000D01*
X157435740Y-58051000D01*
X157366171Y-58044148D01*
X157303373Y-58037963D01*
X157133534Y-57986443D01*
X156977009Y-57902778D01*
X156941271Y-57873448D01*
X156839814Y-57790186D01*
X156756552Y-57688729D01*
X156727222Y-57652991D01*
X156643557Y-57496466D01*
X156592037Y-57326627D01*
X156574641Y-57150000D01*
X156592037Y-56973373D01*
X156643557Y-56803534D01*
X156727222Y-56647009D01*
X156756552Y-56611271D01*
X156839814Y-56509814D01*
X156941271Y-56426552D01*
X156977009Y-56397222D01*
X157133534Y-56313557D01*
X157303373Y-56262037D01*
X157369557Y-56255519D01*
X157435740Y-56249000D01*
X157524260Y-56249000D01*
X157590443Y-56255519D01*
X157590443Y-56255519D01*
G37*
G36*
X155050443Y-56255519D02*
G01*
X155116627Y-56262037D01*
X155286466Y-56313557D01*
X155442991Y-56397222D01*
X155478729Y-56426552D01*
X155580186Y-56509814D01*
X155663448Y-56611271D01*
X155692778Y-56647009D01*
X155776443Y-56803534D01*
X155827963Y-56973373D01*
X155845359Y-57150000D01*
X155827963Y-57326627D01*
X155776443Y-57496466D01*
X155692778Y-57652991D01*
X155663448Y-57688729D01*
X155580186Y-57790186D01*
X155478729Y-57873448D01*
X155442991Y-57902778D01*
X155286466Y-57986443D01*
X155116627Y-58037963D01*
X155053829Y-58044148D01*
X154984260Y-58051000D01*
X154895740Y-58051000D01*
X154826171Y-58044148D01*
X154763373Y-58037963D01*
X154593534Y-57986443D01*
X154437009Y-57902778D01*
X154401271Y-57873448D01*
X154299814Y-57790186D01*
X154216552Y-57688729D01*
X154187222Y-57652991D01*
X154103557Y-57496466D01*
X154052037Y-57326627D01*
X154034641Y-57150000D01*
X154052037Y-56973373D01*
X154103557Y-56803534D01*
X154187222Y-56647009D01*
X154216552Y-56611271D01*
X154299814Y-56509814D01*
X154401271Y-56426552D01*
X154437009Y-56397222D01*
X154593534Y-56313557D01*
X154763373Y-56262037D01*
X154829557Y-56255519D01*
X154895740Y-56249000D01*
X154984260Y-56249000D01*
X155050443Y-56255519D01*
X155050443Y-56255519D01*
G37*
G36*
X75025562Y-55728181D02*
G01*
X75060481Y-55738774D01*
X75092663Y-55755976D01*
X75120873Y-55779127D01*
X75144024Y-55807337D01*
X75161226Y-55839519D01*
X75171819Y-55874438D01*
X75176000Y-55916895D01*
X75176000Y-57058105D01*
X75171819Y-57100562D01*
X75161226Y-57135481D01*
X75144024Y-57167663D01*
X75120873Y-57195873D01*
X75092663Y-57219024D01*
X75060481Y-57236226D01*
X75025562Y-57246819D01*
X74983105Y-57251000D01*
X73516895Y-57251000D01*
X73474438Y-57246819D01*
X73439519Y-57236226D01*
X73407337Y-57219024D01*
X73379127Y-57195873D01*
X73355976Y-57167663D01*
X73338774Y-57135481D01*
X73328181Y-57100562D01*
X73324000Y-57058105D01*
X73324000Y-55916895D01*
X73328181Y-55874438D01*
X73338774Y-55839519D01*
X73355976Y-55807337D01*
X73379127Y-55779127D01*
X73407337Y-55755976D01*
X73439519Y-55738774D01*
X73474438Y-55728181D01*
X73516895Y-55724000D01*
X74983105Y-55724000D01*
X75025562Y-55728181D01*
X75025562Y-55728181D01*
G37*
G36*
X51350562Y-55078181D02*
G01*
X51385481Y-55088774D01*
X51417663Y-55105976D01*
X51445873Y-55129127D01*
X51469024Y-55157337D01*
X51486226Y-55189519D01*
X51496819Y-55224438D01*
X51501000Y-55266895D01*
X51501000Y-56733105D01*
X51496819Y-56775562D01*
X51486226Y-56810481D01*
X51469024Y-56842663D01*
X51445873Y-56870873D01*
X51417663Y-56894024D01*
X51385481Y-56911226D01*
X51350562Y-56921819D01*
X51308105Y-56926000D01*
X50166895Y-56926000D01*
X50124438Y-56921819D01*
X50089519Y-56911226D01*
X50057337Y-56894024D01*
X50029127Y-56870873D01*
X50005976Y-56842663D01*
X49988774Y-56810481D01*
X49978181Y-56775562D01*
X49974000Y-56733105D01*
X49974000Y-55266895D01*
X49978181Y-55224438D01*
X49988774Y-55189519D01*
X50005976Y-55157337D01*
X50029127Y-55129127D01*
X50057337Y-55105976D01*
X50089519Y-55088774D01*
X50124438Y-55078181D01*
X50166895Y-55074000D01*
X51308105Y-55074000D01*
X51350562Y-55078181D01*
X51350562Y-55078181D01*
G37*
G36*
X48375562Y-55078181D02*
G01*
X48410481Y-55088774D01*
X48442663Y-55105976D01*
X48470873Y-55129127D01*
X48494024Y-55157337D01*
X48511226Y-55189519D01*
X48521819Y-55224438D01*
X48526000Y-55266895D01*
X48526000Y-56733105D01*
X48521819Y-56775562D01*
X48511226Y-56810481D01*
X48494024Y-56842663D01*
X48470873Y-56870873D01*
X48442663Y-56894024D01*
X48410481Y-56911226D01*
X48375562Y-56921819D01*
X48333105Y-56926000D01*
X47191895Y-56926000D01*
X47149438Y-56921819D01*
X47114519Y-56911226D01*
X47082337Y-56894024D01*
X47054127Y-56870873D01*
X47030976Y-56842663D01*
X47013774Y-56810481D01*
X47003181Y-56775562D01*
X46999000Y-56733105D01*
X46999000Y-55266895D01*
X47003181Y-55224438D01*
X47013774Y-55189519D01*
X47030976Y-55157337D01*
X47054127Y-55129127D01*
X47082337Y-55105976D01*
X47114519Y-55088774D01*
X47149438Y-55078181D01*
X47191895Y-55074000D01*
X48333105Y-55074000D01*
X48375562Y-55078181D01*
X48375562Y-55078181D01*
G37*
G36*
X143753500Y-56099200D02*
G01*
X141746500Y-56099200D01*
X141746500Y-52593600D01*
X143753500Y-52593600D01*
X143753500Y-56099200D01*
X143753500Y-56099200D01*
G37*
G36*
X155050442Y-53715518D02*
G01*
X155116627Y-53722037D01*
X155286466Y-53773557D01*
X155442991Y-53857222D01*
X155478729Y-53886552D01*
X155580186Y-53969814D01*
X155654501Y-54060369D01*
X155692778Y-54107009D01*
X155776443Y-54263534D01*
X155827963Y-54433373D01*
X155845359Y-54610000D01*
X155827963Y-54786627D01*
X155776443Y-54956466D01*
X155692778Y-55112991D01*
X155687725Y-55119148D01*
X155580186Y-55250186D01*
X155478729Y-55333448D01*
X155442991Y-55362778D01*
X155286466Y-55446443D01*
X155116627Y-55497963D01*
X155050442Y-55504482D01*
X154984260Y-55511000D01*
X154895740Y-55511000D01*
X154829558Y-55504482D01*
X154763373Y-55497963D01*
X154593534Y-55446443D01*
X154437009Y-55362778D01*
X154401271Y-55333448D01*
X154299814Y-55250186D01*
X154192275Y-55119148D01*
X154187222Y-55112991D01*
X154103557Y-54956466D01*
X154052037Y-54786627D01*
X154034641Y-54610000D01*
X154052037Y-54433373D01*
X154103557Y-54263534D01*
X154187222Y-54107009D01*
X154225499Y-54060369D01*
X154299814Y-53969814D01*
X154401271Y-53886552D01*
X154437009Y-53857222D01*
X154593534Y-53773557D01*
X154763373Y-53722037D01*
X154829558Y-53715518D01*
X154895740Y-53709000D01*
X154984260Y-53709000D01*
X155050442Y-53715518D01*
X155050442Y-53715518D01*
G37*
G36*
X157590442Y-53715518D02*
G01*
X157656627Y-53722037D01*
X157826466Y-53773557D01*
X157982991Y-53857222D01*
X158018729Y-53886552D01*
X158120186Y-53969814D01*
X158194501Y-54060369D01*
X158232778Y-54107009D01*
X158316443Y-54263534D01*
X158367963Y-54433373D01*
X158385359Y-54610000D01*
X158367963Y-54786627D01*
X158316443Y-54956466D01*
X158232778Y-55112991D01*
X158227725Y-55119148D01*
X158120186Y-55250186D01*
X158018729Y-55333448D01*
X157982991Y-55362778D01*
X157826466Y-55446443D01*
X157656627Y-55497963D01*
X157590442Y-55504482D01*
X157524260Y-55511000D01*
X157435740Y-55511000D01*
X157369558Y-55504482D01*
X157303373Y-55497963D01*
X157133534Y-55446443D01*
X156977009Y-55362778D01*
X156941271Y-55333448D01*
X156839814Y-55250186D01*
X156732275Y-55119148D01*
X156727222Y-55112991D01*
X156643557Y-54956466D01*
X156592037Y-54786627D01*
X156574641Y-54610000D01*
X156592037Y-54433373D01*
X156643557Y-54263534D01*
X156727222Y-54107009D01*
X156765499Y-54060369D01*
X156839814Y-53969814D01*
X156941271Y-53886552D01*
X156977009Y-53857222D01*
X157133534Y-53773557D01*
X157303373Y-53722037D01*
X157369558Y-53715518D01*
X157435740Y-53709000D01*
X157524260Y-53709000D01*
X157590442Y-53715518D01*
X157590442Y-53715518D01*
G37*
G36*
X75025562Y-52753181D02*
G01*
X75060481Y-52763774D01*
X75092663Y-52780976D01*
X75120873Y-52804127D01*
X75144024Y-52832337D01*
X75161226Y-52864519D01*
X75171819Y-52899438D01*
X75176000Y-52941895D01*
X75176000Y-54083105D01*
X75171819Y-54125562D01*
X75161226Y-54160481D01*
X75144024Y-54192663D01*
X75120873Y-54220873D01*
X75092663Y-54244024D01*
X75060481Y-54261226D01*
X75025562Y-54271819D01*
X74983105Y-54276000D01*
X73516895Y-54276000D01*
X73474438Y-54271819D01*
X73439519Y-54261226D01*
X73407337Y-54244024D01*
X73379127Y-54220873D01*
X73355976Y-54192663D01*
X73338774Y-54160481D01*
X73328181Y-54125562D01*
X73324000Y-54083105D01*
X73324000Y-52941895D01*
X73328181Y-52899438D01*
X73338774Y-52864519D01*
X73355976Y-52832337D01*
X73379127Y-52804127D01*
X73407337Y-52780976D01*
X73439519Y-52763774D01*
X73474438Y-52753181D01*
X73516895Y-52749000D01*
X74983105Y-52749000D01*
X75025562Y-52753181D01*
X75025562Y-52753181D01*
G37*
G36*
X43984000Y-53825000D02*
G01*
X41596000Y-53825000D01*
X41596000Y-50675000D01*
X43984000Y-50675000D01*
X43984000Y-53825000D01*
X43984000Y-53825000D01*
G37*
G36*
X38904000Y-53825000D02*
G01*
X36516000Y-53825000D01*
X36516000Y-50675000D01*
X38904000Y-50675000D01*
X38904000Y-53825000D01*
X38904000Y-53825000D01*
G37*
G36*
X61183200Y-53703799D02*
G01*
X59658800Y-53703799D01*
X59658800Y-51296201D01*
X61183200Y-51296201D01*
X61183200Y-53703799D01*
X61183200Y-53703799D01*
G37*
G36*
X55341200Y-53703799D02*
G01*
X53816800Y-53703799D01*
X53816800Y-51296201D01*
X55341200Y-51296201D01*
X55341200Y-53703799D01*
X55341200Y-53703799D01*
G37*
G36*
X157590443Y-51175519D02*
G01*
X157656627Y-51182037D01*
X157826466Y-51233557D01*
X157982991Y-51317222D01*
X158018729Y-51346552D01*
X158120186Y-51429814D01*
X158203448Y-51531271D01*
X158232778Y-51567009D01*
X158316443Y-51723534D01*
X158367963Y-51893373D01*
X158385359Y-52070000D01*
X158367963Y-52246627D01*
X158316443Y-52416466D01*
X158232778Y-52572991D01*
X158213730Y-52596201D01*
X158120186Y-52710186D01*
X158048042Y-52769392D01*
X157982991Y-52822778D01*
X157826466Y-52906443D01*
X157656627Y-52957963D01*
X157590442Y-52964482D01*
X157524260Y-52971000D01*
X157435740Y-52971000D01*
X157369558Y-52964482D01*
X157303373Y-52957963D01*
X157133534Y-52906443D01*
X156977009Y-52822778D01*
X156911958Y-52769392D01*
X156839814Y-52710186D01*
X156746270Y-52596201D01*
X156727222Y-52572991D01*
X156643557Y-52416466D01*
X156592037Y-52246627D01*
X156574641Y-52070000D01*
X156592037Y-51893373D01*
X156643557Y-51723534D01*
X156727222Y-51567009D01*
X156756552Y-51531271D01*
X156839814Y-51429814D01*
X156941271Y-51346552D01*
X156977009Y-51317222D01*
X157133534Y-51233557D01*
X157303373Y-51182037D01*
X157369557Y-51175519D01*
X157435740Y-51169000D01*
X157524260Y-51169000D01*
X157590443Y-51175519D01*
X157590443Y-51175519D01*
G37*
G36*
X155841000Y-52971000D02*
G01*
X154039000Y-52971000D01*
X154039000Y-51169000D01*
X155841000Y-51169000D01*
X155841000Y-52971000D01*
X155841000Y-52971000D01*
G37*
G36*
X129924810Y-48225935D02*
G01*
X130071309Y-48286617D01*
X130071310Y-48286618D01*
X130203158Y-48374716D01*
X130315284Y-48486842D01*
X130315285Y-48486844D01*
X130403383Y-48618691D01*
X130464065Y-48765190D01*
X130495000Y-48920713D01*
X130495000Y-49079287D01*
X130464065Y-49234810D01*
X130403383Y-49381309D01*
X130403382Y-49381310D01*
X130315284Y-49513158D01*
X130203158Y-49625284D01*
X130136785Y-49669633D01*
X130071309Y-49713383D01*
X129924810Y-49774065D01*
X129769287Y-49805000D01*
X129610713Y-49805000D01*
X129455190Y-49774065D01*
X129308691Y-49713383D01*
X129243215Y-49669633D01*
X129176842Y-49625284D01*
X129064716Y-49513158D01*
X128976618Y-49381310D01*
X128976617Y-49381309D01*
X128915935Y-49234810D01*
X128885000Y-49079287D01*
X128885000Y-48920713D01*
X128915935Y-48765190D01*
X128976617Y-48618691D01*
X129064715Y-48486844D01*
X129064716Y-48486842D01*
X129176842Y-48374716D01*
X129308690Y-48286618D01*
X129308691Y-48286617D01*
X129455190Y-48225935D01*
X129610713Y-48195000D01*
X129769287Y-48195000D01*
X129924810Y-48225935D01*
X129924810Y-48225935D01*
G37*
G36*
X137544810Y-48225935D02*
G01*
X137691309Y-48286617D01*
X137691310Y-48286618D01*
X137823158Y-48374716D01*
X137935284Y-48486842D01*
X137935285Y-48486844D01*
X138023383Y-48618691D01*
X138084065Y-48765190D01*
X138115000Y-48920713D01*
X138115000Y-49079287D01*
X138084065Y-49234810D01*
X138023383Y-49381309D01*
X138023382Y-49381310D01*
X137935284Y-49513158D01*
X137823158Y-49625284D01*
X137756785Y-49669633D01*
X137691309Y-49713383D01*
X137544810Y-49774065D01*
X137389287Y-49805000D01*
X137230713Y-49805000D01*
X137075190Y-49774065D01*
X136928691Y-49713383D01*
X136863215Y-49669633D01*
X136796842Y-49625284D01*
X136684716Y-49513158D01*
X136596618Y-49381310D01*
X136596617Y-49381309D01*
X136535935Y-49234810D01*
X136505000Y-49079287D01*
X136505000Y-48920713D01*
X136535935Y-48765190D01*
X136596617Y-48618691D01*
X136684715Y-48486844D01*
X136684716Y-48486842D01*
X136796842Y-48374716D01*
X136928690Y-48286618D01*
X136928691Y-48286617D01*
X137075190Y-48225935D01*
X137230713Y-48195000D01*
X137389287Y-48195000D01*
X137544810Y-48225935D01*
X137544810Y-48225935D01*
G37*
G36*
X132464810Y-48225935D02*
G01*
X132611309Y-48286617D01*
X132611310Y-48286618D01*
X132743158Y-48374716D01*
X132855284Y-48486842D01*
X132855285Y-48486844D01*
X132943383Y-48618691D01*
X133004065Y-48765190D01*
X133035000Y-48920713D01*
X133035000Y-49079287D01*
X133004065Y-49234810D01*
X132943383Y-49381309D01*
X132943382Y-49381310D01*
X132855284Y-49513158D01*
X132743158Y-49625284D01*
X132676785Y-49669633D01*
X132611309Y-49713383D01*
X132464810Y-49774065D01*
X132309287Y-49805000D01*
X132150713Y-49805000D01*
X131995190Y-49774065D01*
X131848691Y-49713383D01*
X131783215Y-49669633D01*
X131716842Y-49625284D01*
X131604716Y-49513158D01*
X131516618Y-49381310D01*
X131516617Y-49381309D01*
X131455935Y-49234810D01*
X131425000Y-49079287D01*
X131425000Y-48920713D01*
X131455935Y-48765190D01*
X131516617Y-48618691D01*
X131604715Y-48486844D01*
X131604716Y-48486842D01*
X131716842Y-48374716D01*
X131848690Y-48286618D01*
X131848691Y-48286617D01*
X131995190Y-48225935D01*
X132150713Y-48195000D01*
X132309287Y-48195000D01*
X132464810Y-48225935D01*
X132464810Y-48225935D01*
G37*
G36*
X140084810Y-48225935D02*
G01*
X140231309Y-48286617D01*
X140231310Y-48286618D01*
X140363158Y-48374716D01*
X140475284Y-48486842D01*
X140475285Y-48486844D01*
X140563383Y-48618691D01*
X140624065Y-48765190D01*
X140655000Y-48920713D01*
X140655000Y-49079287D01*
X140624065Y-49234810D01*
X140563383Y-49381309D01*
X140563382Y-49381310D01*
X140475284Y-49513158D01*
X140363158Y-49625284D01*
X140296785Y-49669633D01*
X140231309Y-49713383D01*
X140084810Y-49774065D01*
X139929287Y-49805000D01*
X139770713Y-49805000D01*
X139615190Y-49774065D01*
X139468691Y-49713383D01*
X139403215Y-49669633D01*
X139336842Y-49625284D01*
X139224716Y-49513158D01*
X139136618Y-49381310D01*
X139136617Y-49381309D01*
X139075935Y-49234810D01*
X139045000Y-49079287D01*
X139045000Y-48920713D01*
X139075935Y-48765190D01*
X139136617Y-48618691D01*
X139224715Y-48486844D01*
X139224716Y-48486842D01*
X139336842Y-48374716D01*
X139468690Y-48286618D01*
X139468691Y-48286617D01*
X139615190Y-48225935D01*
X139770713Y-48195000D01*
X139929287Y-48195000D01*
X140084810Y-48225935D01*
X140084810Y-48225935D01*
G37*
G36*
X142624810Y-48225935D02*
G01*
X142771309Y-48286617D01*
X142771310Y-48286618D01*
X142903158Y-48374716D01*
X143015284Y-48486842D01*
X143015285Y-48486844D01*
X143103383Y-48618691D01*
X143164065Y-48765190D01*
X143195000Y-48920713D01*
X143195000Y-49079287D01*
X143164065Y-49234810D01*
X143103383Y-49381309D01*
X143103382Y-49381310D01*
X143015284Y-49513158D01*
X142903158Y-49625284D01*
X142836785Y-49669633D01*
X142771309Y-49713383D01*
X142624810Y-49774065D01*
X142469287Y-49805000D01*
X142310713Y-49805000D01*
X142155190Y-49774065D01*
X142008691Y-49713383D01*
X141943215Y-49669633D01*
X141876842Y-49625284D01*
X141764716Y-49513158D01*
X141676618Y-49381310D01*
X141676617Y-49381309D01*
X141615935Y-49234810D01*
X141585000Y-49079287D01*
X141585000Y-48920713D01*
X141615935Y-48765190D01*
X141676617Y-48618691D01*
X141764715Y-48486844D01*
X141764716Y-48486842D01*
X141876842Y-48374716D01*
X142008690Y-48286618D01*
X142008691Y-48286617D01*
X142155190Y-48225935D01*
X142310713Y-48195000D01*
X142469287Y-48195000D01*
X142624810Y-48225935D01*
X142624810Y-48225935D01*
G37*
G36*
X145164810Y-48225935D02*
G01*
X145311309Y-48286617D01*
X145311310Y-48286618D01*
X145443158Y-48374716D01*
X145555284Y-48486842D01*
X145555285Y-48486844D01*
X145643383Y-48618691D01*
X145704065Y-48765190D01*
X145735000Y-48920713D01*
X145735000Y-49079287D01*
X145704065Y-49234810D01*
X145643383Y-49381309D01*
X145643382Y-49381310D01*
X145555284Y-49513158D01*
X145443158Y-49625284D01*
X145376785Y-49669633D01*
X145311309Y-49713383D01*
X145164810Y-49774065D01*
X145009287Y-49805000D01*
X144850713Y-49805000D01*
X144695190Y-49774065D01*
X144548691Y-49713383D01*
X144483215Y-49669633D01*
X144416842Y-49625284D01*
X144304716Y-49513158D01*
X144216618Y-49381310D01*
X144216617Y-49381309D01*
X144155935Y-49234810D01*
X144125000Y-49079287D01*
X144125000Y-48920713D01*
X144155935Y-48765190D01*
X144216617Y-48618691D01*
X144304715Y-48486844D01*
X144304716Y-48486842D01*
X144416842Y-48374716D01*
X144548690Y-48286618D01*
X144548691Y-48286617D01*
X144695190Y-48225935D01*
X144850713Y-48195000D01*
X145009287Y-48195000D01*
X145164810Y-48225935D01*
X145164810Y-48225935D01*
G37*
G36*
X148275000Y-49805000D02*
G01*
X146665000Y-49805000D01*
X146665000Y-48195000D01*
X148275000Y-48195000D01*
X148275000Y-49805000D01*
X148275000Y-49805000D01*
G37*
G36*
X135004810Y-48225935D02*
G01*
X135151309Y-48286617D01*
X135151310Y-48286618D01*
X135283158Y-48374716D01*
X135395284Y-48486842D01*
X135395285Y-48486844D01*
X135483383Y-48618691D01*
X135544065Y-48765190D01*
X135575000Y-48920713D01*
X135575000Y-49079287D01*
X135544065Y-49234810D01*
X135483383Y-49381309D01*
X135483382Y-49381310D01*
X135395284Y-49513158D01*
X135283158Y-49625284D01*
X135216785Y-49669633D01*
X135151309Y-49713383D01*
X135004810Y-49774065D01*
X134849287Y-49805000D01*
X134690713Y-49805000D01*
X134535190Y-49774065D01*
X134388691Y-49713383D01*
X134323215Y-49669633D01*
X134256842Y-49625284D01*
X134144716Y-49513158D01*
X134056618Y-49381310D01*
X134056617Y-49381309D01*
X133995935Y-49234810D01*
X133965000Y-49079287D01*
X133965000Y-48920713D01*
X133995935Y-48765190D01*
X134056617Y-48618691D01*
X134144715Y-48486844D01*
X134144716Y-48486842D01*
X134256842Y-48374716D01*
X134388690Y-48286618D01*
X134388691Y-48286617D01*
X134535190Y-48225935D01*
X134690713Y-48195000D01*
X134849287Y-48195000D01*
X135004810Y-48225935D01*
X135004810Y-48225935D01*
G37*
G36*
X127384810Y-48225935D02*
G01*
X127531309Y-48286617D01*
X127531310Y-48286618D01*
X127663158Y-48374716D01*
X127775284Y-48486842D01*
X127775285Y-48486844D01*
X127863383Y-48618691D01*
X127924065Y-48765190D01*
X127955000Y-48920713D01*
X127955000Y-49079287D01*
X127924065Y-49234810D01*
X127863383Y-49381309D01*
X127863382Y-49381310D01*
X127775284Y-49513158D01*
X127663158Y-49625284D01*
X127596785Y-49669633D01*
X127531309Y-49713383D01*
X127384810Y-49774065D01*
X127229287Y-49805000D01*
X127070713Y-49805000D01*
X126915190Y-49774065D01*
X126768691Y-49713383D01*
X126703215Y-49669633D01*
X126636842Y-49625284D01*
X126524716Y-49513158D01*
X126436618Y-49381310D01*
X126436617Y-49381309D01*
X126375935Y-49234810D01*
X126345000Y-49079287D01*
X126345000Y-48920713D01*
X126375935Y-48765190D01*
X126436617Y-48618691D01*
X126524715Y-48486844D01*
X126524716Y-48486842D01*
X126636842Y-48374716D01*
X126768690Y-48286618D01*
X126768691Y-48286617D01*
X126915190Y-48225935D01*
X127070713Y-48195000D01*
X127229287Y-48195000D01*
X127384810Y-48225935D01*
X127384810Y-48225935D01*
G37*
G36*
X119764810Y-48225935D02*
G01*
X119911309Y-48286617D01*
X119911310Y-48286618D01*
X120043158Y-48374716D01*
X120155284Y-48486842D01*
X120155285Y-48486844D01*
X120243383Y-48618691D01*
X120304065Y-48765190D01*
X120335000Y-48920713D01*
X120335000Y-49079287D01*
X120304065Y-49234810D01*
X120243383Y-49381309D01*
X120243382Y-49381310D01*
X120155284Y-49513158D01*
X120043158Y-49625284D01*
X119976785Y-49669633D01*
X119911309Y-49713383D01*
X119764810Y-49774065D01*
X119609287Y-49805000D01*
X119450713Y-49805000D01*
X119295190Y-49774065D01*
X119148691Y-49713383D01*
X119083215Y-49669633D01*
X119016842Y-49625284D01*
X118904716Y-49513158D01*
X118816618Y-49381310D01*
X118816617Y-49381309D01*
X118755935Y-49234810D01*
X118725000Y-49079287D01*
X118725000Y-48920713D01*
X118755935Y-48765190D01*
X118816617Y-48618691D01*
X118904715Y-48486844D01*
X118904716Y-48486842D01*
X119016842Y-48374716D01*
X119148690Y-48286618D01*
X119148691Y-48286617D01*
X119295190Y-48225935D01*
X119450713Y-48195000D01*
X119609287Y-48195000D01*
X119764810Y-48225935D01*
X119764810Y-48225935D01*
G37*
G36*
X122304810Y-48225935D02*
G01*
X122451309Y-48286617D01*
X122451310Y-48286618D01*
X122583158Y-48374716D01*
X122695284Y-48486842D01*
X122695285Y-48486844D01*
X122783383Y-48618691D01*
X122844065Y-48765190D01*
X122875000Y-48920713D01*
X122875000Y-49079287D01*
X122844065Y-49234810D01*
X122783383Y-49381309D01*
X122783382Y-49381310D01*
X122695284Y-49513158D01*
X122583158Y-49625284D01*
X122516785Y-49669633D01*
X122451309Y-49713383D01*
X122304810Y-49774065D01*
X122149287Y-49805000D01*
X121990713Y-49805000D01*
X121835190Y-49774065D01*
X121688691Y-49713383D01*
X121623215Y-49669633D01*
X121556842Y-49625284D01*
X121444716Y-49513158D01*
X121356618Y-49381310D01*
X121356617Y-49381309D01*
X121295935Y-49234810D01*
X121265000Y-49079287D01*
X121265000Y-48920713D01*
X121295935Y-48765190D01*
X121356617Y-48618691D01*
X121444715Y-48486844D01*
X121444716Y-48486842D01*
X121556842Y-48374716D01*
X121688690Y-48286618D01*
X121688691Y-48286617D01*
X121835190Y-48225935D01*
X121990713Y-48195000D01*
X122149287Y-48195000D01*
X122304810Y-48225935D01*
X122304810Y-48225935D01*
G37*
G36*
X124844810Y-48225935D02*
G01*
X124991309Y-48286617D01*
X124991310Y-48286618D01*
X125123158Y-48374716D01*
X125235284Y-48486842D01*
X125235285Y-48486844D01*
X125323383Y-48618691D01*
X125384065Y-48765190D01*
X125415000Y-48920713D01*
X125415000Y-49079287D01*
X125384065Y-49234810D01*
X125323383Y-49381309D01*
X125323382Y-49381310D01*
X125235284Y-49513158D01*
X125123158Y-49625284D01*
X125056785Y-49669633D01*
X124991309Y-49713383D01*
X124844810Y-49774065D01*
X124689287Y-49805000D01*
X124530713Y-49805000D01*
X124375190Y-49774065D01*
X124228691Y-49713383D01*
X124163215Y-49669633D01*
X124096842Y-49625284D01*
X123984716Y-49513158D01*
X123896618Y-49381310D01*
X123896617Y-49381309D01*
X123835935Y-49234810D01*
X123805000Y-49079287D01*
X123805000Y-48920713D01*
X123835935Y-48765190D01*
X123896617Y-48618691D01*
X123984715Y-48486844D01*
X123984716Y-48486842D01*
X124096842Y-48374716D01*
X124228690Y-48286618D01*
X124228691Y-48286617D01*
X124375190Y-48225935D01*
X124530713Y-48195000D01*
X124689287Y-48195000D01*
X124844810Y-48225935D01*
X124844810Y-48225935D01*
G37*
G36*
X50478820Y-46778103D02*
G01*
X50512985Y-46788467D01*
X50544464Y-46805293D01*
X50572060Y-46827940D01*
X50594707Y-46855536D01*
X50611533Y-46887015D01*
X50621897Y-46921180D01*
X50626000Y-46962842D01*
X50626000Y-48212158D01*
X50621897Y-48253820D01*
X50611533Y-48287985D01*
X50594707Y-48319464D01*
X50572060Y-48347060D01*
X50544464Y-48369707D01*
X50512985Y-48386533D01*
X50478820Y-48396897D01*
X50437158Y-48401000D01*
X48062842Y-48401000D01*
X48021180Y-48396897D01*
X47987015Y-48386533D01*
X47955536Y-48369707D01*
X47927940Y-48347060D01*
X47905293Y-48319464D01*
X47888467Y-48287985D01*
X47878103Y-48253820D01*
X47874000Y-48212158D01*
X47874000Y-46962842D01*
X47878103Y-46921180D01*
X47888467Y-46887015D01*
X47905293Y-46855536D01*
X47927940Y-46827940D01*
X47955536Y-46805293D01*
X47987015Y-46788467D01*
X48021180Y-46778103D01*
X48062842Y-46774000D01*
X50437158Y-46774000D01*
X50478820Y-46778103D01*
X50478820Y-46778103D01*
G37*
G36*
X56875562Y-42828181D02*
G01*
X56910481Y-42838774D01*
X56942663Y-42855976D01*
X56970873Y-42879127D01*
X56994024Y-42907337D01*
X57011226Y-42939519D01*
X57021819Y-42974438D01*
X57026000Y-43016895D01*
X57026000Y-44483105D01*
X57021819Y-44525562D01*
X57011226Y-44560481D01*
X56994024Y-44592663D01*
X56970873Y-44620873D01*
X56942663Y-44644024D01*
X56910481Y-44661226D01*
X56875562Y-44671819D01*
X56833105Y-44676000D01*
X55691895Y-44676000D01*
X55649438Y-44671819D01*
X55614519Y-44661226D01*
X55582337Y-44644024D01*
X55554127Y-44620873D01*
X55530976Y-44592663D01*
X55513774Y-44560481D01*
X55503181Y-44525562D01*
X55499000Y-44483105D01*
X55499000Y-43016895D01*
X55503181Y-42974438D01*
X55513774Y-42939519D01*
X55530976Y-42907337D01*
X55554127Y-42879127D01*
X55582337Y-42855976D01*
X55614519Y-42838774D01*
X55649438Y-42828181D01*
X55691895Y-42824000D01*
X56833105Y-42824000D01*
X56875562Y-42828181D01*
X56875562Y-42828181D01*
G37*
G36*
X59850562Y-42828181D02*
G01*
X59885481Y-42838774D01*
X59917663Y-42855976D01*
X59945873Y-42879127D01*
X59969024Y-42907337D01*
X59986226Y-42939519D01*
X59996819Y-42974438D01*
X60001000Y-43016895D01*
X60001000Y-44483105D01*
X59996819Y-44525562D01*
X59986226Y-44560481D01*
X59969024Y-44592663D01*
X59945873Y-44620873D01*
X59917663Y-44644024D01*
X59885481Y-44661226D01*
X59850562Y-44671819D01*
X59808105Y-44676000D01*
X58666895Y-44676000D01*
X58624438Y-44671819D01*
X58589519Y-44661226D01*
X58557337Y-44644024D01*
X58529127Y-44620873D01*
X58505976Y-44592663D01*
X58488774Y-44560481D01*
X58478181Y-44525562D01*
X58474000Y-44483105D01*
X58474000Y-43016895D01*
X58478181Y-42974438D01*
X58488774Y-42939519D01*
X58505976Y-42907337D01*
X58529127Y-42879127D01*
X58557337Y-42855976D01*
X58589519Y-42838774D01*
X58624438Y-42828181D01*
X58666895Y-42824000D01*
X59808105Y-42824000D01*
X59850562Y-42828181D01*
X59850562Y-42828181D01*
G37*
G36*
X50478820Y-42103103D02*
G01*
X50512985Y-42113467D01*
X50544464Y-42130293D01*
X50572060Y-42152940D01*
X50594707Y-42180536D01*
X50611533Y-42212015D01*
X50621897Y-42246180D01*
X50626000Y-42287842D01*
X50626000Y-43537158D01*
X50621897Y-43578820D01*
X50611533Y-43612985D01*
X50594707Y-43644464D01*
X50572060Y-43672060D01*
X50544464Y-43694707D01*
X50512985Y-43711533D01*
X50478820Y-43721897D01*
X50437158Y-43726000D01*
X48062842Y-43726000D01*
X48021180Y-43721897D01*
X47987015Y-43711533D01*
X47955536Y-43694707D01*
X47927940Y-43672060D01*
X47905293Y-43644464D01*
X47888467Y-43612985D01*
X47878103Y-43578820D01*
X47874000Y-43537158D01*
X47874000Y-42287842D01*
X47878103Y-42246180D01*
X47888467Y-42212015D01*
X47905293Y-42180536D01*
X47927940Y-42152940D01*
X47955536Y-42130293D01*
X47987015Y-42113467D01*
X48021180Y-42103103D01*
X48062842Y-42099000D01*
X50437158Y-42099000D01*
X50478820Y-42103103D01*
X50478820Y-42103103D01*
G37*
G36*
X31114239Y-27291467D02*
G01*
X31428282Y-27353934D01*
X32019926Y-27599001D01*
X32552392Y-27954784D01*
X33005216Y-28407608D01*
X33360999Y-28940074D01*
X33606066Y-29531718D01*
X33731000Y-30159804D01*
X33731000Y-30800196D01*
X33606066Y-31428282D01*
X33360999Y-32019926D01*
X33075986Y-32446477D01*
X33052533Y-32481578D01*
X33005216Y-32552392D01*
X32552392Y-33005216D01*
X32019926Y-33360999D01*
X31428282Y-33606066D01*
X31202383Y-33651000D01*
X30800197Y-33731000D01*
X30159803Y-33731000D01*
X29757617Y-33651000D01*
X29531718Y-33606066D01*
X28940074Y-33360999D01*
X28407608Y-33005216D01*
X27954784Y-32552392D01*
X27907468Y-32481578D01*
X27884014Y-32446477D01*
X27599001Y-32019926D01*
X27353934Y-31428282D01*
X27229000Y-30800196D01*
X27229000Y-30159804D01*
X27353934Y-29531718D01*
X27599001Y-28940074D01*
X27954784Y-28407608D01*
X28407608Y-27954784D01*
X28940074Y-27599001D01*
X29531718Y-27353934D01*
X29845761Y-27291467D01*
X30159803Y-27229000D01*
X30800197Y-27229000D01*
X31114239Y-27291467D01*
X31114239Y-27291467D01*
G37*
G36*
X160654239Y-27291467D02*
G01*
X160968282Y-27353934D01*
X161559926Y-27599001D01*
X162092392Y-27954784D01*
X162545216Y-28407608D01*
X162900999Y-28940074D01*
X163146066Y-29531718D01*
X163271000Y-30159804D01*
X163271000Y-30800196D01*
X163146066Y-31428282D01*
X162900999Y-32019926D01*
X162615986Y-32446477D01*
X162592533Y-32481578D01*
X162545216Y-32552392D01*
X162092392Y-33005216D01*
X161559926Y-33360999D01*
X160968282Y-33606066D01*
X160742383Y-33651000D01*
X160340197Y-33731000D01*
X159699803Y-33731000D01*
X159297617Y-33651000D01*
X159071718Y-33606066D01*
X158480074Y-33360999D01*
X157947608Y-33005216D01*
X157494784Y-32552392D01*
X157447468Y-32481578D01*
X157424014Y-32446477D01*
X157139001Y-32019926D01*
X156893934Y-31428282D01*
X156769000Y-30800196D01*
X156769000Y-30159804D01*
X156893934Y-29531718D01*
X157139001Y-28940074D01*
X157494784Y-28407608D01*
X157947608Y-27954784D01*
X158480074Y-27599001D01*
X159071718Y-27353934D01*
X159385761Y-27291467D01*
X159699803Y-27229000D01*
X160340197Y-27229000D01*
X160654239Y-27291467D01*
X160654239Y-27291467D01*
G37*
G36*
X39875256Y-30391298D02*
G01*
X39981579Y-30412447D01*
X40282042Y-30536903D01*
X40552451Y-30717585D01*
X40782415Y-30947549D01*
X40963097Y-31217958D01*
X41087553Y-31518421D01*
X41151000Y-31837391D01*
X41151000Y-32162609D01*
X41087553Y-32481579D01*
X40963097Y-32782042D01*
X40782415Y-33052451D01*
X40552451Y-33282415D01*
X40282042Y-33463097D01*
X39981579Y-33587553D01*
X39888508Y-33606066D01*
X39662611Y-33651000D01*
X39337389Y-33651000D01*
X39111492Y-33606066D01*
X39018421Y-33587553D01*
X38717958Y-33463097D01*
X38447549Y-33282415D01*
X38217585Y-33052451D01*
X38036903Y-32782042D01*
X37912447Y-32481579D01*
X37849000Y-32162609D01*
X37849000Y-31837391D01*
X37912447Y-31518421D01*
X38036903Y-31217958D01*
X38217585Y-30947549D01*
X38447549Y-30717585D01*
X38717958Y-30536903D01*
X39018421Y-30412447D01*
X39124744Y-30391298D01*
X39337389Y-30349000D01*
X39662611Y-30349000D01*
X39875256Y-30391298D01*
X39875256Y-30391298D01*
G37*
G36*
X151375256Y-30391298D02*
G01*
X151481579Y-30412447D01*
X151782042Y-30536903D01*
X152052451Y-30717585D01*
X152282415Y-30947549D01*
X152463097Y-31217958D01*
X152587553Y-31518421D01*
X152651000Y-31837391D01*
X152651000Y-32162609D01*
X152587553Y-32481579D01*
X152463097Y-32782042D01*
X152282415Y-33052451D01*
X152052451Y-33282415D01*
X151782042Y-33463097D01*
X151481579Y-33587553D01*
X151388508Y-33606066D01*
X151162611Y-33651000D01*
X150837389Y-33651000D01*
X150611492Y-33606066D01*
X150518421Y-33587553D01*
X150217958Y-33463097D01*
X149947549Y-33282415D01*
X149717585Y-33052451D01*
X149536903Y-32782042D01*
X149412447Y-32481579D01*
X149349000Y-32162609D01*
X149349000Y-31837391D01*
X149412447Y-31518421D01*
X149536903Y-31217958D01*
X149717585Y-30947549D01*
X149947549Y-30717585D01*
X150217958Y-30536903D01*
X150518421Y-30412447D01*
X150624744Y-30391298D01*
X150837389Y-30349000D01*
X151162611Y-30349000D01*
X151375256Y-30391298D01*
X151375256Y-30391298D01*
G37*
M02*
