G04 #@! TF.GenerationSoftware,KiCad,Pcbnew,(5.1.4)-1*
G04 #@! TF.CreationDate,2020-04-14T09:58:37-07:00*
G04 #@! TF.ProjectId,power,706f7765-722e-46b6-9963-61645f706362,rev?*
G04 #@! TF.SameCoordinates,Original*
G04 #@! TF.FileFunction,Copper,L2,Bot*
G04 #@! TF.FilePolarity,Positive*
%FSLAX46Y46*%
G04 Gerber Fmt 4.6, Leading zero omitted, Abs format (unit mm)*
G04 Created by KiCad (PCBNEW (5.1.4)-1) date 2020-04-14 09:58:37*
%MOMM*%
%LPD*%
G04 APERTURE LIST*
%ADD10O,1.700000X1.700000*%
%ADD11R,1.700000X1.700000*%
%ADD12C,6.400000*%
%ADD13R,2.400000X2.400000*%
%ADD14C,2.400000*%
%ADD15R,1.727200X1.727200*%
%ADD16O,1.727200X1.727200*%
%ADD17R,1.508000X1.508000*%
%ADD18C,1.508000*%
%ADD19C,0.800000*%
%ADD20C,0.250000*%
%ADD21C,0.254000*%
G04 APERTURE END LIST*
D10*
X157480000Y-100330000D03*
X154940000Y-100330000D03*
X157480000Y-97790000D03*
X154940000Y-97790000D03*
X157480000Y-95250000D03*
X154940000Y-95250000D03*
X157480000Y-92710000D03*
X154940000Y-92710000D03*
X157480000Y-90170000D03*
X154940000Y-90170000D03*
X157480000Y-87630000D03*
X154940000Y-87630000D03*
X157480000Y-85090000D03*
X154940000Y-85090000D03*
X157480000Y-82550000D03*
X154940000Y-82550000D03*
X157480000Y-80010000D03*
X154940000Y-80010000D03*
X157480000Y-77470000D03*
X154940000Y-77470000D03*
X157480000Y-74930000D03*
X154940000Y-74930000D03*
X157480000Y-72390000D03*
X154940000Y-72390000D03*
X157480000Y-69850000D03*
X154940000Y-69850000D03*
X157480000Y-67310000D03*
X154940000Y-67310000D03*
X157480000Y-64770000D03*
X154940000Y-64770000D03*
X157480000Y-62230000D03*
X154940000Y-62230000D03*
X157480000Y-59690000D03*
X154940000Y-59690000D03*
X157480000Y-57150000D03*
X154940000Y-57150000D03*
X157480000Y-54610000D03*
X154940000Y-54610000D03*
X157480000Y-52070000D03*
D11*
X154940000Y-52070000D03*
D12*
X160020000Y-120650000D03*
X30480000Y-120650000D03*
X160020000Y-30480000D03*
X30480000Y-30480000D03*
D13*
X37750000Y-74000000D03*
D14*
X37750000Y-77500000D03*
X37750000Y-63250000D03*
D13*
X37750000Y-59750000D03*
D15*
X90250000Y-115500000D03*
D16*
X90250000Y-112960000D03*
X92790000Y-115500000D03*
X92790000Y-112960000D03*
X95330000Y-115500000D03*
X95330000Y-112960000D03*
X97870000Y-115500000D03*
X97870000Y-112960000D03*
X100410000Y-115500000D03*
X100410000Y-112960000D03*
D17*
X147470000Y-49000000D03*
D18*
X144930000Y-49000000D03*
X142390000Y-49000000D03*
X139850000Y-49000000D03*
X137310000Y-49000000D03*
X134770000Y-49000000D03*
X132230000Y-49000000D03*
X129690000Y-49000000D03*
X127150000Y-49000000D03*
X124610000Y-49000000D03*
X122070000Y-49000000D03*
X119530000Y-49000000D03*
D17*
X119530000Y-103250000D03*
D18*
X122070000Y-103250000D03*
X124610000Y-103250000D03*
X127150000Y-103250000D03*
X129690000Y-103250000D03*
X132230000Y-103250000D03*
X134770000Y-103250000D03*
X137310000Y-103250000D03*
X139850000Y-103250000D03*
X142390000Y-103250000D03*
X144930000Y-103250000D03*
X147470000Y-103250000D03*
D19*
X138750000Y-64500000D03*
X50750000Y-40550000D03*
X63250000Y-51500000D03*
X63750000Y-53000000D03*
X69750000Y-68750000D03*
X66250000Y-65500000D03*
X146000000Y-86000000D03*
X65000000Y-89000000D03*
X58500000Y-86500000D03*
X51750000Y-79500000D03*
X74250000Y-89500000D03*
X74250000Y-72750000D03*
X102250000Y-107500000D03*
X102750000Y-67000000D03*
X97500000Y-73000000D03*
X87000000Y-108500000D03*
X99000000Y-74250000D03*
X102000000Y-78750000D03*
D20*
X129690000Y-49000000D02*
X137310000Y-49000000D01*
X132230000Y-50066317D02*
X137250000Y-55086317D01*
X132230000Y-49000000D02*
X132230000Y-50066317D01*
X137250000Y-55086317D02*
X137250000Y-63000000D01*
X137250000Y-63000000D02*
X138750000Y-64500000D01*
X131476001Y-48246001D02*
X132230000Y-49000000D01*
X124179999Y-40949999D02*
X131476001Y-48246001D01*
X50750000Y-40550000D02*
X51149999Y-40949999D01*
X64050001Y-50699999D02*
X63250000Y-51500000D01*
X64050001Y-40949999D02*
X124179999Y-40949999D01*
X51149999Y-40949999D02*
X64050001Y-40949999D01*
X64149999Y-50649999D02*
X64050001Y-50550001D01*
X64149999Y-52600001D02*
X64149999Y-50649999D01*
X63750000Y-53000000D02*
X64149999Y-52600001D01*
X64050001Y-50550001D02*
X64050001Y-50699999D01*
X64050001Y-50550001D02*
X64050001Y-50050001D01*
X69750000Y-56250000D02*
X64050001Y-50550001D01*
X64050001Y-40949999D02*
X64050001Y-50050001D01*
X67750000Y-64000000D02*
X66250000Y-65500000D01*
X69750000Y-64000000D02*
X67750000Y-64000000D01*
X69750000Y-64000000D02*
X69750000Y-56250000D01*
X69750000Y-68750000D02*
X69750000Y-64000000D01*
X129690000Y-103250000D02*
X137310000Y-103250000D01*
X140380000Y-52070000D02*
X137310000Y-49000000D01*
X154940000Y-52070000D02*
X140380000Y-52070000D01*
X154090001Y-80859999D02*
X154090001Y-80909999D01*
X154940000Y-80010000D02*
X154090001Y-80859999D01*
X154090001Y-80909999D02*
X153000000Y-82000000D01*
X153000000Y-90770000D02*
X154940000Y-92710000D01*
X153000000Y-86000000D02*
X146000000Y-86000000D01*
X153000000Y-86000000D02*
X153000000Y-90770000D01*
X153000000Y-82000000D02*
X153000000Y-86000000D01*
X154940000Y-92710000D02*
X153000000Y-94650000D01*
X153000000Y-98390000D02*
X154940000Y-100330000D01*
X153000000Y-94650000D02*
X153000000Y-98390000D01*
X140230000Y-100330000D02*
X154940000Y-100330000D01*
X137310000Y-103250000D02*
X140230000Y-100330000D01*
X129690000Y-103250000D02*
X122690000Y-110250000D01*
X100580000Y-110250000D02*
X97870000Y-112960000D01*
X122690000Y-110250000D02*
X100580000Y-110250000D01*
X90250000Y-115500000D02*
X89136400Y-115500000D01*
X65000000Y-91363600D02*
X65000000Y-89000000D01*
X60136400Y-86500000D02*
X65193200Y-91556800D01*
X58500000Y-86500000D02*
X60136400Y-86500000D01*
X89136400Y-115500000D02*
X65193200Y-91556800D01*
X65193200Y-91556800D02*
X65000000Y-91363600D01*
X60136400Y-86500000D02*
X60136400Y-83636400D01*
X60136400Y-83636400D02*
X56500000Y-80000000D01*
X56500000Y-80000000D02*
X52250000Y-80000000D01*
X52250000Y-80000000D02*
X51750000Y-79500000D01*
X90250000Y-116613600D02*
X90250000Y-115500000D01*
X91886400Y-118250000D02*
X90250000Y-116613600D01*
X137020000Y-118250000D02*
X91886400Y-118250000D01*
X154940000Y-100330000D02*
X137020000Y-118250000D01*
X130140000Y-112960000D02*
X100410000Y-112960000D01*
X139850000Y-103250000D02*
X130140000Y-112960000D01*
X74250000Y-89500000D02*
X74250000Y-72750000D01*
X39200000Y-59750000D02*
X37750000Y-59750000D01*
X102250000Y-107500000D02*
X102750000Y-107000000D01*
X102750000Y-107000000D02*
X102750000Y-67000000D01*
X97500000Y-73000000D02*
X90250000Y-80250000D01*
X90250000Y-80250000D02*
X90250000Y-100000000D01*
X87000000Y-103250000D02*
X90250000Y-100000000D01*
X87000000Y-108500000D02*
X87000000Y-103250000D01*
X91926401Y-114636401D02*
X92790000Y-115500000D01*
X91601399Y-114311399D02*
X91926401Y-114636401D01*
X91601399Y-79535011D02*
X91601399Y-81851399D01*
X96886410Y-74250000D02*
X91601399Y-79535011D01*
X99000000Y-74250000D02*
X96886410Y-74250000D01*
X91601399Y-81451379D02*
X91601399Y-81851399D01*
X91601399Y-81851399D02*
X91601399Y-114311399D01*
X102000000Y-103750000D02*
X92790000Y-112960000D01*
X102000000Y-78750000D02*
X102000000Y-103750000D01*
D21*
G36*
X163873000Y-37843210D02*
G01*
X163873000Y-115123000D01*
X142500000Y-115123000D01*
X142475224Y-115125440D01*
X142451399Y-115132667D01*
X142430786Y-115143518D01*
X137462352Y-118373000D01*
X41555881Y-118373000D01*
X41480631Y-118191331D01*
X41236038Y-117825271D01*
X40924729Y-117513962D01*
X40558669Y-117269369D01*
X40151925Y-117100890D01*
X39720128Y-117015000D01*
X39279872Y-117015000D01*
X38848075Y-117100890D01*
X38441331Y-117269369D01*
X38075271Y-117513962D01*
X37763962Y-117825271D01*
X37519369Y-118191331D01*
X37444119Y-118373000D01*
X34627763Y-118373000D01*
X34639795Y-116363600D01*
X88748328Y-116363600D01*
X88760588Y-116488082D01*
X88796898Y-116607780D01*
X88855863Y-116718094D01*
X88935215Y-116814785D01*
X89031906Y-116894137D01*
X89142220Y-116953102D01*
X89261918Y-116989412D01*
X89386400Y-117001672D01*
X89964250Y-116998600D01*
X90123000Y-116839850D01*
X90123000Y-115627000D01*
X88910150Y-115627000D01*
X88751400Y-115785750D01*
X88748328Y-116363600D01*
X34639795Y-116363600D01*
X34687493Y-108398061D01*
X85965000Y-108398061D01*
X85965000Y-108601939D01*
X86004774Y-108801898D01*
X86082795Y-108990256D01*
X86196063Y-109159774D01*
X86340226Y-109303937D01*
X86509744Y-109417205D01*
X86698102Y-109495226D01*
X86898061Y-109535000D01*
X87101939Y-109535000D01*
X87301898Y-109495226D01*
X87490256Y-109417205D01*
X87659774Y-109303937D01*
X87803937Y-109159774D01*
X87917205Y-108990256D01*
X87995226Y-108801898D01*
X88035000Y-108601939D01*
X88035000Y-108398061D01*
X87995226Y-108198102D01*
X87917205Y-108009744D01*
X87803937Y-107840226D01*
X87760000Y-107796289D01*
X87760000Y-103564801D01*
X90761003Y-100563799D01*
X90790001Y-100540001D01*
X90816332Y-100507917D01*
X90841400Y-100477372D01*
X90841400Y-111576865D01*
X90826264Y-111568775D01*
X90543777Y-111483084D01*
X90323619Y-111461400D01*
X90176381Y-111461400D01*
X89956223Y-111483084D01*
X89673736Y-111568775D01*
X89413394Y-111707931D01*
X89185203Y-111895203D01*
X88997931Y-112123394D01*
X88858775Y-112383736D01*
X88773084Y-112666223D01*
X88744149Y-112960000D01*
X88773084Y-113253777D01*
X88858775Y-113536264D01*
X88997931Y-113796606D01*
X89185203Y-114024797D01*
X89193265Y-114031414D01*
X89142220Y-114046898D01*
X89031906Y-114105863D01*
X88935215Y-114185215D01*
X88855863Y-114281906D01*
X88796898Y-114392220D01*
X88760588Y-114511918D01*
X88748328Y-114636400D01*
X88751400Y-115214250D01*
X88910150Y-115373000D01*
X90123000Y-115373000D01*
X90123000Y-115353000D01*
X90377000Y-115353000D01*
X90377000Y-115373000D01*
X90397000Y-115373000D01*
X90397000Y-115627000D01*
X90377000Y-115627000D01*
X90377000Y-116839850D01*
X90535750Y-116998600D01*
X91113600Y-117001672D01*
X91238082Y-116989412D01*
X91357780Y-116953102D01*
X91468094Y-116894137D01*
X91564785Y-116814785D01*
X91644137Y-116718094D01*
X91703102Y-116607780D01*
X91718586Y-116556735D01*
X91725203Y-116564797D01*
X91953394Y-116752069D01*
X92213736Y-116891225D01*
X92496223Y-116976916D01*
X92716381Y-116998600D01*
X92863619Y-116998600D01*
X93083777Y-116976916D01*
X93366264Y-116891225D01*
X93626606Y-116752069D01*
X93854797Y-116564797D01*
X94042069Y-116336606D01*
X94060000Y-116303060D01*
X94077931Y-116336606D01*
X94265203Y-116564797D01*
X94493394Y-116752069D01*
X94753736Y-116891225D01*
X95036223Y-116976916D01*
X95256381Y-116998600D01*
X95403619Y-116998600D01*
X95623777Y-116976916D01*
X95906264Y-116891225D01*
X96166606Y-116752069D01*
X96394797Y-116564797D01*
X96582069Y-116336606D01*
X96600000Y-116303060D01*
X96617931Y-116336606D01*
X96805203Y-116564797D01*
X97033394Y-116752069D01*
X97293736Y-116891225D01*
X97576223Y-116976916D01*
X97796381Y-116998600D01*
X97943619Y-116998600D01*
X98163777Y-116976916D01*
X98446264Y-116891225D01*
X98706606Y-116752069D01*
X98934797Y-116564797D01*
X99122069Y-116336606D01*
X99140000Y-116303060D01*
X99157931Y-116336606D01*
X99345203Y-116564797D01*
X99573394Y-116752069D01*
X99833736Y-116891225D01*
X100116223Y-116976916D01*
X100336381Y-116998600D01*
X100483619Y-116998600D01*
X100703777Y-116976916D01*
X100986264Y-116891225D01*
X101246606Y-116752069D01*
X101474797Y-116564797D01*
X101662069Y-116336606D01*
X101801225Y-116076264D01*
X101886916Y-115793777D01*
X101915851Y-115500000D01*
X101886916Y-115206223D01*
X101801225Y-114923736D01*
X101662069Y-114663394D01*
X101474797Y-114435203D01*
X101246606Y-114247931D01*
X101213060Y-114230000D01*
X101246606Y-114212069D01*
X101474797Y-114024797D01*
X101662069Y-113796606D01*
X101703016Y-113720000D01*
X130102678Y-113720000D01*
X130140000Y-113723676D01*
X130177322Y-113720000D01*
X130177333Y-113720000D01*
X130288986Y-113709003D01*
X130432247Y-113665546D01*
X130564276Y-113594974D01*
X130680001Y-113500001D01*
X130703804Y-113470997D01*
X139565233Y-104609569D01*
X139713195Y-104639000D01*
X139986805Y-104639000D01*
X140255156Y-104585622D01*
X140507938Y-104480916D01*
X140735436Y-104328907D01*
X140928907Y-104135436D01*
X141080916Y-103907938D01*
X141120000Y-103813581D01*
X141159084Y-103907938D01*
X141311093Y-104135436D01*
X141504564Y-104328907D01*
X141732062Y-104480916D01*
X141984844Y-104585622D01*
X142253195Y-104639000D01*
X142526805Y-104639000D01*
X142795156Y-104585622D01*
X143047938Y-104480916D01*
X143275436Y-104328907D01*
X143468907Y-104135436D01*
X143620916Y-103907938D01*
X143660000Y-103813581D01*
X143699084Y-103907938D01*
X143851093Y-104135436D01*
X144044564Y-104328907D01*
X144272062Y-104480916D01*
X144524844Y-104585622D01*
X144793195Y-104639000D01*
X145066805Y-104639000D01*
X145335156Y-104585622D01*
X145587938Y-104480916D01*
X145815436Y-104328907D01*
X146008907Y-104135436D01*
X146160916Y-103907938D01*
X146200000Y-103813581D01*
X146239084Y-103907938D01*
X146391093Y-104135436D01*
X146584564Y-104328907D01*
X146812062Y-104480916D01*
X147064844Y-104585622D01*
X147333195Y-104639000D01*
X147606805Y-104639000D01*
X147875156Y-104585622D01*
X148127938Y-104480916D01*
X148355436Y-104328907D01*
X148548907Y-104135436D01*
X148700916Y-103907938D01*
X148805622Y-103655156D01*
X148859000Y-103386805D01*
X148859000Y-103113195D01*
X148805622Y-102844844D01*
X148700916Y-102592062D01*
X148548907Y-102364564D01*
X148355436Y-102171093D01*
X148127938Y-102019084D01*
X147875156Y-101914378D01*
X147606805Y-101861000D01*
X147333195Y-101861000D01*
X147064844Y-101914378D01*
X146812062Y-102019084D01*
X146584564Y-102171093D01*
X146391093Y-102364564D01*
X146239084Y-102592062D01*
X146200000Y-102686419D01*
X146160916Y-102592062D01*
X146008907Y-102364564D01*
X145815436Y-102171093D01*
X145587938Y-102019084D01*
X145335156Y-101914378D01*
X145066805Y-101861000D01*
X144793195Y-101861000D01*
X144524844Y-101914378D01*
X144272062Y-102019084D01*
X144044564Y-102171093D01*
X143851093Y-102364564D01*
X143699084Y-102592062D01*
X143660000Y-102686419D01*
X143620916Y-102592062D01*
X143468907Y-102364564D01*
X143275436Y-102171093D01*
X143047938Y-102019084D01*
X142795156Y-101914378D01*
X142526805Y-101861000D01*
X142253195Y-101861000D01*
X141984844Y-101914378D01*
X141732062Y-102019084D01*
X141504564Y-102171093D01*
X141311093Y-102364564D01*
X141159084Y-102592062D01*
X141120000Y-102686419D01*
X141080916Y-102592062D01*
X140928907Y-102364564D01*
X140735436Y-102171093D01*
X140507938Y-102019084D01*
X140255156Y-101914378D01*
X139986805Y-101861000D01*
X139713195Y-101861000D01*
X139444844Y-101914378D01*
X139192062Y-102019084D01*
X138964564Y-102171093D01*
X138771093Y-102364564D01*
X138619084Y-102592062D01*
X138581758Y-102682174D01*
X138570063Y-102649771D01*
X138509127Y-102535765D01*
X138269851Y-102469754D01*
X137489605Y-103250000D01*
X137503748Y-103264143D01*
X137324143Y-103443748D01*
X137310000Y-103429605D01*
X136529754Y-104209851D01*
X136595765Y-104449127D01*
X136843426Y-104565426D01*
X137109018Y-104631174D01*
X137381397Y-104643802D01*
X129825199Y-112200000D01*
X101703016Y-112200000D01*
X101662069Y-112123394D01*
X101474797Y-111895203D01*
X101246606Y-111707931D01*
X100986264Y-111568775D01*
X100703777Y-111483084D01*
X100483619Y-111461400D01*
X100336381Y-111461400D01*
X100116223Y-111483084D01*
X99833736Y-111568775D01*
X99573394Y-111707931D01*
X99345203Y-111895203D01*
X99157931Y-112123394D01*
X99134137Y-112167910D01*
X99076817Y-112071512D01*
X98880293Y-111853146D01*
X98644944Y-111677316D01*
X98379814Y-111550778D01*
X98229026Y-111505042D01*
X97997000Y-111626183D01*
X97997000Y-112833000D01*
X98017000Y-112833000D01*
X98017000Y-113087000D01*
X97997000Y-113087000D01*
X97997000Y-113107000D01*
X97743000Y-113107000D01*
X97743000Y-113087000D01*
X97723000Y-113087000D01*
X97723000Y-112833000D01*
X97743000Y-112833000D01*
X97743000Y-111626183D01*
X97510974Y-111505042D01*
X97360186Y-111550778D01*
X97095056Y-111677316D01*
X96859707Y-111853146D01*
X96663183Y-112071512D01*
X96605863Y-112167910D01*
X96582069Y-112123394D01*
X96394797Y-111895203D01*
X96166606Y-111707931D01*
X95906264Y-111568775D01*
X95623777Y-111483084D01*
X95403619Y-111461400D01*
X95363401Y-111461400D01*
X101990000Y-104834802D01*
X101990000Y-106496440D01*
X101948102Y-106504774D01*
X101759744Y-106582795D01*
X101590226Y-106696063D01*
X101446063Y-106840226D01*
X101332795Y-107009744D01*
X101254774Y-107198102D01*
X101215000Y-107398061D01*
X101215000Y-107601939D01*
X101254774Y-107801898D01*
X101332795Y-107990256D01*
X101446063Y-108159774D01*
X101590226Y-108303937D01*
X101759744Y-108417205D01*
X101948102Y-108495226D01*
X102148061Y-108535000D01*
X102351939Y-108535000D01*
X102551898Y-108495226D01*
X102740256Y-108417205D01*
X102909774Y-108303937D01*
X103053937Y-108159774D01*
X103167205Y-107990256D01*
X103245226Y-107801898D01*
X103285000Y-107601939D01*
X103285000Y-107544105D01*
X103290001Y-107540001D01*
X103384974Y-107424276D01*
X103455546Y-107292247D01*
X103499003Y-107148986D01*
X103510000Y-107037333D01*
X103510000Y-107037325D01*
X103513676Y-107000000D01*
X103510000Y-106962675D01*
X103510000Y-102496000D01*
X118137928Y-102496000D01*
X118137928Y-104004000D01*
X118150188Y-104128482D01*
X118186498Y-104248180D01*
X118245463Y-104358494D01*
X118324815Y-104455185D01*
X118421506Y-104534537D01*
X118531820Y-104593502D01*
X118651518Y-104629812D01*
X118776000Y-104642072D01*
X120284000Y-104642072D01*
X120408482Y-104629812D01*
X120528180Y-104593502D01*
X120638494Y-104534537D01*
X120735185Y-104455185D01*
X120814537Y-104358494D01*
X120873502Y-104248180D01*
X120909812Y-104128482D01*
X120919657Y-104028524D01*
X120991093Y-104135436D01*
X121184564Y-104328907D01*
X121412062Y-104480916D01*
X121664844Y-104585622D01*
X121933195Y-104639000D01*
X122206805Y-104639000D01*
X122475156Y-104585622D01*
X122727938Y-104480916D01*
X122955436Y-104328907D01*
X123148907Y-104135436D01*
X123300916Y-103907938D01*
X123340000Y-103813581D01*
X123379084Y-103907938D01*
X123531093Y-104135436D01*
X123724564Y-104328907D01*
X123952062Y-104480916D01*
X124204844Y-104585622D01*
X124473195Y-104639000D01*
X124746805Y-104639000D01*
X125015156Y-104585622D01*
X125267938Y-104480916D01*
X125495436Y-104328907D01*
X125688907Y-104135436D01*
X125840916Y-103907938D01*
X125880000Y-103813581D01*
X125919084Y-103907938D01*
X126071093Y-104135436D01*
X126264564Y-104328907D01*
X126492062Y-104480916D01*
X126744844Y-104585622D01*
X127013195Y-104639000D01*
X127286805Y-104639000D01*
X127555156Y-104585622D01*
X127807938Y-104480916D01*
X128035436Y-104328907D01*
X128154492Y-104209851D01*
X128909754Y-104209851D01*
X128975765Y-104449127D01*
X129223426Y-104565426D01*
X129489018Y-104631174D01*
X129762334Y-104643845D01*
X130032870Y-104602951D01*
X130290229Y-104510063D01*
X130404235Y-104449127D01*
X130470246Y-104209851D01*
X131449754Y-104209851D01*
X131515765Y-104449127D01*
X131763426Y-104565426D01*
X132029018Y-104631174D01*
X132302334Y-104643845D01*
X132572870Y-104602951D01*
X132830229Y-104510063D01*
X132944235Y-104449127D01*
X133010246Y-104209851D01*
X133989754Y-104209851D01*
X134055765Y-104449127D01*
X134303426Y-104565426D01*
X134569018Y-104631174D01*
X134842334Y-104643845D01*
X135112870Y-104602951D01*
X135370229Y-104510063D01*
X135484235Y-104449127D01*
X135550246Y-104209851D01*
X134770000Y-103429605D01*
X133989754Y-104209851D01*
X133010246Y-104209851D01*
X132230000Y-103429605D01*
X131449754Y-104209851D01*
X130470246Y-104209851D01*
X129690000Y-103429605D01*
X128909754Y-104209851D01*
X128154492Y-104209851D01*
X128228907Y-104135436D01*
X128380916Y-103907938D01*
X128418242Y-103817826D01*
X128429937Y-103850229D01*
X128490873Y-103964235D01*
X128730149Y-104030246D01*
X129510395Y-103250000D01*
X129869605Y-103250000D01*
X130649851Y-104030246D01*
X130889127Y-103964235D01*
X130958084Y-103817389D01*
X130969937Y-103850229D01*
X131030873Y-103964235D01*
X131270149Y-104030246D01*
X132050395Y-103250000D01*
X132409605Y-103250000D01*
X133189851Y-104030246D01*
X133429127Y-103964235D01*
X133498084Y-103817389D01*
X133509937Y-103850229D01*
X133570873Y-103964235D01*
X133810149Y-104030246D01*
X134590395Y-103250000D01*
X134949605Y-103250000D01*
X135729851Y-104030246D01*
X135969127Y-103964235D01*
X136038084Y-103817389D01*
X136049937Y-103850229D01*
X136110873Y-103964235D01*
X136350149Y-104030246D01*
X137130395Y-103250000D01*
X136350149Y-102469754D01*
X136110873Y-102535765D01*
X136041916Y-102682611D01*
X136030063Y-102649771D01*
X135969127Y-102535765D01*
X135729851Y-102469754D01*
X134949605Y-103250000D01*
X134590395Y-103250000D01*
X133810149Y-102469754D01*
X133570873Y-102535765D01*
X133501916Y-102682611D01*
X133490063Y-102649771D01*
X133429127Y-102535765D01*
X133189851Y-102469754D01*
X132409605Y-103250000D01*
X132050395Y-103250000D01*
X131270149Y-102469754D01*
X131030873Y-102535765D01*
X130961916Y-102682611D01*
X130950063Y-102649771D01*
X130889127Y-102535765D01*
X130649851Y-102469754D01*
X129869605Y-103250000D01*
X129510395Y-103250000D01*
X128730149Y-102469754D01*
X128490873Y-102535765D01*
X128420060Y-102686563D01*
X128380916Y-102592062D01*
X128228907Y-102364564D01*
X128154492Y-102290149D01*
X128909754Y-102290149D01*
X129690000Y-103070395D01*
X130470246Y-102290149D01*
X131449754Y-102290149D01*
X132230000Y-103070395D01*
X133010246Y-102290149D01*
X133989754Y-102290149D01*
X134770000Y-103070395D01*
X135550246Y-102290149D01*
X136529754Y-102290149D01*
X137310000Y-103070395D01*
X138090246Y-102290149D01*
X138024235Y-102050873D01*
X137776574Y-101934574D01*
X137510982Y-101868826D01*
X137237666Y-101856155D01*
X136967130Y-101897049D01*
X136709771Y-101989937D01*
X136595765Y-102050873D01*
X136529754Y-102290149D01*
X135550246Y-102290149D01*
X135484235Y-102050873D01*
X135236574Y-101934574D01*
X134970982Y-101868826D01*
X134697666Y-101856155D01*
X134427130Y-101897049D01*
X134169771Y-101989937D01*
X134055765Y-102050873D01*
X133989754Y-102290149D01*
X133010246Y-102290149D01*
X132944235Y-102050873D01*
X132696574Y-101934574D01*
X132430982Y-101868826D01*
X132157666Y-101856155D01*
X131887130Y-101897049D01*
X131629771Y-101989937D01*
X131515765Y-102050873D01*
X131449754Y-102290149D01*
X130470246Y-102290149D01*
X130404235Y-102050873D01*
X130156574Y-101934574D01*
X129890982Y-101868826D01*
X129617666Y-101856155D01*
X129347130Y-101897049D01*
X129089771Y-101989937D01*
X128975765Y-102050873D01*
X128909754Y-102290149D01*
X128154492Y-102290149D01*
X128035436Y-102171093D01*
X127807938Y-102019084D01*
X127555156Y-101914378D01*
X127286805Y-101861000D01*
X127013195Y-101861000D01*
X126744844Y-101914378D01*
X126492062Y-102019084D01*
X126264564Y-102171093D01*
X126071093Y-102364564D01*
X125919084Y-102592062D01*
X125880000Y-102686419D01*
X125840916Y-102592062D01*
X125688907Y-102364564D01*
X125495436Y-102171093D01*
X125267938Y-102019084D01*
X125015156Y-101914378D01*
X124746805Y-101861000D01*
X124473195Y-101861000D01*
X124204844Y-101914378D01*
X123952062Y-102019084D01*
X123724564Y-102171093D01*
X123531093Y-102364564D01*
X123379084Y-102592062D01*
X123340000Y-102686419D01*
X123300916Y-102592062D01*
X123148907Y-102364564D01*
X122955436Y-102171093D01*
X122727938Y-102019084D01*
X122475156Y-101914378D01*
X122206805Y-101861000D01*
X121933195Y-101861000D01*
X121664844Y-101914378D01*
X121412062Y-102019084D01*
X121184564Y-102171093D01*
X120991093Y-102364564D01*
X120919657Y-102471476D01*
X120909812Y-102371518D01*
X120873502Y-102251820D01*
X120814537Y-102141506D01*
X120735185Y-102044815D01*
X120638494Y-101965463D01*
X120528180Y-101906498D01*
X120408482Y-101870188D01*
X120284000Y-101857928D01*
X118776000Y-101857928D01*
X118651518Y-101870188D01*
X118531820Y-101906498D01*
X118421506Y-101965463D01*
X118324815Y-102044815D01*
X118245463Y-102141506D01*
X118186498Y-102251820D01*
X118150188Y-102371518D01*
X118137928Y-102496000D01*
X103510000Y-102496000D01*
X103510000Y-100686890D01*
X153498524Y-100686890D01*
X153543175Y-100834099D01*
X153668359Y-101096920D01*
X153842412Y-101330269D01*
X154058645Y-101525178D01*
X154308748Y-101674157D01*
X154583109Y-101771481D01*
X154813000Y-101650814D01*
X154813000Y-100457000D01*
X153619845Y-100457000D01*
X153498524Y-100686890D01*
X103510000Y-100686890D01*
X103510000Y-67703711D01*
X103553937Y-67659774D01*
X103667205Y-67490256D01*
X103745226Y-67301898D01*
X103785000Y-67101939D01*
X103785000Y-66898061D01*
X103745226Y-66698102D01*
X103667205Y-66509744D01*
X103553937Y-66340226D01*
X103409774Y-66196063D01*
X103240256Y-66082795D01*
X103051898Y-66004774D01*
X102851939Y-65965000D01*
X102648061Y-65965000D01*
X102448102Y-66004774D01*
X102259744Y-66082795D01*
X102090226Y-66196063D01*
X101946063Y-66340226D01*
X101832795Y-66509744D01*
X101754774Y-66698102D01*
X101715000Y-66898061D01*
X101715000Y-67101939D01*
X101754774Y-67301898D01*
X101832795Y-67490256D01*
X101946063Y-67659774D01*
X101990001Y-67703712D01*
X101990001Y-77715000D01*
X101898061Y-77715000D01*
X101698102Y-77754774D01*
X101509744Y-77832795D01*
X101340226Y-77946063D01*
X101196063Y-78090226D01*
X101082795Y-78259744D01*
X101004774Y-78448102D01*
X100965000Y-78648061D01*
X100965000Y-78851939D01*
X101004774Y-79051898D01*
X101082795Y-79240256D01*
X101196063Y-79409774D01*
X101240000Y-79453711D01*
X101240001Y-103435197D01*
X93166900Y-111508299D01*
X93083777Y-111483084D01*
X92863619Y-111461400D01*
X92716381Y-111461400D01*
X92496223Y-111483084D01*
X92361399Y-111523982D01*
X92361399Y-79849812D01*
X97201212Y-75010000D01*
X98296289Y-75010000D01*
X98340226Y-75053937D01*
X98509744Y-75167205D01*
X98698102Y-75245226D01*
X98898061Y-75285000D01*
X99101939Y-75285000D01*
X99301898Y-75245226D01*
X99490256Y-75167205D01*
X99659774Y-75053937D01*
X99803937Y-74909774D01*
X99917205Y-74740256D01*
X99995226Y-74551898D01*
X100035000Y-74351939D01*
X100035000Y-74148061D01*
X99995226Y-73948102D01*
X99917205Y-73759744D01*
X99803937Y-73590226D01*
X99659774Y-73446063D01*
X99490256Y-73332795D01*
X99301898Y-73254774D01*
X99101939Y-73215000D01*
X98898061Y-73215000D01*
X98698102Y-73254774D01*
X98509744Y-73332795D01*
X98471974Y-73358032D01*
X98495226Y-73301898D01*
X98535000Y-73101939D01*
X98535000Y-72898061D01*
X98495226Y-72698102D01*
X98417205Y-72509744D01*
X98303937Y-72340226D01*
X98159774Y-72196063D01*
X97990256Y-72082795D01*
X97801898Y-72004774D01*
X97601939Y-71965000D01*
X97398061Y-71965000D01*
X97198102Y-72004774D01*
X97009744Y-72082795D01*
X96840226Y-72196063D01*
X96696063Y-72340226D01*
X96582795Y-72509744D01*
X96504774Y-72698102D01*
X96465000Y-72898061D01*
X96465000Y-72960198D01*
X89739003Y-79686196D01*
X89709999Y-79709999D01*
X89654871Y-79777174D01*
X89615026Y-79825724D01*
X89614207Y-79827257D01*
X89544454Y-79957754D01*
X89500997Y-80101015D01*
X89490000Y-80212668D01*
X89490000Y-80212678D01*
X89486324Y-80250000D01*
X89490000Y-80287322D01*
X89490001Y-99685197D01*
X86488998Y-102686201D01*
X86460000Y-102709999D01*
X86436202Y-102738997D01*
X86436201Y-102738998D01*
X86365026Y-102825724D01*
X86294454Y-102957754D01*
X86250998Y-103101015D01*
X86236324Y-103250000D01*
X86240001Y-103287332D01*
X86240000Y-107796289D01*
X86196063Y-107840226D01*
X86082795Y-108009744D01*
X86004774Y-108198102D01*
X85965000Y-108398061D01*
X34687493Y-108398061D01*
X34900655Y-72800000D01*
X35911928Y-72800000D01*
X35911928Y-75200000D01*
X35924188Y-75324482D01*
X35960498Y-75444180D01*
X36019463Y-75554494D01*
X36098815Y-75651185D01*
X36195506Y-75730537D01*
X36305820Y-75789502D01*
X36425518Y-75825812D01*
X36550000Y-75838072D01*
X36967162Y-75838072D01*
X36880801Y-75873844D01*
X36580256Y-76074662D01*
X36324662Y-76330256D01*
X36123844Y-76630801D01*
X35985518Y-76964750D01*
X35915000Y-77319268D01*
X35915000Y-77680732D01*
X35985518Y-78035250D01*
X36123844Y-78369199D01*
X36324662Y-78669744D01*
X36580256Y-78925338D01*
X36880801Y-79126156D01*
X37214750Y-79264482D01*
X37569268Y-79335000D01*
X37930732Y-79335000D01*
X38285250Y-79264482D01*
X38619199Y-79126156D01*
X38919744Y-78925338D01*
X39175338Y-78669744D01*
X39376156Y-78369199D01*
X39514482Y-78035250D01*
X39585000Y-77680732D01*
X39585000Y-77319268D01*
X39514482Y-76964750D01*
X39376156Y-76630801D01*
X39175338Y-76330256D01*
X38919744Y-76074662D01*
X38619199Y-75873844D01*
X38532838Y-75838072D01*
X38950000Y-75838072D01*
X39074482Y-75825812D01*
X39194180Y-75789502D01*
X39304494Y-75730537D01*
X39401185Y-75651185D01*
X39480537Y-75554494D01*
X39539502Y-75444180D01*
X39575812Y-75324482D01*
X39588072Y-75200000D01*
X39588072Y-72800000D01*
X39575812Y-72675518D01*
X39567484Y-72648061D01*
X73215000Y-72648061D01*
X73215000Y-72851939D01*
X73254774Y-73051898D01*
X73332795Y-73240256D01*
X73446063Y-73409774D01*
X73490001Y-73453712D01*
X73490000Y-88796289D01*
X73446063Y-88840226D01*
X73332795Y-89009744D01*
X73254774Y-89198102D01*
X73215000Y-89398061D01*
X73215000Y-89601939D01*
X73254774Y-89801898D01*
X73332795Y-89990256D01*
X73446063Y-90159774D01*
X73590226Y-90303937D01*
X73759744Y-90417205D01*
X73948102Y-90495226D01*
X74148061Y-90535000D01*
X74351939Y-90535000D01*
X74551898Y-90495226D01*
X74740256Y-90417205D01*
X74909774Y-90303937D01*
X75053937Y-90159774D01*
X75167205Y-89990256D01*
X75245226Y-89801898D01*
X75285000Y-89601939D01*
X75285000Y-89398061D01*
X75245226Y-89198102D01*
X75167205Y-89009744D01*
X75053937Y-88840226D01*
X75010000Y-88796289D01*
X75010000Y-73453711D01*
X75053937Y-73409774D01*
X75167205Y-73240256D01*
X75245226Y-73051898D01*
X75285000Y-72851939D01*
X75285000Y-72648061D01*
X75245226Y-72448102D01*
X75167205Y-72259744D01*
X75053937Y-72090226D01*
X74909774Y-71946063D01*
X74740256Y-71832795D01*
X74551898Y-71754774D01*
X74351939Y-71715000D01*
X74148061Y-71715000D01*
X73948102Y-71754774D01*
X73759744Y-71832795D01*
X73590226Y-71946063D01*
X73446063Y-72090226D01*
X73332795Y-72259744D01*
X73254774Y-72448102D01*
X73215000Y-72648061D01*
X39567484Y-72648061D01*
X39539502Y-72555820D01*
X39480537Y-72445506D01*
X39401185Y-72348815D01*
X39304494Y-72269463D01*
X39194180Y-72210498D01*
X39074482Y-72174188D01*
X38950000Y-72161928D01*
X36550000Y-72161928D01*
X36425518Y-72174188D01*
X36305820Y-72210498D01*
X36195506Y-72269463D01*
X36098815Y-72348815D01*
X36019463Y-72445506D01*
X35960498Y-72555820D01*
X35924188Y-72675518D01*
X35911928Y-72800000D01*
X34900655Y-72800000D01*
X34985984Y-58550000D01*
X35911928Y-58550000D01*
X35911928Y-60950000D01*
X35924188Y-61074482D01*
X35960498Y-61194180D01*
X36019463Y-61304494D01*
X36098815Y-61401185D01*
X36195506Y-61480537D01*
X36305820Y-61539502D01*
X36425518Y-61575812D01*
X36550000Y-61588072D01*
X36967162Y-61588072D01*
X36880801Y-61623844D01*
X36580256Y-61824662D01*
X36324662Y-62080256D01*
X36123844Y-62380801D01*
X35985518Y-62714750D01*
X35915000Y-63069268D01*
X35915000Y-63430732D01*
X35985518Y-63785250D01*
X36123844Y-64119199D01*
X36324662Y-64419744D01*
X36580256Y-64675338D01*
X36880801Y-64876156D01*
X37214750Y-65014482D01*
X37569268Y-65085000D01*
X37930732Y-65085000D01*
X38285250Y-65014482D01*
X38619199Y-64876156D01*
X38919744Y-64675338D01*
X39175338Y-64419744D01*
X39376156Y-64119199D01*
X39514482Y-63785250D01*
X39585000Y-63430732D01*
X39585000Y-63069268D01*
X39514482Y-62714750D01*
X39376156Y-62380801D01*
X39175338Y-62080256D01*
X38919744Y-61824662D01*
X38619199Y-61623844D01*
X38532838Y-61588072D01*
X38950000Y-61588072D01*
X39074482Y-61575812D01*
X39194180Y-61539502D01*
X39304494Y-61480537D01*
X39401185Y-61401185D01*
X39480537Y-61304494D01*
X39539502Y-61194180D01*
X39575812Y-61074482D01*
X39588072Y-60950000D01*
X39588072Y-60404326D01*
X39624276Y-60384974D01*
X39740001Y-60290001D01*
X39834974Y-60174276D01*
X39905546Y-60042247D01*
X39949003Y-59898986D01*
X39963677Y-59750000D01*
X39949003Y-59601014D01*
X39905546Y-59457753D01*
X39834974Y-59325724D01*
X39740001Y-59209999D01*
X39624276Y-59115026D01*
X39588072Y-59095674D01*
X39588072Y-58550000D01*
X39575812Y-58425518D01*
X39539502Y-58305820D01*
X39480537Y-58195506D01*
X39401185Y-58098815D01*
X39304494Y-58019463D01*
X39194180Y-57960498D01*
X39074482Y-57924188D01*
X38950000Y-57911928D01*
X36550000Y-57911928D01*
X36425518Y-57924188D01*
X36305820Y-57960498D01*
X36195506Y-58019463D01*
X36098815Y-58098815D01*
X36019463Y-58195506D01*
X35960498Y-58305820D01*
X35924188Y-58425518D01*
X35911928Y-58550000D01*
X34985984Y-58550000D01*
X35009576Y-54610000D01*
X153447815Y-54610000D01*
X153476487Y-54901111D01*
X153561401Y-55181034D01*
X153699294Y-55439014D01*
X153884866Y-55665134D01*
X154110986Y-55850706D01*
X154165791Y-55880000D01*
X154110986Y-55909294D01*
X153884866Y-56094866D01*
X153699294Y-56320986D01*
X153561401Y-56578966D01*
X153476487Y-56858889D01*
X153447815Y-57150000D01*
X153476487Y-57441111D01*
X153561401Y-57721034D01*
X153699294Y-57979014D01*
X153884866Y-58205134D01*
X154110986Y-58390706D01*
X154165791Y-58420000D01*
X154110986Y-58449294D01*
X153884866Y-58634866D01*
X153699294Y-58860986D01*
X153561401Y-59118966D01*
X153476487Y-59398889D01*
X153447815Y-59690000D01*
X153476487Y-59981111D01*
X153561401Y-60261034D01*
X153699294Y-60519014D01*
X153884866Y-60745134D01*
X154110986Y-60930706D01*
X154165791Y-60960000D01*
X154110986Y-60989294D01*
X153884866Y-61174866D01*
X153699294Y-61400986D01*
X153561401Y-61658966D01*
X153476487Y-61938889D01*
X153447815Y-62230000D01*
X153476487Y-62521111D01*
X153561401Y-62801034D01*
X153699294Y-63059014D01*
X153884866Y-63285134D01*
X154110986Y-63470706D01*
X154165791Y-63500000D01*
X154110986Y-63529294D01*
X153884866Y-63714866D01*
X153699294Y-63940986D01*
X153561401Y-64198966D01*
X153476487Y-64478889D01*
X153447815Y-64770000D01*
X153476487Y-65061111D01*
X153561401Y-65341034D01*
X153699294Y-65599014D01*
X153884866Y-65825134D01*
X154110986Y-66010706D01*
X154165791Y-66040000D01*
X154110986Y-66069294D01*
X153884866Y-66254866D01*
X153699294Y-66480986D01*
X153561401Y-66738966D01*
X153476487Y-67018889D01*
X153447815Y-67310000D01*
X153476487Y-67601111D01*
X153561401Y-67881034D01*
X153699294Y-68139014D01*
X153884866Y-68365134D01*
X154110986Y-68550706D01*
X154165791Y-68580000D01*
X154110986Y-68609294D01*
X153884866Y-68794866D01*
X153699294Y-69020986D01*
X153561401Y-69278966D01*
X153476487Y-69558889D01*
X153447815Y-69850000D01*
X153476487Y-70141111D01*
X153561401Y-70421034D01*
X153699294Y-70679014D01*
X153884866Y-70905134D01*
X154110986Y-71090706D01*
X154165791Y-71120000D01*
X154110986Y-71149294D01*
X153884866Y-71334866D01*
X153699294Y-71560986D01*
X153561401Y-71818966D01*
X153476487Y-72098889D01*
X153447815Y-72390000D01*
X153476487Y-72681111D01*
X153561401Y-72961034D01*
X153699294Y-73219014D01*
X153884866Y-73445134D01*
X154110986Y-73630706D01*
X154165791Y-73660000D01*
X154110986Y-73689294D01*
X153884866Y-73874866D01*
X153699294Y-74100986D01*
X153561401Y-74358966D01*
X153476487Y-74638889D01*
X153447815Y-74930000D01*
X153476487Y-75221111D01*
X153561401Y-75501034D01*
X153699294Y-75759014D01*
X153884866Y-75985134D01*
X154110986Y-76170706D01*
X154165791Y-76200000D01*
X154110986Y-76229294D01*
X153884866Y-76414866D01*
X153699294Y-76640986D01*
X153561401Y-76898966D01*
X153476487Y-77178889D01*
X153447815Y-77470000D01*
X153476487Y-77761111D01*
X153561401Y-78041034D01*
X153699294Y-78299014D01*
X153884866Y-78525134D01*
X154110986Y-78710706D01*
X154175523Y-78745201D01*
X154058645Y-78814822D01*
X153842412Y-79009731D01*
X153668359Y-79243080D01*
X153543175Y-79505901D01*
X153498524Y-79653110D01*
X153619845Y-79883000D01*
X154813000Y-79883000D01*
X154813000Y-79863000D01*
X155067000Y-79863000D01*
X155067000Y-79883000D01*
X155087000Y-79883000D01*
X155087000Y-80137000D01*
X155067000Y-80137000D01*
X155067000Y-80157000D01*
X154813000Y-80157000D01*
X154813000Y-80137000D01*
X153619845Y-80137000D01*
X153498524Y-80366890D01*
X153543175Y-80514099D01*
X153668359Y-80776920D01*
X153842412Y-81010269D01*
X154058645Y-81205178D01*
X154175523Y-81274799D01*
X154110986Y-81309294D01*
X153884866Y-81494866D01*
X153699294Y-81720986D01*
X153561401Y-81978966D01*
X153476487Y-82258889D01*
X153447815Y-82550000D01*
X153476487Y-82841111D01*
X153561401Y-83121034D01*
X153699294Y-83379014D01*
X153884866Y-83605134D01*
X154110986Y-83790706D01*
X154165791Y-83820000D01*
X154110986Y-83849294D01*
X153884866Y-84034866D01*
X153699294Y-84260986D01*
X153561401Y-84518966D01*
X153476487Y-84798889D01*
X153447815Y-85090000D01*
X153476487Y-85381111D01*
X153561401Y-85661034D01*
X153699294Y-85919014D01*
X153884866Y-86145134D01*
X154110986Y-86330706D01*
X154165791Y-86360000D01*
X154110986Y-86389294D01*
X153884866Y-86574866D01*
X153699294Y-86800986D01*
X153561401Y-87058966D01*
X153476487Y-87338889D01*
X153447815Y-87630000D01*
X153476487Y-87921111D01*
X153561401Y-88201034D01*
X153699294Y-88459014D01*
X153884866Y-88685134D01*
X154110986Y-88870706D01*
X154165791Y-88900000D01*
X154110986Y-88929294D01*
X153884866Y-89114866D01*
X153699294Y-89340986D01*
X153561401Y-89598966D01*
X153476487Y-89878889D01*
X153447815Y-90170000D01*
X153476487Y-90461111D01*
X153561401Y-90741034D01*
X153699294Y-90999014D01*
X153884866Y-91225134D01*
X154110986Y-91410706D01*
X154175523Y-91445201D01*
X154058645Y-91514822D01*
X153842412Y-91709731D01*
X153668359Y-91943080D01*
X153543175Y-92205901D01*
X153498524Y-92353110D01*
X153619845Y-92583000D01*
X154813000Y-92583000D01*
X154813000Y-92563000D01*
X155067000Y-92563000D01*
X155067000Y-92583000D01*
X155087000Y-92583000D01*
X155087000Y-92837000D01*
X155067000Y-92837000D01*
X155067000Y-92857000D01*
X154813000Y-92857000D01*
X154813000Y-92837000D01*
X153619845Y-92837000D01*
X153498524Y-93066890D01*
X153543175Y-93214099D01*
X153668359Y-93476920D01*
X153842412Y-93710269D01*
X154058645Y-93905178D01*
X154175523Y-93974799D01*
X154110986Y-94009294D01*
X153884866Y-94194866D01*
X153699294Y-94420986D01*
X153561401Y-94678966D01*
X153476487Y-94958889D01*
X153447815Y-95250000D01*
X153476487Y-95541111D01*
X153561401Y-95821034D01*
X153699294Y-96079014D01*
X153884866Y-96305134D01*
X154110986Y-96490706D01*
X154165791Y-96520000D01*
X154110986Y-96549294D01*
X153884866Y-96734866D01*
X153699294Y-96960986D01*
X153561401Y-97218966D01*
X153476487Y-97498889D01*
X153447815Y-97790000D01*
X153476487Y-98081111D01*
X153561401Y-98361034D01*
X153699294Y-98619014D01*
X153884866Y-98845134D01*
X154110986Y-99030706D01*
X154175523Y-99065201D01*
X154058645Y-99134822D01*
X153842412Y-99329731D01*
X153668359Y-99563080D01*
X153543175Y-99825901D01*
X153498524Y-99973110D01*
X153619845Y-100203000D01*
X154813000Y-100203000D01*
X154813000Y-100183000D01*
X155067000Y-100183000D01*
X155067000Y-100203000D01*
X155087000Y-100203000D01*
X155087000Y-100457000D01*
X155067000Y-100457000D01*
X155067000Y-101650814D01*
X155296891Y-101771481D01*
X155571252Y-101674157D01*
X155821355Y-101525178D01*
X156037588Y-101330269D01*
X156208416Y-101101244D01*
X156239294Y-101159014D01*
X156424866Y-101385134D01*
X156650986Y-101570706D01*
X156908966Y-101708599D01*
X157188889Y-101793513D01*
X157407050Y-101815000D01*
X157552950Y-101815000D01*
X157771111Y-101793513D01*
X158051034Y-101708599D01*
X158309014Y-101570706D01*
X158535134Y-101385134D01*
X158720706Y-101159014D01*
X158858599Y-100901034D01*
X158943513Y-100621111D01*
X158972185Y-100330000D01*
X158943513Y-100038889D01*
X158858599Y-99758966D01*
X158720706Y-99500986D01*
X158535134Y-99274866D01*
X158309014Y-99089294D01*
X158254209Y-99060000D01*
X158309014Y-99030706D01*
X158535134Y-98845134D01*
X158720706Y-98619014D01*
X158858599Y-98361034D01*
X158943513Y-98081111D01*
X158972185Y-97790000D01*
X158943513Y-97498889D01*
X158858599Y-97218966D01*
X158720706Y-96960986D01*
X158535134Y-96734866D01*
X158309014Y-96549294D01*
X158254209Y-96520000D01*
X158309014Y-96490706D01*
X158535134Y-96305134D01*
X158720706Y-96079014D01*
X158858599Y-95821034D01*
X158943513Y-95541111D01*
X158972185Y-95250000D01*
X158943513Y-94958889D01*
X158858599Y-94678966D01*
X158720706Y-94420986D01*
X158535134Y-94194866D01*
X158309014Y-94009294D01*
X158254209Y-93980000D01*
X158309014Y-93950706D01*
X158535134Y-93765134D01*
X158720706Y-93539014D01*
X158858599Y-93281034D01*
X158943513Y-93001111D01*
X158972185Y-92710000D01*
X158943513Y-92418889D01*
X158858599Y-92138966D01*
X158720706Y-91880986D01*
X158535134Y-91654866D01*
X158309014Y-91469294D01*
X158254209Y-91440000D01*
X158309014Y-91410706D01*
X158535134Y-91225134D01*
X158720706Y-90999014D01*
X158858599Y-90741034D01*
X158943513Y-90461111D01*
X158972185Y-90170000D01*
X158943513Y-89878889D01*
X158858599Y-89598966D01*
X158720706Y-89340986D01*
X158535134Y-89114866D01*
X158309014Y-88929294D01*
X158254209Y-88900000D01*
X158309014Y-88870706D01*
X158535134Y-88685134D01*
X158720706Y-88459014D01*
X158858599Y-88201034D01*
X158943513Y-87921111D01*
X158972185Y-87630000D01*
X158943513Y-87338889D01*
X158858599Y-87058966D01*
X158720706Y-86800986D01*
X158535134Y-86574866D01*
X158309014Y-86389294D01*
X158254209Y-86360000D01*
X158309014Y-86330706D01*
X158535134Y-86145134D01*
X158720706Y-85919014D01*
X158858599Y-85661034D01*
X158943513Y-85381111D01*
X158972185Y-85090000D01*
X158943513Y-84798889D01*
X158858599Y-84518966D01*
X158720706Y-84260986D01*
X158535134Y-84034866D01*
X158309014Y-83849294D01*
X158254209Y-83820000D01*
X158309014Y-83790706D01*
X158535134Y-83605134D01*
X158720706Y-83379014D01*
X158858599Y-83121034D01*
X158943513Y-82841111D01*
X158972185Y-82550000D01*
X158943513Y-82258889D01*
X158858599Y-81978966D01*
X158720706Y-81720986D01*
X158535134Y-81494866D01*
X158309014Y-81309294D01*
X158254209Y-81280000D01*
X158309014Y-81250706D01*
X158535134Y-81065134D01*
X158720706Y-80839014D01*
X158858599Y-80581034D01*
X158943513Y-80301111D01*
X158972185Y-80010000D01*
X158943513Y-79718889D01*
X158858599Y-79438966D01*
X158720706Y-79180986D01*
X158535134Y-78954866D01*
X158309014Y-78769294D01*
X158254209Y-78740000D01*
X158309014Y-78710706D01*
X158535134Y-78525134D01*
X158720706Y-78299014D01*
X158858599Y-78041034D01*
X158943513Y-77761111D01*
X158972185Y-77470000D01*
X158943513Y-77178889D01*
X158858599Y-76898966D01*
X158720706Y-76640986D01*
X158535134Y-76414866D01*
X158309014Y-76229294D01*
X158254209Y-76200000D01*
X158309014Y-76170706D01*
X158535134Y-75985134D01*
X158720706Y-75759014D01*
X158858599Y-75501034D01*
X158943513Y-75221111D01*
X158972185Y-74930000D01*
X158943513Y-74638889D01*
X158858599Y-74358966D01*
X158720706Y-74100986D01*
X158535134Y-73874866D01*
X158309014Y-73689294D01*
X158254209Y-73660000D01*
X158309014Y-73630706D01*
X158535134Y-73445134D01*
X158720706Y-73219014D01*
X158858599Y-72961034D01*
X158943513Y-72681111D01*
X158972185Y-72390000D01*
X158943513Y-72098889D01*
X158858599Y-71818966D01*
X158720706Y-71560986D01*
X158535134Y-71334866D01*
X158309014Y-71149294D01*
X158254209Y-71120000D01*
X158309014Y-71090706D01*
X158535134Y-70905134D01*
X158720706Y-70679014D01*
X158858599Y-70421034D01*
X158943513Y-70141111D01*
X158972185Y-69850000D01*
X158943513Y-69558889D01*
X158858599Y-69278966D01*
X158720706Y-69020986D01*
X158535134Y-68794866D01*
X158309014Y-68609294D01*
X158254209Y-68580000D01*
X158309014Y-68550706D01*
X158535134Y-68365134D01*
X158720706Y-68139014D01*
X158858599Y-67881034D01*
X158943513Y-67601111D01*
X158972185Y-67310000D01*
X158943513Y-67018889D01*
X158858599Y-66738966D01*
X158720706Y-66480986D01*
X158535134Y-66254866D01*
X158309014Y-66069294D01*
X158254209Y-66040000D01*
X158309014Y-66010706D01*
X158535134Y-65825134D01*
X158720706Y-65599014D01*
X158858599Y-65341034D01*
X158943513Y-65061111D01*
X158972185Y-64770000D01*
X158943513Y-64478889D01*
X158858599Y-64198966D01*
X158720706Y-63940986D01*
X158535134Y-63714866D01*
X158309014Y-63529294D01*
X158254209Y-63500000D01*
X158309014Y-63470706D01*
X158535134Y-63285134D01*
X158720706Y-63059014D01*
X158858599Y-62801034D01*
X158943513Y-62521111D01*
X158972185Y-62230000D01*
X158943513Y-61938889D01*
X158858599Y-61658966D01*
X158720706Y-61400986D01*
X158535134Y-61174866D01*
X158309014Y-60989294D01*
X158254209Y-60960000D01*
X158309014Y-60930706D01*
X158535134Y-60745134D01*
X158720706Y-60519014D01*
X158858599Y-60261034D01*
X158943513Y-59981111D01*
X158972185Y-59690000D01*
X158943513Y-59398889D01*
X158858599Y-59118966D01*
X158720706Y-58860986D01*
X158535134Y-58634866D01*
X158309014Y-58449294D01*
X158254209Y-58420000D01*
X158309014Y-58390706D01*
X158535134Y-58205134D01*
X158720706Y-57979014D01*
X158858599Y-57721034D01*
X158943513Y-57441111D01*
X158972185Y-57150000D01*
X158943513Y-56858889D01*
X158858599Y-56578966D01*
X158720706Y-56320986D01*
X158535134Y-56094866D01*
X158309014Y-55909294D01*
X158254209Y-55880000D01*
X158309014Y-55850706D01*
X158535134Y-55665134D01*
X158720706Y-55439014D01*
X158858599Y-55181034D01*
X158943513Y-54901111D01*
X158972185Y-54610000D01*
X158943513Y-54318889D01*
X158858599Y-54038966D01*
X158720706Y-53780986D01*
X158535134Y-53554866D01*
X158309014Y-53369294D01*
X158254209Y-53340000D01*
X158309014Y-53310706D01*
X158535134Y-53125134D01*
X158720706Y-52899014D01*
X158858599Y-52641034D01*
X158943513Y-52361111D01*
X158972185Y-52070000D01*
X158943513Y-51778889D01*
X158858599Y-51498966D01*
X158720706Y-51240986D01*
X158535134Y-51014866D01*
X158309014Y-50829294D01*
X158051034Y-50691401D01*
X157771111Y-50606487D01*
X157552950Y-50585000D01*
X157407050Y-50585000D01*
X157188889Y-50606487D01*
X156908966Y-50691401D01*
X156650986Y-50829294D01*
X156424866Y-51014866D01*
X156400393Y-51044687D01*
X156379502Y-50975820D01*
X156320537Y-50865506D01*
X156241185Y-50768815D01*
X156144494Y-50689463D01*
X156034180Y-50630498D01*
X155914482Y-50594188D01*
X155790000Y-50581928D01*
X155225750Y-50585000D01*
X155067000Y-50743750D01*
X155067000Y-51943000D01*
X155087000Y-51943000D01*
X155087000Y-52197000D01*
X155067000Y-52197000D01*
X155067000Y-52217000D01*
X154813000Y-52217000D01*
X154813000Y-52197000D01*
X153613750Y-52197000D01*
X153455000Y-52355750D01*
X153451928Y-52920000D01*
X153464188Y-53044482D01*
X153500498Y-53164180D01*
X153559463Y-53274494D01*
X153638815Y-53371185D01*
X153735506Y-53450537D01*
X153845820Y-53509502D01*
X153914687Y-53530393D01*
X153884866Y-53554866D01*
X153699294Y-53780986D01*
X153561401Y-54038966D01*
X153476487Y-54318889D01*
X153447815Y-54610000D01*
X35009576Y-54610000D01*
X35029875Y-51220000D01*
X153451928Y-51220000D01*
X153455000Y-51784250D01*
X153613750Y-51943000D01*
X154813000Y-51943000D01*
X154813000Y-50743750D01*
X154654250Y-50585000D01*
X154090000Y-50581928D01*
X153965518Y-50594188D01*
X153845820Y-50630498D01*
X153735506Y-50689463D01*
X153638815Y-50768815D01*
X153559463Y-50865506D01*
X153500498Y-50975820D01*
X153464188Y-51095518D01*
X153451928Y-51220000D01*
X35029875Y-51220000D01*
X35043989Y-48863195D01*
X118141000Y-48863195D01*
X118141000Y-49136805D01*
X118194378Y-49405156D01*
X118299084Y-49657938D01*
X118451093Y-49885436D01*
X118644564Y-50078907D01*
X118872062Y-50230916D01*
X119124844Y-50335622D01*
X119393195Y-50389000D01*
X119666805Y-50389000D01*
X119935156Y-50335622D01*
X120187938Y-50230916D01*
X120415436Y-50078907D01*
X120608907Y-49885436D01*
X120760916Y-49657938D01*
X120800000Y-49563581D01*
X120839084Y-49657938D01*
X120991093Y-49885436D01*
X121184564Y-50078907D01*
X121412062Y-50230916D01*
X121664844Y-50335622D01*
X121933195Y-50389000D01*
X122206805Y-50389000D01*
X122475156Y-50335622D01*
X122727938Y-50230916D01*
X122955436Y-50078907D01*
X123148907Y-49885436D01*
X123300916Y-49657938D01*
X123340000Y-49563581D01*
X123379084Y-49657938D01*
X123531093Y-49885436D01*
X123724564Y-50078907D01*
X123952062Y-50230916D01*
X124204844Y-50335622D01*
X124473195Y-50389000D01*
X124746805Y-50389000D01*
X125015156Y-50335622D01*
X125267938Y-50230916D01*
X125495436Y-50078907D01*
X125688907Y-49885436D01*
X125840916Y-49657938D01*
X125880000Y-49563581D01*
X125919084Y-49657938D01*
X126071093Y-49885436D01*
X126264564Y-50078907D01*
X126492062Y-50230916D01*
X126744844Y-50335622D01*
X127013195Y-50389000D01*
X127286805Y-50389000D01*
X127555156Y-50335622D01*
X127807938Y-50230916D01*
X128035436Y-50078907D01*
X128154492Y-49959851D01*
X128909754Y-49959851D01*
X128975765Y-50199127D01*
X129223426Y-50315426D01*
X129489018Y-50381174D01*
X129762334Y-50393845D01*
X130032870Y-50352951D01*
X130290229Y-50260063D01*
X130404235Y-50199127D01*
X130470246Y-49959851D01*
X131449754Y-49959851D01*
X131515765Y-50199127D01*
X131763426Y-50315426D01*
X132029018Y-50381174D01*
X132302334Y-50393845D01*
X132572870Y-50352951D01*
X132830229Y-50260063D01*
X132944235Y-50199127D01*
X133010246Y-49959851D01*
X133989754Y-49959851D01*
X134055765Y-50199127D01*
X134303426Y-50315426D01*
X134569018Y-50381174D01*
X134842334Y-50393845D01*
X135112870Y-50352951D01*
X135370229Y-50260063D01*
X135484235Y-50199127D01*
X135550246Y-49959851D01*
X136529754Y-49959851D01*
X136595765Y-50199127D01*
X136843426Y-50315426D01*
X137109018Y-50381174D01*
X137382334Y-50393845D01*
X137652870Y-50352951D01*
X137910229Y-50260063D01*
X138024235Y-50199127D01*
X138090246Y-49959851D01*
X137310000Y-49179605D01*
X136529754Y-49959851D01*
X135550246Y-49959851D01*
X134770000Y-49179605D01*
X133989754Y-49959851D01*
X133010246Y-49959851D01*
X132230000Y-49179605D01*
X131449754Y-49959851D01*
X130470246Y-49959851D01*
X129690000Y-49179605D01*
X128909754Y-49959851D01*
X128154492Y-49959851D01*
X128228907Y-49885436D01*
X128380916Y-49657938D01*
X128418242Y-49567826D01*
X128429937Y-49600229D01*
X128490873Y-49714235D01*
X128730149Y-49780246D01*
X129510395Y-49000000D01*
X129869605Y-49000000D01*
X130649851Y-49780246D01*
X130889127Y-49714235D01*
X130958084Y-49567389D01*
X130969937Y-49600229D01*
X131030873Y-49714235D01*
X131270149Y-49780246D01*
X132050395Y-49000000D01*
X132409605Y-49000000D01*
X133189851Y-49780246D01*
X133429127Y-49714235D01*
X133498084Y-49567389D01*
X133509937Y-49600229D01*
X133570873Y-49714235D01*
X133810149Y-49780246D01*
X134590395Y-49000000D01*
X134949605Y-49000000D01*
X135729851Y-49780246D01*
X135969127Y-49714235D01*
X136038084Y-49567389D01*
X136049937Y-49600229D01*
X136110873Y-49714235D01*
X136350149Y-49780246D01*
X137130395Y-49000000D01*
X137489605Y-49000000D01*
X138269851Y-49780246D01*
X138509127Y-49714235D01*
X138579940Y-49563437D01*
X138619084Y-49657938D01*
X138771093Y-49885436D01*
X138964564Y-50078907D01*
X139192062Y-50230916D01*
X139444844Y-50335622D01*
X139713195Y-50389000D01*
X139986805Y-50389000D01*
X140255156Y-50335622D01*
X140507938Y-50230916D01*
X140735436Y-50078907D01*
X140928907Y-49885436D01*
X141080916Y-49657938D01*
X141120000Y-49563581D01*
X141159084Y-49657938D01*
X141311093Y-49885436D01*
X141504564Y-50078907D01*
X141732062Y-50230916D01*
X141984844Y-50335622D01*
X142253195Y-50389000D01*
X142526805Y-50389000D01*
X142795156Y-50335622D01*
X143047938Y-50230916D01*
X143275436Y-50078907D01*
X143468907Y-49885436D01*
X143620916Y-49657938D01*
X143660000Y-49563581D01*
X143699084Y-49657938D01*
X143851093Y-49885436D01*
X144044564Y-50078907D01*
X144272062Y-50230916D01*
X144524844Y-50335622D01*
X144793195Y-50389000D01*
X145066805Y-50389000D01*
X145335156Y-50335622D01*
X145587938Y-50230916D01*
X145815436Y-50078907D01*
X146008907Y-49885436D01*
X146080343Y-49778524D01*
X146090188Y-49878482D01*
X146126498Y-49998180D01*
X146185463Y-50108494D01*
X146264815Y-50205185D01*
X146361506Y-50284537D01*
X146471820Y-50343502D01*
X146591518Y-50379812D01*
X146716000Y-50392072D01*
X148224000Y-50392072D01*
X148348482Y-50379812D01*
X148468180Y-50343502D01*
X148578494Y-50284537D01*
X148675185Y-50205185D01*
X148754537Y-50108494D01*
X148813502Y-49998180D01*
X148849812Y-49878482D01*
X148862072Y-49754000D01*
X148862072Y-48246000D01*
X148849812Y-48121518D01*
X148813502Y-48001820D01*
X148754537Y-47891506D01*
X148675185Y-47794815D01*
X148578494Y-47715463D01*
X148468180Y-47656498D01*
X148348482Y-47620188D01*
X148224000Y-47607928D01*
X146716000Y-47607928D01*
X146591518Y-47620188D01*
X146471820Y-47656498D01*
X146361506Y-47715463D01*
X146264815Y-47794815D01*
X146185463Y-47891506D01*
X146126498Y-48001820D01*
X146090188Y-48121518D01*
X146080343Y-48221476D01*
X146008907Y-48114564D01*
X145815436Y-47921093D01*
X145587938Y-47769084D01*
X145335156Y-47664378D01*
X145066805Y-47611000D01*
X144793195Y-47611000D01*
X144524844Y-47664378D01*
X144272062Y-47769084D01*
X144044564Y-47921093D01*
X143851093Y-48114564D01*
X143699084Y-48342062D01*
X143660000Y-48436419D01*
X143620916Y-48342062D01*
X143468907Y-48114564D01*
X143275436Y-47921093D01*
X143047938Y-47769084D01*
X142795156Y-47664378D01*
X142526805Y-47611000D01*
X142253195Y-47611000D01*
X141984844Y-47664378D01*
X141732062Y-47769084D01*
X141504564Y-47921093D01*
X141311093Y-48114564D01*
X141159084Y-48342062D01*
X141120000Y-48436419D01*
X141080916Y-48342062D01*
X140928907Y-48114564D01*
X140735436Y-47921093D01*
X140507938Y-47769084D01*
X140255156Y-47664378D01*
X139986805Y-47611000D01*
X139713195Y-47611000D01*
X139444844Y-47664378D01*
X139192062Y-47769084D01*
X138964564Y-47921093D01*
X138771093Y-48114564D01*
X138619084Y-48342062D01*
X138581758Y-48432174D01*
X138570063Y-48399771D01*
X138509127Y-48285765D01*
X138269851Y-48219754D01*
X137489605Y-49000000D01*
X137130395Y-49000000D01*
X136350149Y-48219754D01*
X136110873Y-48285765D01*
X136041916Y-48432611D01*
X136030063Y-48399771D01*
X135969127Y-48285765D01*
X135729851Y-48219754D01*
X134949605Y-49000000D01*
X134590395Y-49000000D01*
X133810149Y-48219754D01*
X133570873Y-48285765D01*
X133501916Y-48432611D01*
X133490063Y-48399771D01*
X133429127Y-48285765D01*
X133189851Y-48219754D01*
X132409605Y-49000000D01*
X132050395Y-49000000D01*
X131270149Y-48219754D01*
X131030873Y-48285765D01*
X130961916Y-48432611D01*
X130950063Y-48399771D01*
X130889127Y-48285765D01*
X130649851Y-48219754D01*
X129869605Y-49000000D01*
X129510395Y-49000000D01*
X128730149Y-48219754D01*
X128490873Y-48285765D01*
X128420060Y-48436563D01*
X128380916Y-48342062D01*
X128228907Y-48114564D01*
X128154492Y-48040149D01*
X128909754Y-48040149D01*
X129690000Y-48820395D01*
X130470246Y-48040149D01*
X131449754Y-48040149D01*
X132230000Y-48820395D01*
X133010246Y-48040149D01*
X133989754Y-48040149D01*
X134770000Y-48820395D01*
X135550246Y-48040149D01*
X136529754Y-48040149D01*
X137310000Y-48820395D01*
X138090246Y-48040149D01*
X138024235Y-47800873D01*
X137776574Y-47684574D01*
X137510982Y-47618826D01*
X137237666Y-47606155D01*
X136967130Y-47647049D01*
X136709771Y-47739937D01*
X136595765Y-47800873D01*
X136529754Y-48040149D01*
X135550246Y-48040149D01*
X135484235Y-47800873D01*
X135236574Y-47684574D01*
X134970982Y-47618826D01*
X134697666Y-47606155D01*
X134427130Y-47647049D01*
X134169771Y-47739937D01*
X134055765Y-47800873D01*
X133989754Y-48040149D01*
X133010246Y-48040149D01*
X132944235Y-47800873D01*
X132696574Y-47684574D01*
X132430982Y-47618826D01*
X132157666Y-47606155D01*
X131887130Y-47647049D01*
X131629771Y-47739937D01*
X131515765Y-47800873D01*
X131449754Y-48040149D01*
X130470246Y-48040149D01*
X130404235Y-47800873D01*
X130156574Y-47684574D01*
X129890982Y-47618826D01*
X129617666Y-47606155D01*
X129347130Y-47647049D01*
X129089771Y-47739937D01*
X128975765Y-47800873D01*
X128909754Y-48040149D01*
X128154492Y-48040149D01*
X128035436Y-47921093D01*
X127807938Y-47769084D01*
X127555156Y-47664378D01*
X127286805Y-47611000D01*
X127013195Y-47611000D01*
X126744844Y-47664378D01*
X126492062Y-47769084D01*
X126264564Y-47921093D01*
X126071093Y-48114564D01*
X125919084Y-48342062D01*
X125880000Y-48436419D01*
X125840916Y-48342062D01*
X125688907Y-48114564D01*
X125495436Y-47921093D01*
X125267938Y-47769084D01*
X125015156Y-47664378D01*
X124746805Y-47611000D01*
X124473195Y-47611000D01*
X124204844Y-47664378D01*
X123952062Y-47769084D01*
X123724564Y-47921093D01*
X123531093Y-48114564D01*
X123379084Y-48342062D01*
X123340000Y-48436419D01*
X123300916Y-48342062D01*
X123148907Y-48114564D01*
X122955436Y-47921093D01*
X122727938Y-47769084D01*
X122475156Y-47664378D01*
X122206805Y-47611000D01*
X121933195Y-47611000D01*
X121664844Y-47664378D01*
X121412062Y-47769084D01*
X121184564Y-47921093D01*
X120991093Y-48114564D01*
X120839084Y-48342062D01*
X120800000Y-48436419D01*
X120760916Y-48342062D01*
X120608907Y-48114564D01*
X120415436Y-47921093D01*
X120187938Y-47769084D01*
X119935156Y-47664378D01*
X119666805Y-47611000D01*
X119393195Y-47611000D01*
X119124844Y-47664378D01*
X118872062Y-47769084D01*
X118644564Y-47921093D01*
X118451093Y-48114564D01*
X118299084Y-48342062D01*
X118194378Y-48594844D01*
X118141000Y-48863195D01*
X35043989Y-48863195D01*
X35126242Y-35127000D01*
X155230513Y-35127000D01*
X163873000Y-37843210D01*
X163873000Y-37843210D01*
G37*
X163873000Y-37843210D02*
X163873000Y-115123000D01*
X142500000Y-115123000D01*
X142475224Y-115125440D01*
X142451399Y-115132667D01*
X142430786Y-115143518D01*
X137462352Y-118373000D01*
X41555881Y-118373000D01*
X41480631Y-118191331D01*
X41236038Y-117825271D01*
X40924729Y-117513962D01*
X40558669Y-117269369D01*
X40151925Y-117100890D01*
X39720128Y-117015000D01*
X39279872Y-117015000D01*
X38848075Y-117100890D01*
X38441331Y-117269369D01*
X38075271Y-117513962D01*
X37763962Y-117825271D01*
X37519369Y-118191331D01*
X37444119Y-118373000D01*
X34627763Y-118373000D01*
X34639795Y-116363600D01*
X88748328Y-116363600D01*
X88760588Y-116488082D01*
X88796898Y-116607780D01*
X88855863Y-116718094D01*
X88935215Y-116814785D01*
X89031906Y-116894137D01*
X89142220Y-116953102D01*
X89261918Y-116989412D01*
X89386400Y-117001672D01*
X89964250Y-116998600D01*
X90123000Y-116839850D01*
X90123000Y-115627000D01*
X88910150Y-115627000D01*
X88751400Y-115785750D01*
X88748328Y-116363600D01*
X34639795Y-116363600D01*
X34687493Y-108398061D01*
X85965000Y-108398061D01*
X85965000Y-108601939D01*
X86004774Y-108801898D01*
X86082795Y-108990256D01*
X86196063Y-109159774D01*
X86340226Y-109303937D01*
X86509744Y-109417205D01*
X86698102Y-109495226D01*
X86898061Y-109535000D01*
X87101939Y-109535000D01*
X87301898Y-109495226D01*
X87490256Y-109417205D01*
X87659774Y-109303937D01*
X87803937Y-109159774D01*
X87917205Y-108990256D01*
X87995226Y-108801898D01*
X88035000Y-108601939D01*
X88035000Y-108398061D01*
X87995226Y-108198102D01*
X87917205Y-108009744D01*
X87803937Y-107840226D01*
X87760000Y-107796289D01*
X87760000Y-103564801D01*
X90761003Y-100563799D01*
X90790001Y-100540001D01*
X90816332Y-100507917D01*
X90841400Y-100477372D01*
X90841400Y-111576865D01*
X90826264Y-111568775D01*
X90543777Y-111483084D01*
X90323619Y-111461400D01*
X90176381Y-111461400D01*
X89956223Y-111483084D01*
X89673736Y-111568775D01*
X89413394Y-111707931D01*
X89185203Y-111895203D01*
X88997931Y-112123394D01*
X88858775Y-112383736D01*
X88773084Y-112666223D01*
X88744149Y-112960000D01*
X88773084Y-113253777D01*
X88858775Y-113536264D01*
X88997931Y-113796606D01*
X89185203Y-114024797D01*
X89193265Y-114031414D01*
X89142220Y-114046898D01*
X89031906Y-114105863D01*
X88935215Y-114185215D01*
X88855863Y-114281906D01*
X88796898Y-114392220D01*
X88760588Y-114511918D01*
X88748328Y-114636400D01*
X88751400Y-115214250D01*
X88910150Y-115373000D01*
X90123000Y-115373000D01*
X90123000Y-115353000D01*
X90377000Y-115353000D01*
X90377000Y-115373000D01*
X90397000Y-115373000D01*
X90397000Y-115627000D01*
X90377000Y-115627000D01*
X90377000Y-116839850D01*
X90535750Y-116998600D01*
X91113600Y-117001672D01*
X91238082Y-116989412D01*
X91357780Y-116953102D01*
X91468094Y-116894137D01*
X91564785Y-116814785D01*
X91644137Y-116718094D01*
X91703102Y-116607780D01*
X91718586Y-116556735D01*
X91725203Y-116564797D01*
X91953394Y-116752069D01*
X92213736Y-116891225D01*
X92496223Y-116976916D01*
X92716381Y-116998600D01*
X92863619Y-116998600D01*
X93083777Y-116976916D01*
X93366264Y-116891225D01*
X93626606Y-116752069D01*
X93854797Y-116564797D01*
X94042069Y-116336606D01*
X94060000Y-116303060D01*
X94077931Y-116336606D01*
X94265203Y-116564797D01*
X94493394Y-116752069D01*
X94753736Y-116891225D01*
X95036223Y-116976916D01*
X95256381Y-116998600D01*
X95403619Y-116998600D01*
X95623777Y-116976916D01*
X95906264Y-116891225D01*
X96166606Y-116752069D01*
X96394797Y-116564797D01*
X96582069Y-116336606D01*
X96600000Y-116303060D01*
X96617931Y-116336606D01*
X96805203Y-116564797D01*
X97033394Y-116752069D01*
X97293736Y-116891225D01*
X97576223Y-116976916D01*
X97796381Y-116998600D01*
X97943619Y-116998600D01*
X98163777Y-116976916D01*
X98446264Y-116891225D01*
X98706606Y-116752069D01*
X98934797Y-116564797D01*
X99122069Y-116336606D01*
X99140000Y-116303060D01*
X99157931Y-116336606D01*
X99345203Y-116564797D01*
X99573394Y-116752069D01*
X99833736Y-116891225D01*
X100116223Y-116976916D01*
X100336381Y-116998600D01*
X100483619Y-116998600D01*
X100703777Y-116976916D01*
X100986264Y-116891225D01*
X101246606Y-116752069D01*
X101474797Y-116564797D01*
X101662069Y-116336606D01*
X101801225Y-116076264D01*
X101886916Y-115793777D01*
X101915851Y-115500000D01*
X101886916Y-115206223D01*
X101801225Y-114923736D01*
X101662069Y-114663394D01*
X101474797Y-114435203D01*
X101246606Y-114247931D01*
X101213060Y-114230000D01*
X101246606Y-114212069D01*
X101474797Y-114024797D01*
X101662069Y-113796606D01*
X101703016Y-113720000D01*
X130102678Y-113720000D01*
X130140000Y-113723676D01*
X130177322Y-113720000D01*
X130177333Y-113720000D01*
X130288986Y-113709003D01*
X130432247Y-113665546D01*
X130564276Y-113594974D01*
X130680001Y-113500001D01*
X130703804Y-113470997D01*
X139565233Y-104609569D01*
X139713195Y-104639000D01*
X139986805Y-104639000D01*
X140255156Y-104585622D01*
X140507938Y-104480916D01*
X140735436Y-104328907D01*
X140928907Y-104135436D01*
X141080916Y-103907938D01*
X141120000Y-103813581D01*
X141159084Y-103907938D01*
X141311093Y-104135436D01*
X141504564Y-104328907D01*
X141732062Y-104480916D01*
X141984844Y-104585622D01*
X142253195Y-104639000D01*
X142526805Y-104639000D01*
X142795156Y-104585622D01*
X143047938Y-104480916D01*
X143275436Y-104328907D01*
X143468907Y-104135436D01*
X143620916Y-103907938D01*
X143660000Y-103813581D01*
X143699084Y-103907938D01*
X143851093Y-104135436D01*
X144044564Y-104328907D01*
X144272062Y-104480916D01*
X144524844Y-104585622D01*
X144793195Y-104639000D01*
X145066805Y-104639000D01*
X145335156Y-104585622D01*
X145587938Y-104480916D01*
X145815436Y-104328907D01*
X146008907Y-104135436D01*
X146160916Y-103907938D01*
X146200000Y-103813581D01*
X146239084Y-103907938D01*
X146391093Y-104135436D01*
X146584564Y-104328907D01*
X146812062Y-104480916D01*
X147064844Y-104585622D01*
X147333195Y-104639000D01*
X147606805Y-104639000D01*
X147875156Y-104585622D01*
X148127938Y-104480916D01*
X148355436Y-104328907D01*
X148548907Y-104135436D01*
X148700916Y-103907938D01*
X148805622Y-103655156D01*
X148859000Y-103386805D01*
X148859000Y-103113195D01*
X148805622Y-102844844D01*
X148700916Y-102592062D01*
X148548907Y-102364564D01*
X148355436Y-102171093D01*
X148127938Y-102019084D01*
X147875156Y-101914378D01*
X147606805Y-101861000D01*
X147333195Y-101861000D01*
X147064844Y-101914378D01*
X146812062Y-102019084D01*
X146584564Y-102171093D01*
X146391093Y-102364564D01*
X146239084Y-102592062D01*
X146200000Y-102686419D01*
X146160916Y-102592062D01*
X146008907Y-102364564D01*
X145815436Y-102171093D01*
X145587938Y-102019084D01*
X145335156Y-101914378D01*
X145066805Y-101861000D01*
X144793195Y-101861000D01*
X144524844Y-101914378D01*
X144272062Y-102019084D01*
X144044564Y-102171093D01*
X143851093Y-102364564D01*
X143699084Y-102592062D01*
X143660000Y-102686419D01*
X143620916Y-102592062D01*
X143468907Y-102364564D01*
X143275436Y-102171093D01*
X143047938Y-102019084D01*
X142795156Y-101914378D01*
X142526805Y-101861000D01*
X142253195Y-101861000D01*
X141984844Y-101914378D01*
X141732062Y-102019084D01*
X141504564Y-102171093D01*
X141311093Y-102364564D01*
X141159084Y-102592062D01*
X141120000Y-102686419D01*
X141080916Y-102592062D01*
X140928907Y-102364564D01*
X140735436Y-102171093D01*
X140507938Y-102019084D01*
X140255156Y-101914378D01*
X139986805Y-101861000D01*
X139713195Y-101861000D01*
X139444844Y-101914378D01*
X139192062Y-102019084D01*
X138964564Y-102171093D01*
X138771093Y-102364564D01*
X138619084Y-102592062D01*
X138581758Y-102682174D01*
X138570063Y-102649771D01*
X138509127Y-102535765D01*
X138269851Y-102469754D01*
X137489605Y-103250000D01*
X137503748Y-103264143D01*
X137324143Y-103443748D01*
X137310000Y-103429605D01*
X136529754Y-104209851D01*
X136595765Y-104449127D01*
X136843426Y-104565426D01*
X137109018Y-104631174D01*
X137381397Y-104643802D01*
X129825199Y-112200000D01*
X101703016Y-112200000D01*
X101662069Y-112123394D01*
X101474797Y-111895203D01*
X101246606Y-111707931D01*
X100986264Y-111568775D01*
X100703777Y-111483084D01*
X100483619Y-111461400D01*
X100336381Y-111461400D01*
X100116223Y-111483084D01*
X99833736Y-111568775D01*
X99573394Y-111707931D01*
X99345203Y-111895203D01*
X99157931Y-112123394D01*
X99134137Y-112167910D01*
X99076817Y-112071512D01*
X98880293Y-111853146D01*
X98644944Y-111677316D01*
X98379814Y-111550778D01*
X98229026Y-111505042D01*
X97997000Y-111626183D01*
X97997000Y-112833000D01*
X98017000Y-112833000D01*
X98017000Y-113087000D01*
X97997000Y-113087000D01*
X97997000Y-113107000D01*
X97743000Y-113107000D01*
X97743000Y-113087000D01*
X97723000Y-113087000D01*
X97723000Y-112833000D01*
X97743000Y-112833000D01*
X97743000Y-111626183D01*
X97510974Y-111505042D01*
X97360186Y-111550778D01*
X97095056Y-111677316D01*
X96859707Y-111853146D01*
X96663183Y-112071512D01*
X96605863Y-112167910D01*
X96582069Y-112123394D01*
X96394797Y-111895203D01*
X96166606Y-111707931D01*
X95906264Y-111568775D01*
X95623777Y-111483084D01*
X95403619Y-111461400D01*
X95363401Y-111461400D01*
X101990000Y-104834802D01*
X101990000Y-106496440D01*
X101948102Y-106504774D01*
X101759744Y-106582795D01*
X101590226Y-106696063D01*
X101446063Y-106840226D01*
X101332795Y-107009744D01*
X101254774Y-107198102D01*
X101215000Y-107398061D01*
X101215000Y-107601939D01*
X101254774Y-107801898D01*
X101332795Y-107990256D01*
X101446063Y-108159774D01*
X101590226Y-108303937D01*
X101759744Y-108417205D01*
X101948102Y-108495226D01*
X102148061Y-108535000D01*
X102351939Y-108535000D01*
X102551898Y-108495226D01*
X102740256Y-108417205D01*
X102909774Y-108303937D01*
X103053937Y-108159774D01*
X103167205Y-107990256D01*
X103245226Y-107801898D01*
X103285000Y-107601939D01*
X103285000Y-107544105D01*
X103290001Y-107540001D01*
X103384974Y-107424276D01*
X103455546Y-107292247D01*
X103499003Y-107148986D01*
X103510000Y-107037333D01*
X103510000Y-107037325D01*
X103513676Y-107000000D01*
X103510000Y-106962675D01*
X103510000Y-102496000D01*
X118137928Y-102496000D01*
X118137928Y-104004000D01*
X118150188Y-104128482D01*
X118186498Y-104248180D01*
X118245463Y-104358494D01*
X118324815Y-104455185D01*
X118421506Y-104534537D01*
X118531820Y-104593502D01*
X118651518Y-104629812D01*
X118776000Y-104642072D01*
X120284000Y-104642072D01*
X120408482Y-104629812D01*
X120528180Y-104593502D01*
X120638494Y-104534537D01*
X120735185Y-104455185D01*
X120814537Y-104358494D01*
X120873502Y-104248180D01*
X120909812Y-104128482D01*
X120919657Y-104028524D01*
X120991093Y-104135436D01*
X121184564Y-104328907D01*
X121412062Y-104480916D01*
X121664844Y-104585622D01*
X121933195Y-104639000D01*
X122206805Y-104639000D01*
X122475156Y-104585622D01*
X122727938Y-104480916D01*
X122955436Y-104328907D01*
X123148907Y-104135436D01*
X123300916Y-103907938D01*
X123340000Y-103813581D01*
X123379084Y-103907938D01*
X123531093Y-104135436D01*
X123724564Y-104328907D01*
X123952062Y-104480916D01*
X124204844Y-104585622D01*
X124473195Y-104639000D01*
X124746805Y-104639000D01*
X125015156Y-104585622D01*
X125267938Y-104480916D01*
X125495436Y-104328907D01*
X125688907Y-104135436D01*
X125840916Y-103907938D01*
X125880000Y-103813581D01*
X125919084Y-103907938D01*
X126071093Y-104135436D01*
X126264564Y-104328907D01*
X126492062Y-104480916D01*
X126744844Y-104585622D01*
X127013195Y-104639000D01*
X127286805Y-104639000D01*
X127555156Y-104585622D01*
X127807938Y-104480916D01*
X128035436Y-104328907D01*
X128154492Y-104209851D01*
X128909754Y-104209851D01*
X128975765Y-104449127D01*
X129223426Y-104565426D01*
X129489018Y-104631174D01*
X129762334Y-104643845D01*
X130032870Y-104602951D01*
X130290229Y-104510063D01*
X130404235Y-104449127D01*
X130470246Y-104209851D01*
X131449754Y-104209851D01*
X131515765Y-104449127D01*
X131763426Y-104565426D01*
X132029018Y-104631174D01*
X132302334Y-104643845D01*
X132572870Y-104602951D01*
X132830229Y-104510063D01*
X132944235Y-104449127D01*
X133010246Y-104209851D01*
X133989754Y-104209851D01*
X134055765Y-104449127D01*
X134303426Y-104565426D01*
X134569018Y-104631174D01*
X134842334Y-104643845D01*
X135112870Y-104602951D01*
X135370229Y-104510063D01*
X135484235Y-104449127D01*
X135550246Y-104209851D01*
X134770000Y-103429605D01*
X133989754Y-104209851D01*
X133010246Y-104209851D01*
X132230000Y-103429605D01*
X131449754Y-104209851D01*
X130470246Y-104209851D01*
X129690000Y-103429605D01*
X128909754Y-104209851D01*
X128154492Y-104209851D01*
X128228907Y-104135436D01*
X128380916Y-103907938D01*
X128418242Y-103817826D01*
X128429937Y-103850229D01*
X128490873Y-103964235D01*
X128730149Y-104030246D01*
X129510395Y-103250000D01*
X129869605Y-103250000D01*
X130649851Y-104030246D01*
X130889127Y-103964235D01*
X130958084Y-103817389D01*
X130969937Y-103850229D01*
X131030873Y-103964235D01*
X131270149Y-104030246D01*
X132050395Y-103250000D01*
X132409605Y-103250000D01*
X133189851Y-104030246D01*
X133429127Y-103964235D01*
X133498084Y-103817389D01*
X133509937Y-103850229D01*
X133570873Y-103964235D01*
X133810149Y-104030246D01*
X134590395Y-103250000D01*
X134949605Y-103250000D01*
X135729851Y-104030246D01*
X135969127Y-103964235D01*
X136038084Y-103817389D01*
X136049937Y-103850229D01*
X136110873Y-103964235D01*
X136350149Y-104030246D01*
X137130395Y-103250000D01*
X136350149Y-102469754D01*
X136110873Y-102535765D01*
X136041916Y-102682611D01*
X136030063Y-102649771D01*
X135969127Y-102535765D01*
X135729851Y-102469754D01*
X134949605Y-103250000D01*
X134590395Y-103250000D01*
X133810149Y-102469754D01*
X133570873Y-102535765D01*
X133501916Y-102682611D01*
X133490063Y-102649771D01*
X133429127Y-102535765D01*
X133189851Y-102469754D01*
X132409605Y-103250000D01*
X132050395Y-103250000D01*
X131270149Y-102469754D01*
X131030873Y-102535765D01*
X130961916Y-102682611D01*
X130950063Y-102649771D01*
X130889127Y-102535765D01*
X130649851Y-102469754D01*
X129869605Y-103250000D01*
X129510395Y-103250000D01*
X128730149Y-102469754D01*
X128490873Y-102535765D01*
X128420060Y-102686563D01*
X128380916Y-102592062D01*
X128228907Y-102364564D01*
X128154492Y-102290149D01*
X128909754Y-102290149D01*
X129690000Y-103070395D01*
X130470246Y-102290149D01*
X131449754Y-102290149D01*
X132230000Y-103070395D01*
X133010246Y-102290149D01*
X133989754Y-102290149D01*
X134770000Y-103070395D01*
X135550246Y-102290149D01*
X136529754Y-102290149D01*
X137310000Y-103070395D01*
X138090246Y-102290149D01*
X138024235Y-102050873D01*
X137776574Y-101934574D01*
X137510982Y-101868826D01*
X137237666Y-101856155D01*
X136967130Y-101897049D01*
X136709771Y-101989937D01*
X136595765Y-102050873D01*
X136529754Y-102290149D01*
X135550246Y-102290149D01*
X135484235Y-102050873D01*
X135236574Y-101934574D01*
X134970982Y-101868826D01*
X134697666Y-101856155D01*
X134427130Y-101897049D01*
X134169771Y-101989937D01*
X134055765Y-102050873D01*
X133989754Y-102290149D01*
X133010246Y-102290149D01*
X132944235Y-102050873D01*
X132696574Y-101934574D01*
X132430982Y-101868826D01*
X132157666Y-101856155D01*
X131887130Y-101897049D01*
X131629771Y-101989937D01*
X131515765Y-102050873D01*
X131449754Y-102290149D01*
X130470246Y-102290149D01*
X130404235Y-102050873D01*
X130156574Y-101934574D01*
X129890982Y-101868826D01*
X129617666Y-101856155D01*
X129347130Y-101897049D01*
X129089771Y-101989937D01*
X128975765Y-102050873D01*
X128909754Y-102290149D01*
X128154492Y-102290149D01*
X128035436Y-102171093D01*
X127807938Y-102019084D01*
X127555156Y-101914378D01*
X127286805Y-101861000D01*
X127013195Y-101861000D01*
X126744844Y-101914378D01*
X126492062Y-102019084D01*
X126264564Y-102171093D01*
X126071093Y-102364564D01*
X125919084Y-102592062D01*
X125880000Y-102686419D01*
X125840916Y-102592062D01*
X125688907Y-102364564D01*
X125495436Y-102171093D01*
X125267938Y-102019084D01*
X125015156Y-101914378D01*
X124746805Y-101861000D01*
X124473195Y-101861000D01*
X124204844Y-101914378D01*
X123952062Y-102019084D01*
X123724564Y-102171093D01*
X123531093Y-102364564D01*
X123379084Y-102592062D01*
X123340000Y-102686419D01*
X123300916Y-102592062D01*
X123148907Y-102364564D01*
X122955436Y-102171093D01*
X122727938Y-102019084D01*
X122475156Y-101914378D01*
X122206805Y-101861000D01*
X121933195Y-101861000D01*
X121664844Y-101914378D01*
X121412062Y-102019084D01*
X121184564Y-102171093D01*
X120991093Y-102364564D01*
X120919657Y-102471476D01*
X120909812Y-102371518D01*
X120873502Y-102251820D01*
X120814537Y-102141506D01*
X120735185Y-102044815D01*
X120638494Y-101965463D01*
X120528180Y-101906498D01*
X120408482Y-101870188D01*
X120284000Y-101857928D01*
X118776000Y-101857928D01*
X118651518Y-101870188D01*
X118531820Y-101906498D01*
X118421506Y-101965463D01*
X118324815Y-102044815D01*
X118245463Y-102141506D01*
X118186498Y-102251820D01*
X118150188Y-102371518D01*
X118137928Y-102496000D01*
X103510000Y-102496000D01*
X103510000Y-100686890D01*
X153498524Y-100686890D01*
X153543175Y-100834099D01*
X153668359Y-101096920D01*
X153842412Y-101330269D01*
X154058645Y-101525178D01*
X154308748Y-101674157D01*
X154583109Y-101771481D01*
X154813000Y-101650814D01*
X154813000Y-100457000D01*
X153619845Y-100457000D01*
X153498524Y-100686890D01*
X103510000Y-100686890D01*
X103510000Y-67703711D01*
X103553937Y-67659774D01*
X103667205Y-67490256D01*
X103745226Y-67301898D01*
X103785000Y-67101939D01*
X103785000Y-66898061D01*
X103745226Y-66698102D01*
X103667205Y-66509744D01*
X103553937Y-66340226D01*
X103409774Y-66196063D01*
X103240256Y-66082795D01*
X103051898Y-66004774D01*
X102851939Y-65965000D01*
X102648061Y-65965000D01*
X102448102Y-66004774D01*
X102259744Y-66082795D01*
X102090226Y-66196063D01*
X101946063Y-66340226D01*
X101832795Y-66509744D01*
X101754774Y-66698102D01*
X101715000Y-66898061D01*
X101715000Y-67101939D01*
X101754774Y-67301898D01*
X101832795Y-67490256D01*
X101946063Y-67659774D01*
X101990001Y-67703712D01*
X101990001Y-77715000D01*
X101898061Y-77715000D01*
X101698102Y-77754774D01*
X101509744Y-77832795D01*
X101340226Y-77946063D01*
X101196063Y-78090226D01*
X101082795Y-78259744D01*
X101004774Y-78448102D01*
X100965000Y-78648061D01*
X100965000Y-78851939D01*
X101004774Y-79051898D01*
X101082795Y-79240256D01*
X101196063Y-79409774D01*
X101240000Y-79453711D01*
X101240001Y-103435197D01*
X93166900Y-111508299D01*
X93083777Y-111483084D01*
X92863619Y-111461400D01*
X92716381Y-111461400D01*
X92496223Y-111483084D01*
X92361399Y-111523982D01*
X92361399Y-79849812D01*
X97201212Y-75010000D01*
X98296289Y-75010000D01*
X98340226Y-75053937D01*
X98509744Y-75167205D01*
X98698102Y-75245226D01*
X98898061Y-75285000D01*
X99101939Y-75285000D01*
X99301898Y-75245226D01*
X99490256Y-75167205D01*
X99659774Y-75053937D01*
X99803937Y-74909774D01*
X99917205Y-74740256D01*
X99995226Y-74551898D01*
X100035000Y-74351939D01*
X100035000Y-74148061D01*
X99995226Y-73948102D01*
X99917205Y-73759744D01*
X99803937Y-73590226D01*
X99659774Y-73446063D01*
X99490256Y-73332795D01*
X99301898Y-73254774D01*
X99101939Y-73215000D01*
X98898061Y-73215000D01*
X98698102Y-73254774D01*
X98509744Y-73332795D01*
X98471974Y-73358032D01*
X98495226Y-73301898D01*
X98535000Y-73101939D01*
X98535000Y-72898061D01*
X98495226Y-72698102D01*
X98417205Y-72509744D01*
X98303937Y-72340226D01*
X98159774Y-72196063D01*
X97990256Y-72082795D01*
X97801898Y-72004774D01*
X97601939Y-71965000D01*
X97398061Y-71965000D01*
X97198102Y-72004774D01*
X97009744Y-72082795D01*
X96840226Y-72196063D01*
X96696063Y-72340226D01*
X96582795Y-72509744D01*
X96504774Y-72698102D01*
X96465000Y-72898061D01*
X96465000Y-72960198D01*
X89739003Y-79686196D01*
X89709999Y-79709999D01*
X89654871Y-79777174D01*
X89615026Y-79825724D01*
X89614207Y-79827257D01*
X89544454Y-79957754D01*
X89500997Y-80101015D01*
X89490000Y-80212668D01*
X89490000Y-80212678D01*
X89486324Y-80250000D01*
X89490000Y-80287322D01*
X89490001Y-99685197D01*
X86488998Y-102686201D01*
X86460000Y-102709999D01*
X86436202Y-102738997D01*
X86436201Y-102738998D01*
X86365026Y-102825724D01*
X86294454Y-102957754D01*
X86250998Y-103101015D01*
X86236324Y-103250000D01*
X86240001Y-103287332D01*
X86240000Y-107796289D01*
X86196063Y-107840226D01*
X86082795Y-108009744D01*
X86004774Y-108198102D01*
X85965000Y-108398061D01*
X34687493Y-108398061D01*
X34900655Y-72800000D01*
X35911928Y-72800000D01*
X35911928Y-75200000D01*
X35924188Y-75324482D01*
X35960498Y-75444180D01*
X36019463Y-75554494D01*
X36098815Y-75651185D01*
X36195506Y-75730537D01*
X36305820Y-75789502D01*
X36425518Y-75825812D01*
X36550000Y-75838072D01*
X36967162Y-75838072D01*
X36880801Y-75873844D01*
X36580256Y-76074662D01*
X36324662Y-76330256D01*
X36123844Y-76630801D01*
X35985518Y-76964750D01*
X35915000Y-77319268D01*
X35915000Y-77680732D01*
X35985518Y-78035250D01*
X36123844Y-78369199D01*
X36324662Y-78669744D01*
X36580256Y-78925338D01*
X36880801Y-79126156D01*
X37214750Y-79264482D01*
X37569268Y-79335000D01*
X37930732Y-79335000D01*
X38285250Y-79264482D01*
X38619199Y-79126156D01*
X38919744Y-78925338D01*
X39175338Y-78669744D01*
X39376156Y-78369199D01*
X39514482Y-78035250D01*
X39585000Y-77680732D01*
X39585000Y-77319268D01*
X39514482Y-76964750D01*
X39376156Y-76630801D01*
X39175338Y-76330256D01*
X38919744Y-76074662D01*
X38619199Y-75873844D01*
X38532838Y-75838072D01*
X38950000Y-75838072D01*
X39074482Y-75825812D01*
X39194180Y-75789502D01*
X39304494Y-75730537D01*
X39401185Y-75651185D01*
X39480537Y-75554494D01*
X39539502Y-75444180D01*
X39575812Y-75324482D01*
X39588072Y-75200000D01*
X39588072Y-72800000D01*
X39575812Y-72675518D01*
X39567484Y-72648061D01*
X73215000Y-72648061D01*
X73215000Y-72851939D01*
X73254774Y-73051898D01*
X73332795Y-73240256D01*
X73446063Y-73409774D01*
X73490001Y-73453712D01*
X73490000Y-88796289D01*
X73446063Y-88840226D01*
X73332795Y-89009744D01*
X73254774Y-89198102D01*
X73215000Y-89398061D01*
X73215000Y-89601939D01*
X73254774Y-89801898D01*
X73332795Y-89990256D01*
X73446063Y-90159774D01*
X73590226Y-90303937D01*
X73759744Y-90417205D01*
X73948102Y-90495226D01*
X74148061Y-90535000D01*
X74351939Y-90535000D01*
X74551898Y-90495226D01*
X74740256Y-90417205D01*
X74909774Y-90303937D01*
X75053937Y-90159774D01*
X75167205Y-89990256D01*
X75245226Y-89801898D01*
X75285000Y-89601939D01*
X75285000Y-89398061D01*
X75245226Y-89198102D01*
X75167205Y-89009744D01*
X75053937Y-88840226D01*
X75010000Y-88796289D01*
X75010000Y-73453711D01*
X75053937Y-73409774D01*
X75167205Y-73240256D01*
X75245226Y-73051898D01*
X75285000Y-72851939D01*
X75285000Y-72648061D01*
X75245226Y-72448102D01*
X75167205Y-72259744D01*
X75053937Y-72090226D01*
X74909774Y-71946063D01*
X74740256Y-71832795D01*
X74551898Y-71754774D01*
X74351939Y-71715000D01*
X74148061Y-71715000D01*
X73948102Y-71754774D01*
X73759744Y-71832795D01*
X73590226Y-71946063D01*
X73446063Y-72090226D01*
X73332795Y-72259744D01*
X73254774Y-72448102D01*
X73215000Y-72648061D01*
X39567484Y-72648061D01*
X39539502Y-72555820D01*
X39480537Y-72445506D01*
X39401185Y-72348815D01*
X39304494Y-72269463D01*
X39194180Y-72210498D01*
X39074482Y-72174188D01*
X38950000Y-72161928D01*
X36550000Y-72161928D01*
X36425518Y-72174188D01*
X36305820Y-72210498D01*
X36195506Y-72269463D01*
X36098815Y-72348815D01*
X36019463Y-72445506D01*
X35960498Y-72555820D01*
X35924188Y-72675518D01*
X35911928Y-72800000D01*
X34900655Y-72800000D01*
X34985984Y-58550000D01*
X35911928Y-58550000D01*
X35911928Y-60950000D01*
X35924188Y-61074482D01*
X35960498Y-61194180D01*
X36019463Y-61304494D01*
X36098815Y-61401185D01*
X36195506Y-61480537D01*
X36305820Y-61539502D01*
X36425518Y-61575812D01*
X36550000Y-61588072D01*
X36967162Y-61588072D01*
X36880801Y-61623844D01*
X36580256Y-61824662D01*
X36324662Y-62080256D01*
X36123844Y-62380801D01*
X35985518Y-62714750D01*
X35915000Y-63069268D01*
X35915000Y-63430732D01*
X35985518Y-63785250D01*
X36123844Y-64119199D01*
X36324662Y-64419744D01*
X36580256Y-64675338D01*
X36880801Y-64876156D01*
X37214750Y-65014482D01*
X37569268Y-65085000D01*
X37930732Y-65085000D01*
X38285250Y-65014482D01*
X38619199Y-64876156D01*
X38919744Y-64675338D01*
X39175338Y-64419744D01*
X39376156Y-64119199D01*
X39514482Y-63785250D01*
X39585000Y-63430732D01*
X39585000Y-63069268D01*
X39514482Y-62714750D01*
X39376156Y-62380801D01*
X39175338Y-62080256D01*
X38919744Y-61824662D01*
X38619199Y-61623844D01*
X38532838Y-61588072D01*
X38950000Y-61588072D01*
X39074482Y-61575812D01*
X39194180Y-61539502D01*
X39304494Y-61480537D01*
X39401185Y-61401185D01*
X39480537Y-61304494D01*
X39539502Y-61194180D01*
X39575812Y-61074482D01*
X39588072Y-60950000D01*
X39588072Y-60404326D01*
X39624276Y-60384974D01*
X39740001Y-60290001D01*
X39834974Y-60174276D01*
X39905546Y-60042247D01*
X39949003Y-59898986D01*
X39963677Y-59750000D01*
X39949003Y-59601014D01*
X39905546Y-59457753D01*
X39834974Y-59325724D01*
X39740001Y-59209999D01*
X39624276Y-59115026D01*
X39588072Y-59095674D01*
X39588072Y-58550000D01*
X39575812Y-58425518D01*
X39539502Y-58305820D01*
X39480537Y-58195506D01*
X39401185Y-58098815D01*
X39304494Y-58019463D01*
X39194180Y-57960498D01*
X39074482Y-57924188D01*
X38950000Y-57911928D01*
X36550000Y-57911928D01*
X36425518Y-57924188D01*
X36305820Y-57960498D01*
X36195506Y-58019463D01*
X36098815Y-58098815D01*
X36019463Y-58195506D01*
X35960498Y-58305820D01*
X35924188Y-58425518D01*
X35911928Y-58550000D01*
X34985984Y-58550000D01*
X35009576Y-54610000D01*
X153447815Y-54610000D01*
X153476487Y-54901111D01*
X153561401Y-55181034D01*
X153699294Y-55439014D01*
X153884866Y-55665134D01*
X154110986Y-55850706D01*
X154165791Y-55880000D01*
X154110986Y-55909294D01*
X153884866Y-56094866D01*
X153699294Y-56320986D01*
X153561401Y-56578966D01*
X153476487Y-56858889D01*
X153447815Y-57150000D01*
X153476487Y-57441111D01*
X153561401Y-57721034D01*
X153699294Y-57979014D01*
X153884866Y-58205134D01*
X154110986Y-58390706D01*
X154165791Y-58420000D01*
X154110986Y-58449294D01*
X153884866Y-58634866D01*
X153699294Y-58860986D01*
X153561401Y-59118966D01*
X153476487Y-59398889D01*
X153447815Y-59690000D01*
X153476487Y-59981111D01*
X153561401Y-60261034D01*
X153699294Y-60519014D01*
X153884866Y-60745134D01*
X154110986Y-60930706D01*
X154165791Y-60960000D01*
X154110986Y-60989294D01*
X153884866Y-61174866D01*
X153699294Y-61400986D01*
X153561401Y-61658966D01*
X153476487Y-61938889D01*
X153447815Y-62230000D01*
X153476487Y-62521111D01*
X153561401Y-62801034D01*
X153699294Y-63059014D01*
X153884866Y-63285134D01*
X154110986Y-63470706D01*
X154165791Y-63500000D01*
X154110986Y-63529294D01*
X153884866Y-63714866D01*
X153699294Y-63940986D01*
X153561401Y-64198966D01*
X153476487Y-64478889D01*
X153447815Y-64770000D01*
X153476487Y-65061111D01*
X153561401Y-65341034D01*
X153699294Y-65599014D01*
X153884866Y-65825134D01*
X154110986Y-66010706D01*
X154165791Y-66040000D01*
X154110986Y-66069294D01*
X153884866Y-66254866D01*
X153699294Y-66480986D01*
X153561401Y-66738966D01*
X153476487Y-67018889D01*
X153447815Y-67310000D01*
X153476487Y-67601111D01*
X153561401Y-67881034D01*
X153699294Y-68139014D01*
X153884866Y-68365134D01*
X154110986Y-68550706D01*
X154165791Y-68580000D01*
X154110986Y-68609294D01*
X153884866Y-68794866D01*
X153699294Y-69020986D01*
X153561401Y-69278966D01*
X153476487Y-69558889D01*
X153447815Y-69850000D01*
X153476487Y-70141111D01*
X153561401Y-70421034D01*
X153699294Y-70679014D01*
X153884866Y-70905134D01*
X154110986Y-71090706D01*
X154165791Y-71120000D01*
X154110986Y-71149294D01*
X153884866Y-71334866D01*
X153699294Y-71560986D01*
X153561401Y-71818966D01*
X153476487Y-72098889D01*
X153447815Y-72390000D01*
X153476487Y-72681111D01*
X153561401Y-72961034D01*
X153699294Y-73219014D01*
X153884866Y-73445134D01*
X154110986Y-73630706D01*
X154165791Y-73660000D01*
X154110986Y-73689294D01*
X153884866Y-73874866D01*
X153699294Y-74100986D01*
X153561401Y-74358966D01*
X153476487Y-74638889D01*
X153447815Y-74930000D01*
X153476487Y-75221111D01*
X153561401Y-75501034D01*
X153699294Y-75759014D01*
X153884866Y-75985134D01*
X154110986Y-76170706D01*
X154165791Y-76200000D01*
X154110986Y-76229294D01*
X153884866Y-76414866D01*
X153699294Y-76640986D01*
X153561401Y-76898966D01*
X153476487Y-77178889D01*
X153447815Y-77470000D01*
X153476487Y-77761111D01*
X153561401Y-78041034D01*
X153699294Y-78299014D01*
X153884866Y-78525134D01*
X154110986Y-78710706D01*
X154175523Y-78745201D01*
X154058645Y-78814822D01*
X153842412Y-79009731D01*
X153668359Y-79243080D01*
X153543175Y-79505901D01*
X153498524Y-79653110D01*
X153619845Y-79883000D01*
X154813000Y-79883000D01*
X154813000Y-79863000D01*
X155067000Y-79863000D01*
X155067000Y-79883000D01*
X155087000Y-79883000D01*
X155087000Y-80137000D01*
X155067000Y-80137000D01*
X155067000Y-80157000D01*
X154813000Y-80157000D01*
X154813000Y-80137000D01*
X153619845Y-80137000D01*
X153498524Y-80366890D01*
X153543175Y-80514099D01*
X153668359Y-80776920D01*
X153842412Y-81010269D01*
X154058645Y-81205178D01*
X154175523Y-81274799D01*
X154110986Y-81309294D01*
X153884866Y-81494866D01*
X153699294Y-81720986D01*
X153561401Y-81978966D01*
X153476487Y-82258889D01*
X153447815Y-82550000D01*
X153476487Y-82841111D01*
X153561401Y-83121034D01*
X153699294Y-83379014D01*
X153884866Y-83605134D01*
X154110986Y-83790706D01*
X154165791Y-83820000D01*
X154110986Y-83849294D01*
X153884866Y-84034866D01*
X153699294Y-84260986D01*
X153561401Y-84518966D01*
X153476487Y-84798889D01*
X153447815Y-85090000D01*
X153476487Y-85381111D01*
X153561401Y-85661034D01*
X153699294Y-85919014D01*
X153884866Y-86145134D01*
X154110986Y-86330706D01*
X154165791Y-86360000D01*
X154110986Y-86389294D01*
X153884866Y-86574866D01*
X153699294Y-86800986D01*
X153561401Y-87058966D01*
X153476487Y-87338889D01*
X153447815Y-87630000D01*
X153476487Y-87921111D01*
X153561401Y-88201034D01*
X153699294Y-88459014D01*
X153884866Y-88685134D01*
X154110986Y-88870706D01*
X154165791Y-88900000D01*
X154110986Y-88929294D01*
X153884866Y-89114866D01*
X153699294Y-89340986D01*
X153561401Y-89598966D01*
X153476487Y-89878889D01*
X153447815Y-90170000D01*
X153476487Y-90461111D01*
X153561401Y-90741034D01*
X153699294Y-90999014D01*
X153884866Y-91225134D01*
X154110986Y-91410706D01*
X154175523Y-91445201D01*
X154058645Y-91514822D01*
X153842412Y-91709731D01*
X153668359Y-91943080D01*
X153543175Y-92205901D01*
X153498524Y-92353110D01*
X153619845Y-92583000D01*
X154813000Y-92583000D01*
X154813000Y-92563000D01*
X155067000Y-92563000D01*
X155067000Y-92583000D01*
X155087000Y-92583000D01*
X155087000Y-92837000D01*
X155067000Y-92837000D01*
X155067000Y-92857000D01*
X154813000Y-92857000D01*
X154813000Y-92837000D01*
X153619845Y-92837000D01*
X153498524Y-93066890D01*
X153543175Y-93214099D01*
X153668359Y-93476920D01*
X153842412Y-93710269D01*
X154058645Y-93905178D01*
X154175523Y-93974799D01*
X154110986Y-94009294D01*
X153884866Y-94194866D01*
X153699294Y-94420986D01*
X153561401Y-94678966D01*
X153476487Y-94958889D01*
X153447815Y-95250000D01*
X153476487Y-95541111D01*
X153561401Y-95821034D01*
X153699294Y-96079014D01*
X153884866Y-96305134D01*
X154110986Y-96490706D01*
X154165791Y-96520000D01*
X154110986Y-96549294D01*
X153884866Y-96734866D01*
X153699294Y-96960986D01*
X153561401Y-97218966D01*
X153476487Y-97498889D01*
X153447815Y-97790000D01*
X153476487Y-98081111D01*
X153561401Y-98361034D01*
X153699294Y-98619014D01*
X153884866Y-98845134D01*
X154110986Y-99030706D01*
X154175523Y-99065201D01*
X154058645Y-99134822D01*
X153842412Y-99329731D01*
X153668359Y-99563080D01*
X153543175Y-99825901D01*
X153498524Y-99973110D01*
X153619845Y-100203000D01*
X154813000Y-100203000D01*
X154813000Y-100183000D01*
X155067000Y-100183000D01*
X155067000Y-100203000D01*
X155087000Y-100203000D01*
X155087000Y-100457000D01*
X155067000Y-100457000D01*
X155067000Y-101650814D01*
X155296891Y-101771481D01*
X155571252Y-101674157D01*
X155821355Y-101525178D01*
X156037588Y-101330269D01*
X156208416Y-101101244D01*
X156239294Y-101159014D01*
X156424866Y-101385134D01*
X156650986Y-101570706D01*
X156908966Y-101708599D01*
X157188889Y-101793513D01*
X157407050Y-101815000D01*
X157552950Y-101815000D01*
X157771111Y-101793513D01*
X158051034Y-101708599D01*
X158309014Y-101570706D01*
X158535134Y-101385134D01*
X158720706Y-101159014D01*
X158858599Y-100901034D01*
X158943513Y-100621111D01*
X158972185Y-100330000D01*
X158943513Y-100038889D01*
X158858599Y-99758966D01*
X158720706Y-99500986D01*
X158535134Y-99274866D01*
X158309014Y-99089294D01*
X158254209Y-99060000D01*
X158309014Y-99030706D01*
X158535134Y-98845134D01*
X158720706Y-98619014D01*
X158858599Y-98361034D01*
X158943513Y-98081111D01*
X158972185Y-97790000D01*
X158943513Y-97498889D01*
X158858599Y-97218966D01*
X158720706Y-96960986D01*
X158535134Y-96734866D01*
X158309014Y-96549294D01*
X158254209Y-96520000D01*
X158309014Y-96490706D01*
X158535134Y-96305134D01*
X158720706Y-96079014D01*
X158858599Y-95821034D01*
X158943513Y-95541111D01*
X158972185Y-95250000D01*
X158943513Y-94958889D01*
X158858599Y-94678966D01*
X158720706Y-94420986D01*
X158535134Y-94194866D01*
X158309014Y-94009294D01*
X158254209Y-93980000D01*
X158309014Y-93950706D01*
X158535134Y-93765134D01*
X158720706Y-93539014D01*
X158858599Y-93281034D01*
X158943513Y-93001111D01*
X158972185Y-92710000D01*
X158943513Y-92418889D01*
X158858599Y-92138966D01*
X158720706Y-91880986D01*
X158535134Y-91654866D01*
X158309014Y-91469294D01*
X158254209Y-91440000D01*
X158309014Y-91410706D01*
X158535134Y-91225134D01*
X158720706Y-90999014D01*
X158858599Y-90741034D01*
X158943513Y-90461111D01*
X158972185Y-90170000D01*
X158943513Y-89878889D01*
X158858599Y-89598966D01*
X158720706Y-89340986D01*
X158535134Y-89114866D01*
X158309014Y-88929294D01*
X158254209Y-88900000D01*
X158309014Y-88870706D01*
X158535134Y-88685134D01*
X158720706Y-88459014D01*
X158858599Y-88201034D01*
X158943513Y-87921111D01*
X158972185Y-87630000D01*
X158943513Y-87338889D01*
X158858599Y-87058966D01*
X158720706Y-86800986D01*
X158535134Y-86574866D01*
X158309014Y-86389294D01*
X158254209Y-86360000D01*
X158309014Y-86330706D01*
X158535134Y-86145134D01*
X158720706Y-85919014D01*
X158858599Y-85661034D01*
X158943513Y-85381111D01*
X158972185Y-85090000D01*
X158943513Y-84798889D01*
X158858599Y-84518966D01*
X158720706Y-84260986D01*
X158535134Y-84034866D01*
X158309014Y-83849294D01*
X158254209Y-83820000D01*
X158309014Y-83790706D01*
X158535134Y-83605134D01*
X158720706Y-83379014D01*
X158858599Y-83121034D01*
X158943513Y-82841111D01*
X158972185Y-82550000D01*
X158943513Y-82258889D01*
X158858599Y-81978966D01*
X158720706Y-81720986D01*
X158535134Y-81494866D01*
X158309014Y-81309294D01*
X158254209Y-81280000D01*
X158309014Y-81250706D01*
X158535134Y-81065134D01*
X158720706Y-80839014D01*
X158858599Y-80581034D01*
X158943513Y-80301111D01*
X158972185Y-80010000D01*
X158943513Y-79718889D01*
X158858599Y-79438966D01*
X158720706Y-79180986D01*
X158535134Y-78954866D01*
X158309014Y-78769294D01*
X158254209Y-78740000D01*
X158309014Y-78710706D01*
X158535134Y-78525134D01*
X158720706Y-78299014D01*
X158858599Y-78041034D01*
X158943513Y-77761111D01*
X158972185Y-77470000D01*
X158943513Y-77178889D01*
X158858599Y-76898966D01*
X158720706Y-76640986D01*
X158535134Y-76414866D01*
X158309014Y-76229294D01*
X158254209Y-76200000D01*
X158309014Y-76170706D01*
X158535134Y-75985134D01*
X158720706Y-75759014D01*
X158858599Y-75501034D01*
X158943513Y-75221111D01*
X158972185Y-74930000D01*
X158943513Y-74638889D01*
X158858599Y-74358966D01*
X158720706Y-74100986D01*
X158535134Y-73874866D01*
X158309014Y-73689294D01*
X158254209Y-73660000D01*
X158309014Y-73630706D01*
X158535134Y-73445134D01*
X158720706Y-73219014D01*
X158858599Y-72961034D01*
X158943513Y-72681111D01*
X158972185Y-72390000D01*
X158943513Y-72098889D01*
X158858599Y-71818966D01*
X158720706Y-71560986D01*
X158535134Y-71334866D01*
X158309014Y-71149294D01*
X158254209Y-71120000D01*
X158309014Y-71090706D01*
X158535134Y-70905134D01*
X158720706Y-70679014D01*
X158858599Y-70421034D01*
X158943513Y-70141111D01*
X158972185Y-69850000D01*
X158943513Y-69558889D01*
X158858599Y-69278966D01*
X158720706Y-69020986D01*
X158535134Y-68794866D01*
X158309014Y-68609294D01*
X158254209Y-68580000D01*
X158309014Y-68550706D01*
X158535134Y-68365134D01*
X158720706Y-68139014D01*
X158858599Y-67881034D01*
X158943513Y-67601111D01*
X158972185Y-67310000D01*
X158943513Y-67018889D01*
X158858599Y-66738966D01*
X158720706Y-66480986D01*
X158535134Y-66254866D01*
X158309014Y-66069294D01*
X158254209Y-66040000D01*
X158309014Y-66010706D01*
X158535134Y-65825134D01*
X158720706Y-65599014D01*
X158858599Y-65341034D01*
X158943513Y-65061111D01*
X158972185Y-64770000D01*
X158943513Y-64478889D01*
X158858599Y-64198966D01*
X158720706Y-63940986D01*
X158535134Y-63714866D01*
X158309014Y-63529294D01*
X158254209Y-63500000D01*
X158309014Y-63470706D01*
X158535134Y-63285134D01*
X158720706Y-63059014D01*
X158858599Y-62801034D01*
X158943513Y-62521111D01*
X158972185Y-62230000D01*
X158943513Y-61938889D01*
X158858599Y-61658966D01*
X158720706Y-61400986D01*
X158535134Y-61174866D01*
X158309014Y-60989294D01*
X158254209Y-60960000D01*
X158309014Y-60930706D01*
X158535134Y-60745134D01*
X158720706Y-60519014D01*
X158858599Y-60261034D01*
X158943513Y-59981111D01*
X158972185Y-59690000D01*
X158943513Y-59398889D01*
X158858599Y-59118966D01*
X158720706Y-58860986D01*
X158535134Y-58634866D01*
X158309014Y-58449294D01*
X158254209Y-58420000D01*
X158309014Y-58390706D01*
X158535134Y-58205134D01*
X158720706Y-57979014D01*
X158858599Y-57721034D01*
X158943513Y-57441111D01*
X158972185Y-57150000D01*
X158943513Y-56858889D01*
X158858599Y-56578966D01*
X158720706Y-56320986D01*
X158535134Y-56094866D01*
X158309014Y-55909294D01*
X158254209Y-55880000D01*
X158309014Y-55850706D01*
X158535134Y-55665134D01*
X158720706Y-55439014D01*
X158858599Y-55181034D01*
X158943513Y-54901111D01*
X158972185Y-54610000D01*
X158943513Y-54318889D01*
X158858599Y-54038966D01*
X158720706Y-53780986D01*
X158535134Y-53554866D01*
X158309014Y-53369294D01*
X158254209Y-53340000D01*
X158309014Y-53310706D01*
X158535134Y-53125134D01*
X158720706Y-52899014D01*
X158858599Y-52641034D01*
X158943513Y-52361111D01*
X158972185Y-52070000D01*
X158943513Y-51778889D01*
X158858599Y-51498966D01*
X158720706Y-51240986D01*
X158535134Y-51014866D01*
X158309014Y-50829294D01*
X158051034Y-50691401D01*
X157771111Y-50606487D01*
X157552950Y-50585000D01*
X157407050Y-50585000D01*
X157188889Y-50606487D01*
X156908966Y-50691401D01*
X156650986Y-50829294D01*
X156424866Y-51014866D01*
X156400393Y-51044687D01*
X156379502Y-50975820D01*
X156320537Y-50865506D01*
X156241185Y-50768815D01*
X156144494Y-50689463D01*
X156034180Y-50630498D01*
X155914482Y-50594188D01*
X155790000Y-50581928D01*
X155225750Y-50585000D01*
X155067000Y-50743750D01*
X155067000Y-51943000D01*
X155087000Y-51943000D01*
X155087000Y-52197000D01*
X155067000Y-52197000D01*
X155067000Y-52217000D01*
X154813000Y-52217000D01*
X154813000Y-52197000D01*
X153613750Y-52197000D01*
X153455000Y-52355750D01*
X153451928Y-52920000D01*
X153464188Y-53044482D01*
X153500498Y-53164180D01*
X153559463Y-53274494D01*
X153638815Y-53371185D01*
X153735506Y-53450537D01*
X153845820Y-53509502D01*
X153914687Y-53530393D01*
X153884866Y-53554866D01*
X153699294Y-53780986D01*
X153561401Y-54038966D01*
X153476487Y-54318889D01*
X153447815Y-54610000D01*
X35009576Y-54610000D01*
X35029875Y-51220000D01*
X153451928Y-51220000D01*
X153455000Y-51784250D01*
X153613750Y-51943000D01*
X154813000Y-51943000D01*
X154813000Y-50743750D01*
X154654250Y-50585000D01*
X154090000Y-50581928D01*
X153965518Y-50594188D01*
X153845820Y-50630498D01*
X153735506Y-50689463D01*
X153638815Y-50768815D01*
X153559463Y-50865506D01*
X153500498Y-50975820D01*
X153464188Y-51095518D01*
X153451928Y-51220000D01*
X35029875Y-51220000D01*
X35043989Y-48863195D01*
X118141000Y-48863195D01*
X118141000Y-49136805D01*
X118194378Y-49405156D01*
X118299084Y-49657938D01*
X118451093Y-49885436D01*
X118644564Y-50078907D01*
X118872062Y-50230916D01*
X119124844Y-50335622D01*
X119393195Y-50389000D01*
X119666805Y-50389000D01*
X119935156Y-50335622D01*
X120187938Y-50230916D01*
X120415436Y-50078907D01*
X120608907Y-49885436D01*
X120760916Y-49657938D01*
X120800000Y-49563581D01*
X120839084Y-49657938D01*
X120991093Y-49885436D01*
X121184564Y-50078907D01*
X121412062Y-50230916D01*
X121664844Y-50335622D01*
X121933195Y-50389000D01*
X122206805Y-50389000D01*
X122475156Y-50335622D01*
X122727938Y-50230916D01*
X122955436Y-50078907D01*
X123148907Y-49885436D01*
X123300916Y-49657938D01*
X123340000Y-49563581D01*
X123379084Y-49657938D01*
X123531093Y-49885436D01*
X123724564Y-50078907D01*
X123952062Y-50230916D01*
X124204844Y-50335622D01*
X124473195Y-50389000D01*
X124746805Y-50389000D01*
X125015156Y-50335622D01*
X125267938Y-50230916D01*
X125495436Y-50078907D01*
X125688907Y-49885436D01*
X125840916Y-49657938D01*
X125880000Y-49563581D01*
X125919084Y-49657938D01*
X126071093Y-49885436D01*
X126264564Y-50078907D01*
X126492062Y-50230916D01*
X126744844Y-50335622D01*
X127013195Y-50389000D01*
X127286805Y-50389000D01*
X127555156Y-50335622D01*
X127807938Y-50230916D01*
X128035436Y-50078907D01*
X128154492Y-49959851D01*
X128909754Y-49959851D01*
X128975765Y-50199127D01*
X129223426Y-50315426D01*
X129489018Y-50381174D01*
X129762334Y-50393845D01*
X130032870Y-50352951D01*
X130290229Y-50260063D01*
X130404235Y-50199127D01*
X130470246Y-49959851D01*
X131449754Y-49959851D01*
X131515765Y-50199127D01*
X131763426Y-50315426D01*
X132029018Y-50381174D01*
X132302334Y-50393845D01*
X132572870Y-50352951D01*
X132830229Y-50260063D01*
X132944235Y-50199127D01*
X133010246Y-49959851D01*
X133989754Y-49959851D01*
X134055765Y-50199127D01*
X134303426Y-50315426D01*
X134569018Y-50381174D01*
X134842334Y-50393845D01*
X135112870Y-50352951D01*
X135370229Y-50260063D01*
X135484235Y-50199127D01*
X135550246Y-49959851D01*
X136529754Y-49959851D01*
X136595765Y-50199127D01*
X136843426Y-50315426D01*
X137109018Y-50381174D01*
X137382334Y-50393845D01*
X137652870Y-50352951D01*
X137910229Y-50260063D01*
X138024235Y-50199127D01*
X138090246Y-49959851D01*
X137310000Y-49179605D01*
X136529754Y-49959851D01*
X135550246Y-49959851D01*
X134770000Y-49179605D01*
X133989754Y-49959851D01*
X133010246Y-49959851D01*
X132230000Y-49179605D01*
X131449754Y-49959851D01*
X130470246Y-49959851D01*
X129690000Y-49179605D01*
X128909754Y-49959851D01*
X128154492Y-49959851D01*
X128228907Y-49885436D01*
X128380916Y-49657938D01*
X128418242Y-49567826D01*
X128429937Y-49600229D01*
X128490873Y-49714235D01*
X128730149Y-49780246D01*
X129510395Y-49000000D01*
X129869605Y-49000000D01*
X130649851Y-49780246D01*
X130889127Y-49714235D01*
X130958084Y-49567389D01*
X130969937Y-49600229D01*
X131030873Y-49714235D01*
X131270149Y-49780246D01*
X132050395Y-49000000D01*
X132409605Y-49000000D01*
X133189851Y-49780246D01*
X133429127Y-49714235D01*
X133498084Y-49567389D01*
X133509937Y-49600229D01*
X133570873Y-49714235D01*
X133810149Y-49780246D01*
X134590395Y-49000000D01*
X134949605Y-49000000D01*
X135729851Y-49780246D01*
X135969127Y-49714235D01*
X136038084Y-49567389D01*
X136049937Y-49600229D01*
X136110873Y-49714235D01*
X136350149Y-49780246D01*
X137130395Y-49000000D01*
X137489605Y-49000000D01*
X138269851Y-49780246D01*
X138509127Y-49714235D01*
X138579940Y-49563437D01*
X138619084Y-49657938D01*
X138771093Y-49885436D01*
X138964564Y-50078907D01*
X139192062Y-50230916D01*
X139444844Y-50335622D01*
X139713195Y-50389000D01*
X139986805Y-50389000D01*
X140255156Y-50335622D01*
X140507938Y-50230916D01*
X140735436Y-50078907D01*
X140928907Y-49885436D01*
X141080916Y-49657938D01*
X141120000Y-49563581D01*
X141159084Y-49657938D01*
X141311093Y-49885436D01*
X141504564Y-50078907D01*
X141732062Y-50230916D01*
X141984844Y-50335622D01*
X142253195Y-50389000D01*
X142526805Y-50389000D01*
X142795156Y-50335622D01*
X143047938Y-50230916D01*
X143275436Y-50078907D01*
X143468907Y-49885436D01*
X143620916Y-49657938D01*
X143660000Y-49563581D01*
X143699084Y-49657938D01*
X143851093Y-49885436D01*
X144044564Y-50078907D01*
X144272062Y-50230916D01*
X144524844Y-50335622D01*
X144793195Y-50389000D01*
X145066805Y-50389000D01*
X145335156Y-50335622D01*
X145587938Y-50230916D01*
X145815436Y-50078907D01*
X146008907Y-49885436D01*
X146080343Y-49778524D01*
X146090188Y-49878482D01*
X146126498Y-49998180D01*
X146185463Y-50108494D01*
X146264815Y-50205185D01*
X146361506Y-50284537D01*
X146471820Y-50343502D01*
X146591518Y-50379812D01*
X146716000Y-50392072D01*
X148224000Y-50392072D01*
X148348482Y-50379812D01*
X148468180Y-50343502D01*
X148578494Y-50284537D01*
X148675185Y-50205185D01*
X148754537Y-50108494D01*
X148813502Y-49998180D01*
X148849812Y-49878482D01*
X148862072Y-49754000D01*
X148862072Y-48246000D01*
X148849812Y-48121518D01*
X148813502Y-48001820D01*
X148754537Y-47891506D01*
X148675185Y-47794815D01*
X148578494Y-47715463D01*
X148468180Y-47656498D01*
X148348482Y-47620188D01*
X148224000Y-47607928D01*
X146716000Y-47607928D01*
X146591518Y-47620188D01*
X146471820Y-47656498D01*
X146361506Y-47715463D01*
X146264815Y-47794815D01*
X146185463Y-47891506D01*
X146126498Y-48001820D01*
X146090188Y-48121518D01*
X146080343Y-48221476D01*
X146008907Y-48114564D01*
X145815436Y-47921093D01*
X145587938Y-47769084D01*
X145335156Y-47664378D01*
X145066805Y-47611000D01*
X144793195Y-47611000D01*
X144524844Y-47664378D01*
X144272062Y-47769084D01*
X144044564Y-47921093D01*
X143851093Y-48114564D01*
X143699084Y-48342062D01*
X143660000Y-48436419D01*
X143620916Y-48342062D01*
X143468907Y-48114564D01*
X143275436Y-47921093D01*
X143047938Y-47769084D01*
X142795156Y-47664378D01*
X142526805Y-47611000D01*
X142253195Y-47611000D01*
X141984844Y-47664378D01*
X141732062Y-47769084D01*
X141504564Y-47921093D01*
X141311093Y-48114564D01*
X141159084Y-48342062D01*
X141120000Y-48436419D01*
X141080916Y-48342062D01*
X140928907Y-48114564D01*
X140735436Y-47921093D01*
X140507938Y-47769084D01*
X140255156Y-47664378D01*
X139986805Y-47611000D01*
X139713195Y-47611000D01*
X139444844Y-47664378D01*
X139192062Y-47769084D01*
X138964564Y-47921093D01*
X138771093Y-48114564D01*
X138619084Y-48342062D01*
X138581758Y-48432174D01*
X138570063Y-48399771D01*
X138509127Y-48285765D01*
X138269851Y-48219754D01*
X137489605Y-49000000D01*
X137130395Y-49000000D01*
X136350149Y-48219754D01*
X136110873Y-48285765D01*
X136041916Y-48432611D01*
X136030063Y-48399771D01*
X135969127Y-48285765D01*
X135729851Y-48219754D01*
X134949605Y-49000000D01*
X134590395Y-49000000D01*
X133810149Y-48219754D01*
X133570873Y-48285765D01*
X133501916Y-48432611D01*
X133490063Y-48399771D01*
X133429127Y-48285765D01*
X133189851Y-48219754D01*
X132409605Y-49000000D01*
X132050395Y-49000000D01*
X131270149Y-48219754D01*
X131030873Y-48285765D01*
X130961916Y-48432611D01*
X130950063Y-48399771D01*
X130889127Y-48285765D01*
X130649851Y-48219754D01*
X129869605Y-49000000D01*
X129510395Y-49000000D01*
X128730149Y-48219754D01*
X128490873Y-48285765D01*
X128420060Y-48436563D01*
X128380916Y-48342062D01*
X128228907Y-48114564D01*
X128154492Y-48040149D01*
X128909754Y-48040149D01*
X129690000Y-48820395D01*
X130470246Y-48040149D01*
X131449754Y-48040149D01*
X132230000Y-48820395D01*
X133010246Y-48040149D01*
X133989754Y-48040149D01*
X134770000Y-48820395D01*
X135550246Y-48040149D01*
X136529754Y-48040149D01*
X137310000Y-48820395D01*
X138090246Y-48040149D01*
X138024235Y-47800873D01*
X137776574Y-47684574D01*
X137510982Y-47618826D01*
X137237666Y-47606155D01*
X136967130Y-47647049D01*
X136709771Y-47739937D01*
X136595765Y-47800873D01*
X136529754Y-48040149D01*
X135550246Y-48040149D01*
X135484235Y-47800873D01*
X135236574Y-47684574D01*
X134970982Y-47618826D01*
X134697666Y-47606155D01*
X134427130Y-47647049D01*
X134169771Y-47739937D01*
X134055765Y-47800873D01*
X133989754Y-48040149D01*
X133010246Y-48040149D01*
X132944235Y-47800873D01*
X132696574Y-47684574D01*
X132430982Y-47618826D01*
X132157666Y-47606155D01*
X131887130Y-47647049D01*
X131629771Y-47739937D01*
X131515765Y-47800873D01*
X131449754Y-48040149D01*
X130470246Y-48040149D01*
X130404235Y-47800873D01*
X130156574Y-47684574D01*
X129890982Y-47618826D01*
X129617666Y-47606155D01*
X129347130Y-47647049D01*
X129089771Y-47739937D01*
X128975765Y-47800873D01*
X128909754Y-48040149D01*
X128154492Y-48040149D01*
X128035436Y-47921093D01*
X127807938Y-47769084D01*
X127555156Y-47664378D01*
X127286805Y-47611000D01*
X127013195Y-47611000D01*
X126744844Y-47664378D01*
X126492062Y-47769084D01*
X126264564Y-47921093D01*
X126071093Y-48114564D01*
X125919084Y-48342062D01*
X125880000Y-48436419D01*
X125840916Y-48342062D01*
X125688907Y-48114564D01*
X125495436Y-47921093D01*
X125267938Y-47769084D01*
X125015156Y-47664378D01*
X124746805Y-47611000D01*
X124473195Y-47611000D01*
X124204844Y-47664378D01*
X123952062Y-47769084D01*
X123724564Y-47921093D01*
X123531093Y-48114564D01*
X123379084Y-48342062D01*
X123340000Y-48436419D01*
X123300916Y-48342062D01*
X123148907Y-48114564D01*
X122955436Y-47921093D01*
X122727938Y-47769084D01*
X122475156Y-47664378D01*
X122206805Y-47611000D01*
X121933195Y-47611000D01*
X121664844Y-47664378D01*
X121412062Y-47769084D01*
X121184564Y-47921093D01*
X120991093Y-48114564D01*
X120839084Y-48342062D01*
X120800000Y-48436419D01*
X120760916Y-48342062D01*
X120608907Y-48114564D01*
X120415436Y-47921093D01*
X120187938Y-47769084D01*
X119935156Y-47664378D01*
X119666805Y-47611000D01*
X119393195Y-47611000D01*
X119124844Y-47664378D01*
X118872062Y-47769084D01*
X118644564Y-47921093D01*
X118451093Y-48114564D01*
X118299084Y-48342062D01*
X118194378Y-48594844D01*
X118141000Y-48863195D01*
X35043989Y-48863195D01*
X35126242Y-35127000D01*
X155230513Y-35127000D01*
X163873000Y-37843210D01*
M02*
