G04 #@! TF.GenerationSoftware,KiCad,Pcbnew,(5.1.4)-1*
G04 #@! TF.CreationDate,2020-04-14T09:58:37-07:00*
G04 #@! TF.ProjectId,power,706f7765-722e-46b6-9963-61645f706362,rev?*
G04 #@! TF.SameCoordinates,Original*
G04 #@! TF.FileFunction,Copper,L1,Top*
G04 #@! TF.FilePolarity,Positive*
%FSLAX46Y46*%
G04 Gerber Fmt 4.6, Leading zero omitted, Abs format (unit mm)*
G04 Created by KiCad (PCBNEW (5.1.4)-1) date 2020-04-14 09:58:37*
%MOMM*%
%LPD*%
G04 APERTURE LIST*
%ADD10R,1.905000X3.403600*%
%ADD11R,2.286000X3.048000*%
%ADD12O,1.700000X1.700000*%
%ADD13R,1.700000X1.700000*%
%ADD14C,6.400000*%
%ADD15C,0.100000*%
%ADD16C,1.425000*%
%ADD17R,2.400000X2.400000*%
%ADD18C,2.400000*%
%ADD19R,1.727200X1.727200*%
%ADD20O,1.727200X1.727200*%
%ADD21R,1.508000X1.508000*%
%ADD22C,1.508000*%
%ADD23C,1.525000*%
%ADD24R,1.422400X0.355600*%
%ADD25R,1.000001X0.599999*%
%ADD26C,0.800000*%
%ADD27C,0.250000*%
%ADD28C,0.500000*%
%ADD29C,0.375000*%
%ADD30C,0.762000*%
%ADD31C,0.254000*%
G04 APERTURE END LIST*
D10*
X143250000Y-89346400D03*
X143250000Y-96153600D03*
X142750000Y-54346400D03*
X142750000Y-61153600D03*
D11*
X42790000Y-52250000D03*
X37710000Y-52250000D03*
D12*
X157480000Y-100330000D03*
X154940000Y-100330000D03*
X157480000Y-97790000D03*
X154940000Y-97790000D03*
X157480000Y-95250000D03*
X154940000Y-95250000D03*
X157480000Y-92710000D03*
X154940000Y-92710000D03*
X157480000Y-90170000D03*
X154940000Y-90170000D03*
X157480000Y-87630000D03*
X154940000Y-87630000D03*
X157480000Y-85090000D03*
X154940000Y-85090000D03*
X157480000Y-82550000D03*
X154940000Y-82550000D03*
X157480000Y-80010000D03*
X154940000Y-80010000D03*
X157480000Y-77470000D03*
X154940000Y-77470000D03*
X157480000Y-74930000D03*
X154940000Y-74930000D03*
X157480000Y-72390000D03*
X154940000Y-72390000D03*
X157480000Y-69850000D03*
X154940000Y-69850000D03*
X157480000Y-67310000D03*
X154940000Y-67310000D03*
X157480000Y-64770000D03*
X154940000Y-64770000D03*
X157480000Y-62230000D03*
X154940000Y-62230000D03*
X157480000Y-59690000D03*
X154940000Y-59690000D03*
X157480000Y-57150000D03*
X154940000Y-57150000D03*
X157480000Y-54610000D03*
X154940000Y-54610000D03*
X157480000Y-52070000D03*
D13*
X154940000Y-52070000D03*
D14*
X160020000Y-120650000D03*
X30480000Y-120650000D03*
X160020000Y-30480000D03*
X30480000Y-30480000D03*
D15*
G36*
X56749504Y-42876204D02*
G01*
X56773773Y-42879804D01*
X56797571Y-42885765D01*
X56820671Y-42894030D01*
X56842849Y-42904520D01*
X56863893Y-42917133D01*
X56883598Y-42931747D01*
X56901777Y-42948223D01*
X56918253Y-42966402D01*
X56932867Y-42986107D01*
X56945480Y-43007151D01*
X56955970Y-43029329D01*
X56964235Y-43052429D01*
X56970196Y-43076227D01*
X56973796Y-43100496D01*
X56975000Y-43125000D01*
X56975000Y-44375000D01*
X56973796Y-44399504D01*
X56970196Y-44423773D01*
X56964235Y-44447571D01*
X56955970Y-44470671D01*
X56945480Y-44492849D01*
X56932867Y-44513893D01*
X56918253Y-44533598D01*
X56901777Y-44551777D01*
X56883598Y-44568253D01*
X56863893Y-44582867D01*
X56842849Y-44595480D01*
X56820671Y-44605970D01*
X56797571Y-44614235D01*
X56773773Y-44620196D01*
X56749504Y-44623796D01*
X56725000Y-44625000D01*
X55800000Y-44625000D01*
X55775496Y-44623796D01*
X55751227Y-44620196D01*
X55727429Y-44614235D01*
X55704329Y-44605970D01*
X55682151Y-44595480D01*
X55661107Y-44582867D01*
X55641402Y-44568253D01*
X55623223Y-44551777D01*
X55606747Y-44533598D01*
X55592133Y-44513893D01*
X55579520Y-44492849D01*
X55569030Y-44470671D01*
X55560765Y-44447571D01*
X55554804Y-44423773D01*
X55551204Y-44399504D01*
X55550000Y-44375000D01*
X55550000Y-43125000D01*
X55551204Y-43100496D01*
X55554804Y-43076227D01*
X55560765Y-43052429D01*
X55569030Y-43029329D01*
X55579520Y-43007151D01*
X55592133Y-42986107D01*
X55606747Y-42966402D01*
X55623223Y-42948223D01*
X55641402Y-42931747D01*
X55661107Y-42917133D01*
X55682151Y-42904520D01*
X55704329Y-42894030D01*
X55727429Y-42885765D01*
X55751227Y-42879804D01*
X55775496Y-42876204D01*
X55800000Y-42875000D01*
X56725000Y-42875000D01*
X56749504Y-42876204D01*
X56749504Y-42876204D01*
G37*
D16*
X56262500Y-43750000D03*
D15*
G36*
X59724504Y-42876204D02*
G01*
X59748773Y-42879804D01*
X59772571Y-42885765D01*
X59795671Y-42894030D01*
X59817849Y-42904520D01*
X59838893Y-42917133D01*
X59858598Y-42931747D01*
X59876777Y-42948223D01*
X59893253Y-42966402D01*
X59907867Y-42986107D01*
X59920480Y-43007151D01*
X59930970Y-43029329D01*
X59939235Y-43052429D01*
X59945196Y-43076227D01*
X59948796Y-43100496D01*
X59950000Y-43125000D01*
X59950000Y-44375000D01*
X59948796Y-44399504D01*
X59945196Y-44423773D01*
X59939235Y-44447571D01*
X59930970Y-44470671D01*
X59920480Y-44492849D01*
X59907867Y-44513893D01*
X59893253Y-44533598D01*
X59876777Y-44551777D01*
X59858598Y-44568253D01*
X59838893Y-44582867D01*
X59817849Y-44595480D01*
X59795671Y-44605970D01*
X59772571Y-44614235D01*
X59748773Y-44620196D01*
X59724504Y-44623796D01*
X59700000Y-44625000D01*
X58775000Y-44625000D01*
X58750496Y-44623796D01*
X58726227Y-44620196D01*
X58702429Y-44614235D01*
X58679329Y-44605970D01*
X58657151Y-44595480D01*
X58636107Y-44582867D01*
X58616402Y-44568253D01*
X58598223Y-44551777D01*
X58581747Y-44533598D01*
X58567133Y-44513893D01*
X58554520Y-44492849D01*
X58544030Y-44470671D01*
X58535765Y-44447571D01*
X58529804Y-44423773D01*
X58526204Y-44399504D01*
X58525000Y-44375000D01*
X58525000Y-43125000D01*
X58526204Y-43100496D01*
X58529804Y-43076227D01*
X58535765Y-43052429D01*
X58544030Y-43029329D01*
X58554520Y-43007151D01*
X58567133Y-42986107D01*
X58581747Y-42966402D01*
X58598223Y-42948223D01*
X58616402Y-42931747D01*
X58636107Y-42917133D01*
X58657151Y-42904520D01*
X58679329Y-42894030D01*
X58702429Y-42885765D01*
X58726227Y-42879804D01*
X58750496Y-42876204D01*
X58775000Y-42875000D01*
X59700000Y-42875000D01*
X59724504Y-42876204D01*
X59724504Y-42876204D01*
G37*
D16*
X59237500Y-43750000D03*
D15*
G36*
X51224504Y-55126204D02*
G01*
X51248773Y-55129804D01*
X51272571Y-55135765D01*
X51295671Y-55144030D01*
X51317849Y-55154520D01*
X51338893Y-55167133D01*
X51358598Y-55181747D01*
X51376777Y-55198223D01*
X51393253Y-55216402D01*
X51407867Y-55236107D01*
X51420480Y-55257151D01*
X51430970Y-55279329D01*
X51439235Y-55302429D01*
X51445196Y-55326227D01*
X51448796Y-55350496D01*
X51450000Y-55375000D01*
X51450000Y-56625000D01*
X51448796Y-56649504D01*
X51445196Y-56673773D01*
X51439235Y-56697571D01*
X51430970Y-56720671D01*
X51420480Y-56742849D01*
X51407867Y-56763893D01*
X51393253Y-56783598D01*
X51376777Y-56801777D01*
X51358598Y-56818253D01*
X51338893Y-56832867D01*
X51317849Y-56845480D01*
X51295671Y-56855970D01*
X51272571Y-56864235D01*
X51248773Y-56870196D01*
X51224504Y-56873796D01*
X51200000Y-56875000D01*
X50275000Y-56875000D01*
X50250496Y-56873796D01*
X50226227Y-56870196D01*
X50202429Y-56864235D01*
X50179329Y-56855970D01*
X50157151Y-56845480D01*
X50136107Y-56832867D01*
X50116402Y-56818253D01*
X50098223Y-56801777D01*
X50081747Y-56783598D01*
X50067133Y-56763893D01*
X50054520Y-56742849D01*
X50044030Y-56720671D01*
X50035765Y-56697571D01*
X50029804Y-56673773D01*
X50026204Y-56649504D01*
X50025000Y-56625000D01*
X50025000Y-55375000D01*
X50026204Y-55350496D01*
X50029804Y-55326227D01*
X50035765Y-55302429D01*
X50044030Y-55279329D01*
X50054520Y-55257151D01*
X50067133Y-55236107D01*
X50081747Y-55216402D01*
X50098223Y-55198223D01*
X50116402Y-55181747D01*
X50136107Y-55167133D01*
X50157151Y-55154520D01*
X50179329Y-55144030D01*
X50202429Y-55135765D01*
X50226227Y-55129804D01*
X50250496Y-55126204D01*
X50275000Y-55125000D01*
X51200000Y-55125000D01*
X51224504Y-55126204D01*
X51224504Y-55126204D01*
G37*
D16*
X50737500Y-56000000D03*
D15*
G36*
X48249504Y-55126204D02*
G01*
X48273773Y-55129804D01*
X48297571Y-55135765D01*
X48320671Y-55144030D01*
X48342849Y-55154520D01*
X48363893Y-55167133D01*
X48383598Y-55181747D01*
X48401777Y-55198223D01*
X48418253Y-55216402D01*
X48432867Y-55236107D01*
X48445480Y-55257151D01*
X48455970Y-55279329D01*
X48464235Y-55302429D01*
X48470196Y-55326227D01*
X48473796Y-55350496D01*
X48475000Y-55375000D01*
X48475000Y-56625000D01*
X48473796Y-56649504D01*
X48470196Y-56673773D01*
X48464235Y-56697571D01*
X48455970Y-56720671D01*
X48445480Y-56742849D01*
X48432867Y-56763893D01*
X48418253Y-56783598D01*
X48401777Y-56801777D01*
X48383598Y-56818253D01*
X48363893Y-56832867D01*
X48342849Y-56845480D01*
X48320671Y-56855970D01*
X48297571Y-56864235D01*
X48273773Y-56870196D01*
X48249504Y-56873796D01*
X48225000Y-56875000D01*
X47300000Y-56875000D01*
X47275496Y-56873796D01*
X47251227Y-56870196D01*
X47227429Y-56864235D01*
X47204329Y-56855970D01*
X47182151Y-56845480D01*
X47161107Y-56832867D01*
X47141402Y-56818253D01*
X47123223Y-56801777D01*
X47106747Y-56783598D01*
X47092133Y-56763893D01*
X47079520Y-56742849D01*
X47069030Y-56720671D01*
X47060765Y-56697571D01*
X47054804Y-56673773D01*
X47051204Y-56649504D01*
X47050000Y-56625000D01*
X47050000Y-55375000D01*
X47051204Y-55350496D01*
X47054804Y-55326227D01*
X47060765Y-55302429D01*
X47069030Y-55279329D01*
X47079520Y-55257151D01*
X47092133Y-55236107D01*
X47106747Y-55216402D01*
X47123223Y-55198223D01*
X47141402Y-55181747D01*
X47161107Y-55167133D01*
X47182151Y-55154520D01*
X47204329Y-55144030D01*
X47227429Y-55135765D01*
X47251227Y-55129804D01*
X47275496Y-55126204D01*
X47300000Y-55125000D01*
X48225000Y-55125000D01*
X48249504Y-55126204D01*
X48249504Y-55126204D01*
G37*
D16*
X47762500Y-56000000D03*
D15*
G36*
X64224504Y-65876204D02*
G01*
X64248773Y-65879804D01*
X64272571Y-65885765D01*
X64295671Y-65894030D01*
X64317849Y-65904520D01*
X64338893Y-65917133D01*
X64358598Y-65931747D01*
X64376777Y-65948223D01*
X64393253Y-65966402D01*
X64407867Y-65986107D01*
X64420480Y-66007151D01*
X64430970Y-66029329D01*
X64439235Y-66052429D01*
X64445196Y-66076227D01*
X64448796Y-66100496D01*
X64450000Y-66125000D01*
X64450000Y-67375000D01*
X64448796Y-67399504D01*
X64445196Y-67423773D01*
X64439235Y-67447571D01*
X64430970Y-67470671D01*
X64420480Y-67492849D01*
X64407867Y-67513893D01*
X64393253Y-67533598D01*
X64376777Y-67551777D01*
X64358598Y-67568253D01*
X64338893Y-67582867D01*
X64317849Y-67595480D01*
X64295671Y-67605970D01*
X64272571Y-67614235D01*
X64248773Y-67620196D01*
X64224504Y-67623796D01*
X64200000Y-67625000D01*
X63275000Y-67625000D01*
X63250496Y-67623796D01*
X63226227Y-67620196D01*
X63202429Y-67614235D01*
X63179329Y-67605970D01*
X63157151Y-67595480D01*
X63136107Y-67582867D01*
X63116402Y-67568253D01*
X63098223Y-67551777D01*
X63081747Y-67533598D01*
X63067133Y-67513893D01*
X63054520Y-67492849D01*
X63044030Y-67470671D01*
X63035765Y-67447571D01*
X63029804Y-67423773D01*
X63026204Y-67399504D01*
X63025000Y-67375000D01*
X63025000Y-66125000D01*
X63026204Y-66100496D01*
X63029804Y-66076227D01*
X63035765Y-66052429D01*
X63044030Y-66029329D01*
X63054520Y-66007151D01*
X63067133Y-65986107D01*
X63081747Y-65966402D01*
X63098223Y-65948223D01*
X63116402Y-65931747D01*
X63136107Y-65917133D01*
X63157151Y-65904520D01*
X63179329Y-65894030D01*
X63202429Y-65885765D01*
X63226227Y-65879804D01*
X63250496Y-65876204D01*
X63275000Y-65875000D01*
X64200000Y-65875000D01*
X64224504Y-65876204D01*
X64224504Y-65876204D01*
G37*
D16*
X63737500Y-66750000D03*
D15*
G36*
X61249504Y-65876204D02*
G01*
X61273773Y-65879804D01*
X61297571Y-65885765D01*
X61320671Y-65894030D01*
X61342849Y-65904520D01*
X61363893Y-65917133D01*
X61383598Y-65931747D01*
X61401777Y-65948223D01*
X61418253Y-65966402D01*
X61432867Y-65986107D01*
X61445480Y-66007151D01*
X61455970Y-66029329D01*
X61464235Y-66052429D01*
X61470196Y-66076227D01*
X61473796Y-66100496D01*
X61475000Y-66125000D01*
X61475000Y-67375000D01*
X61473796Y-67399504D01*
X61470196Y-67423773D01*
X61464235Y-67447571D01*
X61455970Y-67470671D01*
X61445480Y-67492849D01*
X61432867Y-67513893D01*
X61418253Y-67533598D01*
X61401777Y-67551777D01*
X61383598Y-67568253D01*
X61363893Y-67582867D01*
X61342849Y-67595480D01*
X61320671Y-67605970D01*
X61297571Y-67614235D01*
X61273773Y-67620196D01*
X61249504Y-67623796D01*
X61225000Y-67625000D01*
X60300000Y-67625000D01*
X60275496Y-67623796D01*
X60251227Y-67620196D01*
X60227429Y-67614235D01*
X60204329Y-67605970D01*
X60182151Y-67595480D01*
X60161107Y-67582867D01*
X60141402Y-67568253D01*
X60123223Y-67551777D01*
X60106747Y-67533598D01*
X60092133Y-67513893D01*
X60079520Y-67492849D01*
X60069030Y-67470671D01*
X60060765Y-67447571D01*
X60054804Y-67423773D01*
X60051204Y-67399504D01*
X60050000Y-67375000D01*
X60050000Y-66125000D01*
X60051204Y-66100496D01*
X60054804Y-66076227D01*
X60060765Y-66052429D01*
X60069030Y-66029329D01*
X60079520Y-66007151D01*
X60092133Y-65986107D01*
X60106747Y-65966402D01*
X60123223Y-65948223D01*
X60141402Y-65931747D01*
X60161107Y-65917133D01*
X60182151Y-65904520D01*
X60204329Y-65894030D01*
X60227429Y-65885765D01*
X60251227Y-65879804D01*
X60275496Y-65876204D01*
X60300000Y-65875000D01*
X61225000Y-65875000D01*
X61249504Y-65876204D01*
X61249504Y-65876204D01*
G37*
D16*
X60762500Y-66750000D03*
D15*
G36*
X63899504Y-83051204D02*
G01*
X63923773Y-83054804D01*
X63947571Y-83060765D01*
X63970671Y-83069030D01*
X63992849Y-83079520D01*
X64013893Y-83092133D01*
X64033598Y-83106747D01*
X64051777Y-83123223D01*
X64068253Y-83141402D01*
X64082867Y-83161107D01*
X64095480Y-83182151D01*
X64105970Y-83204329D01*
X64114235Y-83227429D01*
X64120196Y-83251227D01*
X64123796Y-83275496D01*
X64125000Y-83300000D01*
X64125000Y-84225000D01*
X64123796Y-84249504D01*
X64120196Y-84273773D01*
X64114235Y-84297571D01*
X64105970Y-84320671D01*
X64095480Y-84342849D01*
X64082867Y-84363893D01*
X64068253Y-84383598D01*
X64051777Y-84401777D01*
X64033598Y-84418253D01*
X64013893Y-84432867D01*
X63992849Y-84445480D01*
X63970671Y-84455970D01*
X63947571Y-84464235D01*
X63923773Y-84470196D01*
X63899504Y-84473796D01*
X63875000Y-84475000D01*
X62625000Y-84475000D01*
X62600496Y-84473796D01*
X62576227Y-84470196D01*
X62552429Y-84464235D01*
X62529329Y-84455970D01*
X62507151Y-84445480D01*
X62486107Y-84432867D01*
X62466402Y-84418253D01*
X62448223Y-84401777D01*
X62431747Y-84383598D01*
X62417133Y-84363893D01*
X62404520Y-84342849D01*
X62394030Y-84320671D01*
X62385765Y-84297571D01*
X62379804Y-84273773D01*
X62376204Y-84249504D01*
X62375000Y-84225000D01*
X62375000Y-83300000D01*
X62376204Y-83275496D01*
X62379804Y-83251227D01*
X62385765Y-83227429D01*
X62394030Y-83204329D01*
X62404520Y-83182151D01*
X62417133Y-83161107D01*
X62431747Y-83141402D01*
X62448223Y-83123223D01*
X62466402Y-83106747D01*
X62486107Y-83092133D01*
X62507151Y-83079520D01*
X62529329Y-83069030D01*
X62552429Y-83060765D01*
X62576227Y-83054804D01*
X62600496Y-83051204D01*
X62625000Y-83050000D01*
X63875000Y-83050000D01*
X63899504Y-83051204D01*
X63899504Y-83051204D01*
G37*
D16*
X63250000Y-83762500D03*
D15*
G36*
X63899504Y-86026204D02*
G01*
X63923773Y-86029804D01*
X63947571Y-86035765D01*
X63970671Y-86044030D01*
X63992849Y-86054520D01*
X64013893Y-86067133D01*
X64033598Y-86081747D01*
X64051777Y-86098223D01*
X64068253Y-86116402D01*
X64082867Y-86136107D01*
X64095480Y-86157151D01*
X64105970Y-86179329D01*
X64114235Y-86202429D01*
X64120196Y-86226227D01*
X64123796Y-86250496D01*
X64125000Y-86275000D01*
X64125000Y-87200000D01*
X64123796Y-87224504D01*
X64120196Y-87248773D01*
X64114235Y-87272571D01*
X64105970Y-87295671D01*
X64095480Y-87317849D01*
X64082867Y-87338893D01*
X64068253Y-87358598D01*
X64051777Y-87376777D01*
X64033598Y-87393253D01*
X64013893Y-87407867D01*
X63992849Y-87420480D01*
X63970671Y-87430970D01*
X63947571Y-87439235D01*
X63923773Y-87445196D01*
X63899504Y-87448796D01*
X63875000Y-87450000D01*
X62625000Y-87450000D01*
X62600496Y-87448796D01*
X62576227Y-87445196D01*
X62552429Y-87439235D01*
X62529329Y-87430970D01*
X62507151Y-87420480D01*
X62486107Y-87407867D01*
X62466402Y-87393253D01*
X62448223Y-87376777D01*
X62431747Y-87358598D01*
X62417133Y-87338893D01*
X62404520Y-87317849D01*
X62394030Y-87295671D01*
X62385765Y-87272571D01*
X62379804Y-87248773D01*
X62376204Y-87224504D01*
X62375000Y-87200000D01*
X62375000Y-86275000D01*
X62376204Y-86250496D01*
X62379804Y-86226227D01*
X62385765Y-86202429D01*
X62394030Y-86179329D01*
X62404520Y-86157151D01*
X62417133Y-86136107D01*
X62431747Y-86116402D01*
X62448223Y-86098223D01*
X62466402Y-86081747D01*
X62486107Y-86067133D01*
X62507151Y-86054520D01*
X62529329Y-86044030D01*
X62552429Y-86035765D01*
X62576227Y-86029804D01*
X62600496Y-86026204D01*
X62625000Y-86025000D01*
X63875000Y-86025000D01*
X63899504Y-86026204D01*
X63899504Y-86026204D01*
G37*
D16*
X63250000Y-86737500D03*
D15*
G36*
X70399504Y-73276204D02*
G01*
X70423773Y-73279804D01*
X70447571Y-73285765D01*
X70470671Y-73294030D01*
X70492849Y-73304520D01*
X70513893Y-73317133D01*
X70533598Y-73331747D01*
X70551777Y-73348223D01*
X70568253Y-73366402D01*
X70582867Y-73386107D01*
X70595480Y-73407151D01*
X70605970Y-73429329D01*
X70614235Y-73452429D01*
X70620196Y-73476227D01*
X70623796Y-73500496D01*
X70625000Y-73525000D01*
X70625000Y-74450000D01*
X70623796Y-74474504D01*
X70620196Y-74498773D01*
X70614235Y-74522571D01*
X70605970Y-74545671D01*
X70595480Y-74567849D01*
X70582867Y-74588893D01*
X70568253Y-74608598D01*
X70551777Y-74626777D01*
X70533598Y-74643253D01*
X70513893Y-74657867D01*
X70492849Y-74670480D01*
X70470671Y-74680970D01*
X70447571Y-74689235D01*
X70423773Y-74695196D01*
X70399504Y-74698796D01*
X70375000Y-74700000D01*
X69125000Y-74700000D01*
X69100496Y-74698796D01*
X69076227Y-74695196D01*
X69052429Y-74689235D01*
X69029329Y-74680970D01*
X69007151Y-74670480D01*
X68986107Y-74657867D01*
X68966402Y-74643253D01*
X68948223Y-74626777D01*
X68931747Y-74608598D01*
X68917133Y-74588893D01*
X68904520Y-74567849D01*
X68894030Y-74545671D01*
X68885765Y-74522571D01*
X68879804Y-74498773D01*
X68876204Y-74474504D01*
X68875000Y-74450000D01*
X68875000Y-73525000D01*
X68876204Y-73500496D01*
X68879804Y-73476227D01*
X68885765Y-73452429D01*
X68894030Y-73429329D01*
X68904520Y-73407151D01*
X68917133Y-73386107D01*
X68931747Y-73366402D01*
X68948223Y-73348223D01*
X68966402Y-73331747D01*
X68986107Y-73317133D01*
X69007151Y-73304520D01*
X69029329Y-73294030D01*
X69052429Y-73285765D01*
X69076227Y-73279804D01*
X69100496Y-73276204D01*
X69125000Y-73275000D01*
X70375000Y-73275000D01*
X70399504Y-73276204D01*
X70399504Y-73276204D01*
G37*
D16*
X69750000Y-73987500D03*
D15*
G36*
X70399504Y-70301204D02*
G01*
X70423773Y-70304804D01*
X70447571Y-70310765D01*
X70470671Y-70319030D01*
X70492849Y-70329520D01*
X70513893Y-70342133D01*
X70533598Y-70356747D01*
X70551777Y-70373223D01*
X70568253Y-70391402D01*
X70582867Y-70411107D01*
X70595480Y-70432151D01*
X70605970Y-70454329D01*
X70614235Y-70477429D01*
X70620196Y-70501227D01*
X70623796Y-70525496D01*
X70625000Y-70550000D01*
X70625000Y-71475000D01*
X70623796Y-71499504D01*
X70620196Y-71523773D01*
X70614235Y-71547571D01*
X70605970Y-71570671D01*
X70595480Y-71592849D01*
X70582867Y-71613893D01*
X70568253Y-71633598D01*
X70551777Y-71651777D01*
X70533598Y-71668253D01*
X70513893Y-71682867D01*
X70492849Y-71695480D01*
X70470671Y-71705970D01*
X70447571Y-71714235D01*
X70423773Y-71720196D01*
X70399504Y-71723796D01*
X70375000Y-71725000D01*
X69125000Y-71725000D01*
X69100496Y-71723796D01*
X69076227Y-71720196D01*
X69052429Y-71714235D01*
X69029329Y-71705970D01*
X69007151Y-71695480D01*
X68986107Y-71682867D01*
X68966402Y-71668253D01*
X68948223Y-71651777D01*
X68931747Y-71633598D01*
X68917133Y-71613893D01*
X68904520Y-71592849D01*
X68894030Y-71570671D01*
X68885765Y-71547571D01*
X68879804Y-71523773D01*
X68876204Y-71499504D01*
X68875000Y-71475000D01*
X68875000Y-70550000D01*
X68876204Y-70525496D01*
X68879804Y-70501227D01*
X68885765Y-70477429D01*
X68894030Y-70454329D01*
X68904520Y-70432151D01*
X68917133Y-70411107D01*
X68931747Y-70391402D01*
X68948223Y-70373223D01*
X68966402Y-70356747D01*
X68986107Y-70342133D01*
X69007151Y-70329520D01*
X69029329Y-70319030D01*
X69052429Y-70310765D01*
X69076227Y-70304804D01*
X69100496Y-70301204D01*
X69125000Y-70300000D01*
X70375000Y-70300000D01*
X70399504Y-70301204D01*
X70399504Y-70301204D01*
G37*
D16*
X69750000Y-71012500D03*
D17*
X37750000Y-74000000D03*
D18*
X37750000Y-77500000D03*
X37750000Y-63250000D03*
D17*
X37750000Y-59750000D03*
D19*
X90250000Y-115500000D03*
D20*
X90250000Y-112960000D03*
X92790000Y-115500000D03*
X92790000Y-112960000D03*
X95330000Y-115500000D03*
X95330000Y-112960000D03*
X97870000Y-115500000D03*
X97870000Y-112960000D03*
X100410000Y-115500000D03*
X100410000Y-112960000D03*
D21*
X147470000Y-49000000D03*
D22*
X144930000Y-49000000D03*
X142390000Y-49000000D03*
X139850000Y-49000000D03*
X137310000Y-49000000D03*
X134770000Y-49000000D03*
X132230000Y-49000000D03*
X129690000Y-49000000D03*
X127150000Y-49000000D03*
X124610000Y-49000000D03*
X122070000Y-49000000D03*
X119530000Y-49000000D03*
D21*
X119530000Y-103250000D03*
D22*
X122070000Y-103250000D03*
X124610000Y-103250000D03*
X127150000Y-103250000D03*
X129690000Y-103250000D03*
X132230000Y-103250000D03*
X134770000Y-103250000D03*
X137310000Y-103250000D03*
X139850000Y-103250000D03*
X142390000Y-103250000D03*
X144930000Y-103250000D03*
X147470000Y-103250000D03*
D15*
G36*
X61399504Y-61026204D02*
G01*
X61423773Y-61029804D01*
X61447571Y-61035765D01*
X61470671Y-61044030D01*
X61492849Y-61054520D01*
X61513893Y-61067133D01*
X61533598Y-61081747D01*
X61551777Y-61098223D01*
X61568253Y-61116402D01*
X61582867Y-61136107D01*
X61595480Y-61157151D01*
X61605970Y-61179329D01*
X61614235Y-61202429D01*
X61620196Y-61226227D01*
X61623796Y-61250496D01*
X61625000Y-61275000D01*
X61625000Y-62200000D01*
X61623796Y-62224504D01*
X61620196Y-62248773D01*
X61614235Y-62272571D01*
X61605970Y-62295671D01*
X61595480Y-62317849D01*
X61582867Y-62338893D01*
X61568253Y-62358598D01*
X61551777Y-62376777D01*
X61533598Y-62393253D01*
X61513893Y-62407867D01*
X61492849Y-62420480D01*
X61470671Y-62430970D01*
X61447571Y-62439235D01*
X61423773Y-62445196D01*
X61399504Y-62448796D01*
X61375000Y-62450000D01*
X60125000Y-62450000D01*
X60100496Y-62448796D01*
X60076227Y-62445196D01*
X60052429Y-62439235D01*
X60029329Y-62430970D01*
X60007151Y-62420480D01*
X59986107Y-62407867D01*
X59966402Y-62393253D01*
X59948223Y-62376777D01*
X59931747Y-62358598D01*
X59917133Y-62338893D01*
X59904520Y-62317849D01*
X59894030Y-62295671D01*
X59885765Y-62272571D01*
X59879804Y-62248773D01*
X59876204Y-62224504D01*
X59875000Y-62200000D01*
X59875000Y-61275000D01*
X59876204Y-61250496D01*
X59879804Y-61226227D01*
X59885765Y-61202429D01*
X59894030Y-61179329D01*
X59904520Y-61157151D01*
X59917133Y-61136107D01*
X59931747Y-61116402D01*
X59948223Y-61098223D01*
X59966402Y-61081747D01*
X59986107Y-61067133D01*
X60007151Y-61054520D01*
X60029329Y-61044030D01*
X60052429Y-61035765D01*
X60076227Y-61029804D01*
X60100496Y-61026204D01*
X60125000Y-61025000D01*
X61375000Y-61025000D01*
X61399504Y-61026204D01*
X61399504Y-61026204D01*
G37*
D16*
X60750000Y-61737500D03*
D15*
G36*
X61399504Y-58051204D02*
G01*
X61423773Y-58054804D01*
X61447571Y-58060765D01*
X61470671Y-58069030D01*
X61492849Y-58079520D01*
X61513893Y-58092133D01*
X61533598Y-58106747D01*
X61551777Y-58123223D01*
X61568253Y-58141402D01*
X61582867Y-58161107D01*
X61595480Y-58182151D01*
X61605970Y-58204329D01*
X61614235Y-58227429D01*
X61620196Y-58251227D01*
X61623796Y-58275496D01*
X61625000Y-58300000D01*
X61625000Y-59225000D01*
X61623796Y-59249504D01*
X61620196Y-59273773D01*
X61614235Y-59297571D01*
X61605970Y-59320671D01*
X61595480Y-59342849D01*
X61582867Y-59363893D01*
X61568253Y-59383598D01*
X61551777Y-59401777D01*
X61533598Y-59418253D01*
X61513893Y-59432867D01*
X61492849Y-59445480D01*
X61470671Y-59455970D01*
X61447571Y-59464235D01*
X61423773Y-59470196D01*
X61399504Y-59473796D01*
X61375000Y-59475000D01*
X60125000Y-59475000D01*
X60100496Y-59473796D01*
X60076227Y-59470196D01*
X60052429Y-59464235D01*
X60029329Y-59455970D01*
X60007151Y-59445480D01*
X59986107Y-59432867D01*
X59966402Y-59418253D01*
X59948223Y-59401777D01*
X59931747Y-59383598D01*
X59917133Y-59363893D01*
X59904520Y-59342849D01*
X59894030Y-59320671D01*
X59885765Y-59297571D01*
X59879804Y-59273773D01*
X59876204Y-59249504D01*
X59875000Y-59225000D01*
X59875000Y-58300000D01*
X59876204Y-58275496D01*
X59879804Y-58251227D01*
X59885765Y-58227429D01*
X59894030Y-58204329D01*
X59904520Y-58182151D01*
X59917133Y-58161107D01*
X59931747Y-58141402D01*
X59948223Y-58123223D01*
X59966402Y-58106747D01*
X59986107Y-58092133D01*
X60007151Y-58079520D01*
X60029329Y-58069030D01*
X60052429Y-58060765D01*
X60076227Y-58054804D01*
X60100496Y-58051204D01*
X60125000Y-58050000D01*
X61375000Y-58050000D01*
X61399504Y-58051204D01*
X61399504Y-58051204D01*
G37*
D16*
X60750000Y-58762500D03*
D15*
G36*
X55149504Y-61026204D02*
G01*
X55173773Y-61029804D01*
X55197571Y-61035765D01*
X55220671Y-61044030D01*
X55242849Y-61054520D01*
X55263893Y-61067133D01*
X55283598Y-61081747D01*
X55301777Y-61098223D01*
X55318253Y-61116402D01*
X55332867Y-61136107D01*
X55345480Y-61157151D01*
X55355970Y-61179329D01*
X55364235Y-61202429D01*
X55370196Y-61226227D01*
X55373796Y-61250496D01*
X55375000Y-61275000D01*
X55375000Y-62200000D01*
X55373796Y-62224504D01*
X55370196Y-62248773D01*
X55364235Y-62272571D01*
X55355970Y-62295671D01*
X55345480Y-62317849D01*
X55332867Y-62338893D01*
X55318253Y-62358598D01*
X55301777Y-62376777D01*
X55283598Y-62393253D01*
X55263893Y-62407867D01*
X55242849Y-62420480D01*
X55220671Y-62430970D01*
X55197571Y-62439235D01*
X55173773Y-62445196D01*
X55149504Y-62448796D01*
X55125000Y-62450000D01*
X53875000Y-62450000D01*
X53850496Y-62448796D01*
X53826227Y-62445196D01*
X53802429Y-62439235D01*
X53779329Y-62430970D01*
X53757151Y-62420480D01*
X53736107Y-62407867D01*
X53716402Y-62393253D01*
X53698223Y-62376777D01*
X53681747Y-62358598D01*
X53667133Y-62338893D01*
X53654520Y-62317849D01*
X53644030Y-62295671D01*
X53635765Y-62272571D01*
X53629804Y-62248773D01*
X53626204Y-62224504D01*
X53625000Y-62200000D01*
X53625000Y-61275000D01*
X53626204Y-61250496D01*
X53629804Y-61226227D01*
X53635765Y-61202429D01*
X53644030Y-61179329D01*
X53654520Y-61157151D01*
X53667133Y-61136107D01*
X53681747Y-61116402D01*
X53698223Y-61098223D01*
X53716402Y-61081747D01*
X53736107Y-61067133D01*
X53757151Y-61054520D01*
X53779329Y-61044030D01*
X53802429Y-61035765D01*
X53826227Y-61029804D01*
X53850496Y-61026204D01*
X53875000Y-61025000D01*
X55125000Y-61025000D01*
X55149504Y-61026204D01*
X55149504Y-61026204D01*
G37*
D16*
X54500000Y-61737500D03*
D15*
G36*
X55149504Y-58051204D02*
G01*
X55173773Y-58054804D01*
X55197571Y-58060765D01*
X55220671Y-58069030D01*
X55242849Y-58079520D01*
X55263893Y-58092133D01*
X55283598Y-58106747D01*
X55301777Y-58123223D01*
X55318253Y-58141402D01*
X55332867Y-58161107D01*
X55345480Y-58182151D01*
X55355970Y-58204329D01*
X55364235Y-58227429D01*
X55370196Y-58251227D01*
X55373796Y-58275496D01*
X55375000Y-58300000D01*
X55375000Y-59225000D01*
X55373796Y-59249504D01*
X55370196Y-59273773D01*
X55364235Y-59297571D01*
X55355970Y-59320671D01*
X55345480Y-59342849D01*
X55332867Y-59363893D01*
X55318253Y-59383598D01*
X55301777Y-59401777D01*
X55283598Y-59418253D01*
X55263893Y-59432867D01*
X55242849Y-59445480D01*
X55220671Y-59455970D01*
X55197571Y-59464235D01*
X55173773Y-59470196D01*
X55149504Y-59473796D01*
X55125000Y-59475000D01*
X53875000Y-59475000D01*
X53850496Y-59473796D01*
X53826227Y-59470196D01*
X53802429Y-59464235D01*
X53779329Y-59455970D01*
X53757151Y-59445480D01*
X53736107Y-59432867D01*
X53716402Y-59418253D01*
X53698223Y-59401777D01*
X53681747Y-59383598D01*
X53667133Y-59363893D01*
X53654520Y-59342849D01*
X53644030Y-59320671D01*
X53635765Y-59297571D01*
X53629804Y-59273773D01*
X53626204Y-59249504D01*
X53625000Y-59225000D01*
X53625000Y-58300000D01*
X53626204Y-58275496D01*
X53629804Y-58251227D01*
X53635765Y-58227429D01*
X53644030Y-58204329D01*
X53654520Y-58182151D01*
X53667133Y-58161107D01*
X53681747Y-58141402D01*
X53698223Y-58123223D01*
X53716402Y-58106747D01*
X53736107Y-58092133D01*
X53757151Y-58079520D01*
X53779329Y-58069030D01*
X53802429Y-58060765D01*
X53826227Y-58054804D01*
X53850496Y-58051204D01*
X53875000Y-58050000D01*
X55125000Y-58050000D01*
X55149504Y-58051204D01*
X55149504Y-58051204D01*
G37*
D16*
X54500000Y-58762500D03*
D15*
G36*
X50349505Y-42151204D02*
G01*
X50373773Y-42154804D01*
X50397572Y-42160765D01*
X50420671Y-42169030D01*
X50442850Y-42179520D01*
X50463893Y-42192132D01*
X50483599Y-42206747D01*
X50501777Y-42223223D01*
X50518253Y-42241401D01*
X50532868Y-42261107D01*
X50545480Y-42282150D01*
X50555970Y-42304329D01*
X50564235Y-42327428D01*
X50570196Y-42351227D01*
X50573796Y-42375495D01*
X50575000Y-42399999D01*
X50575000Y-43425001D01*
X50573796Y-43449505D01*
X50570196Y-43473773D01*
X50564235Y-43497572D01*
X50555970Y-43520671D01*
X50545480Y-43542850D01*
X50532868Y-43563893D01*
X50518253Y-43583599D01*
X50501777Y-43601777D01*
X50483599Y-43618253D01*
X50463893Y-43632868D01*
X50442850Y-43645480D01*
X50420671Y-43655970D01*
X50397572Y-43664235D01*
X50373773Y-43670196D01*
X50349505Y-43673796D01*
X50325001Y-43675000D01*
X48174999Y-43675000D01*
X48150495Y-43673796D01*
X48126227Y-43670196D01*
X48102428Y-43664235D01*
X48079329Y-43655970D01*
X48057150Y-43645480D01*
X48036107Y-43632868D01*
X48016401Y-43618253D01*
X47998223Y-43601777D01*
X47981747Y-43583599D01*
X47967132Y-43563893D01*
X47954520Y-43542850D01*
X47944030Y-43520671D01*
X47935765Y-43497572D01*
X47929804Y-43473773D01*
X47926204Y-43449505D01*
X47925000Y-43425001D01*
X47925000Y-42399999D01*
X47926204Y-42375495D01*
X47929804Y-42351227D01*
X47935765Y-42327428D01*
X47944030Y-42304329D01*
X47954520Y-42282150D01*
X47967132Y-42261107D01*
X47981747Y-42241401D01*
X47998223Y-42223223D01*
X48016401Y-42206747D01*
X48036107Y-42192132D01*
X48057150Y-42179520D01*
X48079329Y-42169030D01*
X48102428Y-42160765D01*
X48126227Y-42154804D01*
X48150495Y-42151204D01*
X48174999Y-42150000D01*
X50325001Y-42150000D01*
X50349505Y-42151204D01*
X50349505Y-42151204D01*
G37*
D23*
X49250000Y-42912500D03*
D15*
G36*
X50349505Y-46826204D02*
G01*
X50373773Y-46829804D01*
X50397572Y-46835765D01*
X50420671Y-46844030D01*
X50442850Y-46854520D01*
X50463893Y-46867132D01*
X50483599Y-46881747D01*
X50501777Y-46898223D01*
X50518253Y-46916401D01*
X50532868Y-46936107D01*
X50545480Y-46957150D01*
X50555970Y-46979329D01*
X50564235Y-47002428D01*
X50570196Y-47026227D01*
X50573796Y-47050495D01*
X50575000Y-47074999D01*
X50575000Y-48100001D01*
X50573796Y-48124505D01*
X50570196Y-48148773D01*
X50564235Y-48172572D01*
X50555970Y-48195671D01*
X50545480Y-48217850D01*
X50532868Y-48238893D01*
X50518253Y-48258599D01*
X50501777Y-48276777D01*
X50483599Y-48293253D01*
X50463893Y-48307868D01*
X50442850Y-48320480D01*
X50420671Y-48330970D01*
X50397572Y-48339235D01*
X50373773Y-48345196D01*
X50349505Y-48348796D01*
X50325001Y-48350000D01*
X48174999Y-48350000D01*
X48150495Y-48348796D01*
X48126227Y-48345196D01*
X48102428Y-48339235D01*
X48079329Y-48330970D01*
X48057150Y-48320480D01*
X48036107Y-48307868D01*
X48016401Y-48293253D01*
X47998223Y-48276777D01*
X47981747Y-48258599D01*
X47967132Y-48238893D01*
X47954520Y-48217850D01*
X47944030Y-48195671D01*
X47935765Y-48172572D01*
X47929804Y-48148773D01*
X47926204Y-48124505D01*
X47925000Y-48100001D01*
X47925000Y-47074999D01*
X47926204Y-47050495D01*
X47929804Y-47026227D01*
X47935765Y-47002428D01*
X47944030Y-46979329D01*
X47954520Y-46957150D01*
X47967132Y-46936107D01*
X47981747Y-46916401D01*
X47998223Y-46898223D01*
X48016401Y-46881747D01*
X48036107Y-46867132D01*
X48057150Y-46854520D01*
X48079329Y-46844030D01*
X48102428Y-46835765D01*
X48126227Y-46829804D01*
X48150495Y-46826204D01*
X48174999Y-46825000D01*
X50325001Y-46825000D01*
X50349505Y-46826204D01*
X50349505Y-46826204D01*
G37*
D23*
X49250000Y-47587500D03*
D15*
G36*
X74899504Y-52801204D02*
G01*
X74923773Y-52804804D01*
X74947571Y-52810765D01*
X74970671Y-52819030D01*
X74992849Y-52829520D01*
X75013893Y-52842133D01*
X75033598Y-52856747D01*
X75051777Y-52873223D01*
X75068253Y-52891402D01*
X75082867Y-52911107D01*
X75095480Y-52932151D01*
X75105970Y-52954329D01*
X75114235Y-52977429D01*
X75120196Y-53001227D01*
X75123796Y-53025496D01*
X75125000Y-53050000D01*
X75125000Y-53975000D01*
X75123796Y-53999504D01*
X75120196Y-54023773D01*
X75114235Y-54047571D01*
X75105970Y-54070671D01*
X75095480Y-54092849D01*
X75082867Y-54113893D01*
X75068253Y-54133598D01*
X75051777Y-54151777D01*
X75033598Y-54168253D01*
X75013893Y-54182867D01*
X74992849Y-54195480D01*
X74970671Y-54205970D01*
X74947571Y-54214235D01*
X74923773Y-54220196D01*
X74899504Y-54223796D01*
X74875000Y-54225000D01*
X73625000Y-54225000D01*
X73600496Y-54223796D01*
X73576227Y-54220196D01*
X73552429Y-54214235D01*
X73529329Y-54205970D01*
X73507151Y-54195480D01*
X73486107Y-54182867D01*
X73466402Y-54168253D01*
X73448223Y-54151777D01*
X73431747Y-54133598D01*
X73417133Y-54113893D01*
X73404520Y-54092849D01*
X73394030Y-54070671D01*
X73385765Y-54047571D01*
X73379804Y-54023773D01*
X73376204Y-53999504D01*
X73375000Y-53975000D01*
X73375000Y-53050000D01*
X73376204Y-53025496D01*
X73379804Y-53001227D01*
X73385765Y-52977429D01*
X73394030Y-52954329D01*
X73404520Y-52932151D01*
X73417133Y-52911107D01*
X73431747Y-52891402D01*
X73448223Y-52873223D01*
X73466402Y-52856747D01*
X73486107Y-52842133D01*
X73507151Y-52829520D01*
X73529329Y-52819030D01*
X73552429Y-52810765D01*
X73576227Y-52804804D01*
X73600496Y-52801204D01*
X73625000Y-52800000D01*
X74875000Y-52800000D01*
X74899504Y-52801204D01*
X74899504Y-52801204D01*
G37*
D16*
X74250000Y-53512500D03*
D15*
G36*
X74899504Y-55776204D02*
G01*
X74923773Y-55779804D01*
X74947571Y-55785765D01*
X74970671Y-55794030D01*
X74992849Y-55804520D01*
X75013893Y-55817133D01*
X75033598Y-55831747D01*
X75051777Y-55848223D01*
X75068253Y-55866402D01*
X75082867Y-55886107D01*
X75095480Y-55907151D01*
X75105970Y-55929329D01*
X75114235Y-55952429D01*
X75120196Y-55976227D01*
X75123796Y-56000496D01*
X75125000Y-56025000D01*
X75125000Y-56950000D01*
X75123796Y-56974504D01*
X75120196Y-56998773D01*
X75114235Y-57022571D01*
X75105970Y-57045671D01*
X75095480Y-57067849D01*
X75082867Y-57088893D01*
X75068253Y-57108598D01*
X75051777Y-57126777D01*
X75033598Y-57143253D01*
X75013893Y-57157867D01*
X74992849Y-57170480D01*
X74970671Y-57180970D01*
X74947571Y-57189235D01*
X74923773Y-57195196D01*
X74899504Y-57198796D01*
X74875000Y-57200000D01*
X73625000Y-57200000D01*
X73600496Y-57198796D01*
X73576227Y-57195196D01*
X73552429Y-57189235D01*
X73529329Y-57180970D01*
X73507151Y-57170480D01*
X73486107Y-57157867D01*
X73466402Y-57143253D01*
X73448223Y-57126777D01*
X73431747Y-57108598D01*
X73417133Y-57088893D01*
X73404520Y-57067849D01*
X73394030Y-57045671D01*
X73385765Y-57022571D01*
X73379804Y-56998773D01*
X73376204Y-56974504D01*
X73375000Y-56950000D01*
X73375000Y-56025000D01*
X73376204Y-56000496D01*
X73379804Y-55976227D01*
X73385765Y-55952429D01*
X73394030Y-55929329D01*
X73404520Y-55907151D01*
X73417133Y-55886107D01*
X73431747Y-55866402D01*
X73448223Y-55848223D01*
X73466402Y-55831747D01*
X73486107Y-55817133D01*
X73507151Y-55804520D01*
X73529329Y-55794030D01*
X73552429Y-55785765D01*
X73576227Y-55779804D01*
X73600496Y-55776204D01*
X73625000Y-55775000D01*
X74875000Y-55775000D01*
X74899504Y-55776204D01*
X74899504Y-55776204D01*
G37*
D16*
X74250000Y-56487500D03*
D15*
G36*
X115237004Y-77876204D02*
G01*
X115261273Y-77879804D01*
X115285071Y-77885765D01*
X115308171Y-77894030D01*
X115330349Y-77904520D01*
X115351393Y-77917133D01*
X115371098Y-77931747D01*
X115389277Y-77948223D01*
X115405753Y-77966402D01*
X115420367Y-77986107D01*
X115432980Y-78007151D01*
X115443470Y-78029329D01*
X115451735Y-78052429D01*
X115457696Y-78076227D01*
X115461296Y-78100496D01*
X115462500Y-78125000D01*
X115462500Y-79375000D01*
X115461296Y-79399504D01*
X115457696Y-79423773D01*
X115451735Y-79447571D01*
X115443470Y-79470671D01*
X115432980Y-79492849D01*
X115420367Y-79513893D01*
X115405753Y-79533598D01*
X115389277Y-79551777D01*
X115371098Y-79568253D01*
X115351393Y-79582867D01*
X115330349Y-79595480D01*
X115308171Y-79605970D01*
X115285071Y-79614235D01*
X115261273Y-79620196D01*
X115237004Y-79623796D01*
X115212500Y-79625000D01*
X114287500Y-79625000D01*
X114262996Y-79623796D01*
X114238727Y-79620196D01*
X114214929Y-79614235D01*
X114191829Y-79605970D01*
X114169651Y-79595480D01*
X114148607Y-79582867D01*
X114128902Y-79568253D01*
X114110723Y-79551777D01*
X114094247Y-79533598D01*
X114079633Y-79513893D01*
X114067020Y-79492849D01*
X114056530Y-79470671D01*
X114048265Y-79447571D01*
X114042304Y-79423773D01*
X114038704Y-79399504D01*
X114037500Y-79375000D01*
X114037500Y-78125000D01*
X114038704Y-78100496D01*
X114042304Y-78076227D01*
X114048265Y-78052429D01*
X114056530Y-78029329D01*
X114067020Y-78007151D01*
X114079633Y-77986107D01*
X114094247Y-77966402D01*
X114110723Y-77948223D01*
X114128902Y-77931747D01*
X114148607Y-77917133D01*
X114169651Y-77904520D01*
X114191829Y-77894030D01*
X114214929Y-77885765D01*
X114238727Y-77879804D01*
X114262996Y-77876204D01*
X114287500Y-77875000D01*
X115212500Y-77875000D01*
X115237004Y-77876204D01*
X115237004Y-77876204D01*
G37*
D16*
X114750000Y-78750000D03*
D15*
G36*
X112262004Y-77876204D02*
G01*
X112286273Y-77879804D01*
X112310071Y-77885765D01*
X112333171Y-77894030D01*
X112355349Y-77904520D01*
X112376393Y-77917133D01*
X112396098Y-77931747D01*
X112414277Y-77948223D01*
X112430753Y-77966402D01*
X112445367Y-77986107D01*
X112457980Y-78007151D01*
X112468470Y-78029329D01*
X112476735Y-78052429D01*
X112482696Y-78076227D01*
X112486296Y-78100496D01*
X112487500Y-78125000D01*
X112487500Y-79375000D01*
X112486296Y-79399504D01*
X112482696Y-79423773D01*
X112476735Y-79447571D01*
X112468470Y-79470671D01*
X112457980Y-79492849D01*
X112445367Y-79513893D01*
X112430753Y-79533598D01*
X112414277Y-79551777D01*
X112396098Y-79568253D01*
X112376393Y-79582867D01*
X112355349Y-79595480D01*
X112333171Y-79605970D01*
X112310071Y-79614235D01*
X112286273Y-79620196D01*
X112262004Y-79623796D01*
X112237500Y-79625000D01*
X111312500Y-79625000D01*
X111287996Y-79623796D01*
X111263727Y-79620196D01*
X111239929Y-79614235D01*
X111216829Y-79605970D01*
X111194651Y-79595480D01*
X111173607Y-79582867D01*
X111153902Y-79568253D01*
X111135723Y-79551777D01*
X111119247Y-79533598D01*
X111104633Y-79513893D01*
X111092020Y-79492849D01*
X111081530Y-79470671D01*
X111073265Y-79447571D01*
X111067304Y-79423773D01*
X111063704Y-79399504D01*
X111062500Y-79375000D01*
X111062500Y-78125000D01*
X111063704Y-78100496D01*
X111067304Y-78076227D01*
X111073265Y-78052429D01*
X111081530Y-78029329D01*
X111092020Y-78007151D01*
X111104633Y-77986107D01*
X111119247Y-77966402D01*
X111135723Y-77948223D01*
X111153902Y-77931747D01*
X111173607Y-77917133D01*
X111194651Y-77904520D01*
X111216829Y-77894030D01*
X111239929Y-77885765D01*
X111263727Y-77879804D01*
X111287996Y-77876204D01*
X111312500Y-77875000D01*
X112237500Y-77875000D01*
X112262004Y-77876204D01*
X112262004Y-77876204D01*
G37*
D16*
X111775000Y-78750000D03*
D15*
G36*
X115237004Y-72876204D02*
G01*
X115261273Y-72879804D01*
X115285071Y-72885765D01*
X115308171Y-72894030D01*
X115330349Y-72904520D01*
X115351393Y-72917133D01*
X115371098Y-72931747D01*
X115389277Y-72948223D01*
X115405753Y-72966402D01*
X115420367Y-72986107D01*
X115432980Y-73007151D01*
X115443470Y-73029329D01*
X115451735Y-73052429D01*
X115457696Y-73076227D01*
X115461296Y-73100496D01*
X115462500Y-73125000D01*
X115462500Y-74375000D01*
X115461296Y-74399504D01*
X115457696Y-74423773D01*
X115451735Y-74447571D01*
X115443470Y-74470671D01*
X115432980Y-74492849D01*
X115420367Y-74513893D01*
X115405753Y-74533598D01*
X115389277Y-74551777D01*
X115371098Y-74568253D01*
X115351393Y-74582867D01*
X115330349Y-74595480D01*
X115308171Y-74605970D01*
X115285071Y-74614235D01*
X115261273Y-74620196D01*
X115237004Y-74623796D01*
X115212500Y-74625000D01*
X114287500Y-74625000D01*
X114262996Y-74623796D01*
X114238727Y-74620196D01*
X114214929Y-74614235D01*
X114191829Y-74605970D01*
X114169651Y-74595480D01*
X114148607Y-74582867D01*
X114128902Y-74568253D01*
X114110723Y-74551777D01*
X114094247Y-74533598D01*
X114079633Y-74513893D01*
X114067020Y-74492849D01*
X114056530Y-74470671D01*
X114048265Y-74447571D01*
X114042304Y-74423773D01*
X114038704Y-74399504D01*
X114037500Y-74375000D01*
X114037500Y-73125000D01*
X114038704Y-73100496D01*
X114042304Y-73076227D01*
X114048265Y-73052429D01*
X114056530Y-73029329D01*
X114067020Y-73007151D01*
X114079633Y-72986107D01*
X114094247Y-72966402D01*
X114110723Y-72948223D01*
X114128902Y-72931747D01*
X114148607Y-72917133D01*
X114169651Y-72904520D01*
X114191829Y-72894030D01*
X114214929Y-72885765D01*
X114238727Y-72879804D01*
X114262996Y-72876204D01*
X114287500Y-72875000D01*
X115212500Y-72875000D01*
X115237004Y-72876204D01*
X115237004Y-72876204D01*
G37*
D16*
X114750000Y-73750000D03*
D15*
G36*
X112262004Y-72876204D02*
G01*
X112286273Y-72879804D01*
X112310071Y-72885765D01*
X112333171Y-72894030D01*
X112355349Y-72904520D01*
X112376393Y-72917133D01*
X112396098Y-72931747D01*
X112414277Y-72948223D01*
X112430753Y-72966402D01*
X112445367Y-72986107D01*
X112457980Y-73007151D01*
X112468470Y-73029329D01*
X112476735Y-73052429D01*
X112482696Y-73076227D01*
X112486296Y-73100496D01*
X112487500Y-73125000D01*
X112487500Y-74375000D01*
X112486296Y-74399504D01*
X112482696Y-74423773D01*
X112476735Y-74447571D01*
X112468470Y-74470671D01*
X112457980Y-74492849D01*
X112445367Y-74513893D01*
X112430753Y-74533598D01*
X112414277Y-74551777D01*
X112396098Y-74568253D01*
X112376393Y-74582867D01*
X112355349Y-74595480D01*
X112333171Y-74605970D01*
X112310071Y-74614235D01*
X112286273Y-74620196D01*
X112262004Y-74623796D01*
X112237500Y-74625000D01*
X111312500Y-74625000D01*
X111287996Y-74623796D01*
X111263727Y-74620196D01*
X111239929Y-74614235D01*
X111216829Y-74605970D01*
X111194651Y-74595480D01*
X111173607Y-74582867D01*
X111153902Y-74568253D01*
X111135723Y-74551777D01*
X111119247Y-74533598D01*
X111104633Y-74513893D01*
X111092020Y-74492849D01*
X111081530Y-74470671D01*
X111073265Y-74447571D01*
X111067304Y-74423773D01*
X111063704Y-74399504D01*
X111062500Y-74375000D01*
X111062500Y-73125000D01*
X111063704Y-73100496D01*
X111067304Y-73076227D01*
X111073265Y-73052429D01*
X111081530Y-73029329D01*
X111092020Y-73007151D01*
X111104633Y-72986107D01*
X111119247Y-72966402D01*
X111135723Y-72948223D01*
X111153902Y-72931747D01*
X111173607Y-72917133D01*
X111194651Y-72904520D01*
X111216829Y-72894030D01*
X111239929Y-72885765D01*
X111263727Y-72879804D01*
X111287996Y-72876204D01*
X111312500Y-72875000D01*
X112237500Y-72875000D01*
X112262004Y-72876204D01*
X112262004Y-72876204D01*
G37*
D16*
X111775000Y-73750000D03*
D15*
G36*
X115224504Y-67876204D02*
G01*
X115248773Y-67879804D01*
X115272571Y-67885765D01*
X115295671Y-67894030D01*
X115317849Y-67904520D01*
X115338893Y-67917133D01*
X115358598Y-67931747D01*
X115376777Y-67948223D01*
X115393253Y-67966402D01*
X115407867Y-67986107D01*
X115420480Y-68007151D01*
X115430970Y-68029329D01*
X115439235Y-68052429D01*
X115445196Y-68076227D01*
X115448796Y-68100496D01*
X115450000Y-68125000D01*
X115450000Y-69375000D01*
X115448796Y-69399504D01*
X115445196Y-69423773D01*
X115439235Y-69447571D01*
X115430970Y-69470671D01*
X115420480Y-69492849D01*
X115407867Y-69513893D01*
X115393253Y-69533598D01*
X115376777Y-69551777D01*
X115358598Y-69568253D01*
X115338893Y-69582867D01*
X115317849Y-69595480D01*
X115295671Y-69605970D01*
X115272571Y-69614235D01*
X115248773Y-69620196D01*
X115224504Y-69623796D01*
X115200000Y-69625000D01*
X114275000Y-69625000D01*
X114250496Y-69623796D01*
X114226227Y-69620196D01*
X114202429Y-69614235D01*
X114179329Y-69605970D01*
X114157151Y-69595480D01*
X114136107Y-69582867D01*
X114116402Y-69568253D01*
X114098223Y-69551777D01*
X114081747Y-69533598D01*
X114067133Y-69513893D01*
X114054520Y-69492849D01*
X114044030Y-69470671D01*
X114035765Y-69447571D01*
X114029804Y-69423773D01*
X114026204Y-69399504D01*
X114025000Y-69375000D01*
X114025000Y-68125000D01*
X114026204Y-68100496D01*
X114029804Y-68076227D01*
X114035765Y-68052429D01*
X114044030Y-68029329D01*
X114054520Y-68007151D01*
X114067133Y-67986107D01*
X114081747Y-67966402D01*
X114098223Y-67948223D01*
X114116402Y-67931747D01*
X114136107Y-67917133D01*
X114157151Y-67904520D01*
X114179329Y-67894030D01*
X114202429Y-67885765D01*
X114226227Y-67879804D01*
X114250496Y-67876204D01*
X114275000Y-67875000D01*
X115200000Y-67875000D01*
X115224504Y-67876204D01*
X115224504Y-67876204D01*
G37*
D16*
X114737500Y-68750000D03*
D15*
G36*
X112249504Y-67876204D02*
G01*
X112273773Y-67879804D01*
X112297571Y-67885765D01*
X112320671Y-67894030D01*
X112342849Y-67904520D01*
X112363893Y-67917133D01*
X112383598Y-67931747D01*
X112401777Y-67948223D01*
X112418253Y-67966402D01*
X112432867Y-67986107D01*
X112445480Y-68007151D01*
X112455970Y-68029329D01*
X112464235Y-68052429D01*
X112470196Y-68076227D01*
X112473796Y-68100496D01*
X112475000Y-68125000D01*
X112475000Y-69375000D01*
X112473796Y-69399504D01*
X112470196Y-69423773D01*
X112464235Y-69447571D01*
X112455970Y-69470671D01*
X112445480Y-69492849D01*
X112432867Y-69513893D01*
X112418253Y-69533598D01*
X112401777Y-69551777D01*
X112383598Y-69568253D01*
X112363893Y-69582867D01*
X112342849Y-69595480D01*
X112320671Y-69605970D01*
X112297571Y-69614235D01*
X112273773Y-69620196D01*
X112249504Y-69623796D01*
X112225000Y-69625000D01*
X111300000Y-69625000D01*
X111275496Y-69623796D01*
X111251227Y-69620196D01*
X111227429Y-69614235D01*
X111204329Y-69605970D01*
X111182151Y-69595480D01*
X111161107Y-69582867D01*
X111141402Y-69568253D01*
X111123223Y-69551777D01*
X111106747Y-69533598D01*
X111092133Y-69513893D01*
X111079520Y-69492849D01*
X111069030Y-69470671D01*
X111060765Y-69447571D01*
X111054804Y-69423773D01*
X111051204Y-69399504D01*
X111050000Y-69375000D01*
X111050000Y-68125000D01*
X111051204Y-68100496D01*
X111054804Y-68076227D01*
X111060765Y-68052429D01*
X111069030Y-68029329D01*
X111079520Y-68007151D01*
X111092133Y-67986107D01*
X111106747Y-67966402D01*
X111123223Y-67948223D01*
X111141402Y-67931747D01*
X111161107Y-67917133D01*
X111182151Y-67904520D01*
X111204329Y-67894030D01*
X111227429Y-67885765D01*
X111251227Y-67879804D01*
X111275496Y-67876204D01*
X111300000Y-67875000D01*
X112225000Y-67875000D01*
X112249504Y-67876204D01*
X112249504Y-67876204D01*
G37*
D16*
X111762500Y-68750000D03*
D15*
G36*
X68974504Y-105876204D02*
G01*
X68998773Y-105879804D01*
X69022571Y-105885765D01*
X69045671Y-105894030D01*
X69067849Y-105904520D01*
X69088893Y-105917133D01*
X69108598Y-105931747D01*
X69126777Y-105948223D01*
X69143253Y-105966402D01*
X69157867Y-105986107D01*
X69170480Y-106007151D01*
X69180970Y-106029329D01*
X69189235Y-106052429D01*
X69195196Y-106076227D01*
X69198796Y-106100496D01*
X69200000Y-106125000D01*
X69200000Y-107375000D01*
X69198796Y-107399504D01*
X69195196Y-107423773D01*
X69189235Y-107447571D01*
X69180970Y-107470671D01*
X69170480Y-107492849D01*
X69157867Y-107513893D01*
X69143253Y-107533598D01*
X69126777Y-107551777D01*
X69108598Y-107568253D01*
X69088893Y-107582867D01*
X69067849Y-107595480D01*
X69045671Y-107605970D01*
X69022571Y-107614235D01*
X68998773Y-107620196D01*
X68974504Y-107623796D01*
X68950000Y-107625000D01*
X68025000Y-107625000D01*
X68000496Y-107623796D01*
X67976227Y-107620196D01*
X67952429Y-107614235D01*
X67929329Y-107605970D01*
X67907151Y-107595480D01*
X67886107Y-107582867D01*
X67866402Y-107568253D01*
X67848223Y-107551777D01*
X67831747Y-107533598D01*
X67817133Y-107513893D01*
X67804520Y-107492849D01*
X67794030Y-107470671D01*
X67785765Y-107447571D01*
X67779804Y-107423773D01*
X67776204Y-107399504D01*
X67775000Y-107375000D01*
X67775000Y-106125000D01*
X67776204Y-106100496D01*
X67779804Y-106076227D01*
X67785765Y-106052429D01*
X67794030Y-106029329D01*
X67804520Y-106007151D01*
X67817133Y-105986107D01*
X67831747Y-105966402D01*
X67848223Y-105948223D01*
X67866402Y-105931747D01*
X67886107Y-105917133D01*
X67907151Y-105904520D01*
X67929329Y-105894030D01*
X67952429Y-105885765D01*
X67976227Y-105879804D01*
X68000496Y-105876204D01*
X68025000Y-105875000D01*
X68950000Y-105875000D01*
X68974504Y-105876204D01*
X68974504Y-105876204D01*
G37*
D16*
X68487500Y-106750000D03*
D15*
G36*
X65999504Y-105876204D02*
G01*
X66023773Y-105879804D01*
X66047571Y-105885765D01*
X66070671Y-105894030D01*
X66092849Y-105904520D01*
X66113893Y-105917133D01*
X66133598Y-105931747D01*
X66151777Y-105948223D01*
X66168253Y-105966402D01*
X66182867Y-105986107D01*
X66195480Y-106007151D01*
X66205970Y-106029329D01*
X66214235Y-106052429D01*
X66220196Y-106076227D01*
X66223796Y-106100496D01*
X66225000Y-106125000D01*
X66225000Y-107375000D01*
X66223796Y-107399504D01*
X66220196Y-107423773D01*
X66214235Y-107447571D01*
X66205970Y-107470671D01*
X66195480Y-107492849D01*
X66182867Y-107513893D01*
X66168253Y-107533598D01*
X66151777Y-107551777D01*
X66133598Y-107568253D01*
X66113893Y-107582867D01*
X66092849Y-107595480D01*
X66070671Y-107605970D01*
X66047571Y-107614235D01*
X66023773Y-107620196D01*
X65999504Y-107623796D01*
X65975000Y-107625000D01*
X65050000Y-107625000D01*
X65025496Y-107623796D01*
X65001227Y-107620196D01*
X64977429Y-107614235D01*
X64954329Y-107605970D01*
X64932151Y-107595480D01*
X64911107Y-107582867D01*
X64891402Y-107568253D01*
X64873223Y-107551777D01*
X64856747Y-107533598D01*
X64842133Y-107513893D01*
X64829520Y-107492849D01*
X64819030Y-107470671D01*
X64810765Y-107447571D01*
X64804804Y-107423773D01*
X64801204Y-107399504D01*
X64800000Y-107375000D01*
X64800000Y-106125000D01*
X64801204Y-106100496D01*
X64804804Y-106076227D01*
X64810765Y-106052429D01*
X64819030Y-106029329D01*
X64829520Y-106007151D01*
X64842133Y-105986107D01*
X64856747Y-105966402D01*
X64873223Y-105948223D01*
X64891402Y-105931747D01*
X64911107Y-105917133D01*
X64932151Y-105904520D01*
X64954329Y-105894030D01*
X64977429Y-105885765D01*
X65001227Y-105879804D01*
X65025496Y-105876204D01*
X65050000Y-105875000D01*
X65975000Y-105875000D01*
X65999504Y-105876204D01*
X65999504Y-105876204D01*
G37*
D16*
X65512500Y-106750000D03*
D15*
G36*
X54249504Y-83376204D02*
G01*
X54273773Y-83379804D01*
X54297571Y-83385765D01*
X54320671Y-83394030D01*
X54342849Y-83404520D01*
X54363893Y-83417133D01*
X54383598Y-83431747D01*
X54401777Y-83448223D01*
X54418253Y-83466402D01*
X54432867Y-83486107D01*
X54445480Y-83507151D01*
X54455970Y-83529329D01*
X54464235Y-83552429D01*
X54470196Y-83576227D01*
X54473796Y-83600496D01*
X54475000Y-83625000D01*
X54475000Y-84875000D01*
X54473796Y-84899504D01*
X54470196Y-84923773D01*
X54464235Y-84947571D01*
X54455970Y-84970671D01*
X54445480Y-84992849D01*
X54432867Y-85013893D01*
X54418253Y-85033598D01*
X54401777Y-85051777D01*
X54383598Y-85068253D01*
X54363893Y-85082867D01*
X54342849Y-85095480D01*
X54320671Y-85105970D01*
X54297571Y-85114235D01*
X54273773Y-85120196D01*
X54249504Y-85123796D01*
X54225000Y-85125000D01*
X53300000Y-85125000D01*
X53275496Y-85123796D01*
X53251227Y-85120196D01*
X53227429Y-85114235D01*
X53204329Y-85105970D01*
X53182151Y-85095480D01*
X53161107Y-85082867D01*
X53141402Y-85068253D01*
X53123223Y-85051777D01*
X53106747Y-85033598D01*
X53092133Y-85013893D01*
X53079520Y-84992849D01*
X53069030Y-84970671D01*
X53060765Y-84947571D01*
X53054804Y-84923773D01*
X53051204Y-84899504D01*
X53050000Y-84875000D01*
X53050000Y-83625000D01*
X53051204Y-83600496D01*
X53054804Y-83576227D01*
X53060765Y-83552429D01*
X53069030Y-83529329D01*
X53079520Y-83507151D01*
X53092133Y-83486107D01*
X53106747Y-83466402D01*
X53123223Y-83448223D01*
X53141402Y-83431747D01*
X53161107Y-83417133D01*
X53182151Y-83404520D01*
X53204329Y-83394030D01*
X53227429Y-83385765D01*
X53251227Y-83379804D01*
X53275496Y-83376204D01*
X53300000Y-83375000D01*
X54225000Y-83375000D01*
X54249504Y-83376204D01*
X54249504Y-83376204D01*
G37*
D16*
X53762500Y-84250000D03*
D15*
G36*
X57224504Y-83376204D02*
G01*
X57248773Y-83379804D01*
X57272571Y-83385765D01*
X57295671Y-83394030D01*
X57317849Y-83404520D01*
X57338893Y-83417133D01*
X57358598Y-83431747D01*
X57376777Y-83448223D01*
X57393253Y-83466402D01*
X57407867Y-83486107D01*
X57420480Y-83507151D01*
X57430970Y-83529329D01*
X57439235Y-83552429D01*
X57445196Y-83576227D01*
X57448796Y-83600496D01*
X57450000Y-83625000D01*
X57450000Y-84875000D01*
X57448796Y-84899504D01*
X57445196Y-84923773D01*
X57439235Y-84947571D01*
X57430970Y-84970671D01*
X57420480Y-84992849D01*
X57407867Y-85013893D01*
X57393253Y-85033598D01*
X57376777Y-85051777D01*
X57358598Y-85068253D01*
X57338893Y-85082867D01*
X57317849Y-85095480D01*
X57295671Y-85105970D01*
X57272571Y-85114235D01*
X57248773Y-85120196D01*
X57224504Y-85123796D01*
X57200000Y-85125000D01*
X56275000Y-85125000D01*
X56250496Y-85123796D01*
X56226227Y-85120196D01*
X56202429Y-85114235D01*
X56179329Y-85105970D01*
X56157151Y-85095480D01*
X56136107Y-85082867D01*
X56116402Y-85068253D01*
X56098223Y-85051777D01*
X56081747Y-85033598D01*
X56067133Y-85013893D01*
X56054520Y-84992849D01*
X56044030Y-84970671D01*
X56035765Y-84947571D01*
X56029804Y-84923773D01*
X56026204Y-84899504D01*
X56025000Y-84875000D01*
X56025000Y-83625000D01*
X56026204Y-83600496D01*
X56029804Y-83576227D01*
X56035765Y-83552429D01*
X56044030Y-83529329D01*
X56054520Y-83507151D01*
X56067133Y-83486107D01*
X56081747Y-83466402D01*
X56098223Y-83448223D01*
X56116402Y-83431747D01*
X56136107Y-83417133D01*
X56157151Y-83404520D01*
X56179329Y-83394030D01*
X56202429Y-83385765D01*
X56226227Y-83379804D01*
X56250496Y-83376204D01*
X56275000Y-83375000D01*
X57200000Y-83375000D01*
X57224504Y-83376204D01*
X57224504Y-83376204D01*
G37*
D16*
X56737500Y-84250000D03*
D24*
X54579000Y-51525001D03*
X54579000Y-52174999D03*
X54579000Y-52825001D03*
X54579000Y-53474999D03*
X60421000Y-53474999D03*
X60421000Y-52825001D03*
X60421000Y-52174999D03*
X60421000Y-51525001D03*
D25*
X53624999Y-76549999D03*
X53624999Y-77500000D03*
X53624999Y-78449998D03*
X56374999Y-78449998D03*
X56374999Y-77500000D03*
X56374999Y-76549999D03*
D26*
X138750000Y-64500000D03*
X50750000Y-40550000D03*
X63250000Y-51500000D03*
X63750000Y-53000000D03*
X69750000Y-68750000D03*
X66250000Y-65500000D03*
X146000000Y-86000000D03*
X65000000Y-89000000D03*
X58500000Y-86500000D03*
X51750000Y-79500000D03*
X74250000Y-89500000D03*
X74250000Y-72750000D03*
X102250000Y-107500000D03*
X102750000Y-67000000D03*
X97500000Y-73000000D03*
X87000000Y-108500000D03*
X99000000Y-74250000D03*
X102000000Y-78750000D03*
D27*
X142750000Y-61902900D02*
X142750000Y-61153600D01*
D28*
X140152900Y-64500000D02*
X142750000Y-61902900D01*
X138750000Y-64500000D02*
X140152900Y-64500000D01*
X49250000Y-42050000D02*
X50750000Y-40550000D01*
X49250000Y-42912500D02*
X49250000Y-42050000D01*
D29*
X62575001Y-52174999D02*
X60421000Y-52174999D01*
X63250000Y-51500000D02*
X62575001Y-52174999D01*
X60421000Y-52825001D02*
X63575001Y-52825001D01*
D27*
X63575001Y-52825001D02*
X63750000Y-53000000D01*
D28*
X69750000Y-71012500D02*
X69750000Y-70200000D01*
X69750000Y-70200000D02*
X69750000Y-68750000D01*
X64987500Y-65500000D02*
X63737500Y-66750000D01*
X66250000Y-65500000D02*
X64987500Y-65500000D01*
D27*
X143250000Y-88750000D02*
X143250000Y-89346400D01*
D28*
X146000000Y-86000000D02*
X143250000Y-88750000D01*
D27*
X63250000Y-87250000D02*
X63250000Y-86737500D01*
X65000000Y-89000000D02*
X63250000Y-87250000D01*
X56737500Y-84250000D02*
X58500000Y-86012500D01*
X58500000Y-86012500D02*
X58500000Y-86500000D01*
D28*
X52874999Y-77500000D02*
X53624999Y-77500000D01*
X52149999Y-78225000D02*
X52874999Y-77500000D01*
X52149999Y-79100001D02*
X52149999Y-78225000D01*
X51750000Y-79500000D02*
X52149999Y-79100001D01*
D27*
X60421000Y-52174999D02*
X60421000Y-52825001D01*
X123136317Y-49000000D02*
X124610000Y-49000000D01*
X122070000Y-49000000D02*
X123136317Y-49000000D01*
X124610000Y-49000000D02*
X127150000Y-49000000D01*
X142750000Y-54083804D02*
X142750000Y-54346400D01*
X141912886Y-53246690D02*
X142750000Y-54083804D01*
X131396690Y-53246690D02*
X141912886Y-53246690D01*
X127150000Y-49000000D02*
X131396690Y-53246690D01*
X142750000Y-54346400D02*
X142750000Y-53597100D01*
X114737500Y-68750000D02*
X144000000Y-68750000D01*
X156630001Y-60539999D02*
X157480000Y-59690000D01*
X156304999Y-60865001D02*
X156630001Y-60539999D01*
X151884999Y-60865001D02*
X156304999Y-60865001D01*
X144000000Y-68750000D02*
X151884999Y-60865001D01*
X114750000Y-73750000D02*
X140000000Y-73750000D01*
X156630001Y-63079999D02*
X157480000Y-62230000D01*
X156115001Y-63594999D02*
X156630001Y-63079999D01*
X150155001Y-63594999D02*
X156115001Y-63594999D01*
X140000000Y-73750000D02*
X150155001Y-63594999D01*
X156630001Y-65619999D02*
X157480000Y-64770000D01*
X156304999Y-65945001D02*
X156630001Y-65619999D01*
X148441409Y-65945001D02*
X156304999Y-65945001D01*
X135636410Y-78750000D02*
X148441409Y-65945001D01*
X114750000Y-78750000D02*
X135636410Y-78750000D01*
D28*
X154940000Y-97790000D02*
X157480000Y-97790000D01*
D27*
X74250000Y-72750000D02*
X74250000Y-56487500D01*
X77000000Y-91750000D02*
X100410000Y-112960000D01*
X74250000Y-89500000D02*
X77000000Y-91750000D01*
D28*
X159170000Y-100330000D02*
X157480000Y-100330000D01*
X159500000Y-98000000D02*
X159500000Y-100000000D01*
X157480000Y-97790000D02*
X159290000Y-97790000D01*
D27*
X159290000Y-97790000D02*
X159500000Y-98000000D01*
D28*
X159500000Y-100000000D02*
X159500000Y-101750000D01*
X159500000Y-101750000D02*
X158750000Y-102500000D01*
X153500000Y-102500000D02*
X152500000Y-101500000D01*
D27*
X146680000Y-101500000D02*
X144930000Y-103250000D01*
X152500000Y-101500000D02*
X146680000Y-101500000D01*
D28*
X157500000Y-101552081D02*
X157500000Y-102500000D01*
D27*
X157480000Y-101532081D02*
X157500000Y-101552081D01*
D28*
X157480000Y-100330000D02*
X157480000Y-101532081D01*
X158750000Y-102500000D02*
X157500000Y-102500000D01*
X157500000Y-102500000D02*
X153500000Y-102500000D01*
D27*
X42000000Y-67500000D02*
X37750000Y-63250000D01*
X42000000Y-73250000D02*
X42000000Y-67500000D01*
X52874999Y-76549999D02*
X49500000Y-79924998D01*
X53624999Y-76549999D02*
X52874999Y-76549999D01*
X49500000Y-90737500D02*
X65512500Y-106750000D01*
X49500000Y-79924998D02*
X49500000Y-90737500D01*
X60750000Y-66737500D02*
X60762500Y-66750000D01*
X60750000Y-61737500D02*
X60750000Y-66737500D01*
X60750000Y-61737500D02*
X54500000Y-61737500D01*
D28*
X37750000Y-77500000D02*
X42000000Y-73250000D01*
D30*
X154940000Y-95250000D02*
X157480000Y-95250000D01*
D27*
X56374999Y-77500000D02*
X56374999Y-76549999D01*
X67187501Y-76549999D02*
X69750000Y-73987500D01*
D28*
X56374999Y-76549999D02*
X67187501Y-76549999D01*
D27*
X42790000Y-52250000D02*
X44183000Y-52250000D01*
X42865001Y-52174999D02*
X42790000Y-52250000D01*
X54579000Y-52174999D02*
X42865001Y-52174999D01*
X55112400Y-51525001D02*
X54579000Y-51525001D01*
X59237500Y-47399901D02*
X55112400Y-51525001D01*
X59237500Y-43750000D02*
X59237500Y-47399901D01*
X53262501Y-53474999D02*
X50737500Y-56000000D01*
X54579000Y-53474999D02*
X53262501Y-53474999D01*
X54579000Y-58683500D02*
X54500000Y-58762500D01*
X54579000Y-53474999D02*
X54579000Y-58683500D01*
X57937498Y-78449998D02*
X63250000Y-83762500D01*
X56374999Y-78449998D02*
X57937498Y-78449998D01*
X36648390Y-53311610D02*
X37710000Y-52250000D01*
X36648390Y-54219586D02*
X36648390Y-53311610D01*
X37750000Y-55321196D02*
X36648390Y-54219586D01*
X37750000Y-59750000D02*
X37750000Y-55321196D01*
X36300000Y-59750000D02*
X35250000Y-60800000D01*
X37750000Y-59750000D02*
X36300000Y-59750000D01*
X37750000Y-72550000D02*
X37750000Y-74000000D01*
X35250000Y-70050000D02*
X37750000Y-72550000D01*
X35250000Y-60800000D02*
X35250000Y-70050000D01*
X61382200Y-53474999D02*
X61907201Y-54000000D01*
X60421000Y-53474999D02*
X61382200Y-53474999D01*
X73275000Y-53512500D02*
X74250000Y-53512500D01*
X72787500Y-54000000D02*
X73275000Y-53512500D01*
X61907201Y-54000000D02*
X72787500Y-54000000D01*
X75225000Y-53512500D02*
X104212500Y-82500000D01*
X74250000Y-53512500D02*
X75225000Y-53512500D01*
X156630001Y-89320001D02*
X157480000Y-90170000D01*
X156304999Y-88994999D02*
X156630001Y-89320001D01*
X150068001Y-88994999D02*
X156304999Y-88994999D01*
X143573002Y-82500000D02*
X150068001Y-88994999D01*
X104212500Y-82500000D02*
X143573002Y-82500000D01*
X100410000Y-115500000D02*
X102250000Y-113660000D01*
X102250000Y-113660000D02*
X102250000Y-107500000D01*
X102750000Y-67000000D02*
X103500000Y-66250000D01*
X143300000Y-66250000D02*
X154940000Y-54610000D01*
X103500000Y-66250000D02*
X143300000Y-66250000D01*
X111762500Y-68750000D02*
X110950000Y-68750000D01*
X110950000Y-68750000D02*
X101750000Y-68750000D01*
X101750000Y-68750000D02*
X97500000Y-73000000D01*
X87000000Y-109710000D02*
X87000000Y-108500000D01*
X90250000Y-112960000D02*
X87000000Y-109710000D01*
X110962500Y-73750000D02*
X110462500Y-74250000D01*
X111775000Y-73750000D02*
X110962500Y-73750000D01*
X110462500Y-74250000D02*
X99000000Y-74250000D01*
X111775000Y-78750000D02*
X102000000Y-78750000D01*
X68487500Y-106750000D02*
X70250000Y-106750000D01*
X70250000Y-106750000D02*
X81750000Y-118250000D01*
X92580000Y-118250000D02*
X95330000Y-115500000D01*
X81750000Y-118250000D02*
X92580000Y-118250000D01*
X53624999Y-84112499D02*
X53762500Y-84250000D01*
X53624999Y-78449998D02*
X53624999Y-84112499D01*
X94466401Y-112096401D02*
X95330000Y-112960000D01*
X81370000Y-99000000D02*
X94466401Y-112096401D01*
X68512500Y-99000000D02*
X81370000Y-99000000D01*
X53762500Y-84250000D02*
X68512500Y-99000000D01*
X60750000Y-57950000D02*
X60750000Y-58762500D01*
X55625001Y-52825001D02*
X60750000Y-57950000D01*
X54579000Y-52825001D02*
X55625001Y-52825001D01*
D31*
G36*
X39623000Y-60873000D02*
G01*
X39587772Y-60873000D01*
X39585000Y-60162750D01*
X39426250Y-60004000D01*
X38004000Y-60004000D01*
X38004000Y-60024000D01*
X37496000Y-60024000D01*
X37496000Y-60004000D01*
X36073750Y-60004000D01*
X35915000Y-60162750D01*
X35912228Y-60873000D01*
X35625000Y-60873000D01*
X35600224Y-60875440D01*
X35576399Y-60882667D01*
X35554443Y-60894403D01*
X35535197Y-60910197D01*
X35519403Y-60929443D01*
X35507667Y-60951399D01*
X35500440Y-60975224D01*
X35498044Y-61003341D01*
X35623044Y-65753341D01*
X35626135Y-65778045D01*
X35633986Y-65801671D01*
X35646296Y-65823311D01*
X35662591Y-65842134D01*
X35682245Y-65857416D01*
X35704503Y-65868571D01*
X35728509Y-65875168D01*
X35750000Y-65877000D01*
X37623000Y-65877000D01*
X37623000Y-72000000D01*
X37625440Y-72024776D01*
X37632667Y-72048601D01*
X37644403Y-72070557D01*
X37660197Y-72089803D01*
X37679443Y-72105597D01*
X37701399Y-72117333D01*
X37725224Y-72124560D01*
X37750000Y-72127000D01*
X39373000Y-72127000D01*
X39373000Y-72325684D01*
X39304494Y-72269463D01*
X39194180Y-72210498D01*
X39074482Y-72174188D01*
X38950000Y-72161928D01*
X38162750Y-72165000D01*
X38004000Y-72323750D01*
X38004000Y-73746000D01*
X38024000Y-73746000D01*
X38024000Y-74254000D01*
X38004000Y-74254000D01*
X38004000Y-74274000D01*
X37496000Y-74274000D01*
X37496000Y-74254000D01*
X36073750Y-74254000D01*
X35915000Y-74412750D01*
X35912421Y-75073595D01*
X33625364Y-74883007D01*
X33596026Y-72800000D01*
X35911928Y-72800000D01*
X35915000Y-73587250D01*
X36073750Y-73746000D01*
X37496000Y-73746000D01*
X37496000Y-72323750D01*
X37337250Y-72165000D01*
X36550000Y-72161928D01*
X36425518Y-72174188D01*
X36305820Y-72210498D01*
X36195506Y-72269463D01*
X36098815Y-72348815D01*
X36019463Y-72445506D01*
X35960498Y-72555820D01*
X35924188Y-72675518D01*
X35911928Y-72800000D01*
X33596026Y-72800000D01*
X33395323Y-58550000D01*
X35911928Y-58550000D01*
X35915000Y-59337250D01*
X36073750Y-59496000D01*
X37496000Y-59496000D01*
X37496000Y-58073750D01*
X38004000Y-58073750D01*
X38004000Y-59496000D01*
X39426250Y-59496000D01*
X39585000Y-59337250D01*
X39588072Y-58550000D01*
X39575812Y-58425518D01*
X39539502Y-58305820D01*
X39480537Y-58195506D01*
X39401185Y-58098815D01*
X39304494Y-58019463D01*
X39194180Y-57960498D01*
X39074482Y-57924188D01*
X38950000Y-57911928D01*
X38162750Y-57915000D01*
X38004000Y-58073750D01*
X37496000Y-58073750D01*
X37337250Y-57915000D01*
X36550000Y-57911928D01*
X36425518Y-57924188D01*
X36305820Y-57960498D01*
X36195506Y-58019463D01*
X36098815Y-58098815D01*
X36019463Y-58195506D01*
X35960498Y-58305820D01*
X35924188Y-58425518D01*
X35911928Y-58550000D01*
X33395323Y-58550000D01*
X33376987Y-57248211D01*
X33372427Y-57216227D01*
X31416778Y-50127000D01*
X39623000Y-50127000D01*
X39623000Y-60873000D01*
X39623000Y-60873000D01*
G37*
X39623000Y-60873000D02*
X39587772Y-60873000D01*
X39585000Y-60162750D01*
X39426250Y-60004000D01*
X38004000Y-60004000D01*
X38004000Y-60024000D01*
X37496000Y-60024000D01*
X37496000Y-60004000D01*
X36073750Y-60004000D01*
X35915000Y-60162750D01*
X35912228Y-60873000D01*
X35625000Y-60873000D01*
X35600224Y-60875440D01*
X35576399Y-60882667D01*
X35554443Y-60894403D01*
X35535197Y-60910197D01*
X35519403Y-60929443D01*
X35507667Y-60951399D01*
X35500440Y-60975224D01*
X35498044Y-61003341D01*
X35623044Y-65753341D01*
X35626135Y-65778045D01*
X35633986Y-65801671D01*
X35646296Y-65823311D01*
X35662591Y-65842134D01*
X35682245Y-65857416D01*
X35704503Y-65868571D01*
X35728509Y-65875168D01*
X35750000Y-65877000D01*
X37623000Y-65877000D01*
X37623000Y-72000000D01*
X37625440Y-72024776D01*
X37632667Y-72048601D01*
X37644403Y-72070557D01*
X37660197Y-72089803D01*
X37679443Y-72105597D01*
X37701399Y-72117333D01*
X37725224Y-72124560D01*
X37750000Y-72127000D01*
X39373000Y-72127000D01*
X39373000Y-72325684D01*
X39304494Y-72269463D01*
X39194180Y-72210498D01*
X39074482Y-72174188D01*
X38950000Y-72161928D01*
X38162750Y-72165000D01*
X38004000Y-72323750D01*
X38004000Y-73746000D01*
X38024000Y-73746000D01*
X38024000Y-74254000D01*
X38004000Y-74254000D01*
X38004000Y-74274000D01*
X37496000Y-74274000D01*
X37496000Y-74254000D01*
X36073750Y-74254000D01*
X35915000Y-74412750D01*
X35912421Y-75073595D01*
X33625364Y-74883007D01*
X33596026Y-72800000D01*
X35911928Y-72800000D01*
X35915000Y-73587250D01*
X36073750Y-73746000D01*
X37496000Y-73746000D01*
X37496000Y-72323750D01*
X37337250Y-72165000D01*
X36550000Y-72161928D01*
X36425518Y-72174188D01*
X36305820Y-72210498D01*
X36195506Y-72269463D01*
X36098815Y-72348815D01*
X36019463Y-72445506D01*
X35960498Y-72555820D01*
X35924188Y-72675518D01*
X35911928Y-72800000D01*
X33596026Y-72800000D01*
X33395323Y-58550000D01*
X35911928Y-58550000D01*
X35915000Y-59337250D01*
X36073750Y-59496000D01*
X37496000Y-59496000D01*
X37496000Y-58073750D01*
X38004000Y-58073750D01*
X38004000Y-59496000D01*
X39426250Y-59496000D01*
X39585000Y-59337250D01*
X39588072Y-58550000D01*
X39575812Y-58425518D01*
X39539502Y-58305820D01*
X39480537Y-58195506D01*
X39401185Y-58098815D01*
X39304494Y-58019463D01*
X39194180Y-57960498D01*
X39074482Y-57924188D01*
X38950000Y-57911928D01*
X38162750Y-57915000D01*
X38004000Y-58073750D01*
X37496000Y-58073750D01*
X37337250Y-57915000D01*
X36550000Y-57911928D01*
X36425518Y-57924188D01*
X36305820Y-57960498D01*
X36195506Y-58019463D01*
X36098815Y-58098815D01*
X36019463Y-58195506D01*
X35960498Y-58305820D01*
X35924188Y-58425518D01*
X35911928Y-58550000D01*
X33395323Y-58550000D01*
X33376987Y-57248211D01*
X33372427Y-57216227D01*
X31416778Y-50127000D01*
X39623000Y-50127000D01*
X39623000Y-60873000D01*
G36*
X61870302Y-60625447D02*
G01*
X61625414Y-72135210D01*
X54486932Y-72873674D01*
X54462538Y-72878651D01*
X54439584Y-72888291D01*
X54418951Y-72902224D01*
X54401434Y-72919915D01*
X54387704Y-72940683D01*
X54378289Y-72963731D01*
X54373000Y-73000000D01*
X54373000Y-76612541D01*
X54369179Y-76610499D01*
X54249481Y-76574189D01*
X54124999Y-76561929D01*
X53124999Y-76561929D01*
X53000517Y-76574189D01*
X52880819Y-76610499D01*
X52879566Y-76611169D01*
X52874999Y-76610719D01*
X52831530Y-76615000D01*
X52831522Y-76615000D01*
X52750296Y-76623000D01*
X52250000Y-76623000D01*
X52216584Y-76627475D01*
X41232992Y-79623000D01*
X33627000Y-79623000D01*
X33627000Y-78857557D01*
X36751653Y-78857557D01*
X36882017Y-79126806D01*
X37216069Y-79264882D01*
X37570640Y-79335135D01*
X37932103Y-79334865D01*
X38286569Y-79264082D01*
X38617983Y-79126806D01*
X38748347Y-78857557D01*
X37750000Y-77859210D01*
X36751653Y-78857557D01*
X33627000Y-78857557D01*
X33627000Y-77320640D01*
X35914865Y-77320640D01*
X35915135Y-77682103D01*
X35985918Y-78036569D01*
X36123194Y-78367983D01*
X36392443Y-78498347D01*
X37390790Y-77500000D01*
X36392443Y-76501653D01*
X36123194Y-76632017D01*
X35985118Y-76966069D01*
X35914865Y-77320640D01*
X33627000Y-77320640D01*
X33627000Y-75886755D01*
X36762979Y-76119050D01*
X36751653Y-76142443D01*
X37750000Y-77140790D01*
X37764143Y-77126648D01*
X38123353Y-77485858D01*
X38109210Y-77500000D01*
X39107557Y-78498347D01*
X39376806Y-78367983D01*
X39514882Y-78033931D01*
X39585135Y-77679360D01*
X39584865Y-77317897D01*
X39514082Y-76963431D01*
X39376806Y-76632017D01*
X39107559Y-76501654D01*
X39232991Y-76376222D01*
X39152846Y-76296077D01*
X40240618Y-76376653D01*
X40265507Y-76376050D01*
X40289800Y-76370602D01*
X40312564Y-76360520D01*
X40332923Y-76346191D01*
X40350096Y-76328165D01*
X40363422Y-76307136D01*
X40372389Y-76283910D01*
X40377000Y-76250000D01*
X40377000Y-71250000D01*
X40374560Y-71225224D01*
X40367333Y-71201399D01*
X40355597Y-71179443D01*
X40339803Y-71160197D01*
X40320557Y-71144403D01*
X40298601Y-71132667D01*
X40274776Y-71125440D01*
X40250000Y-71123000D01*
X38627000Y-71123000D01*
X38627000Y-65000000D01*
X38624560Y-64975224D01*
X38617333Y-64951399D01*
X38605597Y-64929443D01*
X38589803Y-64910197D01*
X38572215Y-64895764D01*
X38617983Y-64876806D01*
X38748347Y-64607557D01*
X37750000Y-63609210D01*
X36751653Y-64607557D01*
X36880174Y-64873000D01*
X36377000Y-64873000D01*
X36377000Y-64240870D01*
X36392443Y-64248347D01*
X37390790Y-63250000D01*
X38109210Y-63250000D01*
X39107557Y-64248347D01*
X39376806Y-64117983D01*
X39514882Y-63783931D01*
X39585135Y-63429360D01*
X39584865Y-63067897D01*
X39514082Y-62713431D01*
X39376806Y-62382017D01*
X39107557Y-62251653D01*
X38109210Y-63250000D01*
X37390790Y-63250000D01*
X36392443Y-62251653D01*
X36377000Y-62259130D01*
X36377000Y-61877000D01*
X36759130Y-61877000D01*
X36751653Y-61892443D01*
X37750000Y-62890790D01*
X38748347Y-61892443D01*
X38740870Y-61877000D01*
X40000000Y-61877000D01*
X40024776Y-61874560D01*
X40048601Y-61867333D01*
X40070557Y-61855597D01*
X40097564Y-61831303D01*
X41308884Y-60377719D01*
X61870302Y-60625447D01*
X61870302Y-60625447D01*
G37*
X61870302Y-60625447D02*
X61625414Y-72135210D01*
X54486932Y-72873674D01*
X54462538Y-72878651D01*
X54439584Y-72888291D01*
X54418951Y-72902224D01*
X54401434Y-72919915D01*
X54387704Y-72940683D01*
X54378289Y-72963731D01*
X54373000Y-73000000D01*
X54373000Y-76612541D01*
X54369179Y-76610499D01*
X54249481Y-76574189D01*
X54124999Y-76561929D01*
X53124999Y-76561929D01*
X53000517Y-76574189D01*
X52880819Y-76610499D01*
X52879566Y-76611169D01*
X52874999Y-76610719D01*
X52831530Y-76615000D01*
X52831522Y-76615000D01*
X52750296Y-76623000D01*
X52250000Y-76623000D01*
X52216584Y-76627475D01*
X41232992Y-79623000D01*
X33627000Y-79623000D01*
X33627000Y-78857557D01*
X36751653Y-78857557D01*
X36882017Y-79126806D01*
X37216069Y-79264882D01*
X37570640Y-79335135D01*
X37932103Y-79334865D01*
X38286569Y-79264082D01*
X38617983Y-79126806D01*
X38748347Y-78857557D01*
X37750000Y-77859210D01*
X36751653Y-78857557D01*
X33627000Y-78857557D01*
X33627000Y-77320640D01*
X35914865Y-77320640D01*
X35915135Y-77682103D01*
X35985918Y-78036569D01*
X36123194Y-78367983D01*
X36392443Y-78498347D01*
X37390790Y-77500000D01*
X36392443Y-76501653D01*
X36123194Y-76632017D01*
X35985118Y-76966069D01*
X35914865Y-77320640D01*
X33627000Y-77320640D01*
X33627000Y-75886755D01*
X36762979Y-76119050D01*
X36751653Y-76142443D01*
X37750000Y-77140790D01*
X37764143Y-77126648D01*
X38123353Y-77485858D01*
X38109210Y-77500000D01*
X39107557Y-78498347D01*
X39376806Y-78367983D01*
X39514882Y-78033931D01*
X39585135Y-77679360D01*
X39584865Y-77317897D01*
X39514082Y-76963431D01*
X39376806Y-76632017D01*
X39107559Y-76501654D01*
X39232991Y-76376222D01*
X39152846Y-76296077D01*
X40240618Y-76376653D01*
X40265507Y-76376050D01*
X40289800Y-76370602D01*
X40312564Y-76360520D01*
X40332923Y-76346191D01*
X40350096Y-76328165D01*
X40363422Y-76307136D01*
X40372389Y-76283910D01*
X40377000Y-76250000D01*
X40377000Y-71250000D01*
X40374560Y-71225224D01*
X40367333Y-71201399D01*
X40355597Y-71179443D01*
X40339803Y-71160197D01*
X40320557Y-71144403D01*
X40298601Y-71132667D01*
X40274776Y-71125440D01*
X40250000Y-71123000D01*
X38627000Y-71123000D01*
X38627000Y-65000000D01*
X38624560Y-64975224D01*
X38617333Y-64951399D01*
X38605597Y-64929443D01*
X38589803Y-64910197D01*
X38572215Y-64895764D01*
X38617983Y-64876806D01*
X38748347Y-64607557D01*
X37750000Y-63609210D01*
X36751653Y-64607557D01*
X36880174Y-64873000D01*
X36377000Y-64873000D01*
X36377000Y-64240870D01*
X36392443Y-64248347D01*
X37390790Y-63250000D01*
X38109210Y-63250000D01*
X39107557Y-64248347D01*
X39376806Y-64117983D01*
X39514882Y-63783931D01*
X39585135Y-63429360D01*
X39584865Y-63067897D01*
X39514082Y-62713431D01*
X39376806Y-62382017D01*
X39107557Y-62251653D01*
X38109210Y-63250000D01*
X37390790Y-63250000D01*
X36392443Y-62251653D01*
X36377000Y-62259130D01*
X36377000Y-61877000D01*
X36759130Y-61877000D01*
X36751653Y-61892443D01*
X37750000Y-62890790D01*
X38748347Y-61892443D01*
X38740870Y-61877000D01*
X40000000Y-61877000D01*
X40024776Y-61874560D01*
X40048601Y-61867333D01*
X40070557Y-61855597D01*
X40097564Y-61831303D01*
X41308884Y-60377719D01*
X61870302Y-60625447D01*
G36*
X127343748Y-48985858D02*
G01*
X127329605Y-49000000D01*
X127343748Y-49014143D01*
X127164143Y-49193748D01*
X127150000Y-49179605D01*
X126369754Y-49959851D01*
X126435765Y-50199127D01*
X126683426Y-50315426D01*
X126949018Y-50381174D01*
X127222334Y-50393845D01*
X127492870Y-50352951D01*
X127750229Y-50260063D01*
X127864235Y-50199127D01*
X127930245Y-49959853D01*
X128046685Y-50076293D01*
X128123000Y-49999978D01*
X128123000Y-50000000D01*
X128125440Y-50024776D01*
X128132667Y-50048601D01*
X128148400Y-50076200D01*
X128898400Y-51076200D01*
X128915218Y-51094557D01*
X128935294Y-51109280D01*
X128957857Y-51119804D01*
X128982039Y-51125724D01*
X129000000Y-51127000D01*
X150250000Y-51127000D01*
X150274776Y-51124560D01*
X150298601Y-51117333D01*
X150320447Y-51105670D01*
X152538452Y-49627000D01*
X159373000Y-49627000D01*
X159373000Y-53373000D01*
X158313530Y-53373000D01*
X158309014Y-53369294D01*
X158244477Y-53334799D01*
X158361355Y-53265178D01*
X158577588Y-53070269D01*
X158751641Y-52836920D01*
X158876825Y-52574099D01*
X158921476Y-52426890D01*
X158800155Y-52197000D01*
X157607000Y-52197000D01*
X157607000Y-52217000D01*
X157353000Y-52217000D01*
X157353000Y-52197000D01*
X157333000Y-52197000D01*
X157333000Y-51943000D01*
X157353000Y-51943000D01*
X157353000Y-50749186D01*
X157607000Y-50749186D01*
X157607000Y-51943000D01*
X158800155Y-51943000D01*
X158921476Y-51713110D01*
X158876825Y-51565901D01*
X158751641Y-51303080D01*
X158577588Y-51069731D01*
X158361355Y-50874822D01*
X158111252Y-50725843D01*
X157836891Y-50628519D01*
X157607000Y-50749186D01*
X157353000Y-50749186D01*
X157123109Y-50628519D01*
X156848748Y-50725843D01*
X156598645Y-50874822D01*
X156402498Y-51051626D01*
X156379502Y-50975820D01*
X156320537Y-50865506D01*
X156241185Y-50768815D01*
X156144494Y-50689463D01*
X156034180Y-50630498D01*
X155914482Y-50594188D01*
X155790000Y-50581928D01*
X154090000Y-50581928D01*
X153965518Y-50594188D01*
X153845820Y-50630498D01*
X153735506Y-50689463D01*
X153638815Y-50768815D01*
X153559463Y-50865506D01*
X153500498Y-50975820D01*
X153464188Y-51095518D01*
X153451928Y-51220000D01*
X153451928Y-52920000D01*
X153464188Y-53044482D01*
X153500498Y-53164180D01*
X153559463Y-53274494D01*
X153638815Y-53371185D01*
X153641027Y-53373000D01*
X153000000Y-53373000D01*
X152975224Y-53375440D01*
X152951399Y-53382667D01*
X152924512Y-53397870D01*
X147209230Y-57622209D01*
X120877000Y-57125374D01*
X120877000Y-49959851D01*
X121289754Y-49959851D01*
X121355765Y-50199127D01*
X121603426Y-50315426D01*
X121869018Y-50381174D01*
X122142334Y-50393845D01*
X122412870Y-50352951D01*
X122670229Y-50260063D01*
X122784235Y-50199127D01*
X122850246Y-49959851D01*
X123829754Y-49959851D01*
X123895765Y-50199127D01*
X124143426Y-50315426D01*
X124409018Y-50381174D01*
X124682334Y-50393845D01*
X124952870Y-50352951D01*
X125210229Y-50260063D01*
X125324235Y-50199127D01*
X125390246Y-49959851D01*
X124610000Y-49179605D01*
X123829754Y-49959851D01*
X122850246Y-49959851D01*
X122070000Y-49179605D01*
X121289754Y-49959851D01*
X120877000Y-49959851D01*
X120877000Y-49715925D01*
X121110149Y-49780246D01*
X121890395Y-49000000D01*
X121876253Y-48985858D01*
X122055858Y-48806253D01*
X122070000Y-48820395D01*
X122084143Y-48806253D01*
X122263748Y-48985858D01*
X122249605Y-49000000D01*
X123029851Y-49780246D01*
X123269127Y-49714235D01*
X123338084Y-49567389D01*
X123349937Y-49600229D01*
X123410873Y-49714235D01*
X123650149Y-49780246D01*
X124430395Y-49000000D01*
X124416253Y-48985858D01*
X124595858Y-48806253D01*
X124610000Y-48820395D01*
X124624143Y-48806253D01*
X124803748Y-48985858D01*
X124789605Y-49000000D01*
X125569851Y-49780246D01*
X125809127Y-49714235D01*
X125878084Y-49567389D01*
X125889937Y-49600229D01*
X125950873Y-49714235D01*
X126190149Y-49780246D01*
X126970395Y-49000000D01*
X126956253Y-48985858D01*
X127135858Y-48806253D01*
X127150000Y-48820395D01*
X127164143Y-48806253D01*
X127343748Y-48985858D01*
X127343748Y-48985858D01*
G37*
X127343748Y-48985858D02*
X127329605Y-49000000D01*
X127343748Y-49014143D01*
X127164143Y-49193748D01*
X127150000Y-49179605D01*
X126369754Y-49959851D01*
X126435765Y-50199127D01*
X126683426Y-50315426D01*
X126949018Y-50381174D01*
X127222334Y-50393845D01*
X127492870Y-50352951D01*
X127750229Y-50260063D01*
X127864235Y-50199127D01*
X127930245Y-49959853D01*
X128046685Y-50076293D01*
X128123000Y-49999978D01*
X128123000Y-50000000D01*
X128125440Y-50024776D01*
X128132667Y-50048601D01*
X128148400Y-50076200D01*
X128898400Y-51076200D01*
X128915218Y-51094557D01*
X128935294Y-51109280D01*
X128957857Y-51119804D01*
X128982039Y-51125724D01*
X129000000Y-51127000D01*
X150250000Y-51127000D01*
X150274776Y-51124560D01*
X150298601Y-51117333D01*
X150320447Y-51105670D01*
X152538452Y-49627000D01*
X159373000Y-49627000D01*
X159373000Y-53373000D01*
X158313530Y-53373000D01*
X158309014Y-53369294D01*
X158244477Y-53334799D01*
X158361355Y-53265178D01*
X158577588Y-53070269D01*
X158751641Y-52836920D01*
X158876825Y-52574099D01*
X158921476Y-52426890D01*
X158800155Y-52197000D01*
X157607000Y-52197000D01*
X157607000Y-52217000D01*
X157353000Y-52217000D01*
X157353000Y-52197000D01*
X157333000Y-52197000D01*
X157333000Y-51943000D01*
X157353000Y-51943000D01*
X157353000Y-50749186D01*
X157607000Y-50749186D01*
X157607000Y-51943000D01*
X158800155Y-51943000D01*
X158921476Y-51713110D01*
X158876825Y-51565901D01*
X158751641Y-51303080D01*
X158577588Y-51069731D01*
X158361355Y-50874822D01*
X158111252Y-50725843D01*
X157836891Y-50628519D01*
X157607000Y-50749186D01*
X157353000Y-50749186D01*
X157123109Y-50628519D01*
X156848748Y-50725843D01*
X156598645Y-50874822D01*
X156402498Y-51051626D01*
X156379502Y-50975820D01*
X156320537Y-50865506D01*
X156241185Y-50768815D01*
X156144494Y-50689463D01*
X156034180Y-50630498D01*
X155914482Y-50594188D01*
X155790000Y-50581928D01*
X154090000Y-50581928D01*
X153965518Y-50594188D01*
X153845820Y-50630498D01*
X153735506Y-50689463D01*
X153638815Y-50768815D01*
X153559463Y-50865506D01*
X153500498Y-50975820D01*
X153464188Y-51095518D01*
X153451928Y-51220000D01*
X153451928Y-52920000D01*
X153464188Y-53044482D01*
X153500498Y-53164180D01*
X153559463Y-53274494D01*
X153638815Y-53371185D01*
X153641027Y-53373000D01*
X153000000Y-53373000D01*
X152975224Y-53375440D01*
X152951399Y-53382667D01*
X152924512Y-53397870D01*
X147209230Y-57622209D01*
X120877000Y-57125374D01*
X120877000Y-49959851D01*
X121289754Y-49959851D01*
X121355765Y-50199127D01*
X121603426Y-50315426D01*
X121869018Y-50381174D01*
X122142334Y-50393845D01*
X122412870Y-50352951D01*
X122670229Y-50260063D01*
X122784235Y-50199127D01*
X122850246Y-49959851D01*
X123829754Y-49959851D01*
X123895765Y-50199127D01*
X124143426Y-50315426D01*
X124409018Y-50381174D01*
X124682334Y-50393845D01*
X124952870Y-50352951D01*
X125210229Y-50260063D01*
X125324235Y-50199127D01*
X125390246Y-49959851D01*
X124610000Y-49179605D01*
X123829754Y-49959851D01*
X122850246Y-49959851D01*
X122070000Y-49179605D01*
X121289754Y-49959851D01*
X120877000Y-49959851D01*
X120877000Y-49715925D01*
X121110149Y-49780246D01*
X121890395Y-49000000D01*
X121876253Y-48985858D01*
X122055858Y-48806253D01*
X122070000Y-48820395D01*
X122084143Y-48806253D01*
X122263748Y-48985858D01*
X122249605Y-49000000D01*
X123029851Y-49780246D01*
X123269127Y-49714235D01*
X123338084Y-49567389D01*
X123349937Y-49600229D01*
X123410873Y-49714235D01*
X123650149Y-49780246D01*
X124430395Y-49000000D01*
X124416253Y-48985858D01*
X124595858Y-48806253D01*
X124610000Y-48820395D01*
X124624143Y-48806253D01*
X124803748Y-48985858D01*
X124789605Y-49000000D01*
X125569851Y-49780246D01*
X125809127Y-49714235D01*
X125878084Y-49567389D01*
X125889937Y-49600229D01*
X125950873Y-49714235D01*
X126190149Y-49780246D01*
X126970395Y-49000000D01*
X126956253Y-48985858D01*
X127135858Y-48806253D01*
X127150000Y-48820395D01*
X127164143Y-48806253D01*
X127343748Y-48985858D01*
G36*
X153641586Y-97079289D02*
G01*
X153543175Y-97285901D01*
X153498524Y-97433110D01*
X153619845Y-97663000D01*
X154813000Y-97663000D01*
X154813000Y-97643000D01*
X155067000Y-97643000D01*
X155067000Y-97663000D01*
X157353000Y-97663000D01*
X157353000Y-97643000D01*
X157607000Y-97643000D01*
X157607000Y-97663000D01*
X157627000Y-97663000D01*
X157627000Y-97917000D01*
X157607000Y-97917000D01*
X157607000Y-100203000D01*
X157627000Y-100203000D01*
X157627000Y-100457000D01*
X157607000Y-100457000D01*
X157607000Y-100477000D01*
X157353000Y-100477000D01*
X157353000Y-100457000D01*
X157333000Y-100457000D01*
X157333000Y-100203000D01*
X157353000Y-100203000D01*
X157353000Y-97917000D01*
X155067000Y-97917000D01*
X155067000Y-97937000D01*
X154813000Y-97937000D01*
X154813000Y-97917000D01*
X153619845Y-97917000D01*
X153498524Y-98146890D01*
X153543175Y-98294099D01*
X153668359Y-98556920D01*
X153842412Y-98790269D01*
X154058645Y-98985178D01*
X154175523Y-99054799D01*
X154110986Y-99089294D01*
X153884866Y-99274866D01*
X153699294Y-99500986D01*
X153561401Y-99758966D01*
X153476487Y-100038889D01*
X153447815Y-100330000D01*
X153476487Y-100621111D01*
X153561401Y-100901034D01*
X153699294Y-101159014D01*
X153884866Y-101385134D01*
X154110986Y-101570706D01*
X154208821Y-101623000D01*
X146000000Y-101623000D01*
X145975224Y-101625440D01*
X145951399Y-101632667D01*
X145929443Y-101644403D01*
X145910197Y-101660197D01*
X145894403Y-101679443D01*
X145882667Y-101701399D01*
X145875440Y-101725224D01*
X145873000Y-101750000D01*
X145873000Y-102220022D01*
X145826685Y-102173707D01*
X145710245Y-102290147D01*
X145644235Y-102050873D01*
X145396574Y-101934574D01*
X145130982Y-101868826D01*
X144857666Y-101856155D01*
X144587130Y-101897049D01*
X144329771Y-101989937D01*
X144215765Y-102050873D01*
X144149754Y-102290149D01*
X144930000Y-103070395D01*
X144944143Y-103056253D01*
X145123748Y-103235858D01*
X145109605Y-103250000D01*
X145123748Y-103264143D01*
X144944143Y-103443748D01*
X144930000Y-103429605D01*
X144915858Y-103443748D01*
X144736253Y-103264143D01*
X144750395Y-103250000D01*
X143970149Y-102469754D01*
X143730873Y-102535765D01*
X143661916Y-102682611D01*
X143650063Y-102649771D01*
X143589127Y-102535765D01*
X143349851Y-102469754D01*
X142569605Y-103250000D01*
X142583748Y-103264143D01*
X142404143Y-103443748D01*
X142390000Y-103429605D01*
X142375858Y-103443748D01*
X142196253Y-103264143D01*
X142210395Y-103250000D01*
X141430149Y-102469754D01*
X141190873Y-102535765D01*
X141121916Y-102682611D01*
X141110063Y-102649771D01*
X141049127Y-102535765D01*
X140809851Y-102469754D01*
X140029605Y-103250000D01*
X140043748Y-103264143D01*
X139864143Y-103443748D01*
X139850000Y-103429605D01*
X139835858Y-103443748D01*
X139656253Y-103264143D01*
X139670395Y-103250000D01*
X138890149Y-102469754D01*
X138650873Y-102535765D01*
X138627000Y-102586603D01*
X138627000Y-102290149D01*
X139069754Y-102290149D01*
X139850000Y-103070395D01*
X140630246Y-102290149D01*
X141609754Y-102290149D01*
X142390000Y-103070395D01*
X143170246Y-102290149D01*
X143104235Y-102050873D01*
X142856574Y-101934574D01*
X142590982Y-101868826D01*
X142317666Y-101856155D01*
X142047130Y-101897049D01*
X141789771Y-101989937D01*
X141675765Y-102050873D01*
X141609754Y-102290149D01*
X140630246Y-102290149D01*
X140564235Y-102050873D01*
X140316574Y-101934574D01*
X140050982Y-101868826D01*
X139777666Y-101856155D01*
X139507130Y-101897049D01*
X139249771Y-101989937D01*
X139135765Y-102050873D01*
X139069754Y-102290149D01*
X138627000Y-102290149D01*
X138627000Y-93127000D01*
X147960171Y-93127000D01*
X153641586Y-97079289D01*
X153641586Y-97079289D01*
G37*
X153641586Y-97079289D02*
X153543175Y-97285901D01*
X153498524Y-97433110D01*
X153619845Y-97663000D01*
X154813000Y-97663000D01*
X154813000Y-97643000D01*
X155067000Y-97643000D01*
X155067000Y-97663000D01*
X157353000Y-97663000D01*
X157353000Y-97643000D01*
X157607000Y-97643000D01*
X157607000Y-97663000D01*
X157627000Y-97663000D01*
X157627000Y-97917000D01*
X157607000Y-97917000D01*
X157607000Y-100203000D01*
X157627000Y-100203000D01*
X157627000Y-100457000D01*
X157607000Y-100457000D01*
X157607000Y-100477000D01*
X157353000Y-100477000D01*
X157353000Y-100457000D01*
X157333000Y-100457000D01*
X157333000Y-100203000D01*
X157353000Y-100203000D01*
X157353000Y-97917000D01*
X155067000Y-97917000D01*
X155067000Y-97937000D01*
X154813000Y-97937000D01*
X154813000Y-97917000D01*
X153619845Y-97917000D01*
X153498524Y-98146890D01*
X153543175Y-98294099D01*
X153668359Y-98556920D01*
X153842412Y-98790269D01*
X154058645Y-98985178D01*
X154175523Y-99054799D01*
X154110986Y-99089294D01*
X153884866Y-99274866D01*
X153699294Y-99500986D01*
X153561401Y-99758966D01*
X153476487Y-100038889D01*
X153447815Y-100330000D01*
X153476487Y-100621111D01*
X153561401Y-100901034D01*
X153699294Y-101159014D01*
X153884866Y-101385134D01*
X154110986Y-101570706D01*
X154208821Y-101623000D01*
X146000000Y-101623000D01*
X145975224Y-101625440D01*
X145951399Y-101632667D01*
X145929443Y-101644403D01*
X145910197Y-101660197D01*
X145894403Y-101679443D01*
X145882667Y-101701399D01*
X145875440Y-101725224D01*
X145873000Y-101750000D01*
X145873000Y-102220022D01*
X145826685Y-102173707D01*
X145710245Y-102290147D01*
X145644235Y-102050873D01*
X145396574Y-101934574D01*
X145130982Y-101868826D01*
X144857666Y-101856155D01*
X144587130Y-101897049D01*
X144329771Y-101989937D01*
X144215765Y-102050873D01*
X144149754Y-102290149D01*
X144930000Y-103070395D01*
X144944143Y-103056253D01*
X145123748Y-103235858D01*
X145109605Y-103250000D01*
X145123748Y-103264143D01*
X144944143Y-103443748D01*
X144930000Y-103429605D01*
X144915858Y-103443748D01*
X144736253Y-103264143D01*
X144750395Y-103250000D01*
X143970149Y-102469754D01*
X143730873Y-102535765D01*
X143661916Y-102682611D01*
X143650063Y-102649771D01*
X143589127Y-102535765D01*
X143349851Y-102469754D01*
X142569605Y-103250000D01*
X142583748Y-103264143D01*
X142404143Y-103443748D01*
X142390000Y-103429605D01*
X142375858Y-103443748D01*
X142196253Y-103264143D01*
X142210395Y-103250000D01*
X141430149Y-102469754D01*
X141190873Y-102535765D01*
X141121916Y-102682611D01*
X141110063Y-102649771D01*
X141049127Y-102535765D01*
X140809851Y-102469754D01*
X140029605Y-103250000D01*
X140043748Y-103264143D01*
X139864143Y-103443748D01*
X139850000Y-103429605D01*
X139835858Y-103443748D01*
X139656253Y-103264143D01*
X139670395Y-103250000D01*
X138890149Y-102469754D01*
X138650873Y-102535765D01*
X138627000Y-102586603D01*
X138627000Y-102290149D01*
X139069754Y-102290149D01*
X139850000Y-103070395D01*
X140630246Y-102290149D01*
X141609754Y-102290149D01*
X142390000Y-103070395D01*
X143170246Y-102290149D01*
X143104235Y-102050873D01*
X142856574Y-101934574D01*
X142590982Y-101868826D01*
X142317666Y-101856155D01*
X142047130Y-101897049D01*
X141789771Y-101989937D01*
X141675765Y-102050873D01*
X141609754Y-102290149D01*
X140630246Y-102290149D01*
X140564235Y-102050873D01*
X140316574Y-101934574D01*
X140050982Y-101868826D01*
X139777666Y-101856155D01*
X139507130Y-101897049D01*
X139249771Y-101989937D01*
X139135765Y-102050873D01*
X139069754Y-102290149D01*
X138627000Y-102290149D01*
X138627000Y-93127000D01*
X147960171Y-93127000D01*
X153641586Y-97079289D01*
G36*
X57373000Y-45234892D02*
G01*
X56432866Y-49129734D01*
X54853471Y-50709129D01*
X53867800Y-50709129D01*
X53743318Y-50721389D01*
X53623620Y-50757699D01*
X53513306Y-50816664D01*
X53416615Y-50896016D01*
X53337263Y-50992707D01*
X53278298Y-51103021D01*
X53241988Y-51222719D01*
X53229728Y-51347201D01*
X53229728Y-51702801D01*
X53241988Y-51827283D01*
X53278298Y-51946981D01*
X53337263Y-52057295D01*
X53416615Y-52153986D01*
X53442222Y-52175001D01*
X53416615Y-52196016D01*
X53337263Y-52292707D01*
X53278298Y-52403021D01*
X53241988Y-52522719D01*
X53229728Y-52647201D01*
X53229728Y-52714551D01*
X53225176Y-52714999D01*
X53225168Y-52714999D01*
X53113515Y-52725996D01*
X52970254Y-52769453D01*
X52838225Y-52840025D01*
X52722500Y-52934998D01*
X52698702Y-52963996D01*
X51918246Y-53744452D01*
X49456983Y-54630507D01*
X49434497Y-54641196D01*
X49414529Y-54656065D01*
X49397846Y-54674545D01*
X49385088Y-54695924D01*
X49375049Y-54727282D01*
X48894009Y-57373000D01*
X43063500Y-57373000D01*
X40877000Y-54457667D01*
X40877000Y-50067968D01*
X47538452Y-45627000D01*
X51000000Y-45627000D01*
X51024776Y-45624560D01*
X51048601Y-45617333D01*
X51073239Y-45603755D01*
X55290309Y-42627000D01*
X57373000Y-42627000D01*
X57373000Y-45234892D01*
X57373000Y-45234892D01*
G37*
X57373000Y-45234892D02*
X56432866Y-49129734D01*
X54853471Y-50709129D01*
X53867800Y-50709129D01*
X53743318Y-50721389D01*
X53623620Y-50757699D01*
X53513306Y-50816664D01*
X53416615Y-50896016D01*
X53337263Y-50992707D01*
X53278298Y-51103021D01*
X53241988Y-51222719D01*
X53229728Y-51347201D01*
X53229728Y-51702801D01*
X53241988Y-51827283D01*
X53278298Y-51946981D01*
X53337263Y-52057295D01*
X53416615Y-52153986D01*
X53442222Y-52175001D01*
X53416615Y-52196016D01*
X53337263Y-52292707D01*
X53278298Y-52403021D01*
X53241988Y-52522719D01*
X53229728Y-52647201D01*
X53229728Y-52714551D01*
X53225176Y-52714999D01*
X53225168Y-52714999D01*
X53113515Y-52725996D01*
X52970254Y-52769453D01*
X52838225Y-52840025D01*
X52722500Y-52934998D01*
X52698702Y-52963996D01*
X51918246Y-53744452D01*
X49456983Y-54630507D01*
X49434497Y-54641196D01*
X49414529Y-54656065D01*
X49397846Y-54674545D01*
X49385088Y-54695924D01*
X49375049Y-54727282D01*
X48894009Y-57373000D01*
X43063500Y-57373000D01*
X40877000Y-54457667D01*
X40877000Y-50067968D01*
X47538452Y-45627000D01*
X51000000Y-45627000D01*
X51024776Y-45624560D01*
X51048601Y-45617333D01*
X51073239Y-45603755D01*
X55290309Y-42627000D01*
X57373000Y-42627000D01*
X57373000Y-45234892D01*
G36*
X163873000Y-37875773D02*
G01*
X163873000Y-115123000D01*
X117786089Y-115123000D01*
X97362553Y-102496000D01*
X118137928Y-102496000D01*
X118137928Y-104004000D01*
X118150188Y-104128482D01*
X118186498Y-104248180D01*
X118245463Y-104358494D01*
X118324815Y-104455185D01*
X118421506Y-104534537D01*
X118531820Y-104593502D01*
X118651518Y-104629812D01*
X118776000Y-104642072D01*
X120284000Y-104642072D01*
X120408482Y-104629812D01*
X120528180Y-104593502D01*
X120638494Y-104534537D01*
X120735185Y-104455185D01*
X120814537Y-104358494D01*
X120873502Y-104248180D01*
X120885128Y-104209851D01*
X121289754Y-104209851D01*
X121355765Y-104449127D01*
X121603426Y-104565426D01*
X121869018Y-104631174D01*
X122142334Y-104643845D01*
X122412870Y-104602951D01*
X122670229Y-104510063D01*
X122784235Y-104449127D01*
X122850246Y-104209851D01*
X123829754Y-104209851D01*
X123895765Y-104449127D01*
X124143426Y-104565426D01*
X124409018Y-104631174D01*
X124682334Y-104643845D01*
X124952870Y-104602951D01*
X125210229Y-104510063D01*
X125324235Y-104449127D01*
X125390246Y-104209851D01*
X124610000Y-103429605D01*
X123829754Y-104209851D01*
X122850246Y-104209851D01*
X122070000Y-103429605D01*
X121289754Y-104209851D01*
X120885128Y-104209851D01*
X120909812Y-104128482D01*
X120922072Y-104004000D01*
X120922072Y-103978360D01*
X121110149Y-104030246D01*
X121890395Y-103250000D01*
X122249605Y-103250000D01*
X123029851Y-104030246D01*
X123269127Y-103964235D01*
X123338084Y-103817389D01*
X123349937Y-103850229D01*
X123410873Y-103964235D01*
X123650149Y-104030246D01*
X124430395Y-103250000D01*
X124789605Y-103250000D01*
X125569851Y-104030246D01*
X125809127Y-103964235D01*
X125878084Y-103817389D01*
X125889937Y-103850229D01*
X125950873Y-103964235D01*
X126190149Y-104030246D01*
X126970395Y-103250000D01*
X126190149Y-102469754D01*
X125950873Y-102535765D01*
X125881916Y-102682611D01*
X125870063Y-102649771D01*
X125809127Y-102535765D01*
X125569851Y-102469754D01*
X124789605Y-103250000D01*
X124430395Y-103250000D01*
X123650149Y-102469754D01*
X123410873Y-102535765D01*
X123341916Y-102682611D01*
X123330063Y-102649771D01*
X123269127Y-102535765D01*
X123029851Y-102469754D01*
X122249605Y-103250000D01*
X121890395Y-103250000D01*
X121110149Y-102469754D01*
X120922072Y-102521640D01*
X120922072Y-102496000D01*
X120909812Y-102371518D01*
X120885129Y-102290149D01*
X121289754Y-102290149D01*
X122070000Y-103070395D01*
X122850246Y-102290149D01*
X123829754Y-102290149D01*
X124610000Y-103070395D01*
X125390246Y-102290149D01*
X125324235Y-102050873D01*
X125076574Y-101934574D01*
X124810982Y-101868826D01*
X124537666Y-101856155D01*
X124267130Y-101897049D01*
X124009771Y-101989937D01*
X123895765Y-102050873D01*
X123829754Y-102290149D01*
X122850246Y-102290149D01*
X122784235Y-102050873D01*
X122536574Y-101934574D01*
X122270982Y-101868826D01*
X121997666Y-101856155D01*
X121727130Y-101897049D01*
X121469771Y-101989937D01*
X121355765Y-102050873D01*
X121289754Y-102290149D01*
X120885129Y-102290149D01*
X120873502Y-102251820D01*
X120814537Y-102141506D01*
X120735185Y-102044815D01*
X120638494Y-101965463D01*
X120528180Y-101906498D01*
X120408482Y-101870188D01*
X120284000Y-101857928D01*
X118776000Y-101857928D01*
X118651518Y-101870188D01*
X118531820Y-101906498D01*
X118421506Y-101965463D01*
X118324815Y-102044815D01*
X118245463Y-102141506D01*
X118186498Y-102251820D01*
X118150188Y-102371518D01*
X118137928Y-102496000D01*
X97362553Y-102496000D01*
X59891635Y-79329333D01*
X58501302Y-77939001D01*
X58477499Y-77909997D01*
X58361774Y-77815024D01*
X58229745Y-77744452D01*
X58086484Y-77700995D01*
X57974831Y-77689998D01*
X57974820Y-77689998D01*
X57937498Y-77686322D01*
X57900176Y-77689998D01*
X57315442Y-77689998D01*
X57229493Y-77619462D01*
X57119179Y-77560497D01*
X56999481Y-77524187D01*
X56874999Y-77511927D01*
X55874999Y-77511927D01*
X55750517Y-77524187D01*
X55630819Y-77560497D01*
X55520505Y-77619462D01*
X55423814Y-77698814D01*
X55377000Y-77755857D01*
X55377000Y-76090432D01*
X61791543Y-73870013D01*
X61814158Y-73859603D01*
X61839803Y-73839803D01*
X63052606Y-72627000D01*
X70969203Y-72627000D01*
X128123000Y-102077428D01*
X128123000Y-102250022D01*
X128046685Y-102173707D01*
X127930245Y-102290147D01*
X127864235Y-102050873D01*
X127616574Y-101934574D01*
X127350982Y-101868826D01*
X127077666Y-101856155D01*
X126807130Y-101897049D01*
X126549771Y-101989937D01*
X126435765Y-102050873D01*
X126369754Y-102290149D01*
X127150000Y-103070395D01*
X127164143Y-103056253D01*
X127343748Y-103235858D01*
X127329605Y-103250000D01*
X127343748Y-103264143D01*
X127164143Y-103443748D01*
X127150000Y-103429605D01*
X126369754Y-104209851D01*
X126435765Y-104449127D01*
X126683426Y-104565426D01*
X126949018Y-104631174D01*
X127222334Y-104643845D01*
X127492870Y-104602951D01*
X127750229Y-104510063D01*
X127864235Y-104449127D01*
X127930245Y-104209853D01*
X128046685Y-104326293D01*
X128123000Y-104249978D01*
X128123000Y-105000000D01*
X128125440Y-105024776D01*
X128132667Y-105048601D01*
X128144403Y-105070557D01*
X128160197Y-105089803D01*
X128179443Y-105105597D01*
X128201399Y-105117333D01*
X128225224Y-105124560D01*
X128250000Y-105127000D01*
X160750000Y-105127000D01*
X160774776Y-105124560D01*
X160798601Y-105117333D01*
X160820557Y-105105597D01*
X160839803Y-105089803D01*
X160855597Y-105070557D01*
X160867333Y-105048601D01*
X160874560Y-105024776D01*
X160877000Y-105000000D01*
X160877000Y-96250000D01*
X160874560Y-96225224D01*
X160867333Y-96201399D01*
X160855597Y-96179443D01*
X160839803Y-96160197D01*
X160820557Y-96144403D01*
X160798601Y-96132667D01*
X160774776Y-96125440D01*
X160750000Y-96123000D01*
X158672517Y-96123000D01*
X158751641Y-96016920D01*
X158876825Y-95754099D01*
X158921476Y-95606890D01*
X158800155Y-95377000D01*
X157607000Y-95377000D01*
X157607000Y-95397000D01*
X157353000Y-95397000D01*
X157353000Y-95377000D01*
X155067000Y-95377000D01*
X155067000Y-95397000D01*
X154813000Y-95397000D01*
X154813000Y-95377000D01*
X154793000Y-95377000D01*
X154793000Y-95123000D01*
X154813000Y-95123000D01*
X154813000Y-95103000D01*
X155067000Y-95103000D01*
X155067000Y-95123000D01*
X157353000Y-95123000D01*
X157353000Y-95103000D01*
X157607000Y-95103000D01*
X157607000Y-95123000D01*
X158800155Y-95123000D01*
X158921476Y-94893110D01*
X158876825Y-94745901D01*
X158751641Y-94483080D01*
X158577588Y-94249731D01*
X158441430Y-94127000D01*
X160750000Y-94127000D01*
X160774776Y-94124560D01*
X160798601Y-94117333D01*
X160820557Y-94105597D01*
X160839803Y-94089803D01*
X160855597Y-94070557D01*
X160867333Y-94048601D01*
X160874560Y-94024776D01*
X160877000Y-94000000D01*
X160877000Y-48000000D01*
X160874560Y-47975224D01*
X160867333Y-47951399D01*
X160855597Y-47929443D01*
X160839803Y-47910197D01*
X160820557Y-47894403D01*
X160798601Y-47882667D01*
X160774776Y-47875440D01*
X160750000Y-47873000D01*
X148739350Y-47873000D01*
X148675185Y-47794815D01*
X148578494Y-47715463D01*
X148468180Y-47656498D01*
X148348482Y-47620188D01*
X148224000Y-47607928D01*
X146716000Y-47607928D01*
X146591518Y-47620188D01*
X146471820Y-47656498D01*
X146361506Y-47715463D01*
X146264815Y-47794815D01*
X146185932Y-47890934D01*
X146179443Y-47894403D01*
X146160197Y-47910197D01*
X146144403Y-47929443D01*
X146132667Y-47951399D01*
X146125440Y-47975224D01*
X146123000Y-48000000D01*
X146123000Y-48013351D01*
X146090188Y-48121518D01*
X146077928Y-48246000D01*
X146077928Y-48271640D01*
X145889851Y-48219754D01*
X145109605Y-49000000D01*
X145123748Y-49014143D01*
X144944143Y-49193748D01*
X144930000Y-49179605D01*
X144915858Y-49193748D01*
X144736253Y-49014143D01*
X144750395Y-49000000D01*
X143970149Y-48219754D01*
X143730873Y-48285765D01*
X143661916Y-48432611D01*
X143650063Y-48399771D01*
X143589127Y-48285765D01*
X143349851Y-48219754D01*
X142569605Y-49000000D01*
X142583748Y-49014143D01*
X142404143Y-49193748D01*
X142390000Y-49179605D01*
X142375858Y-49193748D01*
X142196253Y-49014143D01*
X142210395Y-49000000D01*
X141430149Y-48219754D01*
X141190873Y-48285765D01*
X141121916Y-48432611D01*
X141110063Y-48399771D01*
X141049127Y-48285765D01*
X140809851Y-48219754D01*
X140029605Y-49000000D01*
X140043748Y-49014143D01*
X139864143Y-49193748D01*
X139850000Y-49179605D01*
X139835858Y-49193748D01*
X139656253Y-49014143D01*
X139670395Y-49000000D01*
X138890149Y-48219754D01*
X138650873Y-48285765D01*
X138627000Y-48336603D01*
X138627000Y-48040149D01*
X139069754Y-48040149D01*
X139850000Y-48820395D01*
X140630246Y-48040149D01*
X141609754Y-48040149D01*
X142390000Y-48820395D01*
X143170246Y-48040149D01*
X144149754Y-48040149D01*
X144930000Y-48820395D01*
X145710246Y-48040149D01*
X145644235Y-47800873D01*
X145396574Y-47684574D01*
X145130982Y-47618826D01*
X144857666Y-47606155D01*
X144587130Y-47647049D01*
X144329771Y-47739937D01*
X144215765Y-47800873D01*
X144149754Y-48040149D01*
X143170246Y-48040149D01*
X143104235Y-47800873D01*
X142856574Y-47684574D01*
X142590982Y-47618826D01*
X142317666Y-47606155D01*
X142047130Y-47647049D01*
X141789771Y-47739937D01*
X141675765Y-47800873D01*
X141609754Y-48040149D01*
X140630246Y-48040149D01*
X140564235Y-47800873D01*
X140316574Y-47684574D01*
X140050982Y-47618826D01*
X139777666Y-47606155D01*
X139507130Y-47647049D01*
X139249771Y-47739937D01*
X139135765Y-47800873D01*
X139069754Y-48040149D01*
X138627000Y-48040149D01*
X138627000Y-47750000D01*
X138626962Y-47746903D01*
X138380166Y-37628270D01*
X163873000Y-37875773D01*
X163873000Y-37875773D01*
G37*
X163873000Y-37875773D02*
X163873000Y-115123000D01*
X117786089Y-115123000D01*
X97362553Y-102496000D01*
X118137928Y-102496000D01*
X118137928Y-104004000D01*
X118150188Y-104128482D01*
X118186498Y-104248180D01*
X118245463Y-104358494D01*
X118324815Y-104455185D01*
X118421506Y-104534537D01*
X118531820Y-104593502D01*
X118651518Y-104629812D01*
X118776000Y-104642072D01*
X120284000Y-104642072D01*
X120408482Y-104629812D01*
X120528180Y-104593502D01*
X120638494Y-104534537D01*
X120735185Y-104455185D01*
X120814537Y-104358494D01*
X120873502Y-104248180D01*
X120885128Y-104209851D01*
X121289754Y-104209851D01*
X121355765Y-104449127D01*
X121603426Y-104565426D01*
X121869018Y-104631174D01*
X122142334Y-104643845D01*
X122412870Y-104602951D01*
X122670229Y-104510063D01*
X122784235Y-104449127D01*
X122850246Y-104209851D01*
X123829754Y-104209851D01*
X123895765Y-104449127D01*
X124143426Y-104565426D01*
X124409018Y-104631174D01*
X124682334Y-104643845D01*
X124952870Y-104602951D01*
X125210229Y-104510063D01*
X125324235Y-104449127D01*
X125390246Y-104209851D01*
X124610000Y-103429605D01*
X123829754Y-104209851D01*
X122850246Y-104209851D01*
X122070000Y-103429605D01*
X121289754Y-104209851D01*
X120885128Y-104209851D01*
X120909812Y-104128482D01*
X120922072Y-104004000D01*
X120922072Y-103978360D01*
X121110149Y-104030246D01*
X121890395Y-103250000D01*
X122249605Y-103250000D01*
X123029851Y-104030246D01*
X123269127Y-103964235D01*
X123338084Y-103817389D01*
X123349937Y-103850229D01*
X123410873Y-103964235D01*
X123650149Y-104030246D01*
X124430395Y-103250000D01*
X124789605Y-103250000D01*
X125569851Y-104030246D01*
X125809127Y-103964235D01*
X125878084Y-103817389D01*
X125889937Y-103850229D01*
X125950873Y-103964235D01*
X126190149Y-104030246D01*
X126970395Y-103250000D01*
X126190149Y-102469754D01*
X125950873Y-102535765D01*
X125881916Y-102682611D01*
X125870063Y-102649771D01*
X125809127Y-102535765D01*
X125569851Y-102469754D01*
X124789605Y-103250000D01*
X124430395Y-103250000D01*
X123650149Y-102469754D01*
X123410873Y-102535765D01*
X123341916Y-102682611D01*
X123330063Y-102649771D01*
X123269127Y-102535765D01*
X123029851Y-102469754D01*
X122249605Y-103250000D01*
X121890395Y-103250000D01*
X121110149Y-102469754D01*
X120922072Y-102521640D01*
X120922072Y-102496000D01*
X120909812Y-102371518D01*
X120885129Y-102290149D01*
X121289754Y-102290149D01*
X122070000Y-103070395D01*
X122850246Y-102290149D01*
X123829754Y-102290149D01*
X124610000Y-103070395D01*
X125390246Y-102290149D01*
X125324235Y-102050873D01*
X125076574Y-101934574D01*
X124810982Y-101868826D01*
X124537666Y-101856155D01*
X124267130Y-101897049D01*
X124009771Y-101989937D01*
X123895765Y-102050873D01*
X123829754Y-102290149D01*
X122850246Y-102290149D01*
X122784235Y-102050873D01*
X122536574Y-101934574D01*
X122270982Y-101868826D01*
X121997666Y-101856155D01*
X121727130Y-101897049D01*
X121469771Y-101989937D01*
X121355765Y-102050873D01*
X121289754Y-102290149D01*
X120885129Y-102290149D01*
X120873502Y-102251820D01*
X120814537Y-102141506D01*
X120735185Y-102044815D01*
X120638494Y-101965463D01*
X120528180Y-101906498D01*
X120408482Y-101870188D01*
X120284000Y-101857928D01*
X118776000Y-101857928D01*
X118651518Y-101870188D01*
X118531820Y-101906498D01*
X118421506Y-101965463D01*
X118324815Y-102044815D01*
X118245463Y-102141506D01*
X118186498Y-102251820D01*
X118150188Y-102371518D01*
X118137928Y-102496000D01*
X97362553Y-102496000D01*
X59891635Y-79329333D01*
X58501302Y-77939001D01*
X58477499Y-77909997D01*
X58361774Y-77815024D01*
X58229745Y-77744452D01*
X58086484Y-77700995D01*
X57974831Y-77689998D01*
X57974820Y-77689998D01*
X57937498Y-77686322D01*
X57900176Y-77689998D01*
X57315442Y-77689998D01*
X57229493Y-77619462D01*
X57119179Y-77560497D01*
X56999481Y-77524187D01*
X56874999Y-77511927D01*
X55874999Y-77511927D01*
X55750517Y-77524187D01*
X55630819Y-77560497D01*
X55520505Y-77619462D01*
X55423814Y-77698814D01*
X55377000Y-77755857D01*
X55377000Y-76090432D01*
X61791543Y-73870013D01*
X61814158Y-73859603D01*
X61839803Y-73839803D01*
X63052606Y-72627000D01*
X70969203Y-72627000D01*
X128123000Y-102077428D01*
X128123000Y-102250022D01*
X128046685Y-102173707D01*
X127930245Y-102290147D01*
X127864235Y-102050873D01*
X127616574Y-101934574D01*
X127350982Y-101868826D01*
X127077666Y-101856155D01*
X126807130Y-101897049D01*
X126549771Y-101989937D01*
X126435765Y-102050873D01*
X126369754Y-102290149D01*
X127150000Y-103070395D01*
X127164143Y-103056253D01*
X127343748Y-103235858D01*
X127329605Y-103250000D01*
X127343748Y-103264143D01*
X127164143Y-103443748D01*
X127150000Y-103429605D01*
X126369754Y-104209851D01*
X126435765Y-104449127D01*
X126683426Y-104565426D01*
X126949018Y-104631174D01*
X127222334Y-104643845D01*
X127492870Y-104602951D01*
X127750229Y-104510063D01*
X127864235Y-104449127D01*
X127930245Y-104209853D01*
X128046685Y-104326293D01*
X128123000Y-104249978D01*
X128123000Y-105000000D01*
X128125440Y-105024776D01*
X128132667Y-105048601D01*
X128144403Y-105070557D01*
X128160197Y-105089803D01*
X128179443Y-105105597D01*
X128201399Y-105117333D01*
X128225224Y-105124560D01*
X128250000Y-105127000D01*
X160750000Y-105127000D01*
X160774776Y-105124560D01*
X160798601Y-105117333D01*
X160820557Y-105105597D01*
X160839803Y-105089803D01*
X160855597Y-105070557D01*
X160867333Y-105048601D01*
X160874560Y-105024776D01*
X160877000Y-105000000D01*
X160877000Y-96250000D01*
X160874560Y-96225224D01*
X160867333Y-96201399D01*
X160855597Y-96179443D01*
X160839803Y-96160197D01*
X160820557Y-96144403D01*
X160798601Y-96132667D01*
X160774776Y-96125440D01*
X160750000Y-96123000D01*
X158672517Y-96123000D01*
X158751641Y-96016920D01*
X158876825Y-95754099D01*
X158921476Y-95606890D01*
X158800155Y-95377000D01*
X157607000Y-95377000D01*
X157607000Y-95397000D01*
X157353000Y-95397000D01*
X157353000Y-95377000D01*
X155067000Y-95377000D01*
X155067000Y-95397000D01*
X154813000Y-95397000D01*
X154813000Y-95377000D01*
X154793000Y-95377000D01*
X154793000Y-95123000D01*
X154813000Y-95123000D01*
X154813000Y-95103000D01*
X155067000Y-95103000D01*
X155067000Y-95123000D01*
X157353000Y-95123000D01*
X157353000Y-95103000D01*
X157607000Y-95103000D01*
X157607000Y-95123000D01*
X158800155Y-95123000D01*
X158921476Y-94893110D01*
X158876825Y-94745901D01*
X158751641Y-94483080D01*
X158577588Y-94249731D01*
X158441430Y-94127000D01*
X160750000Y-94127000D01*
X160774776Y-94124560D01*
X160798601Y-94117333D01*
X160820557Y-94105597D01*
X160839803Y-94089803D01*
X160855597Y-94070557D01*
X160867333Y-94048601D01*
X160874560Y-94024776D01*
X160877000Y-94000000D01*
X160877000Y-48000000D01*
X160874560Y-47975224D01*
X160867333Y-47951399D01*
X160855597Y-47929443D01*
X160839803Y-47910197D01*
X160820557Y-47894403D01*
X160798601Y-47882667D01*
X160774776Y-47875440D01*
X160750000Y-47873000D01*
X148739350Y-47873000D01*
X148675185Y-47794815D01*
X148578494Y-47715463D01*
X148468180Y-47656498D01*
X148348482Y-47620188D01*
X148224000Y-47607928D01*
X146716000Y-47607928D01*
X146591518Y-47620188D01*
X146471820Y-47656498D01*
X146361506Y-47715463D01*
X146264815Y-47794815D01*
X146185932Y-47890934D01*
X146179443Y-47894403D01*
X146160197Y-47910197D01*
X146144403Y-47929443D01*
X146132667Y-47951399D01*
X146125440Y-47975224D01*
X146123000Y-48000000D01*
X146123000Y-48013351D01*
X146090188Y-48121518D01*
X146077928Y-48246000D01*
X146077928Y-48271640D01*
X145889851Y-48219754D01*
X145109605Y-49000000D01*
X145123748Y-49014143D01*
X144944143Y-49193748D01*
X144930000Y-49179605D01*
X144915858Y-49193748D01*
X144736253Y-49014143D01*
X144750395Y-49000000D01*
X143970149Y-48219754D01*
X143730873Y-48285765D01*
X143661916Y-48432611D01*
X143650063Y-48399771D01*
X143589127Y-48285765D01*
X143349851Y-48219754D01*
X142569605Y-49000000D01*
X142583748Y-49014143D01*
X142404143Y-49193748D01*
X142390000Y-49179605D01*
X142375858Y-49193748D01*
X142196253Y-49014143D01*
X142210395Y-49000000D01*
X141430149Y-48219754D01*
X141190873Y-48285765D01*
X141121916Y-48432611D01*
X141110063Y-48399771D01*
X141049127Y-48285765D01*
X140809851Y-48219754D01*
X140029605Y-49000000D01*
X140043748Y-49014143D01*
X139864143Y-49193748D01*
X139850000Y-49179605D01*
X139835858Y-49193748D01*
X139656253Y-49014143D01*
X139670395Y-49000000D01*
X138890149Y-48219754D01*
X138650873Y-48285765D01*
X138627000Y-48336603D01*
X138627000Y-48040149D01*
X139069754Y-48040149D01*
X139850000Y-48820395D01*
X140630246Y-48040149D01*
X141609754Y-48040149D01*
X142390000Y-48820395D01*
X143170246Y-48040149D01*
X144149754Y-48040149D01*
X144930000Y-48820395D01*
X145710246Y-48040149D01*
X145644235Y-47800873D01*
X145396574Y-47684574D01*
X145130982Y-47618826D01*
X144857666Y-47606155D01*
X144587130Y-47647049D01*
X144329771Y-47739937D01*
X144215765Y-47800873D01*
X144149754Y-48040149D01*
X143170246Y-48040149D01*
X143104235Y-47800873D01*
X142856574Y-47684574D01*
X142590982Y-47618826D01*
X142317666Y-47606155D01*
X142047130Y-47647049D01*
X141789771Y-47739937D01*
X141675765Y-47800873D01*
X141609754Y-48040149D01*
X140630246Y-48040149D01*
X140564235Y-47800873D01*
X140316574Y-47684574D01*
X140050982Y-47618826D01*
X139777666Y-47606155D01*
X139507130Y-47647049D01*
X139249771Y-47739937D01*
X139135765Y-47800873D01*
X139069754Y-48040149D01*
X138627000Y-48040149D01*
X138627000Y-47750000D01*
X138626962Y-47746903D01*
X138380166Y-37628270D01*
X163873000Y-37875773D01*
M02*
